<svg viewBox="0 0 241 134" xmlns="http://www.w3.org/2000/svg"><g fill="none" transform="translate(.655598 .239431)"><path d="m17.1462363 131.816499-.4694819-.113449c5.2347983-24.976685 18.3902877-47.657699 37.0430459-63.8652005 28.6687705-24.871623 67.2625217-32.1309553 102.1074837-19.2060145 34.844961 12.9249407 61.018772 44.2083174 69.248047 82.766426l-.469013.114455c-11.081255-52.2011142-53.72331-88.6591051-103.698032-88.6591051-49.3198429 0-92.9580817 37.4142201-103.7620497 88.9628881z" fill="#19a0ff"/><path d="m181.995076 112.828043h1v20.394188h-1z" fill="#3f3d56"/><path d="m187.236915 115.427058c.032623 7.131339-4.94721 12.93568-4.94721 12.93568s-5.032723-5.757847-5.065346-12.889186 4.94721-12.93568 4.94721-12.93568 5.032723 5.757837 5.065346 12.889186z" fill="#19a0ff"/><path d="m187.236915 115.427058c.032623 7.131339-4.94721 12.93568-4.94721 12.93568s-5.032723-5.757847-5.065346-12.889186 4.94721-12.93568 4.94721-12.93568 5.032723 5.757837 5.065346 12.889186z" fill="#000" opacity=".1"/><ellipse cx="95.066048" cy="64.213813" fill="#19a0ff" opacity=".4" rx="8.006579" ry="8.066779"/><ellipse cx="80.2479" cy="68.066603" fill="#19a0ff" opacity=".4" rx="5.616556" ry="5.658786"/><ellipse cx="20.034377" cy="84.330322" fill="#19a0ff" opacity=".4" rx="5.616556" ry="5.658786"/><ellipse cx="186.101352" cy="63.550186" fill="#19a0ff" opacity=".4" rx="8.006579" ry="8.066779"/><path d="m128.605047 130.954553c.434037 1.616521 1.920709 2.617684 1.920709 2.617684s.78296-1.619748.348923-3.236268c-.434037-1.616521-1.920706-2.617685-1.920706-2.617685s-.78296 1.619745-.348926 3.236269z" fill="#3f3d56"/><path d="m129.242834 130.607144c1.191 1.16811 1.336484 2.963766 1.336484 2.963766s-1.785523-.098225-2.976526-1.266334c-1.191003-1.16811-1.336484-2.963764-1.336484-2.963764s1.785523.098223 2.976526 1.266332z" fill="#19a0ff"/><path d="m76.9767987 118.803375-1.0600142-1.779974 9.8939786-8.54439h25.4418789v2.491963l-9.187302 9.968628-10.6009114 2.135968z" fill="#8ccfff"/><path d="m115.632087 113.493142v-5.570195h-3.330961v1.756481l-1.048484-1.200417-8.480626 8.54439-1.413609 1.42398-1.7666901 7.120411 3.1802991 7.832143h16.25432v-16.020539z" fill="#ccc"/><path d="m75.916785 117.023327h26.855175v16.376662h-26.855175z" fill="#f2f2f2"/><path d="m93.407985 122.185535h5.653722v4.984203h-5.653722z" fill="#8ccfff"/><path d="m86.164155 122.007527h4.947007v11.39246h-4.947007z" fill="#ccc"/><path d="m80.5104357 123.78756v-1.779974h-2.1200284v1.779974h1.9432313z" fill="#8ccfff"/><path d="m80.3336386 125.211539h-1.9432313v1.780232h2.1200284v-1.780232z" fill="#8ccfff"/><path d="m81.923862 122.007527h2.120146v1.780072h-2.120146z" fill="#8ccfff"/><path d="m81.923862 125.211658h2.120146v1.780072h-2.120146z" fill="#8ccfff"/><path d="m110.369169 123.965686v-1.780231h-2.120285v1.780231h1.943488z" fill="#19a0ff"/><path d="m110.192372 125.389665h-1.943488v1.779974h2.120285v-1.779974z" fill="#19a0ff"/><path d="m111.782578 122.185535h2.120146v1.780072h-2.120146z" fill="#19a0ff"/><path d="m111.782578 125.389665h2.120146v1.780072h-2.120146z" fill="#19a0ff"/><path d="m29.1590621 88.8982669-1.7666904-1.4242372 9.8939786-8.9003852h25.0882847v7.8324009l-16.2543203 11.0366119z" fill="#8ccfff"/><path d="m66.948813 83.5663483v-4.8148355h-3.3309609v1.1792488l-1.2432171-1.3571171-8.1272882 8.9003852-3.1800427 2.1362267-4.9311032 36.2972666 7.4364982 7.492412h17.2825623v-45.5699105z" fill="#ccc"/><path d="m27.392262 87.47413h26.855175v45.925859h-26.855175z" fill="#f2f2f2"/><path d="m37.816309 122.185535h4.947007v11.214454h-4.947007z" fill="#ccc"/><path d="m32.5159019 125.389665v-1.779973h-2.1200284v1.779973h1.9434875z" fill="#8ccfff"/><path d="m32.339361 126.813645h-1.9434875v1.780231h2.1200284v-1.780231z" fill="#8ccfff"/><path d="m33.929375 123.609594h2.120146v1.780072h-2.120146z" fill="#8ccfff"/><path d="m33.929375 126.813722h2.120146v1.780072h-2.120146z" fill="#8ccfff"/><path d="m47.0035318 125.389665v-1.779973h-2.1200284v1.779973h1.9434875z" fill="#8ccfff"/><path d="m46.8269909 126.813645h-1.9434875v1.780231h2.1200284v-1.780231z" fill="#8ccfff"/><path d="m48.417035 123.609594h2.120146v1.780072h-2.120146z" fill="#8ccfff"/><path d="m48.417035 126.813722h2.120146v1.780072h-2.120146z" fill="#8ccfff"/><g fill="#19a0ff"><path d="m61.8444998 89.7881247v-1.7799738h-2.1200285v1.7799738h1.9434876z"/><path d="m61.6679589 91.2123619h-1.9434876v1.7799737h2.1200285v-1.7799737z"/><path d="m63.258055 88.008154h2.120146v1.780072h-2.120146z"/><path d="m63.258055 91.212282h2.120146v1.780072h-2.120146z"/><path d="m61.8444998 99.7567523v-1.7802319h-2.1200285v1.7802319h1.9434876z"/><path d="m61.6679589 101.180731h-1.9434876v1.779974h2.1200285v-1.779974z"/><path d="m63.258055 97.976557h2.120146v1.780072h-2.120146z"/><path d="m63.258055 101.180685h2.120146v1.780072h-2.120146z"/><path d="m61.8444998 109.725122v-1.780232h-2.1200285v1.780232h1.9434876z"/><path d="m61.6679589 111.149101h-1.9434876v1.779974h2.1200285v-1.779974z"/><path d="m63.258055 107.94496h2.120146v1.780072h-2.120146z"/><path d="m63.258055 111.149088h2.120146v1.780072h-2.120146z"/><path d="m61.8444998 119.693491v-1.780232h-2.1200285v1.780232h1.9434876z"/><path d="m61.6679589 121.11747h-1.9434876v1.779974h2.1200285v-1.779974z"/><path d="m63.258055 117.913363h2.120146v1.780072h-2.120146z"/><path d="m63.258055 121.117491h2.120146v1.780072h-2.120146z"/></g><path d="m30.395799 89.788225h20.494739v4.272172h-20.494739z" fill="#8ccfff"/><path d="m30.395799 98.332569h20.494739v4.272172h-20.494739z" fill="#8ccfff"/><path d="m30.395799 106.876916h20.494739v4.272172h-20.494739z" fill="#8ccfff"/><path d="m30.395799 115.421262h20.494739v4.272172h-20.494739z" fill="#8ccfff"/><path d="m132.418849 88.8982669-1.766691-1.4242372 9.893979-8.9003852h25.088285v7.8324009l-16.254321 11.0366119z" fill="#8ccfff"/><path d="m170.208599 83.5663483v-4.8148355h-3.33096v1.1792488l-1.243217-1.3571171-8.127289 8.9003852-3.180042 2.1362267-4.931104 36.2972666 7.436499 7.492412h17.282562v-45.5699105z" fill="#ccc"/><path d="m130.652048 87.47413h26.855175v45.925859h-26.855175z" fill="#f2f2f2"/><path d="m141.076095 122.185535h4.947007v11.214454h-4.947007z" fill="#ccc"/><path d="m135.775688 125.389665v-1.779973h-2.120028v1.779973h1.943487z" fill="#8ccfff"/><path d="m135.599147 126.813645h-1.943487v1.780231h2.120028v-1.780231z" fill="#8ccfff"/><path d="m137.189161 123.609594h2.120146v1.780072h-2.120146z" fill="#8ccfff"/><path d="m137.189161 126.813722h2.120146v1.780072h-2.120146z" fill="#8ccfff"/><path d="m150.263318 125.389665v-1.779973h-2.120028v1.779973h1.943487z" fill="#8ccfff"/><path d="m150.086777 126.813645h-1.943487v1.780231h2.120028v-1.780231z" fill="#8ccfff"/><path d="m151.676822 123.609594h2.120146v1.780072h-2.120146z" fill="#8ccfff"/><path d="m151.676822 126.813722h2.120146v1.780072h-2.120146z" fill="#8ccfff"/><path d="m165.104286 89.7881247v-1.7799738h-2.120028v1.7799738h1.943487z" fill="#19a0ff"/><path d="m164.927745 91.2123619h-1.943487v1.7799737h2.120028v-1.7799737z" fill="#19a0ff"/><path d="m166.517841 88.008154h2.120146v1.780072h-2.120146z" fill="#19a0ff"/><path d="m166.517841 91.212282h2.120146v1.780072h-2.120146z" fill="#19a0ff"/><path d="m165.104286 99.7567523v-1.7802319h-2.120028v1.7802319h1.943487z" fill="#19a0ff"/><path d="m164.927745 101.180731h-1.943487v1.779974h2.120028v-1.779974z" fill="#19a0ff"/><path d="m166.517841 97.976557h2.120146v1.780072h-2.120146z" fill="#19a0ff"/><path d="m166.517841 101.180685h2.120146v1.780072h-2.120146z" fill="#19a0ff"/><path d="m165.104286 109.725122v-1.780232h-2.120028v1.780232h1.943487z" fill="#19a0ff"/><path d="m164.927745 111.149101h-1.943487v1.779974h2.120028v-1.779974z" fill="#19a0ff"/><path d="m166.517841 107.94496h2.120146v1.780072h-2.120146z" fill="#19a0ff"/><path d="m166.517841 111.149088h2.120146v1.780072h-2.120146z" fill="#19a0ff"/><path d="m165.104286 119.693491v-1.780232h-2.120028v1.780232h1.943487z" fill="#19a0ff"/><path d="m164.927745 121.11747h-1.943487v1.779974h2.120028v-1.779974z" fill="#19a0ff"/><path d="m166.517841 117.913363h2.120146v1.780072h-2.120146z" fill="#19a0ff"/><path d="m166.517841 121.117491h2.120146v1.780072h-2.120146z" fill="#19a0ff"/><path d="m133.655586 89.788225h20.494739v4.272172h-20.494739z" fill="#8ccfff"/><path d="m133.655586 98.332569h20.494739v4.272172h-20.494739z" fill="#8ccfff"/><path d="m133.655586 106.876916h20.494739v4.272172h-20.494739z" fill="#8ccfff"/><path d="m133.655586 115.421262h20.494739v4.272172h-20.494739z" fill="#8ccfff"/><path d="m189.045183 88.8982669-1.76669-1.4242372 9.893978-8.9003852h25.088285v7.8324009l-16.25432 11.0366119z" fill="#8ccfff"/><path d="m226.834934 83.5663483v-4.8148355h-3.330961v1.1792488l-1.243217-1.3571171-8.127288 8.9003852-3.180043 2.1362267-4.931103 36.2972666 7.436498 7.492412h17.282562v-45.5699105z" fill="#ccc"/><path d="m187.278383 87.47413h26.855175v45.925859h-26.855175z" fill="#f2f2f2"/><path d="m197.70243 122.185535h4.947007v11.214454h-4.947007z" fill="#ccc"/><path d="m192.402023 125.389665v-1.779973h-2.120029v1.779973h1.943488z" fill="#8ccfff"/><path d="m192.225482 126.813645h-1.943488v1.780231h2.120029v-1.780231z" fill="#8ccfff"/><path d="m193.815496 123.609594h2.120146v1.780072h-2.120146z" fill="#8ccfff"/><path d="m193.815496 126.813722h2.120146v1.780072h-2.120146z" fill="#8ccfff"/><path d="m206.889653 125.389665v-1.779973h-2.120029v1.779973h1.943488z" fill="#8ccfff"/><path d="m206.713112 126.813645h-1.943488v1.780231h2.120029v-1.780231z" fill="#8ccfff"/><path d="m208.303156 123.609594h2.120146v1.780072h-2.120146z" fill="#8ccfff"/><path d="m208.303156 126.813722h2.120146v1.780072h-2.120146z" fill="#8ccfff"/><path d="m221.730621 89.7881247v-1.7799738h-2.120029v1.7799738h1.943488z" fill="#19a0ff"/><path d="m221.55408 91.2123619h-1.943488v1.7799737h2.120029v-1.7799737z" fill="#19a0ff"/><path d="m223.144176 88.008154h2.120146v1.780072h-2.120146z" fill="#19a0ff"/><path d="m223.144176 91.212282h2.120146v1.780072h-2.120146z" fill="#19a0ff"/><path d="m221.730621 99.7567523v-1.7802319h-2.120029v1.7802319h1.943488z" fill="#19a0ff"/><path d="m221.55408 101.180731h-1.943488v1.779974h2.120029v-1.779974z" fill="#19a0ff"/><path d="m223.144176 97.976557h2.120146v1.780072h-2.120146z" fill="#19a0ff"/><path d="m223.144176 101.180685h2.120146v1.780072h-2.120146z" fill="#19a0ff"/><path d="m221.730621 109.725122v-1.780232h-2.120029v1.780232h1.943488z" fill="#19a0ff"/><path d="m221.55408 111.149101h-1.943488v1.779974h2.120029v-1.779974z" fill="#19a0ff"/><path d="m223.144176 107.94496h2.120146v1.780072h-2.120146z" fill="#19a0ff"/><path d="m223.144176 111.149088h2.120146v1.780072h-2.120146z" fill="#19a0ff"/><path d="m221.730621 119.693491v-1.780232h-2.120029v1.780232h1.943488z" fill="#19a0ff"/><path d="m221.55408 121.11747h-1.943488v1.779974h2.120029v-1.779974z" fill="#19a0ff"/><path d="m223.144176 117.913363h2.120146v1.780072h-2.120146z" fill="#19a0ff"/><path d="m223.144176 121.117491h2.120146v1.780072h-2.120146z" fill="#19a0ff"/><path d="m190.28192 89.788225h20.494739v4.272172h-20.494739z" fill="#8ccfff"/><path d="m190.28192 98.332569h20.494739v4.272172h-20.494739z" fill="#8ccfff"/><path d="m190.28192 106.876916h20.494739v4.272172h-20.494739z" fill="#8ccfff"/><path d="m190.28192 115.421262h20.494739v4.272172h-20.494739z" fill="#8ccfff"/><path d="m.196501 133.222232h239.561349v1h-239.561349z" fill="#19a0ff"/><path d="m21.852728 112.828043h1v20.394188h-1z" fill="#3f3d56"/><path d="m27.0945659 115.427058c.0326229 7.131339-4.9472097 12.93568-4.9472097 12.93568s-5.0327232-5.757847-5.0653461-12.889186 4.9472097-12.93568 4.9472097-12.93568 5.0327231 5.757837 5.0653461 12.889186z" fill="#19a0ff"/><path d="m175.333155 112.828043h1v20.394188h-1z" fill="#3f3d56"/><path d="m180.574993 115.427058c.032623 7.131339-4.94721 12.93568-4.94721 12.93568s-5.032723-5.757847-5.065346-12.889186 4.94721-12.93568 4.94721-12.93568 5.032723 5.757837 5.065346 12.889186z" fill="#19a0ff"/><ellipse cx="120.876043" cy="42.208225" fill="#19a0ff" rx="9.736655" ry="2.207219"/><path d="m132.150064 11.3587884c0 6.2732859-11.274021 24.0083483-11.274021 24.0083483s-11.274022-17.7350624-11.274022-24.0083483c0-6.2732856 5.047552-11.3587884 11.274022-11.3587884s11.274021 5.0855028 11.274021 11.3587884z" fill="#19a0ff"/><ellipse cx="120.876043" cy="11.358788" fill="#f2f2f2" rx="6.405694" ry="6.453857"/></g></svg>