<svg viewBox="0 0 240 134" xmlns="http://www.w3.org/2000/svg" xmlns:xlink="http://www.w3.org/1999/xlink"><linearGradient id="a"><stop offset="0" stop-color="#808080" stop-opacity=".25"/><stop offset=".54" stop-color="#808080" stop-opacity=".12"/><stop offset="1" stop-color="#808080" stop-opacity=".1"/></linearGradient><linearGradient id="b" x1="50.001542%" x2="50.001542%" xlink:href="#a" y1="100.002232%" y2="0%"/><linearGradient id="c" x1="50.001542%" x2="50.001542%" xlink:href="#a" y1="100%" y2="0%"/><linearGradient id="d" x1="49.998458%" x2="49.998458%" xlink:href="#a" y1="100%" y2="0%"/><linearGradient id="e" x1="50.001373%" x2="50.001373%" xlink:href="#a" y1="100%" y2="0%"/><linearGradient id="f" x1="0%" x2="100%" xlink:href="#a" y1="49.983964%" y2="49.983964%"/><g fill="none" fill-rule="evenodd"><g transform="translate(-.443074 .239431)"><g fill-rule="nonzero"><path d="m.155368.142933h61.433053v84.251677h-61.433053z" fill="url(#b)" opacity=".5" transform="translate(177.932548 48.947924)"/><path d="m178.870442 49.711489h59.869895v82.389783h-59.869895z" fill="#fff"/><path d="m.166737.126007h61.433053v84.251677h-61.433053z" fill="url(#b)" opacity=".5" transform="translate(172.248337 45.938801)"/><path d="m173.1976 46.685439h59.869895v82.389783h-59.869895z" fill="#f5f5f5"/><path d="m.136421.174905h61.433053v84.251677h-61.433053z" fill="url(#c)" opacity=".5" transform="translate(166.943074 44.351531)"/><path d="m167.862021 45.147068h59.869895v82.389783h-59.869895z" fill="#fff"/><path d="m173.368127 58.898759h16.597895v1.512084h-16.597895z" fill="#19a0ff"/><path d="m173.368127 64.194815h48.776211v1.512084h-48.776211z" fill="#e0e0e0"/><path d="m173.368127 69.488991h37.936421v1.512084h-37.936421z" fill="#e0e0e0"/><path d="m173.368127 74.785047h44.795368v1.512084h-44.795368z" fill="#e0e0e0"/><path d="m178.535074 80.081103h39.630316v1.512084h-39.630316z" fill="#e0e0e0"/><path d="m182.34539 85.375279h31.248v1.512084h-31.248z" fill="#3ad29f" opacity=".3"/><path d="m178.535074 90.671335h38.868632v1.512084h-38.868632z" fill="#e0e0e0"/><path d="m173.368127 95.96551h48.776211v1.512084h-48.776211z" fill="#e0e0e0"/><path d="m173.368127 101.261566h48.776211v1.512084h-48.776211z" fill="#e0e0e0"/><path d="m173.368127 106.557622h48.776211v1.512084h-48.776211z" fill="#e0e0e0"/><path d="m173.368127 111.851798h48.776211v1.512084h-48.776211z" fill="#e0e0e0"/><path d="m0 0h68.258947v93.612975h-68.258947z" fill="url(#d)" opacity=".5" transform="translate(.443074 .677457)"/><path d="m1.312548 1.367048h66.522105v91.544203h-66.522105z" fill="#fff"/><path d="m12.792548 34.298135h44.410526v1.680094h-44.410526z" fill="#e0e0e0"/><path d="m13.16939 40.182642h44.033684v1.680094h-44.033684z" fill="#e0e0e0"/><path d="m17.403074 46.067149h34.72v1.680094h-34.72z" fill="#e0e0e0"/><path d="m13.16939 51.949566h43.187368v1.680094h-43.187368z" fill="#e0e0e0"/><path d="m12.792548 57.834073h44.033684v1.680094h-44.033684z" fill="#e0e0e0"/><path d="m12.792548 63.71649h44.033684v1.680094h-44.033684z" fill="#e0e0e0"/><path d="m12.792548 69.600997h44.033684v1.680094h-44.033684z" fill="#e0e0e0"/><path d="m12.792548 75.485504h44.033684v1.680094h-44.033684z" fill="#e0e0e0"/><path d="m13.403074 14.40658h11.854737v10.08683h-11.854737z" fill="#19a0ff"/><path d="m33.725179 16.086674h22.016842v1.680094h-22.016842z" fill="#e0e0e0"/><path d="m33.725179 21.97118h22.016842v1.680094h-22.016842z" fill="#3ad29f" opacity=".3"/></g><g opacity=".3" stroke="#3ad29f" stroke-width=".6" transform="translate(88.401998 22.514494)"><path d="m.03157895.18807018h1.26315789"/><path d="m3.75578947.18807018h47.97684213" stroke-dasharray="2.338"/><path d="m52.9642105.18807018h1.2631579v1.25380117"/><path d="m54.2273684 4.11664717v25.42081873" stroke-dasharray="2.56"/><path d="m54.2273684 30.8748538v1.2538012"/></g><g opacity=".3" stroke="#3ad29f" stroke-width=".6" transform="translate(15.203074 100.639562)"><path d="m41.0050429 23.5738335h-.9511724"/><path d="m38.2006696 23.5738335h-36.12711373" stroke-dasharray="2.338"/><path d="m1.14616276 23.5738335h-.95117241v-.9252503"/><path d="m.19499035 20.673174v-18.75790605" stroke-dasharray="2.56"/><path d="m.19499035.92833439v-.92525022"/></g><path d="m119.549367 16.8573567c-.356623-.1589956-.537399-.5573462-.421053-.9278128.009002-.0277989.014655-.0565579.016842-.0856765.011035-.1698337-.091722-.3266633-.252599-.38552-.160877-.0588568-.341595-.0057366-.444243.1305805-.016936.0233644-.031067.0486112-.042105.075228-.160182.3539811-.561506.5334183-.934737.4179338-.028006-.0089348-.05698-.0145463-.086316-.0167174-.171101-.0109533-.329101.0910428-.388397.250728-.059296.1596851-.005779.3390646.131555.4409523.023539.0168109.048974.0308369.07579.0417934.356622.1589957.537399.5573462.421052.9278129-.009001.0277988-.014655.0565578-.016842.0856764-.011035.1698337.091722.3266633.252599.3855201.160877.0588567.341595.0057366.444243-.1305805.016937-.0233645.031067-.0486113.042106-.0752281.160182-.3539811.561505-.5334182.934736-.4179337.028007.0089347.05698.0145462.086316.0167173.171101.0109534.329101-.0910428.388397-.2507279.059296-.1596852.00578-.3390647-.131555-.4409524-.023539-.0168108-.048974-.0308369-.075789-.0417934z" fill="#19a0ff" fill-rule="nonzero" opacity=".3"/><path d="m81.0821053 42.9573177c-.7633908-.3287405-1.1545854-1.1756059-.9073685-1.9642885.0190241-.0582943.0310373-.1186169.0357895-.1797115.0259846-.3604409-.1914813-.6944425-.5332353-.8189856-.3417539-.1245431-.7252912-.009561-.9404489.2819408-.0363521.0492271-.0667368.1025326-.0905263.1588148-.330797.7536618-1.1785392 1.1411302-1.9705263.9006472-.0587294-.0188831-.1195021-.0308073-.1810527-.0355244-.3631307-.0257921-.6996249.1900629-.8250974.5292854s-.0096324.7199187.2840448.9334827c.0495945.0360828.1032977.0662424.16.0898557.7592861.3283466 1.1496461 1.1698093.9073684 1.9559298-.019024.0582944-.0310372.1186169-.0357894.1797115-.0259846.3604409.1914813.6944425.5332352.8189856.341754.1245431.7252912.0095611.940449-.2819407.0363521-.0492272.0667368-.1025326.0905263-.1588148.330797-.7536618 1.1785392-1.1411302 1.9705263-.9006472.0587294.0188831.1195021.0308073.1810526.0355243.3631308.0257922.6996249-.1900629.8250975-.5292853.1254725-.3392225.0096323-.7199187-.2840448-.9334827-.0500037-.0331738-.1036909-.0605198-.16-.0814971z" fill="#19a0ff" fill-rule="nonzero" opacity=".3"/><path d="m97.7157895 97.7484288c-.8114554.1635204-1.6174444-.3030073-1.8736842-1.084538-.0178644-.0584025-.0425961-.1145135-.0736842-.1671735-.1879834-.3058307-.5558984-.4529482-.904971-.3618688-.3490726.0910793-.5965444.3987622-.6087133.7568162-.0015996.0610467.0040534.1220678.0168421.1818012.1647407.8054446-.3052686 1.6054633-1.0926315 1.8598051-.0588384.017732-.1153681.0422805-.1684211.0731384-.3081131.1865908-.4563284.5517806-.3645694.8982675.091759.3464871.4017381.5921251.7624642.6042041.0615022.001588.1229787-.004023.1831578-.016717.8114554-.163521 1.6174444.303007 1.8736843 1.084538.0178643.058402.042596.114513.0736842.167173.1879833.305831.5558984.452948.904971.361869s.5965443-.398762.6087132-.756816c.0015997-.061047-.0040534-.122068-.0168421-.181801-.1647407-.805445.3052686-1.6054636 1.0926316-1.8598054.0588383-.017732.115368-.0422805.168421-.0731384.3081131-.1865908.4563284-.5517806.3645694-.8982675s-.401738-.5921255-.7624641-.6042042c-.0615023-.0015878-.1229788.0040233-.1831579.0167173z" fill="#19a0ff" fill-rule="nonzero" opacity=".3"/></g><g fill-rule="nonzero" transform="translate(9.556926 5.045669)"><path d="m54.3585375 54.4116794 61.3372485-.0026168-.003176 73.8907004-61.3372484.002617z" fill="url(#e)" transform="matrix(.99998341 .00575955 -.00575955 .99998341 .527579 -.488194)"/><path d="m54.9162491 54.9663203 60.2223009-.0025693-.003116 72.506504-60.2223013.002569z" fill="#fff" transform="matrix(.99998341 .00575955 -.00575955 .99998341 .526787 -.488198)"/><g fill="#19a0ff"><path d="m66.3789976 109.17854 27.045046-.001153-.0000476 1.106688-27.0450459.001154z" transform="matrix(.99998341 .00575955 -.00575955 .99998341 .633329 -.458377)"/><path d="m66.34052 115.869585 44.330094-.001891-.000047 1.106688-44.3300946.001892z" transform="matrix(.99998341 .00575955 -.00575955 .99998341 .672007 -.507821)"/><path d="m99.2778215 109.322427 11.4307345-.000487-.000048 1.106688-11.430734.000488z" transform="matrix(.99998341 .00575955 -.00575955 .99998341 .634576 -.602891)"/><path d="m66.3580911 112.455117 11.430734-.000487-.0000475 1.106688-11.4307341.000488z" transform="matrix(.99998341 .00575955 -.00575955 .99998341 .652072 -.413236)"/><path d="m82.8098238 112.549373 11.430734-.000488-.0000475 1.106689-11.4307341.000488z" transform="matrix(.99998341 .00575955 -.00575955 .99998341 .652888 -.50799)"/><path d="m99.2598723 112.643619 11.4307337-.000488-.000047 1.106689-11.4307342.000488z" transform="matrix(.99998341 .00575955 -.00575955 .99998341 .653704 -.602733)"/><path d="m68.3070407 72.4728825 33.4568343-.0014273-.000524 12.17692-33.4568337.0014273z" transform="matrix(.99998341 .00575955 -.00575955 .99998341 .453885 -.488462)"/></g><g fill="#47e6b1" opacity=".5" transform="translate(194.943074 25.152701)"><path d="m1.473684 0h1v3.552437h-1z"/><path d="m1.47602339-.01325536h.62690059v3.57894737h-.62690059z" transform="matrix(0 1 -1 0 3.565692 -.013256)"/></g><g fill="#47e6b1" opacity=".5" transform="translate(26.943074 103.622567)"><path d="m1.473684 0h1v3.552437h-1z"/><path d="m1.47602339-.01325536h.62690059v3.57894737h-.62690059z" transform="matrix(0 1 -1 0 3.565692 -.013256)"/></g><g fill="#47e6b1" opacity=".5" transform="translate(108.08012 120.85975)"><path d="m1.178947 0h1v2.841949h-1z"/><path d="m1.18081871-.01060429h.50152047v2.8631579h-.50152047z" transform="matrix(0 1 -1 0 2.852554 -.010604)"/></g><path d="m219.530138 2.33686986c-.360739-.15522374-.546509-.55459414-.431579-.92781286.008636-.02717754.014283-.05520298.016842-.08358675.012093-.17023801-.090311-.32801675-.251477-.38746277-.161167-.05944601-.342524-.00633217-.445365.13043353-.016874.02414647-.030996.05007789-.042105.07731774-.161006.35428817-.563029.53363431-.936842.41793372-.027328-.00877518-.055585-.01438487-.084211-.01671735-.171101-.01095335-.329101.09104282-.388397.25072796s-.005779.33906463.131555.44095236c.023254.01780574.048728.03255545.07579.04388304.360025.15594754.545491.55466349.431578.92781286-.010836.02729876-.016544.05633652-.016842.08567642-.011035.1698337.091723.32666333.252599.38552009.160877.05885676.341595.00573658.444243-.13058052.016072-.02389865.030154-.049058.042106-.07522807.160182-.35398104.561505-.53341823.934737-.41793373.028048.00877192.057002.01437972.086315.01671735.171102.01095336.329102-.09104281.388397-.25072795.059296-.15968515.00578-.33906463-.131555-.44095236-.023966-.01733683-.049313-.03271167-.075789-.04597271z" fill="#4d8af0" opacity=".5"/><path d="m142.194687 107.732235c-.360739-.155224-.546509-.554594-.431579-.927813.008636-.027177.014283-.055203.016842-.083586.012093-.170238-.090311-.328017-.251477-.387463-.161167-.059446-.342524-.006332-.445365.130433-.016874.024147-.030996.050078-.042105.077318-.161006.354288-.563029.533634-.936842.417934-.027328-.008775-.055585-.014385-.084211-.016718-.171101-.010953-.329101.091043-.388397.250728-.059296.159686-.005779.339065.131555.440953.023254.017806.048728.032555.07579.043883.360025.155947.545491.554663.431579.927813-.010837.027298-.016545.056336-.016843.085676-.011035.169834.091723.326663.252599.38552.160877.058857.341595.005737.444244-.13058.016071-.023899.030153-.049058.042105-.075228.160182-.353981.561505-.533419.934737-.417934.028048.008772.057002.01438.086315.016717.171102.010954.329102-.091043.388398-.250728s.005779-.339064-.131555-.440952c-.023967-.017337-.049314-.032712-.07579-.045973z" fill="#4d8af0" opacity=".5"/><path d="m58.0405408 108.31338c-.2885911-.124179-.4372071-.443675-.3452632-.74225.0069086-.021742.0114261-.044163.0134737-.06687.0096745-.13619-.0722489-.262413-.201182-.30997-.1289332-.047557-.2740187-.005066-.3562917.104347-.0134996.019317-.0247969.040062-.0336842.061854-.1288047.283431-.4504232.426908-.7494737.334347-.0218618-.00702-.044468-.011508-.0673684-.013374-.1368809-.008762-.2632809.072834-.3107177.200583-.0474368.127748-.0046235.271251.105244.352761.0186034.014245.0389825.026045.0606316.035107.2847292.127761.4291161.445926.3368421.74225-.0086691.021839-.0132357.045069-.0134737.068541-.0088281.135867.0733778.261331.2020793.308416.1287014.047086.2732759.00459.3553944-.104464.012857-.019119.0241224-.039246.0336842-.060183.1281458-.283184.4492044-.426734.7477895-.334346.0224386.007017.0456022.011503.0690526.013373.1368809.008763.2632809-.072834.3107177-.200582s.0046235-.271252-.105244-.352762c-.0164761-.013507-.0339262-.0258-.0522105-.036778z" fill="#4d8af0" opacity=".5"/><ellipse cx="124.842105" cy="3.563401" fill="#f55f44" opacity=".5" rx="1.263158" ry="1.253801"/><ellipse cx="1.894737" cy="31.188304" fill="#f55f44" opacity=".5" rx="1.263158" ry="1.253801"/><path d="m-13.2700315 14.7883013 42.6184219.3328426-.0991396 13.1304841-42.6184219-.3328426z" fill="url(#f)" opacity=".5" transform="matrix(-.00767937501 -.99997052172 .99997052172 -.00767937501 111.58425919637 82.75172096863)"/><path d="m126.962585 53.5146896 12.481369.0958519-.322181 41.9527798-12.481369-.0958519z" fill="#e0e0e0" transform="matrix(.99997051 -.00767937 .00767937 .99997051 -.56849 1.023878)"/><path d="m128.68234 54.6106967 8.890391.0682747-.067252 8.7572847-8.890392-.0682747z" fill="#4d8af0" transform="matrix(.99997051 -.00767937 .00767937 .99997051 -.449339 1.023818)"/><path d="m128.688067 65.202451 8.87842.0681827-.066736 8.6900323-8.87842-.0681827z" fill="#4d8af0" opacity=".5" transform="matrix(.99997051 -.00767937 .00767937 .99997051 -.530418 1.02413)"/><path d="m128.743589 75.7266047 8.822637.0677543-.067252 8.7572847-8.822638-.0677543z" fill="#4d8af0" opacity=".3" transform="matrix(.99997051 -.00767937 .00767937 .99997051 -.611493 1.024651)"/></g></g></svg>