<svg viewBox="0 0 241 134" xmlns="http://www.w3.org/2000/svg" xmlns:xlink="http://www.w3.org/1999/xlink"><defs><path id="a" d="m.27480916 6.13740458c-.36641221-.36641221-.36641221-.91603053 0-1.28244275l4.58015267-4.58015267c.36641222-.36641221.91603054-.36641221 1.28244275 0l4.58015272 4.58015267c.3664122.36641222.3664122.91603054 0 1.28244275-.1832062.18320611-.3664123.27480916-.6412214.27480916-.27480918 0-.45801529-.09160305-.6412214-.27480916l-3.93893129-3.9389313-3.9389313 3.9389313c-.36641222.36641221-.91603054.36641221-1.28244275 0zm5.86259542.54961832c-.36641221-.36641221-.91603053-.36641221-1.28244275 0l-4.58015267 4.5801527c-.36641221.3664122-.36641221.9160305 0 1.2824427s.91603053.3664122 1.28244275 0l3.9389313-3.93893128 3.93893129 3.93893128c.18320611.1832061.45801527.2748092.6412214.2748092.1832061 0 .4580152-.0916031.6412214-.2748092.3664122-.3664122.3664122-.9160305 0-1.2824427z"/><mask id="b" fill="#fff"><use fill="#fff" fill-rule="evenodd" xlink:href="#a"/></mask></defs><g fill="none" fill-rule="evenodd" transform="translate(.106262 .239431)"><path d="m217.882183 131.929824v-105.3838832c0-2.830002-2.308043-5.120956-5.159155-5.120956h-77.251562c-2.851113 0-5.159156 2.290954-5.159156 5.120956v105.3838832z" fill="#19a0ff" opacity=".5"/><path d="m209.542195 131.929824v-105.3838832c0-2.830002-2.026024-5.120956-4.457252-5.120956h-65.102889c-2.431228 0-4.457251 2.290954-4.457251 5.120956v105.3838832z" fill="#fff"/><path d="m130.31231 34.9774651v-9.1718806c0-2.4640873 1.900742-4.3805997 4.344552-4.3805997h78.880769c2.44381 0 4.344552 1.9165124 4.344552 4.3805997v9.1718806z" fill="#fff"/><path d="m130.31231 37.0624621v-11.1696266c0-2.513166 1.855294-4.4678507 4.240672-4.4678507h9.011428 2.385378" stroke="#3a96e2" stroke-width="1.579696"/><path d="m160.544766 21.4249848h51.954105c2.441708 0 4.340813 1.88437 4.340813 4.3071314v106.1977078" stroke="#3a96e2" stroke-width="1.579696"/><path d="m150.119781 20.9037356h6.254991" stroke="#3a96e2" stroke-width="1.579696"/><path d="m130.31231 35.4987143h87.569873" stroke="#3a96e2" stroke-width="1.579696"/><path d="m139.694797 29.2437234h2.084997" stroke="#3a96e2" stroke-width="1.579696"/><path d="m145.949788 29.2437234h2.084997" stroke="#3a96e2" stroke-width="1.579696"/><path d="m152.204778 29.2437234h2.084997" stroke="#3a96e2" stroke-width="1.579696"/><path d="m141.779794 45.40245h63.592407v25.019964h-63.592407z" fill="#19a0ff" opacity=".5"/><path d="m141.779794 86.059891h19.807471v25.019964h-19.807471z" fill="#19a0ff" opacity=".5"/><path d="m163.672262 86.059891h19.807471v25.019964h-19.807471z" fill="#19a0ff" opacity=".5"/><path d="m185.56473 86.059891h19.807471v25.019964h-19.807471z" fill="#19a0ff" opacity=".5"/><path d="m155.362425 38.4177101c-1.077957-.8131488-2.425404-1.355248-3.772851-1.355248h-33.147197v94.8673619h6.198256 1.347447v-.948674h-5.659277v-15.178778h28.565877 5.428315c1.482192 0 2.656367-2.303921 2.656367-3.794694v-9.622261-2.303922-31.7128035h1.077957v-25.0720885c0-1.4907728-.538978-2.7104961-1.347447-3.7946945-.538978-.5420992-.943213-.9486736-1.347447-1.0841984z" fill="#19a0ff" opacity=".5"/><path d="m153.887325 102.739866h-108.4198417v-61.9191531c0-1.4936638 1.2197232-2.7157524 2.7104961-2.7157524h102.9988496c1.490773 0 2.710496 1.2220886 2.710496 2.7157524z" fill="#fff"/><path d="m34.3869977 72.5074105v-11.4674833" stroke="#3a96e2" stroke-width="1.579696"/><path d="m68.4024499 38.1049605h80.2013411c2.84498 0 5.283534 2.2944275 5.283534 5.2636866v24.9687694" stroke="#3a96e2" stroke-width="1.579696"/><path d="m51.722474 44.359951h96.952359v51.082426h-96.952359z" fill="#fff"/><path d="m84.039927 114.20735h32.317453v9.382486h-32.317453z" fill="#19a0ff" opacity=".5"/><path d="m84.039927 112.122353h32.317453v19.807471h-32.317453z" stroke="#3a96e2" stroke-width="1.579696"/><path d="m153.887325 100.65487h-108.4198417v11.892204c0 1.486526 1.2197232 2.702774 2.7104961 2.702774h102.9988496c1.490773 0 2.710496-1.216248 2.710496-2.702774z" fill="#fff"/><path d="m61.1049605 114.728599h84.4423775" stroke="#3a96e2" stroke-width="1.579696"/><path d="m137.20735 100.13362h-76.1023895" stroke="#3a96e2" stroke-width="1.579696"/><path d="m76.7424378 132.451073h45.8699332" stroke="#3a96e2" stroke-width="1.579696"/><path d="m188.692225 81.8898968h-5.212492l.595713-8.3399878h4.021066z" fill="#fff"/><path d="m69.8966502 75.6349059h-12.5592337v24.9887921 2.296268 9.590293c0 1.48582 1.2559234 2.701491 2.7909409 2.701491h13.2569689v1.080597h1.6745644v-35.6596826c0-2.8365656-2.3722997-4.9977585-5.1632405-4.9977585z" fill="#19a0ff" opacity=".5"/><path d="m25.0199636 131.929824h45.8699332v-52.3020477c0-1.6092938-1.3611256-2.9503719-2.9944763-2.9503719h-39.8809806c-1.6333507 0-2.9944763 1.3410781-2.9944763 2.9503719z" fill="#fff"/><path d="m34.4024499 76.6774044h-5.5502032c-2.1143631 0-3.8322831 1.7725315-3.8322831 3.9541087v46.0858189" stroke="#3a96e2" stroke-width="1.579696"/><path d="m44.8274348 76.1561552h-6.2549909" stroke="#3a96e2" stroke-width="1.579696"/><path d="m70.8898968 125.674833v-45.1151187c0-2.1419641-1.7710627-3.8823099-3.9508323-3.8823099h-20.0266328" stroke="#3a96e2" stroke-width="1.579696"/><path d="m28.147459 85.017392h38.572444v46.912432h-38.572444z" fill="#19a0ff"/><path d="m42.7424378 81.3686476h9.3824863" stroke="#3a96e2" stroke-width="1.579696"/><path d="m74.0173923 131.796739v-1.463934c0-1.463934-1.2292563-2.661698-2.7316806-2.661698h-4.0975207c-.5463361-2.129359-1.3658403-4.125633-2.4585125-5.855736l3.0048486-2.927868c1.0926722-1.06468 1.0926722-2.661699 0-3.726378l-2.1853444-2.129359c-1.0926722-1.064679-2.7316806-1.064679-3.8243528 0l-3.0048485 2.927868c-1.7755924-1.064679-3.8243527-1.996273-6.0096972-2.395528v-3.992547c0-1.463934-1.2292562-2.661699-2.7316805-2.661699h-3.1414326c-1.5024243 0-2.7316805 1.197765-2.7316805 2.661699v3.992547c-2.1853444.53234-4.0975208 1.330849-5.8731131 2.395528l-2.8682645-2.927868c-1.0926722-1.064679-2.7316806-1.064679-3.8243528 0l-2.1853444 2.129359c-1.0926722 1.064679-1.0926722 2.661698 0 3.726378l2.8682646 2.927868c-1.0926722 1.730103-2.0487604 3.726377-2.4585125 5.855736h-4.0975208c-1.5024243 0-2.7316805 1.197764-2.7316805 2.661698v1.597019h17.0730032c0-4.657972 3.8243528-8.251265 8.6047937-8.251265s8.6047936 3.726378 8.6047936 8.251265z" fill="#fff"/><path d="m74.0173923 131.796739v-1.463934c0-1.463934-1.2292563-2.661698-2.7316806-2.661698h-4.0975207c-.5463361-2.129359-1.3658403-4.125633-2.4585125-5.855736l3.0048486-2.927868c1.0926722-1.06468 1.0926722-2.661699 0-3.726378l-2.1853444-2.129359c-1.0926722-1.064679-2.7316806-1.064679-3.8243528 0l-3.0048485 2.927868c-1.7755924-1.064679-3.8243527-1.996273-6.0096972-2.395528v-3.992547c0-1.463934-1.2292562-2.661699-2.7316805-2.661699h-3.1414326c-1.5024243 0-2.7316805 1.197765-2.7316805 2.661699v3.992547c-2.1853444.53234-4.0975208 1.330849-5.8731131 2.395528l-2.8682645-2.927868c-1.0926722-1.064679-2.7316806-1.064679-3.8243528 0l-2.1853444 2.129359c-1.0926722 1.064679-1.0926722 2.661698 0 3.726378l2.8682646 2.927868c-1.0926722 1.730103-2.0487604 3.726377-2.4585125 5.855736h-4.0975208c-1.5024243 0-2.7316805 1.197764-2.7316805 2.661698v1.597019m16.9364192-.133085c0-4.657972 3.8243527-8.251265 8.6047936-8.251265s8.6047937 3.726378 8.6047937 8.251265" stroke="#3a96e2" stroke-width="1.579696"/><path d="m192.616867 104.824863v7.29749" stroke="#3a96e2" stroke-width="1.579696"/><path d="m192.095618 72.5074105c-9.207347 0-16.679976 7.4726291-16.679976 16.6799757s7.472629 16.6799758 16.679976 16.6799758c9.207346 0 16.679975-7.4726292 16.679975-16.6799758s-7.472629-16.6799757-16.679975-16.6799757zm0 29.3567575c-6.93887 0-12.676782-5.7379119-12.676782-12.6767818s5.737912-12.6767816 12.676782-12.6767816 12.676781 5.7379117 12.676781 12.6767816-5.737911 12.6767818-12.676781 12.6767818z" fill="#fff" fill-rule="nonzero"/><path d="m201.436404 75.4430862c-2.668796-1.8681573-5.871351-2.9356757-9.340786-2.9356757-9.207347 0-16.679976 7.4726291-16.679976 16.6799757s7.472629 16.6799758 16.679976 16.6799758c9.207346 0 16.679975-7.4726292 16.679975-16.6799758" stroke="#3a96e2" stroke-width="1.579696"/><path d="m208.775593 85.0173923c-.672579-3.1634437-2.152254-6.0393016-4.169993-8.3399879" stroke="#3a96e2" stroke-width="1.579696"/><path d="m191.053119 78.7624014c6.267113 0 11.467484 5.0670275 11.467484 11.4674833" stroke="#3a96e2" stroke-width="1.579696"/><path d="m188.968122 110.037356v20.034925c0 1.061453.781874 1.857543 1.824373 1.857543h2.606246c1.042498 0 1.824372-.79609 1.824372-1.857543v-20.034925z" fill="#fff"/><path d="m188.968122 110.037356v20.034925c0 1.061453.781874 1.857543 1.824373 1.857543h2.606246c1.042498 0 1.824372-.79609 1.824372-1.857543v-20.034925z" stroke="#3a96e2" stroke-width="1.579696"/><path d="m188.968122 114.728599h7.29749" stroke="#3a96e2" stroke-width="1.579696"/><path d="m188.968122 117.856094h7.29749" stroke="#3a96e2" stroke-width="1.579696"/><path d="m68.9045251 53.2009147c.5517267.1342453 1.2413852 0 1.6551802-.4027358.4137951-.4027359.4137951-1.0739623.1379317-1.6109434l-7.5862428-11.2766033c1.6551802-3.7588677 2.206907-7.7862261 1.7931119-11.6793391h-15.1724856c-1.5172486 0-2.7586338 1.2082075-2.7586338 2.6849055v21.2107539h-1.1034535v.8054716c3.5862239-.5369811 7.0345161-2.0136791 10.0690132-4.2958488z" fill="#19a0ff" opacity=".5"/><path d="m27.1175958 45.5544775c-9.4753869-7.2149477-11.0997389-20.7095719-3.7901548-29.9286716 7.3095842-9.35270992 20.9812139-10.95603161 30.3212381-3.741084 8.1217602 6.2796766 10.5582882 17.1020981 6.3620455 25.9203674l7.7156721 11.7576924c.1353627.2672203-.1353626.6680507-.406088.5344406l-13.4009043-4.676355c-7.5803095 6.0124564-18.6800484 6.2796767-26.8018086.1336102z" fill="#fff"/><path d="m32.5469523 7.84452166c6.9005863-2.73476242 14.8836175-1.77759557 21.1076758 3.14497674 8.1183368 6.4266917 10.5538379 17.5024795 6.3593638 26.5271955l7.71242 12.0329546c.1353056.2734762-.1353056.6836906-.4059168.5469525l-13.3952558-4.7858343c-7.5771144 6.1532155-18.6721747 6.4266917-26.7905116.1367382-9.0654761-7.1103823-10.9597547-19.9637657-4.7356964-29.398696" stroke="#3a96e2" stroke-width="1.579696"/><path d="m23.9774651 13.6363143c.3909369-.3790903.6515616-.7581807 1.0424985-1.137271 1.3031231-1.2636346 2.7365585-2.2745422 4.1699939-3.0327229" stroke="#3a96e2" stroke-width="1.579696"/><path d="m25.0199636 28.7525423c0 8.2938596 6.6885964 15.116228 15.116228 15.116228 8.2938596 0 15.116228-6.6885964 15.116228-15.116228 0-8.4276315-6.6885965-15.116228-15.116228-15.116228-8.4276316 0-15.116228 6.8223684-15.116228 15.116228z" fill="#19a0ff"/><g stroke="#3a96e2" stroke-width="1.579696"><path d="m40.1883165 2.16883102-.1042498 2.08499697"/><path d="m46.9124317.08383406-1.0424985 5.21249241"/><path d="m53.1674226 5.29632647-1.0424985 2.08499697"/><path d="m60.464912 7.38132344-4.1699939 4.16999396"/><path d="m62.549909 15.7213113-2.084997 1.0424985"/><path d="m67.7624014 20.9859286-5.2124924.9382487"/><path d="m65.6774044 27.7100438h-2.084997"/><path d="m40.0840667 54.2937552.1042498-2.084997"/><path d="m33.4120764 56.3787521.9382486-5.2124924"/><path d="m27.1570855 51.1662597.9382486-2.084997"/><path d="m19.8074712 49.0812627 3.1274954-4.1699939"/><path d="m17.7224742 41.7316484 2.084997-.9382486"/><path d="m12.5099818 35.5287825 5.2124924-1.0424985"/><path d="m14.5949788 28.6482925 2.0849969.2084997"/><path d="m12.5099818 20.9859286 5.2124924.9382487"/><path d="m17.7224742 15.7734362 2.084997.9382487"/><path d="m19.8074712 8.42382192 3.1274954 3.12749548"/><path d="m27.1570855 6.33882495.9382486 2.08499697"/><path d="m32.317453.08383406 1.0424984 5.21249241"/><g transform="translate(0 131.565319)"><path d="m.01400775 1.0946288h3.66101695"/><path d="m231.847606 1.09462341h8.135593"/><path d="m6.6440678 1.09462341h222.1016952"/></g></g><g transform="translate(34.460511 22.068567)"><use fill="#000" fill-rule="nonzero" xlink:href="#a"/><g fill="#fff" mask="url(#b)"><path d="m0 0h21.984733v21.984733h-21.984733z" transform="translate(-5.496183 -4.580153)"/></g></g></g></svg>