<svg viewBox="0 0 847 635" xmlns="http://www.w3.org/2000/svg"><g fill="none" fill-rule="evenodd"><g><path d="m836.975261 170.224536c12.20567 76.083129-283.802615 125.709551-538.583809 91.076468-254.7811929-34.633083-371.662724-169.8791797-250.0853863-241.9436164 121.5773373-72.0644367 776.4635243 74.7840187 788.6691953 150.8671484z" fill="#f8fafd" opacity=".6" transform="translate(9.32973 351.964706)"/><rect fill="#f2f2f2" height="302" rx="8" width="159" x="155.608108" y="48.388235"/><circle cx="234.608108" cy="316.388235" fill="#fff" r="15"/><g fill="#fff"><circle cx="221.608108" cy="66.388235" r="2"/><rect height="4" rx="2" width="21" x="228.608108" y="64.388235"/></g><rect fill="#fff" height="54" rx="4" width="131" x="169.608108" y="76.388235"/><g fill="#dde3e9"><rect height="8.1" rx="3" width="73" x="208.608108" y="92.588235"/><rect height="8.1" rx="3" width="49" x="208.608108" y="106.088235"/></g><circle cx="190.608108" cy="103.388235" fill="#c5cfd6" r="12"/><rect fill="#fff" height="42" rx="4" width="131" x="169.608108" y="138.388235"/><g fill="#dde3e9"><rect height="6.3" rx="3" width="73" x="208.608108" y="150.988235"/><rect height="6.3" rx="3" width="49" x="208.608108" y="161.488235"/></g><circle cx="190.608108" cy="159.388235" fill="#c5cfd6" r="12"/><rect fill="#fff" height="42" rx="4" width="131" x="169.608108" y="188.388235"/><g fill="#dde3e9"><rect height="6.3" rx="3" width="73" x="208.608108" y="200.988235"/><rect height="6.3" rx="3" width="49" x="208.608108" y="211.488235"/></g><circle cx="190.608108" cy="209.388235" fill="#afb9c5" r="12"/><rect fill="#fff" height="42" rx="4" width="131" x="169.608108" y="238.388235"/><g fill="#dde3e9"><rect height="6.3" rx="3" width="73" x="208.608108" y="250.988235"/><rect height="6.3" rx="3" width="49" x="208.608108" y="261.488235"/></g><circle cx="190.608108" cy="259.388235" fill="#c5cfd6" r="12"/><rect fill="#dde3e9" height="302" rx="8" width="159" x="232.732432" y="78.670588"/><circle cx="311.732432" cy="346.670588" fill="#fff" r="15"/><g fill="#fff"><circle cx="298.732432" cy="96.670588" r="2"/><rect height="4" rx="2" width="21" x="305.732432" y="94.670588"/></g><rect fill="#fff" height="54" rx="4" width="131" x="246.732432" y="106.670588"/><g fill="#dde3e9"><rect height="8.1" rx="3" width="73" x="255.732432" y="122.870588"/><rect height="8.1" rx="3" width="49" x="255.732432" y="136.370588"/></g><circle cx="363.732432" cy="133.670588" fill="#dde3e9" r="7"/><circle cx="363.732432" cy="133.670588" fill="#f2f2f2" r="3"/><rect fill="#fff" height="42" rx="4" width="131" x="246.732432" y="168.670588"/><g fill="#dde3e9"><rect height="6.3" rx="3" width="73" x="285.732432" y="181.270588"/><rect height="6.3" rx="3" width="49" x="285.732432" y="191.770588"/></g><circle cx="267.732432" cy="189.670588" fill="#c5cfd6" r="12"/><rect fill="#fff" height="42" rx="4" width="131" x="246.732432" y="218.670588"/><rect fill="#dde3e9" height="6.3" rx="3" width="73" x="255.732432" y="231.270588"/><rect fill="#afb9c5" height="6.3" rx="3" width="49" x="255.732432" y="241.770588"/><circle cx="363.732432" cy="239.670588" fill="#dde3e9" r="7"/><circle cx="363.732432" cy="239.670588" fill="#f2f2f2" r="3"/><rect fill="#fff" height="42" rx="4" width="131" x="246.732432" y="268.670588"/><g fill="#dde3e9"><rect height="6.3" rx="3" width="73" x="285.732432" y="281.270588"/><rect height="6.3" rx="3" width="49" x="285.732432" y="291.770588"/></g><circle cx="267.732432" cy="289.670588" fill="#c5cfd6" r="12"/><g transform="translate(345.878378 111.411765)"><rect fill="#f2f2f2" height="346" rx="8" width="335"/><rect fill="#fff" height="81" rx="8" width="70" x="249" y="43"/><g fill="#dde3e9"><circle cx="284" cy="74" r="16"/><rect height="6" rx="3" width="50" x="259" y="94"/><rect height="6" rx="3" width="34" x="267" y="104"/></g><path d="m8 0h319c4.418278 0 8 3.581722 8 8v19h-335v-19c0-4.418278 3.581722-8 8-8z" fill="#c5cfd6"/><g fill="#f2f2f2"><circle cx="13" cy="14" r="4"/><circle cx="25" cy="14" r="4"/><circle cx="37" cy="14" r="4"/></g><rect fill="#fff" height="194" rx="8" width="70" x="249" y="132"/><rect fill="#dde3e9" height="26" rx="4" width="34" x="267" y="150"/><rect fill="#afb9c5" height="25" rx="4" width="34" x="267" y="184"/><rect fill="#dde3e9" height="25" rx="4" width="34" x="267" y="217"/><rect fill="#dde3e9" height="25" rx="4" width="34" x="267" y="283"/><rect fill="#c5cfd6" height="25" rx="4" width="34" x="267" y="250"/><rect fill="#fff" height="47" rx="4" width="225" x="16" y="44"/><g fill="#dde3e9"><rect height="7.05" rx="3" width="167" x="25" y="58.1"/><rect height="7.05" rx="3" width="112.09589" x="25" y="69.85"/></g><circle cx="216.954198" cy="67.5" fill="#dde3e9" r="7"/><circle cx="216.954198" cy="67.5" fill="#f2f2f2" r="3"/><rect fill="#fff" height="39" rx="4" width="225" x="16" y="99"/><g fill="#dde3e9"><rect height="5.85" rx="2.925" width="167" x="25" y="110.7"/><rect height="5.85" rx="2.925" width="112.09589" x="25" y="120.45"/></g><circle cx="216.954198" cy="118.5" fill="#dde3e9" r="7"/><circle cx="216.954198" cy="118.5" fill="#f2f2f2" r="3"/><rect fill="#fff" height="39" rx="4" width="225" x="16" y="146"/><g fill="#dde3e9"><rect height="5.85" rx="2.925" width="167" x="25" y="157.7"/><rect height="5.85" rx="2.925" width="112.09589" x="25" y="167.45"/></g><circle cx="216.954198" cy="165.5" fill="#dde3e9" r="7"/><circle cx="216.954198" cy="165.5" fill="#afb9c5" r="3"/><rect fill="#fff" height="39" rx="4" width="225" x="16" y="287"/><g fill="#dde3e9"><rect height="5.85" rx="2.925" width="167" x="25" y="298.7"/><rect height="5.85" rx="2.925" width="112.09589" x="25" y="308.45"/></g><circle cx="216.954198" cy="306.5" fill="#dde3e9" r="7"/><circle cx="216.954198" cy="306.5" fill="#f2f2f2" r="3"/><rect fill="#fff" height="39" rx="4" width="225" x="16" y="240"/><g fill="#dde3e9"><rect height="5.85" rx="2.925" width="167" x="25" y="251.7"/><rect height="5.85" rx="2.925" width="112.09589" x="25" y="261.45"/></g><circle cx="216.954198" cy="259.5" fill="#dde3e9" r="7"/><circle cx="216.954198" cy="259.5" fill="#f2f2f2" r="3"/><rect fill="#fff" height="39" rx="4" width="225" x="16" y="193"/><g fill="#dde3e9"><rect height="5.85" rx="2.925" width="167" x="25" y="204.7"/><rect height="5.85" rx="2.925" width="112.09589" x="25" y="214.45"/></g><circle cx="216.954198" cy="212.5" fill="#dde3e9" r="7"/><circle cx="216.954198" cy="212.5" fill="#f2f2f2" r="3"/></g><g fill="#dde3e9"><rect height="25" rx="3" width="6" x="625.940541" y="32.258824"/><rect height="41" rx="3" width="6" x="639.940541" y="16.258824"/><rect height="49" rx="3" width="6" x="653.940541" y="8.258824"/><rect height="41" rx="3" width="6" x="667.940541" y="16.258824"/></g><rect fill="#c5cfd6" height="57" rx="3" width="6" x="681.940541" y=".258824"/><g transform="matrix(-1 0 0 1 40.713514 331.964706)"><path d="m40 20.256388c0-11.13898776-9.002-20.256388-20-20.256388v20.256388l13.668 14.743612c3.888-3.6046242 6.332-8.8925543 6.332-14.743612z" fill="#f2f2f2"/><path d="m20.5292199 20h-20.1972199c0 5.221 2.12979684 10.113 5.4966734 13.668 3.70316027 3.888 8.9766544 6.332 14.7005465 6.332 5.2724843 0 10.09861-2.109 13.8027801-5.443z" fill="#afb9c5"/><path d="m0 20c0-10.998 9.002-20 20-20v20zm30-20-8 18 18-8c-1.78-4.666-5.777-8.22-10-10z" fill="#c5cfd6"/></g><g transform="translate(778.724324 324.294118)"><path d="m37.7664728 37.179c-1.9215789 2.04-4.6436902 3.321-7.6712678 3.321-5.8174031 0-10.5333217-4.701-10.5333217-10.5s4.7159186-10.5 10.5333217-10.5v-19.5c-16.5493532 0-30.095205 13.503-30.095205 30s13.5458518 30 30.095205 30c8.693 0 16.5493533-3.666 21.904795-9.498z" fill="#f2f2f2"/><path d="m30 0v19.5c5.799 0 10.5 4.701 10.5 10.5h19.5c0-16.497-13.503-30-30-30z" fill="#afb9c5"/><path d="m40.0969635 30c0 3.4069834-1.6044909 6.4354131-4.0969635 8.3907651l12.2618015 15.6092349c7.1375351-5.5882465 11.7381985-14.2507155 11.7381985-24z" fill="#c5cfd6"/></g><g transform="translate(546.664865 12.164706)"><path d="m29.0511329 28.5039c-1.4781376 1.564-3.5720693 2.5461-5.9009752 2.5461-4.4749255 0-8.1025552-3.6041-8.1025552-8.05s3.6276297-8.05 8.1025552-8.05v-14.95c-12.7302717 0-23.1501577 10.3523-23.1501577 23s10.419886 23 23.1501577 23c6.6869231 0 12.7302717-2.8106 16.8498423-7.2818z" fill="#f2f2f2"/><path d="m23 0v14.95c4.4459 0 8.05 3.6041 8.05 8.05h14.95c0-12.6477-10.3523-23-23-23z" fill="#afb9c5"/><path d="m31.0727226 23c0 2.5552376-1.2033682 4.8265598-3.0727226 6.2930738l9.1963511 11.7069262c5.3531513-4.1911849 8.8036489-10.6880366 8.8036489-18z" fill="#c5cfd6"/></g><g transform="translate(68.710811 6.576471)"><g fill="#c5cfd6"><path d="m48.007 51.9862978c-.004.01-.008.02-.014.032.006-.01.014-.05.014-.032"/><path d="m47.9976864 52.0014952c0 .002-.002.006-.002.01 0-.01.018-.04.002-.01"/><path d="m48.0671431 51.8323017c-.014.04-.032.078-.048.118.008-.02.016-.036.024-.056-.208.52-.076.182.024-.062"/><path d="m48.0223751 51.95275c-.008.018-.016.038-.024.056-.058.112.024-.056.024-.056"/><path d="m48 52.001v-.002z"/><path d="m47.999 52.002c0-.002 0-.002.002-.004-.002.002-.002.002-.002.004"/><path d="m47.9895117 52.0163509c-.012.024.056-.092 0 0"/><path d="m47.998 52.002.004-.004c-.002.002-.002.004-.004.004"/></g><rect fill="#dde3e9" height="63" rx="4" width="95"/><g transform="translate(8 18)"><path d="m28 0-28 45h56z" fill="#afb9c5"/><path d="m55.5 12-24.5 33h49z" fill="#c5cfd6"/></g><circle cx="74" cy="21" fill="#fff" r="9"/></g><g transform="matrix(-1 0 0 1 791.183784 477.341176)"><g fill="#c5cfd6"><path d="m71.007 76.9862978c-.004.01-.008.02-.014.032.006-.01.014-.05.014-.032"/><path d="m70.9976864 77.0014952c0 .002-.002.006-.002.01 0-.01.018-.04.002-.01"/><path d="m71.0671431 76.8323017c-.014.04-.032.078-.048.118.008-.02.016-.036.024-.056-.208.52-.076.182.024-.062"/><path d="m71.0223751 76.95275c-.008.018-.016.038-.024.056-.058.112.024-.056.024-.056"/><path d="m71 77.001v-.002z"/><path d="m70.999 77.002c0-.002 0-.002.002-.004-.002.002-.002.002-.002.004"/><path d="m70.9895117 77.0163509c-.012.024.056-.092 0 0"/><path d="m70.998 77.002.004-.004c-.002.002-.002.004-.004.004"/></g><rect fill="#dde3e9" height="94" rx="4" width="142"/><g transform="translate(11 27)"><path d="m41.7257937 0-41.05500005 67h82.11000005z" fill="#afb9c5"/><path d="m84.0557937 17.9464286-36.295 49.0535714h72.5900003z" fill="#c5cfd6"/></g><circle cx="110.5" cy="31.5" fill="#fff" r="13.5"/></g></g><g transform="matrix(-1 0 0 1 709 143)"><path d="m9.29505812 38.8013926c-5.18389823-6.0848447-8.69246898-13.5419058-8.10618474-21.897757 1.68924812-24.07553375 35.20322362-18.77922306 41.72238572-6.6279611 6.519162 12.151262 5.7445161 42.9739458-2.68092 45.1457153-3.3600523.8660986-10.5179628-1.2554962-17.8030456-5.6465455l4.5727065 32.3501557h-27z" fill="#ff8c6d" transform="translate(138.75 42.875)"/><path d="m166.271944 39.1459139c-3.558522-.5835589-13.139999-.9847717-14.906995-.9845127-1.129193 0-2.352895.2579781-3.021683-.7788555-.547684-.8490482-.347047-2.2850225-.5105-3.2703122-.189791-1.1445834-.459372-2.274403-.732052-3.4013734-.775949-3.2068538-1.949298-6.2577811-3.591058-9.1222182-3.080557-5.3740249-7.593458-9.5835223-13.290811-12.03301883-6.291517-2.70462541-13.410884-3.32392817-20.178299-2.77533627-7.242022.58692599-13.7976963 2.97762629-20.6353466 5.2274229-6.5159089 2.1438599-13.3406482 2.9877279-20.1555751 1.9407928-6.8663126-1.0547055-12.0544573-4.77622033-17.8460607-8.30839584-5.9289761-3.61609609-12.7046537-5.981154-19.7137617-5.43748336-6.5427636.50766766-12.5729618 3.20918491-17.9831751 6.8180286-5.0618753 3.376508-9.23857444 7.4388855-11.59663419 13.1563631-2.5367476 6.1502902-2.53442362 12.9012341 1.63711113 18.3366454 6.04646596 7.8786914 17.27152246 9.9160965 26.61028596 9.7135474 5.4016921-.1168154 10.7068101-1.1028821 15.8066437-2.8965549 6.8012413-2.3922543 12.6785735-6.4468613 19.0413583-9.7365996 2.9860494-1.5437242 6.0725461-2.8115983 9.3077773-3.7248821 3.1394317-.8866053 6.2316092-1.2932574 9.0740886.6032439 3.0069652 2.0063234 5.7014848 3.9771618 9.141484 5.2331212 3.3000442 1.2049337 6.7955605 1.8788885 10.3114764 1.851692 6.840749-.0528389 13.584149-2.1842661 20.228135-3.6119519 5.417959-1.1640094 11.214985-2.3241337 16.738557-1.2051927 2.304867.4670025 5.671531 1.431053 6.504031 3.8264156-14.011244 2.5393744-19.514145 19.8674188-15.564163 32.5878611 2.13186 6.8656872 14.94676 14.891603 19.929362 11.2822075 3.156622-2.2866558 1.240228-5.2886208 0-7.2703378-2.375102-3.7950749-3.187719-8.6699796 1.207176-11.3121826 3.790919-2.2788062 7.77681 3.1327538 7.85221 3.1267965 1.041915-.0821075 10.044969-5.1737301 16.24791-12.6036989 6.119223.3627412 7.047598-3.6721175 5.586447-6.9718736-1.46115-3.2997561-10.581183-7.4525287-15.497939-8.2593576z" fill="#30333f"/></g><g transform="matrix(-1 0 0 1 637 363)"><path d="m48.7866667 0 42.2719743 138.466535 20.477599 117.75687h16.055851l-21.637897-256.223405z" fill="#e44858"/><path d="m33.664047 0c2.8712149 76.0255703-.5078171 115.240936-1.1504293 122.14819-.6426123 6.907253-9.4420772 51.694256-30.27374224 136.393979l17.10870924-5.887353c32.9225042-77.682181 44.1413198-118.054982 47.9172818-128.25558 3.7759621-10.200599 13.8047297-51.6670105 30.0863029-124.399236z" fill="#ef4f60"/><path d="m2.1313891 7.30804686c-1.33349437 3.49496924-2.00024156 6.09858014-2.00024156 7.81083284 0 2.028697.33981279 4.9890704 1.01943837 8.8811203h63.79877119c1.6579039-5.4511793.7008656-8.3940957-2.8711149-8.828749-3.5719804-.4346532-6.5392853-.8271104-8.9019145-1.1773713l-29.7791455-13.20354104c-.504883-.22385612-1.0956428.00396122-1.3194989.50884426-.0032963.00743437-.0065018.01490868-.0096157.02242126l-1.95722 4.72192774c-3.3067197 1.53445176-5.9937727 2.30167763-8.0611591 2.30167763-1.7267491 0-4.12983145-.71301501-7.20924709-2.13904502l.00000794-.00001716c-1.00232325-.46416048-2.1911432-.02789336-2.65530368.97442989-.01938345.04185725-.03731303.08437254-.05375657.1274696z" fill="#e4e4e4" transform="translate(0 245)"/><path d="m2.1313891 7.30804686c-1.33349437 3.49496924-2.00024156 6.09858014-2.00024156 7.81083284 0 2.028697.33981279 4.9890704 1.01943837 8.8811203h63.79877119c1.6579039-5.4511793.7008656-8.3940957-2.8711149-8.828749-3.5719804-.4346532-6.5392853-.8271104-8.9019145-1.1773713l-29.7791455-13.20354104c-.504883-.22385612-1.0956428.00396122-1.3194989.50884426-.0032963.00743437-.0065018.01490868-.0096157.02242126l-1.95722 4.72192774c-3.3067197 1.53445176-5.9937727 2.30167763-8.0611591 2.30167763-1.7267491 0-4.12983145-.71301501-7.20924709-2.13904502l.00000794-.00001716c-1.00232325-.46416048-2.1911432-.02789336-2.65530368.97442989-.01938345.04185725-.03731303.08437254-.05375657.1274696z" fill="#e4e4e4" transform="translate(106 245)"/><path d="m43.17 0 17.9733333 70.5472423h54.8976567l-8.185464-70.5472423z" fill="#69a1ac"/><path d="m33.06 0c-5.9138567 17.7613678-7.03719 41.2771152-3.37 70.5472423h56.0209904l15.4045356-70.5472423z" fill="#89c5cc"/></g><g transform="matrix(-.99026807 .1391731 .1391731 .99026807 665.383954 222.379473)"><path d="m200.429764 109.832461 31.868892 31.033983c9.272673 3.948237 16.870308 8.307888 22.792904 13.078952 1.331903 1.603717 2.781897 4.676522-3.484642 3.301486-6.266538-1.375036-12.919947-2.540041-14.097731-.505749-1.177785 2.034292 2.292653 5.151549.115962 7.813914-1.451128 1.774909-6.331385-3.87073-14.640771-16.93692l-33.139433-19.503363zm-155.8387481-28.0868272 24.6345658.0922873c-18.76247 60.6796759-28.7221909 92.4505919-29.8791626 95.3127489-2.6031865 6.439853 2.9055061 16.247638 5.2612417 21.518269-7.6725523 3.427118-6.8550337-9.264901-16.533752-4.770044-8.8342853 4.102697-15.5545041 11.53651-25.76124419 5.249864-1.25485872-.772906-2.62997944-3.683037.69248606-5.957151 8.27747323-5.665646 20.20581353-15.581548 21.81752023-18.845444 2.1978499-4.450905 8.7872982-35.317749 19.768345-92.6005302z" fill="#ef4f60"/><path d="m114.124453 16.9172112 9.54583-2.5071041c19.979137 52.5328909 101.629229 82.3894187 108.206208 102.1055569 2.411952 7.230429-2.585848 11.429389.361283 13.438144l-11.791104 10.306671c-2.350438-2.297687-6.504857 2.644942-16.288995.297818-9.784139-2.347124-84.452769-59.8562175-90.033222-123.6410858z" fill="#33d898" transform="matrix(.9961947 .08715574 -.08715574 .9961947 7.441125 -14.811596)"/><path d="m136.020955 19.1667551c-1.125622 71.5986192 40.337289 89.8605469 31.102215 118.5810069-7.625814 23.715769-80.6174225 49.21012-93.24817 25.96307-5.1127653-9.41011-7.432448-20.790972-7.6956447-33.164428-3.2281545 9.506068-5.7812661 17.689654-7.6593376 24.550765-3.2399358 11.836375-15.8004754 13.71782-15.8004754 18.277617l-16.5483336-4.559797c1.1224345-6.194673-6.6788498-9.21111-4.5871221-23.050551 9.3721812-62.0089051 34.5535652-106.9571891 75.5441519-134.8448516l.4592753-6.54426875c.1543485-2.20335157 2.0653626-3.86457044 4.2687522-3.71076906l.000069-.00099092 31.298572 2.1837126c2.203777.15382839 3.865589 2.06504497 3.71176 4.26882172-.000023.00033027-.000046.00066053-.000069.00099079z" fill="#35e8a3"/></g><g transform="translate(209 231)"><path d="m9.29505812 38.8013926c-5.18389823-6.0848447-8.69246898-13.5419058-8.10618474-21.897757 1.68924812-24.07553375 35.20322362-18.77922306 41.72238572-6.6279611 6.519162 12.151262 5.7445161 42.9739458-2.68092 45.1457153-3.3600523.8660986-10.5179628-1.2554962-17.8030456-5.6465455l4.5727065 32.3501557h-27z" fill="#ff8c6d" transform="translate(17.75 30.875)"/><path d="m49.9964319 27.9162233c-3.6893718-1.125-9.0450434-1.5065235-11.2980152-1.248426 1.2815931-3.0705979 1.790148-6.4916133 1.375553-9.8225758-.4029685-3.2366472-1.8492282-5.9925584-3.1868011-8.88042032-.6165529-1.33111536-1.315267-2.65497569-2.3570081-3.6731275-1.0612049-1.03728692-2.4045479-1.72197973-3.8131721-2.04863714-1.441523-.33436588-2.9488438-.30652473-4.392606-.00308339-.6386865.13421793-1.2117475.42623261-1.8381184.58856375-.6414425.16632141-.9526041-.23515343-1.4181838-.63862341-1.1220075-.97217309-2.7668664-1.45209287-4.186342-1.62385554-1.5925824-.19262086-3.2451062.04761109-4.7639675.57115169-1.4783836.50966538-2.8986343 1.33728213-3.9675041 2.54297628-.47591442.53669034-.90790627 1.14756328-1.18866652 1.82200836-.11514615.27677914-.13417928.44074266-.41037502.54213161-.25544016.09386186-.55420007.09658249-.81782189.18590996-2.54906192.86334775-4.7284849 2.83290514-5.91517063 5.36173415-.692341 1.4753089-1.02029653 4.0728065-.93047047 6.9841746.08982605 2.9113681 2.71863767 10.5079581 5.17735681 13.2788328 2.1946667 2.4732374 5.42056752 4.1053455 8.53381972 4.8197839-2.0664298 2.3619635-3.4419828 5.3134882-4.4591789 8.315254-1.10486913 3.2606795-1.78868398 6.6486846-2.04119595 10.1007152-.23985194 3.2798146-.26207161 6.7482598.50683253 9.9580634.71929743 3.0016751 2.25753632 5.4641206 4.82545912 7.0263084 1.1762649.7156174 2.4418391 1.2532146 3.7147337 1.744561 1.2544644.4841821 2.5127181.9549424 3.8267795 1.2266431 2.4869674.5140183 5.3525305.4257791 7.2682455-1.5537539.6904463-.7136222 1.4497909-1.6103431 1.953523-2.4821248.1811162-.3135077.2903198-.5185528.0702762-.8249868-.2636219-.3670135-.6900157-.6482363-1.0286505-.9353539-1.931131-1.6370052-3.1265151-3.8223996-3.4278587-6.4195165-.3057359-2.635115.4021072-6.0363605 2.9640876-7.1863724 3.1625144-1.4196266 6.6453195.2098516 9.4561947 1.7287813 1.194609-4.2162566 3.6474718-8.0125382 7.4931121-9.9465459 4.2545513-2.139597 9.1365931-2.389986 13.5087881-4.2257789 1.1393182-.4783781 2.2997364-1.0214166 3.1385723-1.9961289.3505197-.4073696.7617559-.9358073.9017054-1.4745835.1838722-.7077275-.2725785-1.3010977-.6251652-1.8528422-1.8695532-2.9254974-8.9593954-8.8358567-12.6487672-9.9608567z" fill="#30333f"/></g><g transform="translate(94 438)"><ellipse cx="130.733333" cy="113.320354" fill="#c5cfd6" rx="86.625" ry="82.983871"/><path d="m293.995394 183.077403c-14.393028-31.917923-24.801921-59.71076-28.980012-74.374327-7.153906-25.1075861-12.596168-47.2007958-13.971678-55.4514571-3.28008-19.6747601 25.232255-20.8204607 29.000987-11.0424477 5.704125 14.7994109 15.662237 63.4240998 27.627668 136.8698818zm-166.950818-100.1673919c13.205588-5.2299842 59.450854-21.5972798 81.754946-26.2272883 6.409301-1.3304787 12.621384-2.5666435 18.461832-3.6837928 17.359876-3.3205631 26.353921 28.0583428 9.634243 30.4693565-41.638608 6.0043769-100.668367 12.2048718-105.720024 12.9007092-7.080113.9752459-12.430298-10.1721026-4.130997-13.4589846z" fill="#ef4f60"/><path d="m237.916199 44.3639048-71.429532-36.43266219v-7.93124261h8.494855c69.104872 17.6433861 104.417406 28.9503311 105.937601 33.920835.016355.0534768.031351.1070236.044987.1606406.034777.0457352.068965.091747.102557.138035 13.695125 18.8714389 21.89708 111.0033084 24.58911 117.9018304l-26.24296 3.922719c-10.038629-37.297673-42.15615-63.280591-41.302993-107.9515753-.230371-1.3103732-.28858-2.5530394-.193625-3.7285799z" fill="#1f28cf"/><path d="m172.421432 66.0012054c-6.535637-1.3108422-12.554256-2.4807488-17.70426-3.3858174-33.265737-5.8461646-42.966308-23.6877673-37.230812-62.615388h61.291553c10.01208 2.88169691 62.044255 24.7444407 89.040859 36.372781 17.867736 7.6962314 12.235244 35.4406298 2.116736 42.6608618-.054946.4429473-.237046.7438286-.56132.8784911-54.430441 22.6034881-97.489915 10.7434954-111.874188 14.5329415l-6.653369-21.0289917z" fill="#2b44ff"/><g fill="#e4e4e4"><path d="m2.1313891 7.30804686c-1.33349437 3.49496924-2.00024156 6.09858014-2.00024156 7.81083284 0 2.028697.33981279 4.9890704 1.01943837 8.8811203h63.79877119c1.6579039-5.4511793.7008656-8.3940957-2.8711149-8.828749-3.5719804-.4346532-6.5392853-.8271104-8.9019145-1.1773713l-29.7791455-13.20354104c-.504883-.22385612-1.0956428.00396122-1.3194989.50884426-.0032963.00743437-.0065018.01490868-.0096157.02242126l-1.95722 4.72192774c-3.3067197 1.53445176-5.9937727 2.30167763-8.0611591 2.30167763-1.7267491 0-4.12983145-.71301501-7.20924709-2.13904502l.00000794-.00001716c-1.00232325-.46416048-2.1911432-.02789336-2.65530368.97442989-.01938345.04185725-.03731303.08437254-.05375657.1274696z" transform="matrix(.43837115 .89879405 -.89879405 .43837115 137.162758 74.732843)"/><path d="m2.1313891 7.30804686c-1.33349437 3.49496924-2.00024156 6.09858014-2.00024156 7.81083284 0 2.028697.33981279 4.9890704 1.01943837 8.8811203h63.79877119c1.6579039-5.4511793.7008656-8.3940957-2.8711149-8.828749-3.5719804-.4346532-6.5392853-.8271104-8.9019145-1.1773713l-29.7791455-13.20354104c-.504883-.22385612-1.0956428.00396122-1.3194989.50884426-.0032963.00743437-.0065018.01490868-.0096157.02242126l-1.95722 4.72192774c-3.3067197 1.53445176-5.9937727 2.30167763-8.0611591 2.30167763-1.7267491 0-4.12983145-.71301501-7.20924709-2.13904502l.00000794-.00001716c-1.00232325-.46416048-2.1911432-.02789336-2.65530368.97442989-.01938345.04185725-.03731303.08437254-.05375657.1274696z" transform="translate(285 170)"/></g></g><g transform="translate(143 315)"><path d="m176.628855 107.553005 35.885555 26.304576c9.732902 2.621607 17.864426 5.883328 24.394574 9.785164 1.542534 1.403075 3.406832 4.244535-2.990431 3.75346s-13.148348-.720417-14.031046 1.4577c-.882698 2.178118 2.988579 4.782908 1.204262 7.72176-1.189545 1.959234-6.809432-2.953473-16.85966-14.738122l-35.536113-14.709661zm-137.7824359.907836 23.5095657.092287c-14.5160721 46.776846-22.352594 71.596348-23.5095657 74.458505-2.6031865 6.439853 2.9055061 16.247638 5.2612417 21.518268-7.6725523 3.427119-6.8550337-9.264901-16.533752-4.770043-8.8342853 4.102697-15.5545041 11.53651-25.76124419 5.249864-1.25485872-.772906-2.62997944-3.683037.69248606-5.957151 8.27747323-5.665646 20.20581353-15.581548 21.81752023-18.845444 2.1978499-4.450906 7.0390993-28.366334 14.5237482-71.746286z" fill="#ef4f60"/><path d="m100.083503 14.7667851 9.54583-2.507104c38.669072 27.8600406 58.649002 86.1338655 105.48335 113.8324149l-9.459805 14.053888c-77.286577-2.760636-102.594391-73.7587243-105.569375-125.3791989z" fill="#46b7db" transform="matrix(.9961947 .08715574 -.08715574 .9961947 7.241223 -13.445604)"/><path d="m63.25 132.02139h86.075382c3.933206 0 3.192068-5.669284 2.6235-8.530036-6.561971-33.0165362-32.177415-68.6067644-32.177415-115.60497238l-24.8281919-3.88638162c-20.5361045 32.9693339-27.6378455 73.5612593-31.6932751 128.02139z" fill="#dde3e9"/><path d="m63.9416965 36.4073331c-3.6059834-1.0346938-6.4615489-3.4479225-8.5666965-7.2396864-9.0747484-16.3453156-5.797432-25.34462256 3.900596-28.30274557s18.3466382 3.13509887 33.7981892 3.13509887c.8404357 0 1.6101801.05259269 2.3092333.15777806l7.7725175.44273204c22.300198 75.4432911 28.45046 125.7778809 18.450785 151.0037679h-67.7480302c-4.0139987 9.343171-7.8550568 17.204133-11.5231741 23.582888h-18.4601167c-1.7373564-56.07439 11.6182091-103.6676677 40.0666965-142.7798329z" fill="#5bd3f9"/><path d="m68.6108823 116.858306c2.1306624 17.795411 5.5937016 30.710735 10.3891177 38.745972h-25.1417092c4.6822174-10.898547 9.5997477-23.813872 14.752591-38.745973z" fill="#000" fill-opacity=".1"/></g></g></svg>