<svg xmlns="http://www.w3.org/2000/svg" xmlns:xlink="http://www.w3.org/1999/xlink" x="0px" y="0px" viewBox="0 0 423 428" style="enable-background:new 0 0 423 428;" xml:space="preserve">
              <g fill="none">
                <path d="m207 0h203v293h-203z" fill="#f3f3f3" />
                <g fill="#3a96e2">
                  <path d="m0 356h59v72h-59z" />
                  <path d="m82 301h59v127h-59z" />
                  <path d="m158 241h59v187h-59z" />
                </g>
                <path d="m101 308h8v8h-8z" fill="#de8e68" />
                <path d="m176 239h8v8h-8z" fill="#de8e68" />
                <path
                  d="m147.699049 160c4.173059 0 37.653513 4.855038 52.300951 12.581104-2.015588 10.07431-15.185763 69.418896-15.185763 69.418896h-8.200061s-3.088064-49.96018-3.755753-49.544523c-4.435962 2.343959-22.042099 8.25742-40.858423 8.544523"
                  fill="#55c5e9" />
                <path d="m150 163-39.828473 145h-7.171527v-145" fill="#5bd3f9" />
                <path
                  d="m157.277187 102.448216c2.005991.882411 8.880126 6.691267 10.108536 8.782288 11.225273-14.131119 29.738288-28.3918816 31.252086-30.0396061 1.513799-1.6477245 1.98531-10.8273063 1.98531-12.8346863 0-2.0073801 2.738073-7.3562116 5.376881-7.3562116v24.0676507s-30.979106 43.9323493-36.07887 43.9323493c-3.30885 0-19.650432-7.260025-21.92113-9.455597"
                  fill="#ef4f60" />
                <path
                  d="m130.692411 93.2223914c4.02685-6.740456 27.307589 3.6988252 27.307589 6.9216056 0 3.222781-8.632459 18.064422-12.500355 17.853783-3.081274-.15166-18.976736-17.777953-14.807234-24.7753886z"
                  fill="#cfd793" />
                <path
                  d="m124.072331 83c31.909607 0 30.124639 75.803895 25.08628 79.511877-5.038359 3.707981-46.391592 5.507443-50.1725594 0-3.7809675-5.507443-5.2449933-79.511877 25.0862794-79.511877z"
                  fill="#35e8a3" />
                <path
                  d="m90.9467338 106c-5.5833529 1.736971-19.9467338 28.550651-19.9467338 32.642182 0 8.577633 29.246546 46.357818 32.967338 46.357818 1.550691-2.663355 4.032662-8.187351 4.032662-8.187351s-17.5687193-32.440608-20.7913838-36.63507c2.7895107-2.57329 12.9166468-16.065907 14.5712948-20.260369 1.654648-4.194463 1.035238-13.200978 1.035238-13.200978z"
                  fill="#ef4f60" />
                <path
                  d="m110.414705 91.560616c7.072617 3.6419261-2.255846 27.241607-5.53864 27.435843s-18.876065-7.652091-18.876065-11.496346c0-3.091591 17.058497-19.7392399 24.414705-15.939497z"
                  fill="#dde59e" />
                <path d="m101 309v8h20v-2.902703l-12.143498-5.097297z" fill="#000" />
                <path d="m175 247v8h20v-2.897297l-12.140776-5.102703z" fill="#000" />
                <path d="m207 0h203v20h-203z" fill="#30333f" />
                <path d="m253 44h170v47h-170z" fill="#dfdfdf" />
                <path d="m264 49h152v8h-152z" fill="#5bd3f9" />
                <path d="m264 59h152v8h-152z" fill="#5bd3f9" />
                <path d="m264 72h152v8h-152z" fill="#5bd3f9" />
                <path d="m253 111h170v47h-170z" fill="#dfdfdf" />
                <circle cx="274" cy="134" fill="#5bd3f9" r="14" />
                <path d="m302 119h112v14h-112z" fill="#5bd3f9" />
                <path d="m302 134h112v8h-112z" fill="#5bd3f9" />
                <path d="m227 178h158v79h-158z" fill="#fff" />
                <path d="m133 66h-11v17.6793716c0 4.3905868 11 4.4642689 11 0z" fill="#ef4f60" />
                <path
                  d="m140.34659 60.489886c-2.159045-8.7274525-9.024467-14.6719471-15.335193-13.2905368-5.406146 1.2082307-8.644713 7.3782616-8.107086 14.615563-1.922497.524158-3.143685 2.3033193-2.864743 4.1736742.278941 1.870355 1.973042 3.2621645 3.974134 3.2649989.246301-.0022492.491903-.0251615.733905-.0684664 2.927084 6.6533233 8.708716 10.7975543 14.080727 9.6134883 6.310726-1.3814104 9.6773-9.5852962 7.518256-18.3087212z"
                  fill="#ff8c6d" />
                <path
                  d="m122.382907 62.8094985c1.568641 0 1.84253-2.2159724 1.84253-4.1814805 0-2.6319978 2.444258-5.0092862 3.950651-5.459273 2.726447-.80658 4.116644-.9933669 5.768282-1.910321 1.651637-.9169541 3.618663-2.2966304 3.618663-2.2966304.730866.9006395 1.395287 1.8556001 1.987775 2.8569912 1.514692-.4245158 9.449192-2.3603078 9.449192-8.176174 0-3.8206421-3.137281-4.3215707-4.564827-5.5187053-1.518843-1.2735473-.867317-5.1239055-4.979812-5.1239055-3.68506 0-5.498542 3.9607323-7.855653 5.484744-2.850942 1.8466436-8.44493.3608384-12.129991 4.2451578-1.788582 1.8848501-2.207716 6.5248077-3.319874 8.2228708-1.518843 2.3008756-4.149843 2.9716105-4.149843 6.4823561 0 2.5768108 2.137169 6.9280976 4.710072 7.5648713 0-2.5470947.908815-4.9838153 2.751346-4.9838153 2.004374 0 .618326 2.7933138 2.921489 2.7933138z"
                  fill="#30333f" />
              </g>
            </svg>