<?xml version="1.0" encoding="utf-8"?>
<!-- Generator: Adobe Illustrator 23.0.3, SVG Export Plug-In . SVG Version: 6.00 Build 0)  -->
<svg version="1.1" id="Layer_1" xmlns="http://www.w3.org/2000/svg" xmlns:xlink="http://www.w3.org/1999/xlink" x="0px" y="0px"
	 viewBox="0 0 1600 800" style="enable-background:new 0 0 1600 800;" xml:space="preserve">
<style type="text/css">
	.st0{fill:#E7EAF3;}
	.st1{opacity:0.3;fill:#00DFFC;enable-background:new    ;}
	.st2{fill:none;stroke:#FFFFFF;stroke-width:3;stroke-miterlimit:10;}
	.st3{fill:none;stroke:#FFFFFF;stroke-width:2.5;stroke-miterlimit:10;}
	.st4{opacity:0.5;fill:none;stroke:#97A4AF;stroke-width:7;stroke-linecap:round;stroke-miterlimit:10;enable-background:new    ;}
	.st5{fill:#FFFFFF;stroke:#E7EAF3;stroke-miterlimit:10;}
	.st6{fill:#F8FAFD;}
	.st7{fill:url(#SVGID_1_);}
	.st8{fill:url(#SVGID_2_);}
	.st9{clip-path:url(#SVGID_4_);}
	.st10{fill:none;stroke:#E7EAF3;stroke-miterlimit:10;}
	.st11{opacity:0.3;fill:#E7EAF3;enable-background:new    ;}
	.st12{fill:#FFFFFF;}
	.st13{clip-path:url(#SVGID_6_);}
</style>
<path class="st0" d="M7.7,800c0,0-93.9-225.9,374.6-320.7s374.6,180.9,719.9,64.1c124.2-42,220.5-53.5,292.9-51.1
	c120.1,4,213.4,104.8,204,222.1c-2.3,29.2-8.7,58.7-21.5,85.6H7.7z"/>
<circle class="st1" cx="234.5" cy="137.5" r="50.7"/>
<circle class="st2" cx="61.4" cy="693.5" r="9.1"/>
<circle class="st3" cx="98" cy="664.2" r="4.9"/>
<circle class="st4" cx="108" cy="367.1" r="10"/>
<g id="laptop">
	<path class="st5" d="M1328.8,798.6H270.8c-19.9,0-36.3-16.3-36.3-36.3v-726c0-19.9,16.3-36.3,36.3-36.3H1329
		c19.9,0,36.3,16.3,36.3,36.3v726.2C1365.1,782.3,1348.8,798.6,1328.8,798.6z"/>
	<circle class="st0" cx="797.9" cy="32.3" r="4.2"/>
	<path class="st6" d="M1488.1,778.1H112c-2.1,0-3.9-1.8-3.9-3.9l0,0c0-2.1,1.8-3.9,3.9-3.9h1376.1c2.1,0,3.9,1.8,3.9,3.9l0,0
		C1492,776.3,1490.4,778.1,1488.1,778.1z"/>
	
		<linearGradient id="SVGID_1_" gradientUnits="userSpaceOnUse" x1="107.9826" y1="1289.0563" x2="1492.0173" y2="1289.0563" gradientTransform="matrix(1 0 0 1 0 -500)">
		<stop  offset="5.913846e-07" style="stop-color:#E7EAF3"/>
		<stop  offset="5.235745e-02" style="stop-color:#F8FAFD"/>
		<stop  offset="0.1708" style="stop-color:#FDFDFD"/>
		<stop  offset="0.5" style="stop-color:#FFFFFF"/>
		<stop  offset="0.8292" style="stop-color:#FDFDFD"/>
		<stop  offset="0.9476" style="stop-color:#F8FAFD"/>
		<stop  offset="0.9955" style="stop-color:#E7EAF3"/>
	</linearGradient>
	<path class="st7" d="M800.1,780.6L108,778.1c0,0,33.4,15.7,163.2,21.9h526.7h4.3h526.7c129.8-6.2,163.2-21.9,163.2-21.9
		L800.1,780.6z"/>
	
		<linearGradient id="SVGID_2_" gradientUnits="userSpaceOnUse" x1="667.4978" y1="-1125.8467" x2="932.225" y2="-1125.8467" gradientTransform="matrix(1 0 0 -1 0 -350.5047)">
		<stop  offset="5.913846e-07" style="stop-color:#E7EAF3"/>
		<stop  offset="5.235745e-02" style="stop-color:#F8FAFD"/>
		<stop  offset="0.1708" style="stop-color:#FDFDFD"/>
		<stop  offset="0.5" style="stop-color:#FFFFFF"/>
		<stop  offset="0.8292" style="stop-color:#FDFDFD"/>
		<stop  offset="0.9476" style="stop-color:#F8FAFD"/>
		<stop  offset="0.9955" style="stop-color:#E7EAF3"/>
	</linearGradient>
	<path class="st8" d="M927.2,780.2H672.3c-2.6,0-4.8-2.2-4.8-4.8v-4.8h264.7v4.8C932.2,778,930,780.2,927.2,780.2z"/>
	<g>
		<g>
			<path id="showcaseMockup1_11" class="st0" d="M1314.6,702.6H280.3c-3.2,0-5.8-2.6-5.8-5.8V57.4c0-3.2,2.6-5.8,5.8-5.8h1034.3
				c3.2,0,5.8,2.6,5.8,5.8v639.4C1320.4,700.1,1317.7,702.6,1314.6,702.6z"/>
		</g>
		<g>
			<g>
				<defs>
					<path id="SVGID_3_" d="M1314.6,702.6H280.3c-3.2,0-5.8-2.6-5.8-5.8V57.4c0-3.2,2.6-5.8,5.8-5.8h1034.3c3.2,0,5.8,2.6,5.8,5.8
						v639.4C1320.4,700.1,1317.7,702.6,1314.6,702.6z"/>
				</defs>
				<clipPath id="SVGID_4_">
					<use xlink:href="#SVGID_3_"  style="overflow:visible;"/>
				</clipPath>
				<g class="st9">
					
						<image style="overflow:visible;enable-background:new    ;" width="755" height="470" id="SVGshowcaseMockup1Img1" xlink:href="../../img/755x470/img1.jpg"  transform="matrix(1.3853 0 0 1.3853 274.4708 51.5985)">
					</image>
				</g>
			</g>
		</g>
		<g>
			<path class="st10" d="M1314.6,702.6H280.3c-3.2,0-5.8-2.6-5.8-5.8V57.4c0-3.2,2.6-5.8,5.8-5.8h1034.3c3.2,0,5.8,2.6,5.8,5.8
				v639.4C1320.4,700.1,1317.7,702.6,1314.6,702.6z"/>
		</g>
	</g>
</g>
<path class="st11" d="M1568.2,654h-336.4c-1,0-1.8-0.8-1.8-1.8V255.8c0-1,0.8-1.8,1.8-1.8h336.4c1,0,1.8,0.8,1.8,1.8v396.6
	C1570,653.3,1569.2,654,1568.2,654z"/>
<g>
	<g>
		<path id="showcaseMockup1_13" class="st12" d="M1568.2,650h-336.4c-1,0-1.8-0.8-1.8-1.8V251.8c0-1,0.8-1.8,1.8-1.8h336.4
			c1,0,1.8,0.8,1.8,1.8v396.6C1570,649.2,1569.2,650,1568.2,650z"/>
	</g>
	<g>
		<g>
			<defs>
				<path id="SVGID_5_" d="M1568.2,650h-336.4c-1,0-1.8-0.8-1.8-1.8V251.8c0-1,0.8-1.8,1.8-1.8h336.4c1,0,1.8,0.8,1.8,1.8v396.6
					C1570,649.2,1569.2,650,1568.2,650z"/>
			</defs>
			<clipPath id="SVGID_6_">
				<use xlink:href="#SVGID_5_"  style="overflow:visible;"/>
			</clipPath>
			<g class="st13">
				
					<image style="overflow:visible;enable-background:new    ;" width="300" height="360" id="SVGshowcaseMockup1Img2" xlink:href="../../img/300x360/img1.jpg"  transform="matrix(1.1333 0 0 1.1114 1229.7549 249.9419)">
				</image>
			</g>
		</g>
	</g>
	<g>
		<path class="st10" d="M1568.2,650h-336.4c-1,0-1.8-0.8-1.8-1.8V251.8c0-1,0.8-1.8,1.8-1.8h336.4c1,0,1.8,0.8,1.8,1.8v396.6
			C1570,649.2,1569.2,650,1568.2,650z"/>
	</g>
</g>
</svg>
