<svg id="Layer_1" data-name="Layer 1" xmlns="http://www.w3.org/2000/svg" xmlns:xlink="http://www.w3.org/1999/xlink" viewBox="0 0 1599.75 800.5">
  <defs>
    <linearGradient id="linear-gradient" x1="107.98" y1="1289.06" x2="1492.02" y2="1289.06" gradientTransform="translate(0 -500)" gradientUnits="userSpaceOnUse">
      <stop offset="0" stop-color="#e7eaf3"/>
      <stop offset="0.05" stop-color="#f8fafd"/>
      <stop offset="0.17" stop-color="#fdfdfd"/>
      <stop offset="0.5" stop-color="#fff"/>
      <stop offset="0.83" stop-color="#fdfdfd"/>
      <stop offset="0.95" stop-color="#f8fafd"/>
      <stop offset="1" stop-color="#e7eaf3"/>
    </linearGradient>
    <linearGradient id="linear-gradient-2" x1="667.5" y1="-1125.85" x2="932.23" y2="-1125.85" gradientTransform="matrix(1, 0, 0, -1, 0, -350.5)" xlink:href="#linear-gradient"/>
    <clipPath id="clip-path01" transform="translate(0 0.5)">
      <path d="M1312.07,702.07H283.64a5.83,5.83,0,0,1-5.79-5.8V57.88a5.84,5.84,0,0,1,5.79-5.81H1312.07a5.83,5.83,0,0,1,5.78,5.81V696.27A5.74,5.74,0,0,1,1312.07,702.07Z" fill="none"/>
    </clipPath>
    <clipPath id="clip-path02" transform="translate(0 0.5)">
      <path d="M1568.19,650H1231.81a1.77,1.77,0,0,1-1.81-1.78V251.78a1.77,1.77,0,0,1,1.81-1.78h336.38a1.77,1.77,0,0,1,1.81,1.78V648.33A1.75,1.75,0,0,1,1568.19,650Z" fill="none"/>
    </clipPath>
  </defs>
  <title>showcase-mockup-productTest</title>
  <path d="M7.69,800S-86.22,574.07,382.3,479.29s374.61,180.94,719.93,64.14c124.17-42,220.48-53.52,292.85-51.12,120.15,4,213.4,104.83,204,222.1-2.3,29.2-8.72,58.69-21.55,85.59Z" transform="translate(0 0.5)" fill="#e7eaf3"/>
  <circle cx="234.46" cy="138.05" r="50.7" fill="#00dffc" opacity="0.3" style="isolation: isolate"/>
  <circle cx="61.4" cy="694.01" r="9.1" fill="none" stroke="#fff" stroke-miterlimit="10" stroke-width="3"/>
  <circle cx="97.98" cy="664.68" r="4.88" fill="none" stroke="#fff" stroke-miterlimit="10" stroke-width="2.5"/>
  <circle cx="107.98" cy="367.57" r="10" fill="none" stroke="#97a4af" stroke-linecap="round" stroke-miterlimit="10" stroke-width="7" opacity="0.5" style="isolation: isolate"/>
  <g id="laptop">
    <path d="M1328.83,798.61H270.75a36.42,36.42,0,0,1-36.29-36.29v-726A36.42,36.42,0,0,1,270.75,0H1329a36.42,36.42,0,0,1,36.29,36.29V762.46A36.59,36.59,0,0,1,1328.83,798.61Z" transform="translate(0 0.5)" fill="#fff" stroke="#e7eaf3" stroke-miterlimit="10"/>
    <circle cx="797.85" cy="32.78" r="4.16" fill="#e7eaf3"/>
    <path d="M1488.14,778.11H112a4,4,0,0,1-3.88-3.88h0a4,4,0,0,1,3.88-3.87H1488.14a4,4,0,0,1,3.88,3.87h0A3.88,3.88,0,0,1,1488.14,778.11Z" transform="translate(0 0.5)" fill="#f8fafd"/>
    <path d="M800.07,780.61,108,778.11S141.37,793.77,271.17,800H1328.83c129.8-6.23,163.19-21.89,163.19-21.89Z" transform="translate(0 0.5)" fill="url(#linear-gradient)"/>
    <path d="M927.24,780.19H672.35a4.91,4.91,0,0,1-4.85-4.85v-4.85H932.23v4.85A4.94,4.94,0,0,1,927.24,780.19Z" transform="translate(0 0.5)" fill="url(#linear-gradient-2)"/>
    <g>
      <path id="showcaseMockup1_11" data-name="showcaseMockup1 11" d="M1312.07,702.07H283.64a5.83,5.83,0,0,1-5.79-5.8V57.88a5.84,5.84,0,0,1,5.79-5.81H1312.07a5.83,5.83,0,0,1,5.78,5.81V696.27A5.74,5.74,0,0,1,1312.07,702.07Z" transform="translate(0 0.5)" fill="#e7eaf3"/>
      <g clip-path="url(#clip-path-01)">
        <image id="SVGshowcaseMockup1Img1" width="1040" height="650" transform="translate(277.83 52.64)" xlink:href="https://cdn2.hubspot.net/hubfs/4561741/Accrete_March2019/theme/assets/img/tdimg01.jpg" style="isolation: isolate"/>
      </g>
      <path d="M1312.07,702.07H283.64a5.83,5.83,0,0,1-5.79-5.8V57.88a5.84,5.84,0,0,1,5.79-5.81H1312.07a5.83,5.83,0,0,1,5.78,5.81V696.27A5.74,5.74,0,0,1,1312.07,702.07Z" transform="translate(0 0.5)" fill="none" stroke="#e7eaf3" stroke-miterlimit="10"/>
    </g>
  </g>
  <path d="M1578.19,660H1241.81a1.77,1.77,0,0,1-1.81-1.78V261.78a1.77,1.77,0,0,1,1.81-1.78h336.38a1.77,1.77,0,0,1,1.81,1.78V658.33A1.75,1.75,0,0,1,1578.19,660Z" transform="translate(0 0.5)" fill="#e7eaf3" opacity="0.3" style="isolation: isolate"/>
  <g>
    <path id="showcaseMockup1_13" data-name="showcaseMockup1 13" d="M1568.19,650H1231.81a1.77,1.77,0,0,1-1.81-1.78V251.78a1.77,1.77,0,0,1,1.81-1.78h336.38a1.77,1.77,0,0,1,1.81,1.78V648.33A1.75,1.75,0,0,1,1568.19,650Z" transform="translate(0 0.5)" fill="#fff"/>
      <g clip-path="url(#clip-path02)">
        <image id="SVGshowcaseMockup1Img2" width="340" height="400" transform="translate(1229.75 250.44)" xlink:href="https://cdn2.hubspot.net/hubfs/4561741/Accrete_March2019/theme/assets/img/tdimg02.jpg" style="isolation: isolate"/>
      </g>
  </g>
  <g>
    <path d="M1568.19,650H1231.81a1.77,1.77,0,0,1-1.81-1.78V251.78a1.77,1.77,0,0,1,1.81-1.78h336.38a1.77,1.77,0,0,1,1.81,1.78V648.33A1.75,1.75,0,0,1,1568.19,650Z" transform="translate(0 0.5)" fill="none" stroke="#e7eaf3" stroke-miterlimit="10"/>
  </g>
</svg>