<svg viewBox="0 0 509 313" xmlns="http://www.w3.org/2000/svg" xmlns:xlink="http://www.w3.org/1999/xlink"><linearGradient id="a"><stop offset="0" stop-color="#808080" stop-opacity=".25"/><stop offset=".54" stop-color="#808080" stop-opacity=".12"/><stop offset="1" stop-color="#808080" stop-opacity=".1"/></linearGradient><linearGradient id="b" x1="50%" x2="50%" xlink:href="#a" y1="62%" y2="44%"/><linearGradient id="c" x1="50%" x2="50%" xlink:href="#a" y1="100.00004%" y2=".000012%"/><g fill="none" fill-rule="evenodd"><ellipse cx="371.674316" cy="301.238663" fill="#377dff" fill-rule="nonzero" opacity=".1" rx="65.140625" ry="11.097852"/><path d="m256.012695 225.218377c102.522461 0 216.699466 41.772521 247.987305-41.933174 20.055869-53.656325-32.608615-104.9670971-142.695843-145.285203-103.710117-37.98256682-284.0575664-48.3795832-321.5030885-26.9675344-55.3694811 31.6613033 16.7620003 61.2624442 12.0064022 115.4997544-4.435175 50.582903-69.5714053 53.739856-46.84987173 98.686157 26.03699313 51.504733 148.53263503 0 251.05509603 0z" fill="#ebf2ff"/><g fill-rule="nonzero"><g opacity=".7"><path d="m153.675293 140.800716h70.692383v39.47136h-70.692383z" fill="#fff"/><g fill="#377dff"><ellipse cx="166.999511" cy="158.335322" opacity=".2" rx="7.365332" ry="7.361575"/><path d="m183.321679 149.605012h32.052148v2.034606h-32.052148z" opacity=".2"/><path d="m183.321679 154.747017h16.322168v2.034606h-16.322168z" opacity=".2"/><path d="m183.321679 159.889022h26.426367v2.034606h-26.426367z" opacity=".2"/><path d="m183.321679 165.031026h32.052148v2.034606h-32.052148z" opacity=".2"/><path d="m206.528027 172.429594h8.882813v3.884248h-8.882813z" opacity=".2"/></g><path d="m213.190136 31.708831h70.692383v39.47136h-70.692383z" fill="#fff"/><ellipse cx="226.514355" cy="49.243437" fill="#377dff" opacity=".2" rx="7.365332" ry="7.361575"/><path d="m242.836523 40.513127h32.052148v1.997613h-32.052148z" fill="#377dff" opacity=".2"/><path d="m242.836523 45.655132h16.322168v1.997613h-16.322168z" fill="#377dff" opacity=".2"/><path d="m242.836523 50.797137h26.426367v2.034606h-26.426367z" fill="#377dff" opacity=".2"/><path d="m242.836523 55.939141h32.052148v1.997613h-32.052148z" fill="#377dff" opacity=".2"/><path d="m266.005859 63.337709h8.882813v3.884248h-8.882813z" fill="#377dff" opacity=".2"/><path d="m236.729589 98h70.692383v39.47136h-70.692383z" fill="#fff"/><ellipse cx="8.813575" cy="8.766881" fill="#377dff" opacity=".2" rx="7.361784" ry="7.365348" transform="matrix(.16019757 -.98708497 .98708497 .16019757 239.956012 122.792505)"/><path d="m266.375976 106.804296h32.052148v2.034606h-32.052148z" fill="#377dff" opacity=".2"/><path d="m266.375976 111.946301h16.322168v2.034606h-16.322168z" fill="#377dff" opacity=".2"/><path d="m266.375976 117.088305h26.426367v2.034606h-26.426367z" fill="#377dff" opacity=".2"/><path d="m266.375976 122.230311h32.052148v2.034606h-32.052148z" fill="#377dff" opacity=".2"/><path d="m289.545311 129.628879h8.882813v3.884248h-8.882813z" fill="#377dff" opacity=".2"/></g><g opacity=".7"><path d="m35 193.634845h70.692383v39.47136h-70.692383z" fill="#fff"/><g fill="#377dff"><ellipse cx="48.324218" cy="211.169451" opacity=".2" rx="7.365332" ry="7.361575"/><path d="m64.646386 202.439141h32.052148v2.034606h-32.052148z" opacity=".2"/><path d="m64.646386 207.581146h16.322168v2.034606h-16.322168z" opacity=".2"/><path d="m64.646386 212.723151h26.426367v2.034606h-26.426367z" opacity=".2"/><path d="m64.646386 217.865155h32.052148v2.034606h-32.052148z" opacity=".2"/><path d="m87.852734 225.263723h8.882813v3.884248h-8.882813z" opacity=".2"/></g><path d="m70 39.634845h70.692383v39.47136h-70.692383z" fill="#fff"/><ellipse cx="83.324219" cy="57.169451" fill="#377dff" opacity=".2" rx="7.365332" ry="7.361575"/><path d="m99.646387 48.439141h32.052148v1.997613h-32.052148z" fill="#377dff" opacity=".2"/><path d="m99.646387 53.581146h16.322168v1.997613h-16.322168z" fill="#377dff" opacity=".2"/><path d="m99.646387 58.723151h26.426367v2.034606h-26.426367z" fill="#377dff" opacity=".2"/><path d="m99.646387 63.865155h32.052148v1.997613h-32.052148z" fill="#377dff" opacity=".2"/><path d="m122.815723 71.263723h8.882813v3.884248h-8.882813z" fill="#377dff" opacity=".2"/><path d="m62 108.634845h70.692383v39.47136h-70.692383z" fill="#fff"/><ellipse cx="8.813575" cy="8.766881" fill="#377dff" opacity=".2" rx="7.361784" ry="7.365348" transform="matrix(.16019757 -.98708497 .98708497 .16019757 65.226423 133.42735)"/><path d="m91.646387 117.439141h32.052148v2.034606h-32.052148z" fill="#377dff" opacity=".2"/><path d="m91.646387 122.581146h16.322168v2.034606h-16.322168z" fill="#377dff" opacity=".2"/><path d="m91.646387 127.72315h26.426367v2.034606h-26.426367z" fill="#377dff" opacity=".2"/><path d="m91.646387 132.865156h32.052148v2.034606h-32.052148z" fill="#377dff" opacity=".2"/><path d="m114.815722 140.263724h8.882813v3.884248h-8.882813z" fill="#377dff" opacity=".2"/></g><g><path d="m129.025488 55.199284h118.844629v67.105012h-118.844629z" fill="#377dff" opacity=".1"/><path d="m129.839746 56.050119h117.179102v65.440334h-117.179102z" fill="#fff"/><g fill="#377dff"><ellipse cx="14.363215" cy="14.242473" opacity=".2" rx="12.207983" ry="12.213893" transform="matrix(.16019757 -.98708497 .98708497 .16019757 135.578927 96.985832)"/><path d="m178.991308 70.625298h53.148828v3.329356h-53.148828z" opacity=".2"/><path d="m178.991308 79.170644h27.092578v3.329356h-27.092578z" opacity=".2"/><path d="m178.991308 87.678997h43.784863v3.329356h-43.784863z" opacity=".2"/><path d="m178.991308 96.187351h53.148828v3.329356h-53.148828z" opacity=".2"/><path d="m217.446484 108.505967h14.693652v6.473747h-14.693652z"/></g></g><path d="m212.375879 145.868735h113.033789v63.146778h-113.033789z" fill="#377dff" opacity=".1"/><path d="m213.153125 146.312649h111.479297v62.25895h-111.479297z" fill="#fff"/><ellipse cx="234.138769" cy="173.9463" fill="#377dff" opacity=".2" rx="11.62168" ry="11.615752"/><path d="m259.898926 160.184964h50.558008v3.181384h-50.558008z" fill="#377dff" opacity=".2"/><path d="m259.898926 168.323389h25.760156v3.181384h-25.760156z" fill="#377dff" opacity=".2"/><path d="m259.898926 176.424821h41.675195v3.181384h-41.675195z" fill="#377dff" opacity=".2"/><path d="m259.898926 184.526253h50.558008v3.181384h-50.558008z" fill="#377dff" opacity=".2"/><path d="m296.503516 196.215991h13.99043v6.140811h-13.99043z" fill="#377dff" opacity=".5"/><path d="m.45.45.35.1c-.1-.1-.25-.1-.35-.1z" fill="url(#b)" opacity=".1" transform="translate(88.349609 111.169451)"/><ellipse cx="416.347461" cy="286.774463" fill="#377dff" opacity=".1" rx="15.174805" ry="2.071599"/><ellipse cx="293.77041" cy="303.479714" fill="#377dff" opacity=".1" rx="10.77041" ry="1.479714"/><ellipse cx="200.902246" cy="294.356802" fill="#377dff" opacity=".1" rx="10.77041" ry="1.479714"/><path d="m206.824121 291.990453c.666211-.554892 1.184375-1.294749 1.406445-2.145584.185059-.850836-.185058-1.849642-.999316-2.182578-.925293-.332935-1.887598.295943-2.627832.924821s-1.591504 1.368735-2.553809 1.220764c.999317-.924821 1.480469-2.293556 1.184375-3.625298-.037011-.25895-.148047-.5179-.333105-.739857-.518164-.554893-1.443457-.295943-2.035645.110978-1.924609 1.368735-2.442773 3.958234-2.479785 6.325776-.185058-.850835-.037012-1.738664-.037012-2.589499s-.22207-1.849642-.962304-2.293556c-.444141-.25895-.962305-.369928-1.480469-.369928-.851269-.036993-1.813574.073985-2.405762.702864-.740234.776849-.555175 2.108591.111035 2.959427.666211.850835 1.628516 1.405728 2.516797 1.997613.703223.443914 1.332422.998807 1.776563 1.701671.037012.110978.111035.184964.148047.295943h5.440722c1.221387-.591886 2.331739-1.368736 3.331055-2.293557z" fill="#3a96e2"/><path d="m422.528418 284.184964c.666211-.554892 1.184375-1.294749 1.443457-2.145585.185059-.850835-.185059-1.849642-.999316-2.182577-.925293-.332936-1.887598.295943-2.627832.924821-.740235.628878-1.591504 1.368735-2.553809 1.220764.999316-.924821 1.480469-2.293556 1.184375-3.625299-.037012-.25895-.148047-.517899-.333105-.739856-.518165-.554893-1.406446-.295943-2.035645.110978-1.924609 1.368735-2.479785 3.958234-2.479785 6.325776-.185059-.850836-.037012-1.738664-.037012-2.589499s-.259082-1.849642-.962305-2.293556c-.44414-.25895-.962304-.369929-1.480468-.369929-.85127-.036992-1.813575.073986-2.405762.702864-.740234.77685-.555176 2.108592.111035 2.959428.666211.850835 1.591504 1.405727 2.516797 1.997613.703223.443914 1.332422.998807 1.776562 1.701671.037012.110978.111036.184964.148047.295942h5.440723c1.147363-.591885 2.294727-1.368735 3.294043-2.293556z" fill="#3a96e2"/><path d="m300.315723 301.497613c.666211-.554892 1.184375-1.294749 1.406445-2.145584.185059-.850836-.185059-1.849642-.999316-2.182578-.925293-.332935-1.887598.295943-2.627832.924821-.740235.628878-1.591504 1.368735-2.553809 1.220764.999316-.924821 1.480469-2.293556 1.184375-3.625299-.037012-.258949-.148047-.517899-.333106-.739856-.518164-.554893-1.406445-.295943-2.035644.110978-1.924609 1.368735-2.479785 3.958234-2.479785 6.325776-.185059-.850835-.037012-1.738664-.037012-2.589499s-.259082-1.849642-.962305-2.293556c-.44414-.25895-.962304-.369928-1.480468-.369928-.85127-.036993-1.813575.073985-2.405762.702864-.740234.776849-.555176 2.108591.111035 2.959427.666211.850835 1.591504 1.405728 2.516797 1.997613.740234.443914 1.332422 1.0358 1.813574 1.738664.037012.110978.111035.184964.148047.295942h5.403711c1.221387-.628878 2.331738-1.44272 3.331055-2.330549z" fill="#3a96e2"/></g><g transform="translate(340.399414 92.832371)"><path d="m68.69375 39.8669129c-4.8485352-.1109786-9.1418945-3.5513127-11.584668-7.6945108-.6291992-.9988067-1.0363281-2.1085919-1.184375-3.2923628 0-.2589498.0740235-.5178997.1480469-.7768496.1480469-.4069212.2960938-.7768496.3701172-1.2207637.0370117-.1479714.0370117-.3329356 0-.4809069 0 0 0 0 0-.0369929.1110352-.8878281-.4071289-1.7756563-1.0733398-2.3675417-.666211-.5918855-1.4804688-1.0727924-2.1466797-1.6646778-2.0726563-1.8496421-2.7018555-4.7720764-2.7758789-7.5835323 0-.0369928 0-.1109785 0-.1479713.0370117-1.1837709.1110351-2.4045346.1110351-3.5883055 0-.6658711 0-1.3687351-.0740234-2.03460622-.1850586-1.70167065-.8512696-3.40334129-2.1836914-4.51312649-3.4791016-2.81145585-9.3269532.11097852-12.9170899-2.55250597-.8882812-.66587112-1.5915039-1.62768496-2.627832-1.849642-.8142578-.18496421-1.6285156.07398568-2.4057617.33293556-2.6648438.88782816-5.5887696 2.0346062-6.6250977 4.58711217-.5921875 1.4797136-.4441406 3.14439141-.9623047 4.62410501-.3701172.99880664-1.0363281 1.84964204-1.5174804 2.81145584-.4071289.702864-.5921875 1.5167065-.5551758 2.3305489-.0370117.4069213.0370117.8508354.1850586 1.2577566.1850586.4809069.4811523.8878282.8512695 1.2207637-.1480469.2959427-.2960937.5548926-.5181641.8138425-.6662109.8138425-1.702539 1.4057279-2.4057617 2.2195704-1.2954101 1.5167065-1.2583984 3.5513127-.6291992 5.326969s1.8135742 3.4033413 2.5908203 5.1050119c.3331055.7398568.6291992 1.5906921.2590821 2.3305489-.2590821.5178998-.7772461.924821-1.184375 1.3687351-.5921875.6658711-.9623047 1.4797136-1.0733399 2.3675418-7.9205078 1.8126492-7.9205078 8.1754177-7.9205078 8.1754177l-4.29335938 10.7649164s-.66621094 1.8126492-1.48046875 4.2171838l-5.07060547-.8878282 3.51611328 5.8818616c-.66621094 2.4045346-1.14736328 4.624105-.9993164 5.7338902 0 0-1.59150391 7.398568 1.22138671 8.6933174l6.18095704 2.774463c.25908207.1479714.55517577.2959428.85126957.3699284l.259082.1109786c.1850586.0739856.4071289.0739856.5921875 0h.0370117.0740234c.1110352 0 .2590821 0 .3701172-.0369929.1480469-.0739857.2590821-.1849642.2960938-.3329355v-.0369929l1.8505859-.5548926 1.5544922 1.849642c.7032227.480907 1.4064453.924821 2.0726563 1.3317423l-2.4057618 24.1193314s-.4071289 32.072793-1.5915039 39.360382c-.4441406 2.700478-.4441406 4.55012-.2960937 5.807876l-.0370117.073986c.2960937 2.071599 1.0363281 2.47852 1.0363281 2.47852v-.036993l.0370117.036993c.3701172-.924821.7772461-1.849642 1.2583984-2.700477v.517899c-.0370117 2.737471-.1110351 6.547733-.3701171 8.989261-.4811524 4.217183 1.2213867 18.163484 1.2213867 18.163484l.5921875 12.688544c.1110351 2.145585-.4071289 4.29117-1.4434571 6.177805-1.4064453 2.515513-3.2200195 6.103818-3.3310546 7.69451v.25895l-3.10898442 3.588306s-1.184375 1.812649 1.48046872 2.552506c1.4434571.406921 3.9232422 0 5.8848633-.480907 1.7765625-.406922 3.0719727-1.997614 3.0719727-3.810263.518164-1.738663 1.3694336-3.366348 2.5167968-4.772076l.4811524 2.922434 3.3310547.813843.4441406-7.990454c.1850586-.443914.259082-.924821.2220703-1.405728.666211-5.696897-1.5544922-5.178997-1.5544922-5.178997.0740235.036992.1110352.110978.1110352.184964-.0370117-.073986-.0740235-.110979-.1110352-.184964-1.3694336-2.663485-.7032226-7.02864-.7032226-7.02864s1.7395508-12.688544 2.36875-16.0179c.4441406-2.367541.259082-10.099045.1110351-14.4642 0-.184964 0-.369929 0-.5179 5.1446289-.073986 11.4736328-.25895 15.9150391-.665871v.5179l-.8142578 29.9642c-.0370117 1.923628-.4441406 3.810263-1.1473633 5.585919 0 .036993-.0370117.073986-.0370117.110979-.9993164 2.515513-1.5544922 5.142004-1.6655274 7.842482l-.3701172 9.50716v.258949c-.6662109.25895-1.702539.998807-1.7395507 3.144392-.0370118 3.144391 5.4777343 2.071599 5.4777343 2.071599 5.5147461 0 5.5517579-5.73389 5.5517579-5.73389s.1850585-5.252984.4441406-8.767303c.259082-3.51432-.8142578-2.737471-.8142578-2.737471l-.0740235 9.988067v.073986-8.767303l.0740235-1.257757v-.036993-.258949l.6662109-10.321003s5.0706055-17.201671 5.8478516-20.494033c.5551757-2.330549.3331054-9.396182.1480468-13.317423 0-.184964 0-.369928-.0370117-.517899 1.5544922-.147972 2.9609375-.147972 3.5161133-.147972h.259082s-.259082-27.633651-.9252929-38.065632c-.666211-10.431981-1.7025391-19.9391411-4.3303711-22.7875898-1.5915039-1.7386635-3.8122071-7.0656325-5.2926758-11.0608592 3.1459961 1.3687351 6.4030273 2.4045346 9.734082 3.1813843 8.3276367 1.7386634 7.1802735-5.4749404 7.1802735-5.4749404l-.8512696-13.650358h.0740235c-.0370118-3.5883055-.3331055-7.1396181-.925293-10.6539379-.4441406-2.7004774-1.1103516-5.5119332-2.1466797-7.7684964.8882813-.3329356 1.7765625-.7398568 2.6648438-1.1097852 2.2577148-.9988067 4.8115234-2.4045347 5.1446289-4.8460621h-.1110352c.1480469-.2589499.1480469-.4439141.1850586-.5918854zm-51.5203125 19.7171837c.0370117 1.405728-.0370117 3.8472554-.1110352 6.5477327l-2.627832-3.5143198 2.6648438-4.2911694zm36.456543 12.4665871-4.4043946-1.4057279c.7772461-1.2207637 1.7025391-2.3305489 2.7018555-3.3663484l.3701172-.3699284-.1480469.0369928.2220703-.1849642.1110352-.0369928-.1850586.1849642.259082-.0369929c.2590821 1.1097852.7772461 2.1455848 1.4804688 2.9964201 1.5915039 1.7386635-.4071289 2.1825775-.4071289 2.1825775z" fill="url(#c)" fill-rule="nonzero"/><path d="m26.9075195 198.86214-.518164 9.729117-3.2570313-.813843-.7032226-4.069212z" fill="#30333f" fill-rule="nonzero"/><path d="m38.9363281 209.886006 4.9965821 1.035799 3.7011718-3.292362v-9.24821l.0740235-1.257757v-.036993-.25895l.6662109-10.247016s4.996582-17.090692 5.7738281-20.346062c.5551758-2.330549.3331055-9.359189.1480469-13.206444-.0740234-1.590692-.1480469-2.663485-.1480469-2.663485l-11.0294922-2.663484-.2220703 8.508353-.8142578 29.742243c-.0370117 1.886635-.4441406 3.77327-1.1473633 5.548926l-.0370117.110979c-.9623047 2.47852-1.5174805 5.142005-1.5915039 7.805489l-.3701172 9.433174v.25895z" fill="#ef4f60"/><path d="m47.7451172 196.864526v.25895z" fill="#000" fill-rule="nonzero" opacity=".1"/><path d="m38.9363281 209.886006 4.9965821 1.035799 3.7011718-3.292362v-.77685c-.0370117.369928-.2220703.665871-.518164.850835l-.0370118.036993c-1.7395507.924821-3.6641601 1.29475-5.6257812 1.109785l-1.9616211-.184964c-.1850586.036993-.3331055.073986-.5181641.110979v.25895z" fill="#000" fill-rule="nonzero" opacity=".1"/><path d="m47.0789062 207.999371c.3701172-.221957.5921875-.591885.5921875-.961814l.0740235-9.951074s1.0733398-.776849.8142578 2.73747c-.259082 3.51432-.4441406 8.693318-.4441406 8.693318s-.0370117 5.696897-5.4777344 5.696897c0 0-5.4407227 1.0358-5.4037109-2.071599.0370117-3.107398 2.2577148-3.218377 2.2577148-3.218377l1.9616211.184964c1.9616211.184964 3.9232422-.221957 5.6257812-1.109785z" fill="#1c212b" fill-rule="nonzero"/><path d="m12.8800781 207.777414c.1110352 2.256563 6.7361328.961814 6.7361328.961814l4.4414063-8.619332s3.7011719-2.848449 1.8505859-5.363962c-.1110351-.147971-.1850586-.295942-.259082-.443914v-.036993c-.0370117-.073985-.0740234-.147971-.1110352-.184964-1.3324218-2.626491-.6662109-6.954654-.6662109-6.954654s1.7395508-12.577565 2.3317383-15.906921c.4441406-2.330549.259082-10.02506.1110351-14.353222-.0740234-1.775656-.1110351-2.99642-.1110351-2.99642l-10.9554688-2.922434v3.25537c-.0370117 2.700477-.1110351 6.473747-.3701172 8.952267-.4811523 4.180191 1.2213868 18.015513 1.2213868 18.015513l.5921875 12.614558c.0740234 2.145585-.4071289 4.254177-1.4434571 6.103819-1.3694336 2.515513-3.1830078 6.066826-3.2940429 7.620525-.0740235.073986-.0740235.184964-.0740235.25895z" fill="#ef4f60"/><path d="m12.8800781 207.777414c.1110352 2.256563 6.7361328.961814 6.7361328.961814l4.4414063-8.619332s3.7011719-2.848449 1.8505859-5.363962c-.1110351-.147971-.1850586-.295942-.259082-.443914-.0740234 1.29475-1.4804688 4.55012-1.4804688 4.55012s-3.6641601 7.324582-4.8115234 9.026253c-1.1473633 1.70167-6.2179687-.295943-6.4400391-.369929 0 .073986-.0370117.184964-.0370117.25895z" fill="#000" fill-rule="nonzero" opacity=".1"/><path d="m25.5010742 194.090063s2.1836914-.5179 1.5174805 5.142005c.0370117 1.294749-.5921875 2.552506-1.7395508 3.218377-1.5544922.961814-3.9602539 3.070406-5.1446289 7.139618 0 1.812649-1.2583984 3.403342-2.9979492 3.810263-1.9616211.443914-4.4043946.850835-5.8108399.480907-2.62783199-.739857-1.48046871-2.552506-1.48046871-2.552506l3.03496091-3.588306s5.2556641 2.071599 6.4400391.369929c1.184375-1.701671 4.8115234-9.026253 4.8115234-9.026253s2.0356446-4.513127 1.3694336-4.994034z" fill="#1c212b" fill-rule="nonzero"/><path d="m43.1926758 148.736841-.2220703 8.508353c2.9609375-.295942 5.0335937-.665871 5.4037109-1.257756.7772461-1.220764 3.5901367-1.701671 5.9958984-1.923628-.0740234-1.590692-.1480468-2.663484-.1480468-2.663484z" fill="#000" fill-rule="nonzero" opacity=".1"/><path d="m16.2111328 155.247581c.2960938-.591885.7032227-1.072792 1.2213867-1.442721 1.184375-.665871 1.0363282 4.143198 1.0363282 4.143198s3.8862304.036993 8.808789-.036992c-.0740234-1.775657-.1110351-2.99642-.1110351-2.99642l-10.9554688-2.922435c0-.036993 0 1.331742 0 3.25537z" fill="#000" fill-rule="nonzero" opacity=".1"/><path d="m14.9527344 156.357366s1.2954101-3.514319 2.4427734-4.143198c1.1473633-.628878 1.0363281 4.143198 1.0363281 4.143198s28.4620118.25895 29.9054688-1.96062c1.443457-2.219571 9.6970703-2.071599 9.6970703-2.071599s-.259082-27.448688-.925293-37.76969c-.6662109-10.321002-1.6655273-19.7911694-4.2563476-22.6396181-1.6655274-1.849642-4.0712891-7.8054893-5.5147461-11.7637232-.8142578-2.1825775-1.3324219-3.7362768-1.3324219-3.7362768l-27.1666016 1.5536993-.2220703 2.1825775-2.886914 28.8544153s-.3701172 31.813842-1.5544922 39.064439.7772461 8.286396.7772461 8.286396z" fill="#5bd3f9" fill-rule="nonzero"/><g fill="#000" fill-rule="nonzero" opacity=".1" transform="translate(13.694336 76.415839)"><path d="m32.4592773 78.0178998c1.4064454-2.1825776 9.6970704-2.0715991 9.6970704-2.0715991s-.2590821-27.4486873-.925293-37.7696897-1.6285156-19.7911695-4.2193359-22.6396182c-1.6655274-1.849642-4.0712891-7.80548922-5.5147461-11.76372311-.666211-1.81264916-1.1473633-3.21837709-1.2954102-3.62529833l2.109668-.11097852s.518164 1.59069212 1.3324218 3.73627685c1.4804688 3.95823389 3.8492188 9.95107401 5.5147461 11.76372311 2.5908204 2.8484487 3.6271485 12.281623 4.2563477 22.6396182s.8882812 37.7696897.8882812 37.7696897-8.290625-.1479713-9.6970703 2.0715991c-1.2213867 1.8866348-22.1700195 1.9606205-28.23994137 1.9606205 7.77246097-.0369929 24.98291017-.2589499 26.09326167-1.9606205z"/><path d="m1.51748047 75.7983294c.51816406-.2959428.77724609.5178997.92529297 1.4797136-.48115235.8508353-.88828125 1.7386634-1.22138672 2.6634844 0 0-.74023438-.4069212-1.03632813-2.4415274.40712891-.7398568.88828125-1.4427208 1.33242188-1.7016706z"/></g><path d="m23.3543945 10.0506837c-1.8875976 2.552506.0370118 6.2147972-1.9986328 8.6933175-.6662109.8138424-1.702539 1.4057279-2.4057617 2.2195704-1.2954102 1.5167064-1.2213867 3.5513126-.5921875 5.2899761s1.7765625 3.3663485 2.5538086 5.0680191c.3331055.7398568.6291992 1.5906921.259082 2.3305489-.259082.5178998-.7402343.8878282-1.1473633 1.3317423-1.2954101 1.4427207-1.3324218 3.4773269-.6291992 5.1789976.7032227 1.7016706 2.0356446 3.1813842 3.3310547 4.624105.5181641.5548926 1.184375 1.1837709 2.0356445 1.1837709.4441407-.0369929.8882813-.1849642 1.2954102-.4069213 3.0719727-1.6276849 5.4037109-4.3651551 6.5140625-7.620525.925293-3.1073986.7402344-6.3997614-.5551758-9.3961814-1.1103515-2.6264917-2.9239258-5.1420048-2.9239258-7.879475 0-2.1825775 1.1103516-4.2911694 1.3324219-6.473747.259082-2.6634845-1.3324219-6.88066823-4.5524414-8.02744627.1850586 1.70167065-1.5544922 2.58949881-2.5167969 3.88424817z" fill="#1e2022" fill-rule="nonzero"/><path d="m23.3543945 10.0506837c-1.8875976 2.552506.0370118 6.2147972-1.9986328 8.6933175-.6662109.8138424-1.702539 1.4057279-2.4057617 2.2195704-1.2954102 1.5167064-1.2213867 3.5513126-.5921875 5.2899761s1.7765625 3.3663485 2.5538086 5.0680191c.3331055.7398568.6291992 1.5906921.259082 2.3305489-.259082.5178998-.7402343.8878282-1.1473633 1.3317423-1.2954101 1.4427207-1.3324218 3.4773269-.6291992 5.1789976.7032227 1.7016706 2.0356446 3.1813842 3.3310547 4.624105.5181641.5548926 1.184375 1.1837709 2.0356445 1.1837709.4441407-.0369929.8882813-.1849642 1.2954102-.4069213 3.0719727-1.6276849 5.4037109-4.3651551 6.5140625-7.620525.925293-3.1073986.7402344-6.3997614-.5551758-9.3961814-1.1103515-2.6264917-2.9239258-5.1420048-2.9239258-7.879475 0-2.1825775 1.1103516-4.2911694 1.3324219-6.473747.259082-2.6634845-1.3324219-6.88066823-4.5524414-8.02744627.1850586 1.70167065-1.5544922 2.58949881-2.5167969 3.88424817z" fill="#30333f" fill-rule="nonzero" opacity=".1"/><path d="m44.2290039 103.309634c-3.7751953.184964-7.3283203 1.812649-10.6223633 3.662291-3.2940429 1.849642-6.4770508 3.921241-10.0301758 5.21599" fill="#000" fill-rule="nonzero" opacity=".1"/><path d="m41.8972656 112.187915c-3.7381836.369929-7.2172851 2.034606-9.7710937 4.735084-.925293.961814-1.7025391 2.071599-2.6648438 2.99642-1.4804687 1.405728-3.2570312 2.441527-5.255664 2.959427" fill="#000" fill-rule="nonzero" opacity=".1"/><path d="m42.6745117 118.920612c-2.9979492.850835-5.7368164 2.47852-7.8834961 4.735084-.5921875.628878-1.1103515 1.294749-1.6655273 1.923627-3.1089844 3.329356-7.5133789 5.105012-11.7697266 6.806683" fill="#000" fill-rule="nonzero" opacity=".1"/><path d="m42.3414062 25.2917339c.0740235 2.99642.3331055 5.9928401.7772461 8.9892601.3331055 2.1085919.8512696 4.0322196 1.5544922 4.8460621 2.0726563 2.4415274-10.1041992 5.770883-10.1041992 5.770883l-7.1802734-5.548926s5.6998047-5.2529833 3.0349609-10.3579952c-2.6648437-5.105012 11.9177734-3.699284 11.9177734-3.699284z" fill="#ff8c6d"/><path d="m18.6168945 80.1521157h28.7581055c-.8142578-2.1825775-1.3324219-3.7362768-1.3324219-3.7362768l-27.1666015 1.5536993z" fill="#000" fill-rule="nonzero" opacity=".1"/><path d="m16.7663086 79.634216h30.7197266c-.8512696-3.0704058 0-5.9558473 1.2213867-8.1384249.8512695-1.5536992 1.9616211-2.9594272 3.2200195-4.1801909l.2220703-.1849642 10.7333985-2.3675418.5921875-.1109785s.0740234-19.4952267-6.8101563-22.1587112-11.0294922-6.2887828-11.0294922-6.2887828l-9.475 2.9224344-6.9952148-3.5143199c-2.2577149 2.4045347-8.2166016 1.4797137-8.2166016 1.4797137-9.734082 1.1097852-9.734082 8.4713603-9.734082 8.4713603s5.6998047 13.2804296 6.1439453 13.2804296-.5921875 20.7899762-.5921875 20.7899762z" fill="#8475d3" fill-rule="nonzero"/><path d="m27.3886719 67.2416145s-6.2549805-1.4057279-8.4016602-3.8102625" fill="#000" fill-rule="nonzero" opacity=".1"/><path d="m58.959668 59.9910179-7.2542969 5.9558472c.0370117.4809069.1480469.924821.259082 1.4057279l.2220703-.1849642 10.7333985-2.3675417z" fill="#000" fill-rule="nonzero" opacity=".1"/><path d="m39.3064453 77.5626169s1.5915039.8878282 4.0342774 2.0715991h4.1823242c-.8512696-3.0704058 0-5.9558473 1.2213867-8.1384249l-7.365332-2.3675417c2.4797851 2.3305489-2.0726563 8.4343675-2.0726563 8.4343675z" fill="#000" fill-rule="nonzero" opacity=".1"/><path d="m15.4708984 43.1592756-4.3303711 2.330549-4.21933589 10.6909307s-4.40439454 11.7267304-3.96025391 14.8341289c0 0-1.55449219 7.3245824 1.22138672 8.6193318l7.21728518 3.2553699c.3331054.1479713.7402343 0 .8882812-.3329356.0740235-.1849642.0740235-.4069212-.0370117-.5918854-1.0363281-1.9606205-2.1466797-4.9940334-.3701172-6.6587112l-2.07265623-4.2911695 7.51337893-12.2446301 2.5167968-4.2171837z" fill="#8475d3" fill-rule="nonzero"/><path d="m25.0569336 64.8000871c.3701172 1.5167064 1.6285156 3.8842482 5.8108398 4.7350835l4.5894532 3.7362769 4.8855468 2.2195704 1.9986329.8878281.8512695-6.0668257-1.9246094-1.0357996-2.2207031-1.2207637s-5.0335938-9.1002387-12.9911133-5.2529833c-.7772461.3699284-1.184375 1.1837709-.9993164 1.9976134z" fill="#000" fill-rule="nonzero" opacity=".1"/><path d="m25.3160156 64.2821873c.3701172 1.5167065 1.6285156 3.8842482 5.8108399 4.7350836l4.5894531 3.7362768 4.8855469 2.2195704 1.9986328.8878282.8512695-6.0668258-1.9246094-1.0357995-2.2207031-1.2207638s-5.0335937-9.1002386-12.9911133-5.2529832c-.7772461.3699284-1.184375 1.1837708-.9993164 1.9976133z" fill="#ef4f60"/><ellipse cx="34.309863" cy="22.073357" fill="#000" fill-rule="nonzero" opacity=".1" rx="11.140527" ry="11.134845"/><ellipse cx="34.309863" cy="21.814407" fill="#ff8c6d" rx="11.140527" ry="11.134845"/><path d="m41.194043 45.6008031-3.3310547-6.5107399s4.8855469-1.9606205 5.255664-4.2541766c.3701172-2.2935561 4.7004883 2.7004773 3.7381836 4.3281623-.9623046 1.627685-5.6627929 6.4367542-5.6627929 6.4367542z" fill="#000" fill-rule="nonzero" opacity=".1"/><path d="m41.194043 45.0829033-3.3310547-6.5107398s4.8855469-1.9606206 5.255664-4.2541767c.3701172-2.293556 4.7004883 2.7004774 3.7381836 4.3281623-.9623046 1.627685-5.6627929 6.4367542-5.6627929 6.4367542z" fill="#8475d3" fill-rule="nonzero"/><path d="m13.8053711 61.8776527 18.5058594 24.8591886s-6.8101563 3.699284-16.2111328-2.9224344l-4.0712891-4.8090692-11.58466797-19.4952268z" fill="#f6f8fb" fill-rule="nonzero"/><path d="m10.1782227 75.3800393 1.6655273-.0369928s10.2892578-9.9880668 12.8060547-4.9200477-6.4030274 9.7661098-6.4030274 9.7661098l-2.7018554 1.4797136-3.553125 1.0357995-2.25771487-3.0334129z" fill="#ef4f60"/><g fill-rule="nonzero"><path d="m12.6580078 80.780994c.1480469.5548926.2960938 1.2207637.0370117 1.7386635-.0740234.1479713-.1850586.2589499-.2960937.3329355-.1110352.0369929-.259082.0739857-.3701172.0369929-.8882813-.0739857-1.7025391-.4809069-2.33173829-1.1467781-.5921875-.6658711-1.11035156-1.4057279-1.51748047-2.1825775-.44414062-.7768497-.92529296-1.6646778-.77724609-2.5894988.18505859-.9988067 1.07333984-1.6646778 1.92460938-2.2195704 1.70253907-1.1097852 1.73955077.1849642 2.14667967 1.6276849z" fill="#000" opacity=".1"/><path d="m12.3989258 80.780994c.1480469.5548926.2960937 1.2207637.0370117 1.7386635-.0740234.1479713-.1850586.2589499-.2960937.3329355-.1110352.0369929-.2590821.0739857-.3701172.0369929-.8882813-.0739857-1.7025391-.4809069-2.33173832-1.1467781-.5921875-.6658711-1.11035156-1.4057279-1.51748047-2.1825775-.44414062-.7768497-.92529297-1.6646778-.77724609-2.5894988.18505859-.9988067 1.07333984-1.6646778 1.92460937-2.2195704 1.70253911-1.1097852 1.73955081.1849642 2.14667971 1.6276849z" fill="#8475d3"/><path d="m17.2844727 58.7702541.8512695-1.4427207-.7402344 2.7004773z" fill="#000" opacity=".1"/><path d="m40.6018555 75.0101109 1.9986328.8878282.8512695-6.0668258-1.9246094-1.0357995c1.2954102 1.4797136.1480469 4.2541766-.9252929 6.2147971z" fill="#000" opacity=".1"/><path d="m48.559375 67.9444785s-6.4030273.3699284-9.1418945-1.3687351" fill="#000" opacity=".1"/><g fill="#000" opacity=".1" transform="translate(20.356445 36.093643)"><path d="m27.4256836 35.9200477c.8512695-1.5536993 1.9616211-2.9594272 3.2200195-4.1801909.2960938-.1849642.6291992-.3699284.9623047-.5178998l9.9931641-2.0346062.5921875-.1109785s.0740234-19.49522672-6.8101563-22.1587112c-3.8862304-1.47971361-7.5133789-3.51431981-10.7704101-6.06682578l.7402343-.22195704s4.1453125 3.62529833 11.0294922 6.28878282c6.8841797 2.66348448 6.8101563 22.1587112 6.8101563 22.1587112h-1.0363281l-10.2152344 1.9606205-.5921875.5548926c-1.2954102 1.2947494-2.36875 2.7374702-3.2570313 4.3281623-1.3324218 2.5155132-1.6655273 5.4379475-.8512695 8.1754177h-1.0733398c-.8512696-3.1073986.0370117-5.9558473 1.2583984-8.1754177z"/><path d="m.14804688 1.51670644c.18505859-.03699284.33310546-.03699284.48115234-.07398568.70322265.11097852 1.40644531.14797136 2.10966797.1849642-.85126953.03699284-1.73955078 0-2.59082031-.11097852z"/><path d="m14.8046875 3.51431981-6.32900391-3.18138425c.14804688-.11097852.25908204-.22195704.37011719-.33293556l6.58808592 3.32935561z"/></g><path d="m59.21875 59.4731181 4.2193359 5.1789976.8512696 14.0572793s1.1103515 7.1766109-7.0692383 5.4379475c-8.1795899-1.7386635-17.6916016-7.0656325-17.6916016-7.0656325s4.5894532-6.1408115 2.0726563-8.4713604l11.7327148 3.8102625s1.9986328-.443914.4441406-2.1455847c-1.5544921-1.7016706-1.8135742-4.846062-1.8135742-4.846062z" fill="#8475d3"/><path d="m61.1433594 74.307247 2.3317383 2.6634845c-1.2213868-.3699284-2.1466797-1.4057279-2.3317383-2.6634845z" fill="#000" opacity=".1"/><path d="m57.1460938 73.8633329 3.6271484 4.6610979-1.8135742.443914z" fill="#000" opacity=".1"/><path d="m21.0226562 16.709395c-.4071289-.9618139-.1110351-2.1085919.3701172-3.0334129.4811524-.924821 1.1473633-1.7756564 1.4804688-2.774463.5551758-1.47971364.3701172-3.14439144.9623047-4.58711221 1.0363281-2.55250596 3.9232422-3.69928401 6.5510742-4.55011933.7772461-.25894988 1.5915039-.51789976 2.36875-.33293556 1.0363281.25894988 1.7395508 1.22076372 2.5908203 1.849642 3.553125 2.62649165 9.3269531-.25894988 12.7320313 2.51551313 1.2954101 1.07279236 1.961621 2.77446301 2.1466796 4.47613367.1850586 1.7016706 0 3.3663484 0 5.0680191-.0740234 2.9594272.4811524 6.2147971 2.7018555 8.1754176.6662109.5918855 1.443457 1.0357996 2.109668 1.6646778.6662109.6288783 1.184375 1.4797136 1.0363281 2.3675418-.0740234.4069212-.2220703.8138425-.3701172 1.1837709-.4441406 1.5536993.2220703 3.1813842 1.0363281 4.5871122 2.4057618 4.1431981 6.6250977 7.5465393 11.3996094 7.6575179-.3331055 2.4045346-2.8499023 3.8102625-5.0706055 4.8090692-2.8499023 1.2577565-5.8108398 2.5155131-8.9198242 2.3305489-3.1089843-.1849642-6.3290039-2.1455847-6.8841797-5.1789976-.1850586-1.0357995-.1480468-2.3305489-1.0733398-2.8854415-.5551758-.3329356-1.2583984-.2589499-1.8505859-.5178998-.8512696-.3699284-1.2954102-1.2947494-1.5544922-2.1825776-.5921875-1.8126491-.8882813-3.7362768-.925293-5.6229117-.0370117-2.2565632.259082-4.7350835-1.0363281-6.6217183-1.184375-1.7386635-3.294043-2.5894988-4.7004883-4.180191-1.2583984-1.4797136-2.6648438-3.2553699-4.7375-3.5143198-2.7388672-.4439141-8.6607422 3.4403341-10.3632813-.7028639z" fill="#000" opacity=".1"/><path d="m21.0226562 16.1914952c-.4071289-.9618138-.1110351-2.1085919.3701172-3.0334129.4811524-.924821 1.1473633-1.7756563 1.4804688-2.774463.5551758-1.4797136.3701172-3.14439141.9623047-4.58711217 1.0363281-2.55250597 3.9232422-3.69928401 6.5510742-4.55011933.7772461-.25894988 1.5915039-.51789976 2.36875-.33293556 1.0363281.25894988 1.7395508 1.22076372 2.5908203 1.849642 3.553125 2.62649165 9.3269531-.25894988 12.7320313 2.51551313 1.2954101 1.07279236 1.961621 2.77446301 2.1466796 4.47613365.1850586 1.70167068 0 3.36634848 0 5.06801908-.0740234 2.9594272.4811524 6.2147971 2.7018555 8.1754177.6662109.5918854 1.443457 1.0357995 2.109668 1.6646778.6662109.6288783 1.184375 1.4797136 1.0363281 2.3675417-.1110352.4069213-.2220703.8138425-.3701172 1.1837709-.4441406 1.5536993.2220703 3.1813843 1.0363281 4.5871122 2.4057618 4.1431981 6.6250977 7.5465394 11.3996094 7.6575179-.3331055 2.4045346-2.8499023 3.8102625-5.0706055 4.8090692-2.8499023 1.2577566-5.8108398 2.5155131-8.9198242 2.3305489-3.1089843-.1849642-6.3290039-2.1455847-6.8841797-5.1789976-.1850586-1.0357995-.1480468-2.3305489-1.0733398-2.8854415-.5551758-.3329356-1.2583984-.2589499-1.8505859-.5178998-.8512696-.3699284-1.2954102-1.2947494-1.5544922-2.1825775-.5921875-1.8126492-.8882813-3.7362769-.925293-5.6229117-.0370117-2.2565633.259082-4.7350836-1.0363281-6.6217184-1.184375-1.7386635-3.294043-2.5894988-4.7004883-4.1801909-1.2583984-1.4797136-2.6648438-3.25537-4.7375-3.5143198-2.7388672-.4439141-8.6607422 3.4403341-10.3632813-.702864z" fill="#30333f"/><path d="m28.9061523 44.7869606 6.3660157-5.1789976s-4.3673828-2.3675418-4.8855469-4.402148-3.9972656.9618138-3.6641602 2.774463c.3331055 1.8126492 2.1836914 6.8066826 2.1836914 6.8066826z" fill="#000" opacity=".1"/><path d="m29.1652344 44.0101109 6.3660156-5.1789976s-4.3673828-2.3675417-4.8855469-4.4021479c-.518164-2.0346062-3.9972656.9618138-3.6641601 2.774463.3331054 1.8126491 2.1836914 6.8066825 2.1836914 6.8066825z" fill="#8475d3"/><ellipse cx="35.790332" cy="43.159276" fill="#000" opacity=".1" rx="1" ry="1"/><ellipse cx="35.790332" cy="45.970732" fill="#000" opacity=".1" rx="1" ry="1"/><ellipse cx="35.790332" cy="48.782187" fill="#000" opacity=".1" rx="1" ry="1"/><g fill="#000" opacity=".1" transform="translate(20.726562 4.649729)"><path d="m2.84990234 4.36515513c.51816407-1.40572792.40712891-2.95942721.85126954-4.32816229-.22207032.29594272-.40712891.62887828-.55517579.99880668-.5921875 1.44272077-.4071289 3.10739857-.96230468 4.58711217 0 .03699284-.03701172.03699284-.03701172.07398568.29609375-.44391408.51816406-.88782816.70322265-1.33174224z"/><path d="m43.1186523 39.2124105c-2.8499023 1.2577566-5.8108398 2.5155131-8.9198242 2.3305489-3.1089843-.1849642-6.3290039-2.1455847-6.8841797-5.1789976-.1850586-1.0357995-.1480468-2.3305489-1.0733398-2.8854415-.5551758-.3329356-1.2583984-.2589499-1.8505859-.5178998-.8512696-.3699284-1.2954102-1.2947494-1.5544922-2.1825775-.5921875-1.8126492-.8882813-3.7362769-.925293-5.6599046-.0370117-2.2565632.259082-4.7350835-1.0363281-6.6217184-1.184375-1.7386634-3.294043-2.5894988-4.7004883-4.1801909-1.2583984-1.4797136-2.6648438-3.2553699-4.7375-3.5143198-2.84990235-.3699284-8.80878907 3.5143198-10.47431641-.6288783-.25908203-.77684962-.22207031-1.62768494.11103515-2.40453458-.11103515.22195704-.25908203.40692124-.33310546.62887828-.48115235.924821-.7772461 2.071599-.37011719 3.0334129 1.70253906 4.1431981 7.66142578.2589499 10.51132811.6288783 2.0726563.2959427 3.4420899 2.071599 4.7375 3.5143198 1.3694336 1.5906921 3.4791016 2.4785203 4.6634766 4.2171838 1.2954101 1.849642.9993164 4.3281622 1.0363281 6.6217183.0370117 1.9236277.3331055 3.8102626.925293 5.6599046.2960937.8878281.7032226 1.849642 1.5544922 2.1825775.5921875.2589499 1.2954101.1849642 1.8505859.5178998.925293.5548926.8882812 1.849642 1.0733398 2.8854415.5551758 3.0704057 3.7751953 5.0310263 6.8841797 5.2159905s6.1069336-1.0727924 8.9198242-2.330549c2.0356446-.924821 4.3303711-2.1825775 4.9225586-4.2171837-.9993164 1.2577565-2.7388672 2.1825775-4.3303711 2.8854415z"/></g></g></g></g></svg>