<svg viewBox="0 0 634 318" xmlns="http://www.w3.org/2000/svg"><g fill="none" fill-rule="evenodd"><g fill="#e7eaf3" fill-rule="nonzero" stroke="#aab4ce" transform="translate(0 279)"><path d="m633 30.9h-632.2l63.4-23.5 568.8-6.6z"/><path d="m633.047879 31.9h-632.247879l63.4-23.5 568.847879-6.6z"/><path d="m633 32.9h-632.2l63.4-23.5 568.8-6.6z"/><path d="m633.047879 33.9h-632.247879l63.4-23.5 568.847879-6.6z"/><path d="m633.047879 34.9h-632.247879l63.4-23.5 568.847879-6.6z"/><path d="m633.047879 35.9h-632.247879l63.4-23.5 568.847879-6.6z"/><path d="m633.047879 36.9h-632.247879l63.4-23.5 568.847879-6.6z"/><path d="m633.047879 37.9h-632.247879l63.4-23.5 568.847879-6.6z"/></g><path d="m608.42 286.400439c0-39.455264-8.4-77.091667-23.52-110.950439 5.46-11.332895 8.54-23.925 8.54-37.356579 0-47.5701754-38.5-86.0460526-86.1-86.0460526-8.96 0-17.5 1.3991228-25.62 3.9175439-42.28-26.8631579-92.54-42.5333334-146.44-42.5333334-6.72 0-13.44.2798246-20.02.6995615-11.76-8.81447373-26.46-14.1311404-42.28-14.1311404-29.96 0-55.58 18.7482456-65.66 45.1916667-20.72 11.0530701-39.9 24.6245614-56.98 40.2947368-5.6-1.2592105-11.34-1.9587719-17.36-1.9587719-43.12 0-77.98 34.8381574-77.98 77.9311404 0 18.748246 6.58 35.957456 17.64 49.389035-6.86 23.925-10.64 49.249123-10.64 75.412719z" fill="#f7f8f9" fill-rule="nonzero"/><g transform="translate(36 112)"><g fill-rule="nonzero"><g transform="translate(34 143)"><g transform="translate(5 6)"><path d="m4.9 16.5h2l2.8-8.4c.2-.5.1-1-.1-1.5l-3.7-6.5h-.8l-.1 7c.1.1.7.3.8.4.5.5.5 1.4 0 1.9s-1.4.5-1.9 0-.5-1.4 0-1.9c.1-.1.5-.4.6-.4l.2-6.9h-.6l-3.8 6.5c-.3.5-.3 1-.2 1.5l2.7 8.4z" fill="#fec55e"/><path d="m2.9 16.5h2 2l.9-2.8h-5.8z" fill="#231f20" opacity=".2"/><path d="m.5 15h8.8v15.9h-8.8z" fill="#717386"/><path d="m4.9 15h4.4v15.9h-4.4z" fill="#4d5068"/></g><g transform="translate(25 5)"><path d="m1 11.8v3.8c0 .7.6 1.3 1.3 1.3 1.4 0 2.5 1.1 2.5 2.5v10.3c0 1.3 1.1 2.4 2.5 2.3 1.2-.1 2-1.2 2-2.4v-10.1c0-1.4 1.1-2.5 2.5-2.5.7 0 1.3-.6 1.3-1.3v-3.9zm5.2 17.7c0-.4.4-.8.8-.8s.8.4.8.8-.4.8-.8.8-.8-.4-.8-.8z" fill="#9a9dd0"/><path d="m1 .1h12v8.7h-12z" fill="#fec55e"/><path d="m1 .1h4.8v8.7h-4.8z" fill="#fec55e"/><path d="m1 8.3h12v3.5h-12z" fill="#9e9e9e"/><g fill="#c5c5c5"><path d="m1 8.5h12v1h-12z"/><path d="m1 9.8h12v1h-12z"/><path d="m1 11h12v1h-12z"/></g><path d="m7 11.8v16.9c-.4 0-.8.4-.8.8s.4.8.8.8v1.6c-1.3 0-2.3-1-2.3-2.3v-10.3c0-1.4-1.1-2.5-2.5-2.5-.7 0-1.3-.6-1.3-1.3v-3.7z" fill="#8184c4"/><path d="m5.1.1v3.4c0 .5.4 1 1 1 .5 0 1-.4 1-1v-1c0-.4.4-.8.8-.8.4 0 .8.4.8.8v3.6c0 .4.4.8.8.8.4 0 .8-.4.8-.8v-1.7c.9 0 1.6-.7 1.6-1.6v-2.8l-6.8.1c0-.1 0 0 0 0z" fill="#377dff"/></g><path d="m26 5.1v8.1.2.3.2.7.5.7.5.3 3.8c0 .7.6 1.3 1.3 1.3h.4v-12.9l-1.4-3.6z" fill="#414042" opacity=".3"/><g transform="translate(21 2)"><path d="m.6 6.8h4.9v24.4h-4.9z" fill="#fec55e"/><path d="m5.6 32.4h-4.9v1.4c0 .6.5 1.2 1.2 1.2h2.6c.6 0 1.2-.5 1.2-1.2z" fill="#fec55e"/><path d="m.6 31.2h4.9v1.2h-4.9z" fill="#212121"/><path d="m.6 6.8h2.5v24.4h-2.5z" fill="#fed17e"/><path d="m2.9 1.1-2.3 5.7h4.9l-2.3-5.7c0-.2-.2-.2-.3 0z" fill="#f1f2f2"/><path d="m3 .7-.6 1.5h1.3l-.6-1.5s0 0-.1 0z" fill="#212121"/></g><path d="m12.4 21 2.3-6.8c.2-.5.1-1-.1-1.5l-3.2-5.7v1.2.4 1.2.4 1.2.4 1.2.4 1.2.4 1.2.4 1.2.4 1.2.4 1.2.4 1.2.4 1.2.4 1.2.4 1.2.4 1.2.4 1.2.4 1.2.4 1.2.4 1.2.4.8c0 .6.5 1.1 1.1 1.1h1.9v-15.9h-2z" fill="#414042" opacity=".3"/><g transform="translate(12 2)"><path d="m1.4 0h3.9c.6 0 1 .5 1 1v32.9c0 .6-.5 1-1 1h-3.9c-.6 0-1-.5-1-1v-32.9c0-.5.4-1 1-1z" fill="#377dff"/><path d="m1.5 0h2.1v34.9h-2.1c-.6 0-1.1-.5-1.1-1.1v-32.7c0-.6.5-1.1 1.1-1.1z" fill="#b7d2f9"/><g fill="#414042"><path d="m.4 32.5h1v1h-1z"/><path d="m.4 31h1v1h-1z"/><path d="m.4 29.4h1v1h-1z"/><path d="m.4 27.9h1v1h-1z"/><path d="m.3 26.3h1.5v1h-1.5z"/><path d="m.4 24.8h1v1h-1z"/><path d="m.4 23.2h1v1h-1z"/><path d="m.4 21.7h1v1h-1z"/><path d="m.4 20.1h1v1h-1z"/><path d="m.3 18.6h1.5v1h-1.5z"/><path d="m.4 17h1v1h-1z"/><path d="m.4 15.5h1v1h-1z"/><path d="m.4 13.9h1v1h-1z"/><path d="m.4 12.4h1v1h-1z"/><path d="m.3 10.8h1.5v1h-1.5z"/><path d="m.4 9.3h1v1h-1z"/><path d="m.4 7.7h1v1h-1z"/><path d="m.4 6.2h1v1h-1z"/><path d="m.4 4.6h1v1h-1z"/><path d="m.3 3.1h1.5v1h-1.5z"/><path d="m.4 1.5h1v1h-1z"/></g></g><path d="m17.3 2v6.9h-.6v2.7.3 4.6h.6v20.4c.6 0 1-.5 1-1.1v-32.7c0-.6-.4-1-1-1.1z" fill="#414042" opacity=".3"/><g transform="translate(17)"><path d="m1.4 16.2h2.6v20.7h-2.6z" fill="#191c3c"/><path d="m2.7 16.2h1.3v20.7h-1.3z" fill="#474963"/><path d="m.8 11.6h3.5v4.9h-3.5z" fill="#191c3c"/><path d="m.8 11.6h3.5v1h-3.5z" fill="#fff"/><path d="m.8 8.9h3.5v2.7h-3.5z" fill="#191c3c"/><path d="m4.2 3.3-2.8-2.4v8h2.8z" fill="#9e9e9e"/><path d="m1.4 1.8v7.1h2.8v-4.7z" fill="#ececec"/><path d="m2.8 8.9h1.4v-4.7l-1.4-1.2z" fill="#b1b1b1"/></g><g fill="#414042" opacity=".3" transform="translate(5 26)"><path d="m7.4 10.9h1.1.8 1.3 1.6.1c.3 0 .5-.1.7-.3 0 0 0 0 0-.1.1-.1.1-.2.2-.3s.1-.3.1-.4v-9.1h-12.8v10.2h4.4z"/><path d="m16.6 9.6c0 .7.6 1.3 1.3 1.3h2.4c.7 0 1.3-.6 1.3-1.3v-1.3-1.2-6.5h-4.9v6.5 1.2 1.3z"/><path d="m16 10.9v-10.2h-2.6v10.2h1.3z"/><path d="m24.7.7v8c0 .2 0 .3.1.5 0 .1 0 .1.1.2 0 .1 0 .2.1.2 0 .1.1.2.1.2l.1.1c.1.1.1.2.2.3 0 0 0 0 .1.1s.2.2.3.2c.4.3.9.4 1.5.4 1.2-.1 2-1.2 2-2.4v-7.8zm2.3 8.6c-.4 0-.8-.4-.8-.8s.4-.8.8-.8.8.4.8.8-.3.8-.8.8z"/></g><g transform="translate(0 27)"><path d="m39.2 22.2h-34.2v-21.4h36.3v19.3c0 1.1-.9 2.1-2.1 2.1z" fill="#fec55e"/><path d="m3.4 22.2h1.6v-21.4h-3.7v19.3c0 1.1.9 2.1 2.1 2.1z" fill="#bf9447"/><path d="m1.3 5.3h2.4l1.3-4.5-3.7.9z" fill="#231f20" opacity=".2"/><path d="m.7 3.5h2.6c.2 0 .4-.1.4-.3l1.2-2.4h-3.7l-1 2c-.1.3.2.7.5.7z" fill="#fec55e"/><path d="m41.3 5.3v-3.6l-36.3-.9 2 4.5z" fill="#231f20" opacity=".2"/><path d="m42.3 3.5h-35.1c-.2 0-.3-.1-.4-.2l-1.8-2.5h36.3l1.4 1.9c.3.3.1.8-.4.8z" fill="#fec55e"/></g></g><path d="m257.841286 49h-138.682572c-1.80498 0-3.158714 1.5025907-3.158714 3.3056995v3.3056995 7.8134715 101.5751295h140.938797 4.061203v-101.5751295-7.8134715-2.7046632-.4507773c0-1.9533678-1.353734-3.4559585-3.158714-3.4559585z" fill="#8c98a4" opacity=".3"/><g transform="translate(121 57)"><path d="m151.09703 116.4h-150.94653495v-109.05c0-3.6 3.00990099-6.6 6.62178218-6.6h137.55247477c3.611882 0 6.621783 3 6.621783 6.6v109.05z" fill="#fff"/><path d="m151.09703 14.7v-11.1c0-1.8-1.504951-3.3-3.310891-3.3h-144.17425781c-1.8059406 0-3.31089109 1.5-3.31089109 3.3v11.1z" fill="#377dff"/><path d="m11.4376238 7.95c0 1.05-.9029703 1.95-1.95643568 1.95-1.05346535 0-1.95643564-.9-1.95643564-1.95s.90297029-1.95 1.95643564-1.95c1.20396038 0 1.95643568.9 1.95643568 1.95z" fill="#fff"/><path d="m17.9089109 7.95c0 1.05-.9029703 1.95-1.9564357 1.95-1.0534653 0-1.9564356-.9-1.9564356-1.95s.9029703-1.95 1.9564356-1.95c1.0534654 0 1.9564357.9 1.9564357 1.95z" fill="#fff"/><path d="m24.380198 7.95c0 1.05-.9029703 1.95-1.9564356 1.95-1.0534654 0-1.9564357-.9-1.9564357-1.95s.9029703-1.95 1.9564357-1.95c1.0534653 0 1.9564356.9 1.9564356 1.95z" fill="#fff"/><path d="m147.786139.75h-4.213862c1.805941 0 3.310891 1.5 3.310891 3.3v112.35h4.213862v-112.35c0-1.8-1.504951-3.3-3.310891-3.3z" fill="#191c3c" opacity=".2"/><g fill="#dfe2ec"><path d="m15.2 29.1h-2.4079208c-1.5049505 0-2.7089109-1.2-2.7089109-2.7 0-1.5 1.2039604-2.7 2.7089109-2.7h2.4079208c1.5049505 0 2.7089109 1.2 2.7089109 2.7 0 1.5-1.2039604 2.7-2.7089109 2.7z"/><path d="m15.2 42.75h-2.4079208c-1.5049505 0-2.7089109-1.2-2.7089109-2.7 0-1.5 1.2039604-2.7 2.7089109-2.7h2.4079208c1.5049505 0 2.7089109 1.2 2.7089109 2.7 0 1.5-1.2039604 2.7-2.7089109 2.7z"/><path d="m15.2 56.25h-2.4079208c-1.5049505 0-2.7089109-1.2-2.7089109-2.7 0-1.5 1.2039604-2.7 2.7089109-2.7h2.4079208c1.5049505 0 2.7089109 1.2 2.7089109 2.7 0 1.5-1.2039604 2.7-2.7089109 2.7z"/><path d="m15.2 69.75h-2.4079208c-1.5049505 0-2.7089109-1.2-2.7089109-2.7 0-1.5 1.2039604-2.7 2.7089109-2.7h2.4079208c1.5049505 0 2.7089109 1.2 2.7089109 2.7 0 1.5-1.2039604 2.7-2.7089109 2.7z"/><path d="m15.2 83.4h-2.4079208c-1.5049505 0-2.7089109-1.2-2.7089109-2.7 0-1.5 1.2039604-2.7 2.7089109-2.7h2.4079208c1.5049505 0 2.7089109 1.2 2.7089109 2.7 0 1.5-1.2039604 2.7-2.7089109 2.7z"/><path d="m15.2 96.9h-2.4079208c-1.5049505 0-2.7089109-1.2-2.7089109-2.7 0-1.5 1.2039604-2.7 2.7089109-2.7h2.4079208c1.5049505 0 2.7089109 1.2 2.7089109 2.7 0 1.5-1.2039604 2.7-2.7089109 2.7z"/><path d="m15.2 110.55h-2.4079208c-1.5049505 0-2.7089109-1.2-2.7089109-2.7 0-1.5 1.2039604-2.7 2.7089109-2.7h2.4079208c1.5049505 0 2.7089109 1.2 2.7089109 2.7 0 1.5-1.2039604 2.7-2.7089109 2.7z"/><path d="m133.037624 29.1h-2.407921c-1.504951 0-2.708911-1.2-2.708911-2.7 0-1.5 1.20396-2.7 2.708911-2.7h2.407921c1.50495 0 2.708911 1.2 2.708911 2.7 0 1.5-1.203961 2.7-2.708911 2.7z"/></g><path d="m133.037624 42.75h-2.407921c-1.504951 0-2.708911-1.2-2.708911-2.7 0-1.5 1.20396-2.7 2.708911-2.7h2.407921c1.50495 0 2.708911 1.2 2.708911 2.7 0 1.5-1.203961 2.7-2.708911 2.7z" fill="#8184c4"/><path d="m133.037624 56.25h-2.407921c-1.504951 0-2.708911-1.2-2.708911-2.7 0-1.5 1.20396-2.7 2.708911-2.7h2.407921c1.50495 0 2.708911 1.2 2.708911 2.7 0 1.5-1.203961 2.7-2.708911 2.7z" fill="#fcd991"/><path d="m133.037624 69.75h-2.407921c-1.504951 0-2.708911-1.2-2.708911-2.7 0-1.5 1.20396-2.7 2.708911-2.7h2.407921c1.50495 0 2.708911 1.2 2.708911 2.7 0 1.5-1.203961 2.7-2.708911 2.7z" fill="#8184c4"/><path d="m133.037624 83.4h-2.407921c-1.504951 0-2.708911-1.2-2.708911-2.7 0-1.5 1.20396-2.7 2.708911-2.7h2.407921c1.50495 0 2.708911 1.2 2.708911 2.7 0 1.5-1.203961 2.7-2.708911 2.7z" fill="#fcd991"/><path d="m133.037624 96.9h-2.407921c-1.504951 0-2.708911-1.2-2.708911-2.7 0-1.5 1.20396-2.7 2.708911-2.7h2.407921c1.50495 0 2.708911 1.2 2.708911 2.7 0 1.5-1.203961 2.7-2.708911 2.7z" fill="#8184c4"/><path d="m133.037624 110.55h-2.407921c-1.504951 0-2.708911-1.2-2.708911-2.7 0-1.5 1.20396-2.7 2.708911-2.7h2.407921c1.50495 0 2.708911 1.2 2.708911 2.7 0 1.5-1.203961 2.7-2.708911 2.7z" fill="#dfe2ec"/><path d="m60.0475248 29.1h-34.7643565c-1.5049505 0-2.7089109-1.2-2.7089109-2.7 0-1.5 1.2039604-2.7 2.7089109-2.7h34.7643565c1.5049504 0 2.7089108 1.2 2.7089108 2.7 0 1.5-1.2039604 2.7-2.7089108 2.7z" fill="#dfe2ec"/><path d="m68.6257426 29.1h7.0732673c1.5049505 0 2.7089109-1.2 2.7089109-2.7 0-1.5-1.2039604-2.7-2.7089109-2.7h-7.0732673c-1.5049505 0-2.7089109 1.2-2.7089109 2.7 0 1.5 1.2039604 2.7 2.7089109 2.7z" fill="#fec55e"/><path d="m41.0851485 42.75h-15.6514851c-1.5049505 0-2.7089109-1.2-2.7089109-2.7 0-1.5 1.2039604-2.7 2.7089109-2.7h15.6514851c1.5049505 0 2.7089109 1.2 2.7089109 2.7 0 1.5-1.2039604 2.7-2.7089109 2.7z" fill="#fec55e"/><path d="m55.0811881 42.75h46.9544559c1.50495 0 2.70891-1.2 2.70891-2.7 0-1.5-1.20396-2.7-2.70891-2.7h-46.9544559c-1.5049505 0-2.7089109 1.2-2.7089109 2.7 0 1.5 1.2039604 2.7 2.7089109 2.7z" fill="#377dff"/><path d="m91.5009901 56.25h-66.0673267c-1.5049505 0-2.7089109-1.2-2.7089109-2.7 0-1.5 1.2039604-2.7 2.7089109-2.7h66.0673267c1.5049505 0 2.7089109 1.2 2.7089109 2.7 0 1.5-1.2039604 2.7-2.7089109 2.7z" fill="#dfe2ec"/><path d="m106.09901 69.75h-80.6653466c-1.5049505 0-2.7089109-1.2-2.7089109-2.7 0-1.5 1.2039604-2.7 2.7089109-2.7h80.6653466c1.50495 0 2.708911 1.2 2.708911 2.7 0 1.5-1.203961 2.7-2.708911 2.7z" fill="#dfe2ec"/><path d="m91.5009901 83.4h-24.380198c-1.5049505 0-2.7089109-1.2-2.7089109-2.7 0-1.5 1.2039604-2.7 2.7089109-2.7h24.380198c1.5049505 0 2.7089109 1.2 2.7089109 2.7 0 1.5-1.2039604 2.7-2.7089109 2.7z" fill="#377dff"/><path d="m57.1881188 83.4h-31.7544554c-1.5049505 0-2.7089109-1.2-2.7089109-2.7 0-1.5 1.2039604-2.7 2.7089109-2.7h31.7544554c1.5049505 0 2.7089109 1.2 2.7089109 2.7 0 1.5-1.2039604 2.7-2.7089109 2.7z" fill="#dfe2ec"/><path d="m75.6990099 96.9h-50.2653465c-1.5049505 0-2.7089109-1.2-2.7089109-2.7 0-1.5 1.2039604-2.7 2.7089109-2.7h50.2653465c1.5049505 0 2.7089109 1.2 2.7089109 2.7 0 1.5-1.2039604 2.7-2.7089109 2.7z" fill="#dfe2ec"/><path d="m84.7287129 96.9h16.1029701c1.504951 0 2.708911-1.2 2.708911-2.7 0-1.5-1.20396-2.7-2.708911-2.7h-16.1029701c-1.5049505 0-2.7089109 1.2-2.7089109 2.7 0 1.5 1.2039604 2.7 2.7089109 2.7z" fill="#fec55e"/><path d="m91.5009901 110.55h-66.0673267c-1.5049505 0-2.7089109-1.2-2.7089109-2.7 0-1.5 1.2039604-2.7 2.7089109-2.7h66.0673267c1.5049505 0 2.7089109 1.2 2.7089109 2.7 0 1.5-1.2039604 2.7-2.7089109 2.7z" fill="#dfe2ec"/></g></g><g transform="translate(127 173)"><g fill-rule="nonzero"><g transform="translate(25)"><path d="m19.5 10.1c0 5.1-4.1 9.3-9.3 9.3-5.1 0-9.3-4.1-9.3-9.3s4.1-9.3 9.3-9.3c5.1 0 9.3 4.2 9.3 9.3z" fill="#377dff"/><path d="m3.4 6-3-3 1-1 2 1.9 3.6-3.7 1.1 1.1z" fill="#fff" transform="translate(6 7)"/></g><path d="m26 10.1c0 1.9333333 1.1666667 4.3333333 3.5 7.2l2.3486809 1.1665353c-1.4991206-10.44435686-2.2486809-15.6665353-2.2486809-15.6665353-2.3 1.8-3.6 4.4-3.6 7.3z" fill="#231f20" opacity=".3"/><g transform="translate(11)"><path d="m12.2 7.3-6.4-.5 5.1-5.9z" fill="#fec55e"/><path d="m7.1 13.1-6.4-.5 5.1-5.8z" fill="#fec55e"/><path d="m19.6 18.9h-17.7l15.4-17.5z" fill="#fec55e"/><g fill="#fed17e"><path d="m19.6 18.9-12.5-5.8 5.1-5.9z"/><path d="m.7 12.6 1.2 6.3 5.1-5.8z"/><path d="m5.8 6.8 1.3 6.3 5.1-5.8z"/><path d="m10.9.9 1.3 6.3 5.1-5.8z"/></g></g><path d="m14.85 9.75c-1.3814386 2.8944428-3.6 6.8174045-3.6 8.7165353 0 .2832878 4.8551052.2832878 4.8551052.2832878 2.8-1.7 5.2948948-5.2498231 5.2948948-8.7498231 0-2.28360678-.7117359-4.24997351-2.0327515-5.9-.702543.85183584-3.6431846 3.818628-4.5172485 5.65z" fill="#231f20" opacity=".3"/><circle cx="10.4" cy="9.9" fill="#191c3c" r="9.6"/></g><text fill="#fff"><tspan x="6.5" y="12"/></text></g><path d="m18.9 14.2h2.3c.5 0 .9-.4.9-.9v-3c0-.5-.4-.9-.9-.9h-1.8c-.3 0-.6-.2-.7-.5-.1-.2-.1-.3-.2-.5-.1-.3-.1-.6.1-.8l1.3-1.3c.3-.3.3-.9 0-1.2l-2.1-2.1c-.3-.3-.9-.3-1.2 0l-1.3 1.3c-.2.2-.5.3-.8.1-.2-.1-.4-.2-.6-.2-.3-.1-.4-.4-.4-.7v-1.8c0-.5-.4-.9-.9-.9h-3c-.5 0-.9.4-.9.9v1.8c0 .3-.2.6-.5.7-.2.1-.4.1-.5.2-.3.1-.6.1-.8-.1l-1.3-1.3c-.3-.3-.9-.3-1.2 0l-2.1 2.1c-.3.3-.3.9 0 1.2l1.3 1.3c.2.2.3.5.2.8-.1.2-.2.4-.2.6-.1.3-.4.4-.7.4h-1.8c-.5 0-.9.4-.8.9v3c0 .5.4.9.9.8h1.8c.3 0 .6.2.7.5.1.2.1.3.2.5.1.3.1.6-.1.8l-1.3 1.3c-.3.3-.3.9 0 1.2l2.1 2.1c.3.3.9.3 1.2 0l1.3-1.3c.2-.2.5-.3.8-.1.2.1.4.2.6.2.3.1.4.4.4.7v1.8c0 .5.4.9.9.8h3c.5 0 .9-.4.8-.9v-1.8c0-.3.2-.6.5-.7.2-.1.3-.1.5-.2.3-.1.6-.1.8.1l1.3 1.3c.3.3.9.3 1.2 0l2.1-2.1c.3-.3.3-.9 0-1.2l-1.3-1.3c-.2-.2-.3-.5-.1-.8.1-.2.3-.8.3-.8zm-11.8-3.1c.5-2.6 3.2-4.1 5.6-3.2 1.9.7 3 2.7 2.6 4.7-.5 2.6-3.2 4.1-5.6 3.2-1.8-.7-2.9-2.7-2.6-4.7z" fill="#fec55e" fill-rule="nonzero" transform="translate(95 170)"/><g fill-rule="nonzero" transform="translate(0 164)"><g transform="translate(0 1)"><path d="m27.5 27.2h-24.9c-1.2 0-2.2-1-2.2-2.2v-20.6h27.1c.4 0 .8.3.8.8v21.3c-.1.3-.4.7-.8.7z" fill="#fdfdfe"/><path d="m3.3 23.3c-1 0-3 .2-3 2.3v-22.4c0-1.3 1-2.3 2.3-2.3h.7z" fill="#575a8f"/></g><path d="m19.4 18.8h1.5c.3 0 .5-.2.5-.5v-1.9c0-.3-.2-.5-.5-.5h-1.2c-.2 0-.4-.1-.4-.3 0-.1-.1-.2-.1-.3-.1-.2-.1-.4.1-.5l.8-.8c.2-.2.2-.6 0-.8l-1.3-1.3c-.2-.2-.6-.2-.8 0l-.8.8c-.1.1-.3.2-.5.1-.1-.1-.2-.1-.4-.1-.2-.1-.3-.2-.3-.4v-1.2c0-.3-.2-.5-.5-.5h-1.9c-.3 0-.5.2-.5.5v1.2c0 .2-.1.4-.3.4-.1 0-.2.1-.3.1-.2.1-.4.1-.5-.1l-.9-.9c-.2-.2-.6-.2-.8 0l-1.3 1.3c-.2.2-.2.6 0 .8l.8.8c.1.1.2.3.1.5-.1.1-.1.2-.1.4-.1.2-.2.3-.4.3h-1.2c-.3 0-.5.2-.5.5v1.9c0 .3.2.5.5.5h1.2c.2 0 .4.1.4.3 0 .1.1.2.1.3.1.2.1.4-.1.5l-.8.8c-.2.2-.2.6 0 .8l1.3 1.3c.2.2.6.2.8 0l.8-.8c.1-.1.3-.2.5-.1.1.1.2.1.4.1.2.1.3.2.3.4v1.2c0 .3.2.5.5.5h1.9c.3 0 .5-.2.5-.5v-1.2c0-.2.1-.4.3-.4.1 0 .2-.1.3-.1.2-.1.4-.1.5.1l.8.8c.2.2.6.2.8 0l1.3-1.3c.2-.2.2-.6 0-.8l-.8-.8c-.1-.1-.2-.3-.1-.5.2-.2.3-.6.3-.6zm-7.5-2c.3-1.7 2-2.6 3.6-2 1.2.5 1.9 1.7 1.7 3-.3 1.7-2 2.6-3.6 2-1.2-.4-1.9-1.7-1.7-3z" fill="#377dff"/><path d="m28.2 27.6v-21.7c0-.3-.3-.6-.6-.6h-1.8v19.1.6 2.5c0 .3.3.6.6.6h1.2c.4.1.6-.2.6-.5z" fill="#414042" opacity=".3"/><g transform="translate(26)"><path d="m.6 3.5h2.5v21.6h-2.5z" fill="#fec55e"/><path d="m3.1 25h-2.5v2.3c0 .5.4.8.8.8h.9c.5 0 .8-.4.8-.8z" fill="#575a8f"/><path d="m.6 3.5h1.3v21.6h-1.3z" fill="#fde1a7"/><path d="m1.7.5-1.2 2.9h2.6l-1.2-2.9c0-.1-.1-.1-.2 0z" fill="#f1f2f2"/><g fill="#212121"><path d="m1.8.4-.3.8h.7l-.4-.8c0-.1 0-.1 0 0z"/><path d="m.6 24.4h2.5v1h-2.5z"/></g></g></g><g fill-rule="nonzero" transform="translate(387)"><g transform="translate(36 4)"><path d="m6.5 36.3h-5.2c-.4 0-.7-.3-.7-.7v-34.1c0-.4.3-.7.7-.7h5.2c.4 0 .7.3.7.7v34.1c0 .4-.3.7-.7.7z" fill="#13d7b6"/><g fill="#fff"><path d="m2.8 3.6h1.8v1.8h-1.8z"/><path d="m2.8 7.1h1.8v1.8h-1.8z"/><path d="m2.8 10.6h1.8v1.8h-1.8z"/><path d="m2.8 14.1h1.8v1.8h-1.8z"/><path d="m2.8 17.7h1.8v1.8h-1.8z"/><path d="m2.8 21.2h1.8v1.8h-1.8z"/><path d="m2.8 24.7h1.8v1.8h-1.8z"/><path d="m2.8 28.2h1.8v1.8h-1.8z"/><path d="m2.8 31.8h1.8v1.8h-1.8z"/></g></g><g transform="translate(49 5)"><path d="m18.2 33.6-4.9 1.8c-.4.1-.8-.1-.9-.4l-11.5-32c-.1-.4.1-.8.4-.9l4.9-1.8c.4-.1.8.1.9.4l11.5 32c.1.3-.1.7-.4.9z" fill="#13d7b6"/><g fill="#fff"><path d="m8.3 6.1c.5 1.3-.2 2.8-1.5 3.3s-2.8-.2-3.3-1.5.2-2.8 1.5-3.3 2.8.2 3.3 1.5z"/><path d="m15.9 27.3c.5 1.3-.2 2.8-1.5 3.3s-2.8-.2-3.3-1.5.2-2.8 1.5-3.3c1.3-.6 2.8.1 3.3 1.5z"/></g></g><g transform="translate(43 2)"><path d="m6.3.3h-5.7c-.3 0-.5.2-.5.5v37c0 .3.2.5.5.5h5.7c.3 0 .5-.2.5-.5v-37c0-.3-.2-.5-.5-.5z" fill="#4d40ad"/><path d="m.9 38.3h2.6v-38h-2.6c-.4 0-.8.3-.8.8v36.5c0 .4.4.7.8.7z" fill="#2d1582"/><g fill="#fff"><path d="m.1 4.9h6.7v5.3h-6.7z"/><path d="m.1 28.4h6.7v5.3h-6.7z"/></g></g><g transform="translate(27)"><path d="m8.9 40.3h-8.3c-.3 0-.6-.3-.6-.6v-39c0-.3.3-.6.6-.6h8.3c.3 0 .6.3.6.6v39c0 .4-.3.6-.6.6z" fill="#efa02e"/><path d="m.9 40.3h3.8v-40.1h-3.8c-.5 0-.9.4-.9.9v38.4c0 .4.4.8.9.8z" fill="#fdd14e"/><path d="m5.9 37.5h-2.2c-.2 0-.3-.1-.3-.3v-32.1c0-.2.1-.3.3-.3h2.2c.2 0 .3.1.3.3v32.1c0 .2-.2.3-.3.3z" fill="#1e2022"/></g><g fill="#7c98d6"><path d="m.8 40.6h90.3v5.6h-90.3z"/><path d="m.8 45.8 3.1 2.9h91.3l-.1-5.7-4-2.4v5.2z" opacity=".2"/></g></g></g><g fill-rule="nonzero"><g transform="translate(505 216)"><path d="m81.1 84.4h-81.1v-80.5c0-2.2 1.7-3.9 3.9-3.9h73.3c2.2 0 3.9 1.7 3.9 3.9z" fill="#fff"/><path d="m81.1 12.2v-9.4c0-1.6-1.3-2.8-2.8-2.8h-75.5c-1.6 0-2.8 1.3-2.8 2.8v9.4z" fill="#7c98d6"/><path d="m11.7 14.4h58.2v24.7h-58.2z" fill="#7c98d6"/><g fill="#e7eaf3"><path d="m67.4 44h-53.3c-1.3 0-2.4 1.1-2.4 2.4 0 1.3 1.1 2.4 2.4 2.4h53.3c1.3 0 2.4-1.1 2.4-2.4.1-1.4-1-2.4-2.4-2.4z"/><path d="m67.6 54.3h-53.3c-1.3 0-2.4 1.1-2.4 2.4 0 1.3 1.1 2.4 2.4 2.4h53.3c1.3 0 2.4-1.1 2.4-2.4 0-1.3-1-2.4-2.4-2.4z"/><path d="m67.8 64.7h-53.3c-1.3 0-2.4 1.1-2.4 2.4 0 1.3 1.1 2.4 2.4 2.4h53.3c1.3 0 2.4-1.1 2.4-2.4 0-1.3-1.1-2.4-2.4-2.4z"/><path d="m68 75.1h-53.3c-1.3 0-2.4 1.1-2.4 2.4 0 1.3 1.1 2.4 2.4 2.4h53.3c1.3 0 2.4-1.1 2.4-2.4 0-1.3-1.1-2.4-2.4-2.4z"/></g><path d="m9.5 6.1c0 .9-.7 1.6-1.6 1.6s-1.6-.7-1.6-1.6.7-1.6 1.6-1.6c.9-.1 1.6.7 1.6 1.6z" fill="#fff"/><path d="m14.9 6.1c0 .9-.7 1.6-1.6 1.6s-1.6-.7-1.6-1.6.7-1.6 1.6-1.6c.9-.1 1.6.7 1.6 1.6z" fill="#fff"/><path d="m20.3 6.1c0 .9-.7 1.6-1.6 1.6s-1.6-.7-1.6-1.6.7-1.6 1.6-1.6c.9-.1 1.6.7 1.6 1.6z" fill="#fff"/><path d="m78.3 0h-3.6c1.6 0 2.8 1.3 2.8 2.8v81.6h3.6v-81.6c0-1.6-1.3-2.8-2.8-2.8z" fill="#97a4af" opacity=".2"/></g><path d="m368.2 297.9v-53.7-13.3l-13.6-13.3h-2.7v26 11.2 13.9 26.4c0 3.7 2.1 6.8 5.2 8.4h5.5c3 .1 5.6-2.4 5.6-5.6z" fill="#191c3c" opacity=".3"/><path d="m534.1 295.1v-54.5-14-6.6h-25.2-1.1c-1.6 0-2.8 1.3-2.8 2.8v1.1 8.3 72.2h20.6c4.7-.4 8.5-4.4 8.5-9.3z" fill="#191c3c" opacity=".3"/></g><g transform="translate(220 177)"><path d="m82.101502 23.873402h12.300206v7.500125h-12.300206z" fill="#ff8c6d" fill-rule="nonzero" transform="matrix(.66008896 -.75118743 .75118743 .66008896 9.247295 75.683017)"/><path d="m85.5 25.1 3.7 7.1 5.9-6.7-5.6-5z" fill="#191c3c" fill-rule="nonzero" opacity=".3"/><path d="m83.6621318 21.485992 7.2 6.3c2.2 1.9 5.6 1.7 7.5-.5l2.4000002-2.8 1.7.9.5-5.5c1.8-.1 3.4-1.1 4.3-2.7l-1.3-1.5-5.8-5.1c-2.2000002-1.89999998-5.5000002-1.69999998-7.4000002.5z" fill="#ff8c6d" fill-rule="nonzero" transform="matrix(.93358043 -.35836795 .35836795 .93358043 -.535091 35.484894)"/><path d="m75.1 112.5-1.8 4.3 3.1 5h-10.7v-3.9l3.2-6.1z" fill="#ef4f60"/><path d="m14.6 112.2-3.2 2.9.5 5.3-8.8-4.4 1.6-3.1 5.1-3.7z" fill="#ef4f60"/><path d="m71.6 61.4 19.4 19.4c.9.9 1.1 2.2.5 3.3l-16.1 31.5-7.8-1.9s7.2-23.5 11.1-29.3l-23.8-15.3z" fill="#dde59e" fill-rule="nonzero"/><path d="m71.6 61.4 3.1 3.2 2 18.6-21.8-14.1z" fill="#191c3c" fill-rule="nonzero" opacity=".3"/><path d="m56.4 50.6s-7.2 2-10.2 6.9l-4 9.5-15.5 19.1s-9.6 4.8-19.9 23.3l6.4 5.7 20.5-20.5 26.4-22.6 10.7-6.2z" fill="#dde59e" fill-rule="nonzero"/><path d="m87.2 31.3 14 7 25.7 1 3.8-5 3-10.2c.6 1 .9 2.1.8 3.3l-.7 5.5-1 6.3-2.5 4.1-30.5 2-13.6-5z" fill="#e44858"/><g fill-rule="nonzero"><path d="m70.4 65.4c-1 .9-1.6 1.4-1.6 1.5-10.2-.9-14.3-10.4-15.7-15 1.9-.9 3.4-1.3 3.4-1.3z" fill="#191c3c" opacity=".3"/><path d="m84.6 25.9s-6.7-2.7-12.3 1.3c0 0-9.8 20.5-17.3 22.2 0 0 2.8 16.3 16.3 17.5 0 0 1.7-.6 3.3-2.9 5.9-8.6 12.9-17.7 15.7-29.3 0-.2.1-.3.1-.5z" fill="#2860dd"/><path d="m66.5 119.1 1.6 1.7 4.7.1 2.5-3 5.4 4.6 7.7.7v2.4l-1.8 1.5h-21.9v-8.1z" fill="#9b9b9b"/><path d="m11.7 116.2 1.7 4.5 2.1 2.4 4.3 1.6v2.1l-2.4.8h-9l-8-8.8 4-6.3 1.3 1v1.8l2.7 2.3z" fill="#9b9b9b"/><path d="m100 45.4-10.3-3.8 2.4-6.1 7.7 2.1 1.4.7 25.7 1 .8-1h2.2l3.8-5 .3-.8-.1.4-1 6.4-2.1 3.4-12.9 1.5z" fill="#191c3c" opacity=".3"/><path d="m77.6 39.7 11.5 4.5 3.5-8.8-11.6-4.5c-2.4-1-5.2.2-6.1 2.7-1 2.4.2 5.1 2.7 6.1z" fill="#2860dd"/></g><path d="m92.1 36.5 10.3 2.8h27.5l3.8-5 3-10.2c.6 1 .9 2.1.8 3.3l-.7 5.5-.9 5.9c0 .3-.2.6-.3.9l-2.3 3.7-31.7 3.8-12.3-3.8z" fill="#ef4f60"/><path d="m81.8649823 13.9625528c.2-.2.4-.5.5-.7.7-1 1.2-1.8 1.6-2.9.2-.6.4-1.2.8-1.6 1.3-1.4 3.9-2 5.7-2.4 2.4-.4 4.8-1.9 7.1-1.1.7.3 1.3.7 2 1.2 1.3999997 1 2.8999997 1.9 3.7999997 3.4.4.6.5 1.2 1.1 1.6.5.4 1.2.6 1.5 1.2.8 1.2.3 2.7-.1 4-.4 1.2-.9 2.5-1.3 3.7-.9-.5-1.2-1.5-1.7-2.3-.8-1.2-3.6999997-3.3-5.1999997-2.7-1 .4-1.3 1.6-2 2.3-.8.8-2.1 1.1-2.7 2.1-.4.6-.5 1.6-1.2 1.8.3-.1.4-2.1.4-2.4 0-.8.2-1.4.3-2.2.1-.5 0-1-.3-1.3-.2-.2-.5-.2-.7-.4-.1-.1-.2-.2-.3-.2-.2-.1-.5 0-.7.1-1.3.6-1.3 1.7-1.4 3-.2.1-.4-.1-.6-.2s-.3-.1-.5-.1c-.9-.1-1.8-.2-2.6.4-.9.7-1.3 1.5-1.7 2.5-.2.4-.5.9-1 1.1-.2.1-.4.1-.6.1-.4 0-.8 0-1.2 0-.2 0-.4-.1-.5-.2-1.2-.9.2-2.6 0-3.7-.1-.4-.3-.7-.6-.9.4-.3 1.2-.4 1.5-.8.2-.2 0-1.8-.3-1.6.2-.1.5-.3.7-.4 0-.1.1-.2.2-.4z" fill="#30333f" fill-rule="nonzero" transform="matrix(.93358043 -.35836795 .35836795 .93358043 1.345341 34.252598)"/><g fill="#191c3c" fill-rule="nonzero" opacity=".15" transform="translate(76 38)"><path d="m6.2 12.2c-1.4 1.4-2.3 4.9-3.2 6.7 1.3-1.1 2.6-3.8 4-5.3.6-.9 1.1-1.8 1.7-2.7-.9.2-1.7.5-2.5 1.3z"/><path d="m6 9.1c.4.2 2.1 1.1 2.8 1.5.8-1.4 1.5-2.7 2.1-4.2-.2.1-.5.3-.6.3-.3.2-.2.5-.1.8-.2 0-.3.1-.5.1-.4.1-.6.5-.5.8-.4.1-.8.3-1.3.4-.4.2-2.5 0-1.9.3z"/><path d="m2.5 2.4c-.4-.4-.8-.9-1.3-1.5-.5-.7-.7-.6-.2.1.8 1.1 2.1 3.3 3.1 4.2.4.4-.8-1.2-.7-1.8 2.1 1.3 5.2 2.3 7.5 2.8.1-.1.1-.3.2-.4-2.8-.6-5.3-2-7.7-3.7-.2-.3-.7-.1-.9.3z"/></g><g fill="#191c3c" fill-rule="nonzero" opacity=".2" transform="translate(22 57)"><path d="m22.6 12.4c.5.1.8-.7.4-1.1-.3-.3-.5-.4-.7-.6.1-.1.3-.1.4-.2.2-.1.2-.2.3-.4.3-.2.3-.7-.1-1-1-.7-1.5-1.2-1.8-1.5l-.4 1c0 .1.1.1.1.2-.3.3-.4.8 0 1-.1.1-.2.2-.4.3-.4.2-.4.6-.2.9-.5 0-.9.1-1.2.2l-4.4 5.4c-2.6 4.2-6.6 6.8-7.8 11.4-.1-.1-.2-.2-.3-.3-.4-.4-1-.1-1.1.4 0 .4-.3.6-.7.7l-.1.1s-1.4.7-3.8 2.7c1.2 0 2.3.1 3.5.2.5.1.8-.6.5-.9-.1-.2-.2-.3-.3-.4.3.1.7.1 1 .2.4.2.9 0 .9-.5 0-.1 0-.3 0-.4.4.5 1.1.3 1.2-.3.5-4.6 4.7-7.7 7.2-11.2 2.3-2.8 3.3-6.4 7.8-5.9z"/><path d="m24.2.4-2.9 6.8c.3 0 .8.1 1.3.2.4.1.7-.4.6-.8-.4-1.9.4-4.3 1.2-6.4 0 .1-.1.1-.2.2z"/></g><path d="m81.1 84.7c.5 0 .9-.3 1.4-.3s1.4.1 1-.2c-.8-.6-1.5-.8-2.4-.8.7-.2 1.4-.4 2-.5.7-.1.5-.4-.2-.3-1.1.1-2.6-.4-3.8.2-.6.2-1.1.4-1.7.7l1.3.8c-.1.2-.2.3-.3.5.1 0-.4 1.5-1.1 2-.4.7-.7 1.5-1.1 2.4 1.5-1.3 3.2-2.3 5-3.2.4-.1 0-1-.1-1.3z" fill="#191c3c" fill-rule="nonzero" opacity=".3"/></g><g transform="translate(531 161)"><path d="m55.1 85.7v-14.5-8.3-1.1c0-1.6-1.3-2.8-2.8-2.8h-1.1-2.5-5.5v.3l1.2 8.4 1.6-.5-.6 1.1-12.6 25-.5 39.9h.2l-3.9 2.5-6.2 2.3c-1.5.8-2.7 2-3.3 3.6l-.3.8h-.6v1.1h23.9v-1.1h-1.1v-8.4h-.3v-.9h.8l.8-30v-1.8-1.7l11.7-16.5zm-21.8 49.5h-.4v-2.1h.4z" fill="#191c3c" fill-rule="nonzero" opacity=".3"/><path d="m35.8 129.4h7.5v8.1h-7.5z" fill="#ef4f60"/><path d="m76.799201 127.596205h7.499899v8.099891h-7.499899z" fill="#ef4f60" transform="matrix(.96201299 -.27300368 .27300368 .96201299 -32.880062 26.991059)"/><path d="m49.1 66.1-13.7 27.1-.5 39.9h9.2l.8-33.5 14-20z" fill="#3a96e2" fill-rule="nonzero"/><path d="m48 68.3 3.4 6.4.7 14.7 6.8-9.8-9.8-13.5z" fill="#30334f" fill-rule="nonzero" opacity=".3"/><path d="m49.1 66.1-.4.7 4.2 7.9 10.6 25c.7 1.6 1.7 3.2 2.9 4.5l10.2 28.3 8.1-.9-5.2-22c-.9-4-2.4-8-4.6-11.5-.6-.9-1-1.8-1-2.6l-3.8-23.2.6-2.5c.6-2.2.4-4.6-.5-6.7l-1-2.3z" fill="#3a96e2" fill-rule="nonzero"/><path d="m34.1 29.7-9.2 13.6c-.3.4-.8.7-1.3.8l-16.1 2.1c-.8.1-1.5-.3-1.8-1l-2.8-5.8v-3.8c0-1.1-.9-2-1.9-2v11.3l2.7 3.9c.3.4.7.7 1.2.7l19.8 1.6c.9.1 1.9-.3 2.5-1l16.9-19.1z" fill="#e44858"/><g fill-rule="nonzero"><path d="m31.305049 18.708196h7.300402v7.600418h-7.300402z" fill="#ff8c6d" transform="matrix(.84795336 -.53007085 .53007085 .84795336 -6.616221 21.951087)"/><path d="m37.7 18.9-5.6 6-2.3-3.6 6.2-3.9z" fill="#191c3c" opacity=".3"/><path d="m26.4 7.4v2.9l.4.8s-.4 2-2.4 2.9c0 0-.4 1.6 1.6 1.5v3.7c0 1.3 1 2.4 2.3 2.4h5.9c1.6 0 3-1 3.5-2.5l2.7-8-1.1-4.6c.1-.2-9.3-3.4-12.9.9z" fill="#ff8c6d"/><path d="m32.4 34.3 2.2-5.4-.8-1.2 7.8-5.1 6.3 2.3c1 .4 1.8 1.1 2.3 2l8.7 17.4c.1.2.2.3.3.4l11 15.9-23.3 7-1.7-12c-.1-.6-.4-1.1-.8-1.6l-11-13.1z" fill="#35e8a3"/><path d="m21.4 142.3.3-.8c.6-1.5 1.8-2.8 3.3-3.6l6.2-2.3 4.2-2.6v2.2l4.8-.1 2-1.1h1.4v8.3z" fill="#ddedf7"/><path d="m20.8 142.3h23.9v1.3h-23.9z" fill="#ddedf7"/><path d="m66.9 142.7.3-1.2c.7-1.5.7-1.5 1.8-2.5l5-3.3 3.2-3.2.5 2 4.3-1.1 1.5-1.4 1.2-.3 1.8 7.4-17.3 4.2z" fill="#ddedf7"/><path d="m87.8 139.9-14.8 3.6-1.8-.8 16.3-3.9z" fill="#ddedf7"/><path d="m66.4 143.5 6.6.1v-1.3h-6.6z" fill="#ddedf7"/><path d="m36.5 1.1c-1.1-.2-2.3-.1-3.4.2-.7.2-1.2.7-1.9.9-.8.2-1.7 0-2.5 0-.5 0-1.1 0-1.6.1s-1 .5-1.3 1c-.2.5-.2 1-.1 1.5.1.8 0 1.8.5 2.6.4.7 1.1.8 1.8 1 .3.1.7.2.9.4.9.7.9 2.2 1.9 2.8.6.4 1.6.4 2.1 1 .4.5.3 1.2.4 1.8.1.8.7 1.5 1.5 1.8.2.1.4.1.6.3.1.1.2.3.3.5.3 1.1-.2 2.3.5 3.2.5.6 1.2.6 1.8 1 .8.5.6 1 .6 1.9 0 .7 0 1.4-.2 2-.3.8-1 1.3-1.7 1.9.6-.3 1.3-.5 1.9-.7-.1 1.5-.2 3.1-.5 4.6.9-.5 1.4-1.4 1.9-2.3.3-.6.9-1.2 1.5-1.2.2.5.5 1 .9 1.4.3-.9.8-1.9 1.5-2.6.4.6.8 1.2 1.3 1.7.5.6.9 1.3.7 2 .1-.7.4-1.5.8-2.1 1.7 1.6 3.5 3.2 5.7 3.8.2-1.5-.8-2.8-1.4-4.2-.4-.7-.9-1.7-1-2.5 0-.7.4-1.3.2-2.1-.4-1.4-2.2-2-2.5-3.5-.1-.6.1-1.3-.1-1.9-.2-.7-.8-1.1-1.2-1.6-.6-.8-.7-1.7-.8-2.6-.1-.8-.5-1.1-.8-1.8-.6-1.4 1.1-3.1-.7-4.2-.3-.2-.6-.3-.9-.5-.3-.3-.5-.7-.6-1.1-.4-.9-.9-1.8-1.5-2.7-.2-.3-.4-.6-.7-.8s-.7-.2-1-.3c-.5-.1-1-.5-1.5-.7-.5.3-.9.1-1.4 0z" fill="#30333f"/><path d="m43.9 33.5c-1.3.6-2.7 1.7-2.3 3.1-1.6.4-1.9 2-3.6 2.9-.3.2-.4.6-.2.8-.3.1-.7.3-1 .4s-.3.4-.3.6c-.6.4-1.1.8-1.5 1.4l.8 1c.5-.7 1-1.9 1.9-2.3.2-.1 1-1 1-1.2.6-.2.7.8.7.2 0-.2 0-.4-.1-.5 1-.9 1.5-1.8 2.6-1.8.4 0 .5-.4.2-.8-.9-1.3 1.2-3.5 1.9-3.8.8-.1.6-.4-.1 0z" fill="#30334f" opacity=".1"/></g><path d="m32.4 34.3-7.6 10.9c-.3.4-.8.7-1.3.8l-16.1 2.1c-.8.1-1.5-.3-1.8-1l-2.8-5.8v-3.8c0-1.1-.9-2-1.9-2v11.3l2.7 3.9c.3.4.7.7 1.2.7l19.8 1.6c.9.1 1.9-.3 2.5-1l12.9-13.8z" fill="#ef4f60"/><path d="m40.7 49.7c.1-.3.2-.7.3-1 .2-.4 0-.7-.3-.9 0-.6-1-.3-.9-.9 0-.3.9-1.6.6-1.7.2-.6-.3-.8-.1-1.3.2-.4.4-1.4.5-1.9.1-.8-.4-.9-.5-.1 0 .3-.1.5-.2.8 0 .1-.1.2-.1.2-.4 1.3-1.3 2.2-2.4 3l.8.9c.1-.1.2-.1.3-.2 0 .1-.1.3-.1.4z" fill="#30334f" fill-rule="nonzero" opacity=".1"/><path d="m48.8 53.8c.3-.4-.2-.1-.7.1-.2.1-.7.2-1.2.2-.7.1-1.5-.2-1.8-.8.4-.1 1.8-1.2 2.2-1.3.8-.2.8-.4 0-.2-1.4.3-2.7.6-4.1 1l1.1 1.4c.3.4.5.8.7 1.3 0 0 .1 0 .1-.1 0 .1-.1.1-.1.2s.1.1.1.2l.5 3.6c.1-.1.2-.2.3-.4.2-.6.4-1.3.6-1.9.1-.4-.1-.6-.4-.7.7-1.1 2-1.5 2.7-2.6z" fill="#30334f" fill-rule="nonzero" opacity=".1"/><path d="m68.7 75.4c1.4.3 2 1.6 2.4 3l-.8-4.8h-.1c-.1 0 .1-.5 0-.8h.1l-.1-.3.4-1.6c-.8.8-2.2 1.2-3.2 1.9-.2.1-.3.3-.3.5-.5.2-1 .3-1.5.5-.6.2.8.7 1.6.6.8 0 .3.5 1.1.5 0 .2.2.4.4.5z" fill="#30334f" fill-rule="nonzero" opacity=".3"/><path d="m75.7 99.6c-.1 0-.2-.2-.2-.3-.2-.4-.4-.7-.6-1.1-.3-.1-.5-.5-.4-.6-.2-.4-.4-.8-.5-1.2-.1 0-.2 0-.2 0s.1 0 .1-.1l.1-.1c0-.2-.1-.4-.1-.6l-.3-1.8c-.2.6-.6 1.1-1.2 1.6-.2.1-.3.2-.3.4-.8.5-1.6.9-2.3 1.4-.7.4.8.4 1.5.1.5-.2 0 .6.5.5 0 .2.2.5.4.5.4.2.9.3 1.3.5-.4.2-.3 1-.8 1.3s-.9.6-.2.6c1 0 2.3-.2 3.2.2l.9.3c-.3-.6-.6-1.1-.9-1.6z" fill="#30334f" fill-rule="nonzero" opacity=".3"/><path d="m43.2 97.7c-.6.2-.6 1.2.1 1.2-1.1.5-2.1 1-3.1 1.6-.6.3.7.3 1.4 0 1-.3 1.6.1 2.5.7-.4 0-.8 0-1.3.1-.8.1-.8 1.2 0 1.2.4 0 .9 0 1.4.1 1 .3.2.1.7.4l.1-2.9c-.1-.2-.3-.3-.5-.4l.6-.3 2.3-3.3c-.1 0-.2.1-.3.2-1 1.1-2.6.9-3.9 1.4z" fill="#30334f" fill-rule="nonzero" opacity=".3"/><path d="m55.8 45.7c1.8-1.4 1.2.1 1.8-.3-.1.2-1 1.2-1.1 1.3-.3.5 1 .2 1.5.1h.1c-.1.1 0 .6-.1.6-.5.4-.1.7.5.6 1.2-.2 2.1-.2 3.2.4l-2.1-3.1c-.2 0-.4-.3-.3-.4l-.1-.2c-.1-.1-.2-.3-.3-.4l-.4-.7c-.2.1-.3-.2-.2-.5l-1.8-3.7c-.1.2-.2.4-.1.7.6 1.1 1 1.9.4 3.1-.5.9-1.3 1.7-2 2.5-.4.4.4.4 1 0z" fill="#30334f" fill-rule="nonzero" opacity=".1"/></g><g fill-rule="nonzero" transform="translate(354 186)"><path d="m9.7.3h62.3c3 0 5.4 2.4 5.4 5.4v48.5s-1.5-1.9-2.5-3c-1.1-1.1-2.4-1.9-3.8-2.5s-3-.9-4.6-.9-3.2.3-4.6.9-2.7 1.5-3.8 2.5c-1.1 1.1-1.9 2.4-2.5 3.8s-.9 3-.9 4.6.3 3.2.9 4.6 1.5 2.7 2.5 3.8c1.1 1.1 2.4 1.9 3.8 2.5s3 .9 4.6.9 3.2-.3 4.6-.9 2.7-1.5 3.8-2.5c1.1-1.1 2.5-3 2.5-3v48.2c0 3-2.4 5.4-5.4 5.4h-62.3c-5.2 0-9.3-4.2-9.3-9.3v-99.6c-.1-5.2 4.1-9.4 9.3-9.4z" fill="#9fb9cc"/><path d="m168.7 118.5h-61.8c-3 0-5.4-2.4-5.4-5.4v-48.2-.8c-.6 1.4-1.5 2.7-2.5 3.8-1.1 1.1-2.4 1.9-3.8 2.5s-3 .9-4.6.9-3.2-.3-4.6-.9-2.7-1.5-3.8-2.5c-1.1-1.1-1.9-2.4-2.5-3.8s-.9-3-.9-4.6.3-3.2.9-4.6 1.5-2.7 2.5-3.8c1.1-1.1 2.4-1.9 3.8-2.5s3-.9 4.6-.9 3.2.3 4.6.9 2.7 1.5 3.8 2.5c1.1 1.1 1.9 2.4 2.5 3.8v-.8-48.5c0-3 2.4-5.4 5.4-5.4h61.8c5.2 0 9.3 4.2 9.3 9.3v99.6c.1 5.2-4.1 9.4-9.3 9.4z" fill="#9fb9cc"/><g fill="#fff"><g opacity=".1"><path d="m77.3 5.7c0-3-2.4-5.4-5.4-5.4h-3l-68.6 68.6v13.9l77-77z"/><path d="m.3 30.2v27.4l57.4-57.3h-27.4z"/></g><path d="m178.1 54.6-63.9 63.9h-7.3c-1.8 0-3.4-.9-4.4-2.3l75.5-75.5zm0-25.2v-19.9c0-2.1-.7-4.1-1.9-5.6l-74.7 74.7v27.4z" opacity=".19"/></g></g></g></svg>