<svg viewBox="0 0 610 319" xmlns="http://www.w3.org/2000/svg"><g fill="none" fill-rule="evenodd"><g fill-rule="nonzero"><g fill="#3a96e2" opacity=".15"><ellipse cx="591.24" cy="205.251316" opacity=".5" rx="14.56" ry="14.550877"/><path d="m136.52 48.1298246c0 5.3166666-4.34 9.6539473-9.66 9.6539473s-9.66-4.3372807-9.66-9.6539473c0-5.3166667 4.34-9.6539474 9.66-9.6539474s9.66 4.3372807 9.66 9.6539474z" opacity=".5"/><path d="m475.74 66.4583333c0 5.3166667-4.34 9.6539474-9.66 9.6539474s-9.66-4.3372807-9.66-9.6539474c0-5.3166666 4.34-9.6539473 9.66-9.6539473s9.66 4.3372807 9.66 9.6539473z" opacity=".5"/><ellipse cx="245.72" cy="9.653947" opacity=".5" rx="9.66" ry="9.653947"/><path d="m609.72 247.504825c0 2.238596-1.82 3.917543-3.92 3.917543-2.24 0-3.92-1.818859-3.92-3.917543 0-2.238597 1.82-3.917544 3.92-3.917544 2.24-.139913 3.92 1.678947 3.92 3.917544z" opacity=".5"/><ellipse cx="76.32" cy="77.651316" opacity=".5" rx="21.84" ry="21.826316"/><path d="m10.8 256.459211c0 2.798245-2.24 5.176754-5.18 5.176754-2.8 0-5.18-2.238597-5.18-5.176754 0-2.938158 2.24-5.176755 5.18-5.176755 2.8 0 5.18 2.378509 5.18 5.176755z" opacity=".5"/><ellipse cx="563.38" cy="66.458333" opacity=".5" rx="21.14" ry="21.126754"/><path d="m588.44 318.160526c0-39.455263-8.4-77.091666-23.52-110.950438 5.46-11.332895 8.54-23.925 8.54-37.356579 0-47.570176-38.5-86.0460529-86.1-86.0460529-8.96 0-17.5 1.3991228-25.62 3.9175439-42.28-26.8631579-92.54-42.5333333-146.44-42.5333333-6.72 0-13.44.2798245-20.02.6995614-11.76-8.8144737-26.46-14.1311404-42.28-14.1311404-29.96 0-55.58 18.7482456-65.66 45.1916667-20.72 11.0530702-39.9 24.6245616-56.98 40.2947366-5.6-1.25921-11.34-1.958772-17.36-1.958772-43.12 0-77.98 34.838158-77.98 77.931141 0 18.748245 6.58 35.957456 17.64 49.389035-6.86 23.925-10.64 49.249123-10.64 75.412719z" opacity=".47"/><path d="m512.14 317.600877c0-109.551316-88.76-198.255702-198.38-198.255702s-198.38 88.704386-198.38 198.255702z" opacity=".47"/></g><g transform="translate(23 201.074561)"><path d="m174 103.514474h-164.22v-101.43640382c0-.97938597.84-1.81885965 1.82-1.81885965h160.72c.98 0 1.82.83947368 1.82 1.81885965v101.43640382z" fill="#3a96e2"/><path d="m18.18 9.63333333h147.42v85.48640347h-147.42z" fill="#fff"/><path d="m183.66 108.131579h-183.4c5.18 5.176754 12.32 8.114912 19.74 8.114912h144.06c7.28 0 14.28-2.938158 19.6-8.114912z" fill="#d8d8d8"/><path d="m.26 102.954825h183.4v5.176754h-183.4z" fill="#ececec"/><path d="m103.3 107.012281h-22.68c-.84 0-1.4-.699562-1.4-1.399123 0-.839474.7-1.399123 1.4-1.399123h22.68c.84 0 1.4.699561 1.4 1.399123 0 .699561-.7 1.399123-1.4 1.399123z" fill="#d8d8d8"/><path d="m50.38 35.5171053h-17.64c-1.68 0-2.94-1.3991228-2.94-2.9381579 0-1.6789474 1.4-2.9381579 2.94-2.9381579h17.78c1.68 0 2.94 1.3991228 2.94 2.9381579 0 1.6789473-1.4 2.9381579-3.08 2.9381579z" fill="#b6f2db"/><path d="m86.22 51.7469298h-26.04c-1.68 0-2.94-1.3991228-2.94-2.9381579 0-1.6789473 1.4-2.9381579 2.94-2.9381579h26.04c1.68 0 2.94 1.3991228 2.94 2.9381579 0 1.6789474-1.4 2.9381579-2.94 2.9381579z" fill="#f2f3f7"/><path d="m106.52 51.7469298h-10.08c-1.68 0-2.94-1.3991228-2.94-2.9381579 0-1.6789473 1.4-2.9381579 2.94-2.9381579h10.08c1.68 0 2.94 1.3991228 2.94 2.9381579.14 1.6789474-1.26 2.9381579-2.94 2.9381579z" fill="#b6f2db"/><g fill="#f2f3f7"><path d="m86.22 67.9767544h-42c-1.68 0-2.94-1.3991228-2.94-2.9381579 0-1.6789474 1.4-2.9381579 2.94-2.9381579h42c1.68 0 2.94 1.3991228 2.94 2.9381579 0 1.6789474-1.4 2.9381579-2.94 2.9381579z"/><path d="m97.56 67.9767544h56c1.68 0 2.94-1.3991228 2.94-2.9381579 0-1.6789474-1.4-2.9381579-2.94-2.9381579h-56c-1.68 0-2.94 1.3991228-2.94 2.9381579 0 1.6789474 1.26 2.9381579 2.94 2.9381579z"/><path d="m56.4 84.3464912h-23.8c-1.68 0-2.94-1.3991228-2.94-2.9381579 0-1.6789473 1.4-2.9381579 2.94-2.9381579h23.8c1.68 0 2.94 1.3991228 2.94 2.9381579.14 1.5390351-1.26 2.9381579-2.94 2.9381579z"/></g><path d="m66.48 84.3464912h7.7c1.68 0 2.94-1.3991228 2.94-2.9381579 0-1.6789473-1.4-2.9381579-2.94-2.9381579h-7.7c-1.68 0-2.94 1.3991228-2.94 2.9381579 0 1.5390351 1.26 2.9381579 2.94 2.9381579z" fill="#dfe2ec"/><path d="m84.12 84.3464912h57.82c1.68 0 2.94-1.3991228 2.94-2.9381579 0-1.6789473-1.4-2.9381579-2.94-2.9381579h-57.82c-1.68 0-2.94 1.3991228-2.94 2.9381579 0 1.5390351 1.4 2.9381579 2.94 2.9381579z" fill="#f2f3f7"/><path d="m106.52 35.5171053h-44.1c-1.68 0-2.94-1.3991228-2.94-2.9381579 0-1.6789474 1.4-2.9381579 2.94-2.9381579h44.1c1.68 0 2.94 1.3991228 2.94 2.9381579.14 1.6789473-1.26 2.9381579-2.94 2.9381579z" fill="#f2f3f7"/><path d="m116.6 35.5171053h15.54c1.68 0 2.94-1.3991228 2.94-2.9381579 0-1.6789474-1.4-2.9381579-2.94-2.9381579h-15.54c-1.68 0-2.94 1.3991228-2.94 2.9381579 0 1.6789473 1.26 2.9381579 2.94 2.9381579z" fill="#f2f3f7"/></g><g transform="translate(169 47.570175)"><path d="m259.98 270.870175h-259v-263.45482412c0-3.91754386 3.22-7.13552632 7.14-7.13552632h244.58c3.92 0 7.14 3.21798246 7.14 7.13552632v263.45482412z" fill="#b7d2f9"/><path d="m10.5 42.533333h241.08v228.336842h-241.08z" fill="#f3f4f9"/><path d="m31.92 59.322807h198.1v76.112281h-198.1z" fill="#e7eaf3"/><g fill="#35e8a3"><path d="m89.88 59.322807h140.28v76.112281h-140.28z"/><path d="m31.92 59.322807h198.24v32.5995614h-198.24z"/><path d="m79.24 113.748684c-2.1 0-3.78-1.678947-3.78-3.777631v-25.0442986c0-2.0986842 1.68-3.7776316 3.78-3.7776316 2.1 0 3.78 1.6789474 3.78 3.7776316v25.0442986c0 2.098684-1.68 3.777631-3.78 3.777631z"/><path d="m64.54 104.094737c-2.1 0-3.78-1.678948-3.78-3.777632v-15.1105261c0-2.0986842 1.68-3.7776315 3.78-3.7776315 2.1 0 3.78 1.6789473 3.78 3.7776315v15.1105261c0 2.098684-1.68 3.777632-3.78 3.777632z"/><path d="m71.96 76.8118421c-2.1 0-3.78 1.6789474-3.78 3.7776316v15.1105263.2798246c.14-1.958772 1.68-3.4978071 3.64-3.4978071s3.5 1.5390351 3.64 3.4978071c0-.1399123 0-.1399123 0-.2798246v-15.1105263c.14-2.0986842-1.54-3.7776316-3.5-3.7776316z"/><path d="m86.52 79.1903509c-2.1 0-3.78 1.6789473-3.78 3.7776316v15.1105263.2798245c.14-1.9587719 1.68-3.497807 3.64-3.497807s3.5 1.5390351 3.64 3.497807c0-.1399122 0-.1399122 0-.2798245v-15.2504386c.14-1.958772-1.4-3.6377193-3.5-3.6377193z"/></g><path d="m71.12 18.1885965h129.22v10.6333333h-129.22z" fill="#fff"/><g fill="#3a96e2" transform="translate(229.6 16.789474)"><path d="m11.48 3.07807018h-9.8c-.7 0-1.26-.55964913-1.26-1.25921053 0-.6995614.56-1.25921053 1.26-1.25921053h9.8c.7 0 1.26.55964913 1.26 1.25921053 0 .6995614-.56 1.25921053-1.26 1.25921053z"/><path d="m11.48 7.975h-9.8c-.7 0-1.26-.55964912-1.26-1.25921053 0-.6995614.56-1.25921052 1.26-1.25921052h9.8c.7 0 1.26.55964912 1.26 1.25921052 0 .69956141-.56 1.25921053-1.26 1.25921053z"/><path d="m11.48 12.7320175h-9.8c-.7 0-1.26-.5596491-1.26-1.2592105 0-.6995614.56-1.2592105 1.26-1.2592105h9.8c.7 0 1.26.5596491 1.26 1.2592105 0 .6995614-.56 1.2592105-1.26 1.2592105z"/></g><ellipse cx="26.18" cy="23.505263" fill="#de4437" rx="5.18" ry="5.176754"/><ellipse cx="41.44" cy="23.505263" fill="#ffc107" rx="5.18" ry="5.176754"/><ellipse cx="56.7" cy="23.505263" fill="#00c9a7" rx="5.18" ry="5.176754"/><path d="m31.92 158.240789h198.1v9.374123h-198.1z" fill="#dfe2ec"/><path d="m31.92 180.34693h198.1v9.374123h-198.1z" fill="#dfe2ec"/><path d="m31.92 202.313158h198.1v9.374123h-198.1z" fill="#dfe2ec"/><path d="m31.92 224.419298h198.1v9.374123h-198.1z" fill="#dfe2ec"/></g></g><g stroke="#30333f" stroke-width="1.4" transform="translate(153.6 116.127193)"><path d="m.84.41973684v201.33377216"/><path d="m32.48.41973684v201.33377216"/><path d="m.84 29.9412281h31.64"/><path d="m.84 16.2298246h31.64"/><path d="m.84 43.5127193h31.64"/><path d="m.84 57.0842105h31.64"/><path d="m.84 70.6557018h31.64"/><path d="m.84 84.227193h31.64"/><path d="m.84 97.9385965h31.64"/><path d="m.84 111.510088h31.64"/><path d="m.84 125.081579h31.64"/><path d="m.84 138.65307h31.64"/><path d="m.84 152.364474h31.64"/><path d="m.84 165.935965h31.64"/><path d="m.84 179.507456h31.64"/><path d="m.84 193.078947h31.64"/></g><g fill-rule="nonzero" transform="translate(40.2 209.868421)"><g transform="translate(47.6 39.175439)"><g transform="translate(5.6 8.394737)"><path d="m8.12 23.0855263h2.8l3.92-11.7526316c.28-.6995614.14-1.39912277-.14-2.09868417l-5.18-9.09429825h-1.12l-.14 9.79385965c.14.13991227.98.41973687 1.12.55964917.7.6995614.7 1.9587719 0 2.6583333s-1.96.6995614-2.66 0-.7-1.9587719 0-2.6583333c.14-.1399123.7-.55964917.84-.55964917l.28-9.65394737h-.84l-5.32 9.09429825c-.42.69956139-.42 1.39912279-.28 2.09868419l3.78 11.7526316z" fill="#fec55e"/><path d="m5.32 23.0855263h2.8 2.8l1.26-3.9175438h-8.12z" fill="#231f20" opacity=".2"/><path d="m1.96 20.9868421h12.32v22.2460526h-12.32z" fill="#717386"/><path d="m8.12 20.9868421h6.16v22.2460526h-6.16z" fill="#4d5068"/></g><g transform="translate(36 6.995614)"><path d="m.26 16.5096491v5.3166667c0 .979386.84 1.8188596 1.82 1.8188596 1.96 0 3.5 1.5390351 3.5 3.4978071v14.4109649c0 1.8188596 1.54 3.3578947 3.5 3.2179824 1.68-.1399123 2.8-1.6789473 2.8-3.3578947v-14.1311404c0-1.9587719 1.54-3.497807 3.5-3.497807.98 0 1.82-.8394737 1.82-1.8188596v-5.456579zm7.28 24.7644737c0-.5596491.56-1.1192982 1.12-1.1192982s1.12.5596491 1.12 1.1192982-.56 1.1192983-1.12 1.1192983-1.12-.5596492-1.12-1.1192983z" fill="#9a9dd0"/><path d="m.26.13991228h16.8v12.17236842h-16.8z" fill="#fec55e"/><path d="m.26.13991228h6.72v12.17236842h-6.72z" fill="#fec55e"/><path d="m.26 11.612719h16.8v4.89693h-16.8z" fill="#9e9e9e"/><g fill="#c5c5c5"><path d="m.26 11.8925439h16.8v.6995614h-16.8z"/><path d="m.26 13.7114035h16.8v.6995614h-16.8z"/><path d="m.26 15.3903509h16.8v.6995614h-16.8z"/></g><path d="m8.66 16.5096491v23.6451755c-.56 0-1.12.5596491-1.12 1.1192982s.56 1.1192983 1.12 1.1192983v2.2385964c-1.82 0-3.22-1.3991228-3.22-3.2179824v-14.4109649c0-1.958772-1.54-3.497807-3.5-3.497807-.98 0-1.82-.8394737-1.82-1.8188597v-5.1767544z" fill="#8184c4"/><path d="m6 .13991228v4.75701754c0 .69956141.56 1.39912281 1.4 1.39912281.7 0 1.4-.55964912 1.4-1.39912281v-1.3991228c0-.55964913.56-1.11929825 1.12-1.11929825.56 0 1.12.55964912 1.12 1.11929825v5.0368421c0 .55964913.56 1.11929825 1.12 1.11929825.56 0 1.12-.55964912 1.12-1.11929825v-2.37850877c1.26 0 2.24-.97938596 2.24-2.23859649v-3.91754386h-9.52z" fill="#35e8a3"/></g><path d="m36.26 7.13552632v11.33289478.2798245.4197369.2798245.979386.6995614.979386.6995614.4197368 5.3166667c0 .9793859.84 1.8188596 1.82 1.8188596h.56v-18.0486842l-1.96-5.0368421z" fill="#414042" opacity=".3"/><g transform="translate(29.4 2.798246)"><path d="m.7 9.51403509h6.86v34.13859651h-6.86z" fill="#fec55e"/><path d="m7.7 45.3315789h-6.86v1.958772c0 .8394737.7 1.6789473 1.68 1.6789473h3.64c.84 0 1.68-.6995614 1.68-1.6789473z" fill="#fec55e"/><path d="m.7 43.6526316h6.86v1.6789473h-6.86z" fill="#212121"/><path d="m.7 9.51403509h3.5v34.13859651h-3.5z" fill="#fed17e"/><path d="m3.92 1.53903509-3.22 7.975h6.86l-3.22-7.975c0-.27982456-.28-.27982456-.42 0z" fill="#f1f2f2"/><path d="m4.06.97938597-.84 2.09868421h1.82l-.84-2.09868421s0 0-.14 0z" fill="#212121"/></g><path d="m17.22 29.3815789 3.22-9.514035c.28-.6995614.14-1.3991228-.14-2.0986843l-4.48-7.97499995v1.67894735.5596491 1.6789474.5596491 1.6789474.5596491 1.6789474.5596491 1.6789474.5596491 1.6789474.5596491 1.6789474.5596491 1.6789474.5596491 1.6789473.5596492 1.6789473.5596492 1.6789473.5596492 1.6789473.5596491 1.6789474.5596491 1.6789474.5596491 1.6789474.5596491 1.6789474.5596491 1.6789474.5596491 1.6789474.5596491 1.1192982c0 .8394737.7 1.5390351 1.54 1.5390351h2.66v-22.2460526h-2.8z" fill="#414042" opacity=".3"/><g transform="translate(16.8 2.798246)"><path d="m1.82 0h5.46c.84 0 1.4.6995614 1.4 1.39912281v46.03114039c0 .8394736-.7 1.3991228-1.4 1.3991228h-5.46c-.84 0-1.4-.6995614-1.4-1.3991228v-46.03114039c0-.69956141.56-1.39912281 1.4-1.39912281z" fill="#3a96e2"/><path d="m1.96 0h2.94v48.829386h-2.94c-.84 0-1.54-.6995614-1.54-1.5390351v-45.75131581c0-.83947369.7-1.53903509 1.54-1.53903509z" fill="#b7d2f9"/><g fill="#414042"><path d="m.42 45.4714912h.98v.5596492h-.98z"/><path d="m.42 43.372807h.98v.5596491h-.98z"/><path d="m.42 41.1342105h.98v.5596491h-.98z"/><path d="m.42 39.0355263h.98v.5596491h-.98z"/><path d="m.28 36.7969298h2.1v.5596491h-2.1z"/><path d="m.42 34.6982456h.98v.5596491h-.98z"/><path d="m.42 32.4596491h.98v.5596491h-.98z"/><path d="m.42 30.3609649h.98v.5596491h-.98z"/><path d="m.42 28.1223684h.98v.5596491h-.98z"/><path d="m.28 26.0236842h2.1v.5596491h-2.1z"/><path d="m.42 23.7850877h.98v.5596491h-.98z"/><path d="m.42 21.6864035h.98v.5596491h-.98z"/><path d="m.42 19.447807h.98v.5596491h-.98z"/><path d="m.42 17.3491228h.98v.5596491h-.98z"/><path d="m.28 15.1105263h2.1v.5596491h-2.1z"/><path d="m.42 13.0118421h.98v.5596491h-.98z"/><path d="m.42 10.7732456h.98v.5596491h-.98z"/><path d="m.42 8.6745614h.98v.55964913h-.98z"/><path d="m.42 6.43596491h.98v.55964913h-.98z"/><path d="m.28 4.3372807h2.1v.55964912h-2.1z"/><path d="m.42 2.09868421h.98v.55964912h-.98z"/></g></g><path d="m24.08 2.79824561v9.65394739h-.84v3.7776316.4197368 6.4359649h.84v28.5421053c.84 0 1.4-.6995614 1.4-1.5390351v-45.7513158c0-.83947368-.56-1.39912281-1.4-1.53903509z" fill="#414042" opacity=".3"/><g transform="translate(23.8)"><path d="m1.82 22.6657895h3.64v28.9618421h-3.64z" fill="#191c3c"/><path d="m3.64 22.6657895h1.82v28.9618421h-1.82z" fill="#474963"/><path d="m.98 16.2298246h4.9v6.8557017h-4.9z" fill="#191c3c"/><path d="m.98 16.2298246h4.9v.4197368h-4.9z" fill="#fff"/><path d="m.98 12.452193h4.9v3.7776316h-4.9z" fill="#191c3c"/><path d="m5.74 4.61710526-3.92-3.35789473v11.19298247h3.92z" fill="#9e9e9e"/><path d="m1.82 2.51842105v9.93377195h3.92v-6.57587721z" fill="#ececec"/><path d="m3.78 12.452193h1.96v-6.57587721l-1.96-1.67894737z" fill="#b1b1b1"/></g><g fill="#414042" opacity=".3" transform="translate(7 36.377193)"><path d="m10.22 15.2504386h1.54 1.12 1.82 2.24.14c.42 0 .7-.1399123.98-.4197368 0 0 0 0 0-.1399123.14-.1399123.14-.2798246.28-.4197369.14-.1399122.14-.4197368.14-.5596491v-12.73201753h-17.92v14.27105263h6.16z"/><path d="m23.1 13.4315789c0 .979386.84 1.8188597 1.82 1.8188597h3.36c.98 0 1.82-.8394737 1.82-1.8188597v-1.8188596-1.67894737-9.09429825h-6.86v9.09429825 1.67894737 1.8188596z"/><path d="m22.26 15.2504386v-14.27105263h-3.64v14.27105263h1.82z"/><path d="m34.44.97938597v11.19298243c0 .2798246 0 .4197369.14.6995614 0 .1399123 0 .1399123.14.2798246 0 .1399123 0 .2798245.14.2798245 0 .1399123.14.2798246.14.2798246l.14.1399123c.14.1399123.14.2798246.28.4197368 0 0 0 0 .14.1399123s.28.2798246.42.2798246c.56.4197368 1.26.5596491 2.1.5596491 1.68-.1399123 2.8-1.6789474 2.8-3.3578947v-10.91315793zm3.22 12.03245613c-.56 0-1.12-.5596491-1.12-1.1192982 0-.5596492.56-1.1192983 1.12-1.1192983s1.12.5596491 1.12 1.1192983c0 .5596491-.42 1.1192982-1.12 1.1192982z"/></g><g transform="translate(0 37.776316)"><path d="m54.74 31.0605263h-47.88v-29.94122805h50.82v27.00307015c0 1.5390351-1.26 2.9381579-2.94 2.9381579z" fill="#fec55e"/><path d="m4.62 31.0605263h2.24v-29.94122805h-5.18v27.00307015c0 1.5390351 1.26 2.9381579 2.94 2.9381579z" fill="#bf9447"/><path d="m1.68 7.41535088h3.36l1.82-6.29605263-5.18 1.25921052z" fill="#231f20" opacity=".2"/><path d="m.84 4.89692982h3.64c.28 0 .56-.13991228.56-.41973684l1.68-3.35789473h-5.18l-1.4 2.79824561c-.14.41973684.28.97938596.7.97938596z" fill="#fec55e"/><path d="m57.68 7.41535088v-5.03684211l-50.82-1.25921052 2.8 6.29605263z" fill="#231f20" opacity=".2"/><path d="m59.08 4.89692982h-49.14c-.28 0-.42-.13991228-.56-.27982456l-2.52-3.49780701h50.82l1.96 2.65833333c.42.41973684.14 1.11929824-.56 1.11929824z" fill="#fec55e"/></g></g><path d="m445.34.55964912h-129.08c-1.68 0-2.94 1.39912281-2.94 3.07807018v3.07807017 7.27543863 94.5807019h131.18 3.78v-94.5807019-7.27543863-2.51842105-.41973684c0-1.81885965-1.26-3.21798246-2.94-3.21798246z" fill="#8c98a4" opacity=".3"/><g transform="translate(317.8)"><path d="m140.42 108.57193h-140.42v-101.71622825c0-3.35789473 2.8-6.15614035 6.16-6.15614035h127.96c3.36 0 6.16 2.79824562 6.16 6.15614035v101.71622825z" fill="#f5f7f9"/><path d="m140.42 13.7114035v-10.35350876c0-1.67894737-1.4-3.07807018-3.08-3.07807018h-134.12c-1.68 0-3.08 1.39912281-3.08 3.07807018v10.35350876z" fill="#3a96e2"/><path d="m10.5 7.41535088c0 .97938596-.84 1.81885965-1.82 1.81885965s-1.82-.83947369-1.82-1.81885965c0-.97938597.84-1.81885965 1.82-1.81885965 1.12 0 1.82.83947368 1.82 1.81885965z" fill="#fff"/><path d="m16.52 7.41535088c0 .97938596-.84 1.81885965-1.82 1.81885965s-1.82-.83947369-1.82-1.81885965c0-.97938597.84-1.81885965 1.82-1.81885965s1.82.83947368 1.82 1.81885965z" fill="#fff"/><path d="m22.54 7.41535088c0 .97938596-.84 1.81885965-1.82 1.81885965s-1.82-.83947369-1.82-1.81885965c0-.97938597.84-1.81885965 1.82-1.81885965s1.82.83947368 1.82 1.81885965z" fill="#fff"/><path d="m137.34.6995614h-3.92c1.68 0 3.08 1.39912281 3.08 3.07807018v104.79429842h3.92v-104.79429842c0-1.67894737-1.4-3.07807018-3.08-3.07807018z" fill="#191c3c" opacity=".2"/><g fill="#dfe2ec"><path d="m14 27.1429825h-2.24c-1.4 0-2.52-1.1192983-2.52-2.5184211 0-1.3991228 1.12-2.518421 2.52-2.518421h2.24c1.4 0 2.52 1.1192982 2.52 2.518421 0 1.3991228-1.12 2.5184211-2.52 2.5184211z"/><path d="m14 39.875h-2.24c-1.4 0-2.52-1.1192982-2.52-2.5184211 0-1.3991228 1.12-2.518421 2.52-2.518421h2.24c1.4 0 2.52 1.1192982 2.52 2.518421 0 1.3991229-1.12 2.5184211-2.52 2.5184211z"/><path d="m14 52.4671053h-2.24c-1.4 0-2.52-1.1192983-2.52-2.5184211 0-1.3991228 1.12-2.518421 2.52-2.518421h2.24c1.4 0 2.52 1.1192982 2.52 2.518421 0 1.3991228-1.12 2.5184211-2.52 2.5184211z"/><path d="m14 65.0592105h-2.24c-1.4 0-2.52-1.1192982-2.52-2.518421 0-1.3991228 1.12-2.5184211 2.52-2.5184211h2.24c1.4 0 2.52 1.1192983 2.52 2.5184211 0 1.3991228-1.12 2.518421-2.52 2.518421z"/><path d="m14 77.7912281h-2.24c-1.4 0-2.52-1.1192983-2.52-2.5184211 0-1.3991228 1.12-2.518421 2.52-2.518421h2.24c1.4 0 2.52 1.1192982 2.52 2.518421 0 1.3991228-1.12 2.5184211-2.52 2.5184211z"/><path d="m14 90.3833333h-2.24c-1.4 0-2.52-1.1192982-2.52-2.518421 0-1.3991228 1.12-2.5184211 2.52-2.5184211h2.24c1.4 0 2.52 1.1192983 2.52 2.5184211 0 1.3991228-1.12 2.518421-2.52 2.518421z"/><path d="m14 103.115351h-2.24c-1.4 0-2.52-1.119298-2.52-2.518421 0-1.399123 1.12-2.5184212 2.52-2.5184212h2.24c1.4 0 2.52 1.1192982 2.52 2.5184212 0 1.399123-1.12 2.518421-2.52 2.518421z"/><path d="m123.62 27.1429825h-2.24c-1.4 0-2.52-1.1192983-2.52-2.5184211 0-1.3991228 1.12-2.518421 2.52-2.518421h2.24c1.4 0 2.52 1.1192982 2.52 2.518421 0 1.3991228-1.12 2.5184211-2.52 2.5184211z"/></g><path d="m123.62 39.875h-2.24c-1.4 0-2.52-1.1192982-2.52-2.5184211 0-1.3991228 1.12-2.518421 2.52-2.518421h2.24c1.4 0 2.52 1.1192982 2.52 2.518421 0 1.3991229-1.12 2.5184211-2.52 2.5184211z" fill="#8184c4"/><path d="m123.62 52.4671053h-2.24c-1.4 0-2.52-1.1192983-2.52-2.5184211 0-1.3991228 1.12-2.518421 2.52-2.518421h2.24c1.4 0 2.52 1.1192982 2.52 2.518421 0 1.3991228-1.12 2.5184211-2.52 2.5184211z" fill="#fcd991"/><path d="m123.62 65.0592105h-2.24c-1.4 0-2.52-1.1192982-2.52-2.518421 0-1.3991228 1.12-2.5184211 2.52-2.5184211h2.24c1.4 0 2.52 1.1192983 2.52 2.5184211 0 1.3991228-1.12 2.518421-2.52 2.518421z" fill="#8184c4"/><path d="m123.62 77.7912281h-2.24c-1.4 0-2.52-1.1192983-2.52-2.5184211 0-1.3991228 1.12-2.518421 2.52-2.518421h2.24c1.4 0 2.52 1.1192982 2.52 2.518421 0 1.3991228-1.12 2.5184211-2.52 2.5184211z" fill="#fcd991"/><path d="m123.62 90.3833333h-2.24c-1.4 0-2.52-1.1192982-2.52-2.518421 0-1.3991228 1.12-2.5184211 2.52-2.5184211h2.24c1.4 0 2.52 1.1192983 2.52 2.5184211 0 1.3991228-1.12 2.518421-2.52 2.518421z" fill="#35e8a3"/><path d="m123.62 103.115351h-2.24c-1.4 0-2.52-1.119298-2.52-2.518421 0-1.399123 1.12-2.5184212 2.52-2.5184212h2.24c1.4 0 2.52 1.1192982 2.52 2.5184212 0 1.399123-1.12 2.518421-2.52 2.518421z" fill="#dfe2ec"/><path d="m55.72 27.1429825h-32.34c-1.4 0-2.52-1.1192983-2.52-2.5184211 0-1.3991228 1.12-2.518421 2.52-2.518421h32.34c1.4 0 2.52 1.1192982 2.52 2.518421 0 1.3991228-1.12 2.5184211-2.52 2.5184211z" fill="#dfe2ec"/><path d="m63.7 27.1429825h6.58c1.4 0 2.52-1.1192983 2.52-2.5184211 0-1.3991228-1.12-2.518421-2.52-2.518421h-6.58c-1.4 0-2.52 1.1192982-2.52 2.518421 0 1.3991228 1.12 2.5184211 2.52 2.5184211z" fill="#fec55e"/><path d="m38.08 39.875h-14.56c-1.4 0-2.52-1.1192982-2.52-2.5184211 0-1.3991228 1.12-2.518421 2.52-2.518421h14.56c1.4 0 2.52 1.1192982 2.52 2.518421 0 1.3991229-1.12 2.5184211-2.52 2.5184211z" fill="#fec55e"/><path d="m51.1 39.875h43.68c1.4 0 2.52-1.1192982 2.52-2.5184211 0-1.3991228-1.12-2.518421-2.52-2.518421h-43.68c-1.4 0-2.52 1.1192982-2.52 2.518421 0 1.3991229 1.12 2.5184211 2.52 2.5184211z" fill="#35e8a3"/><path d="m84.98 52.4671053h-61.46c-1.4 0-2.52-1.1192983-2.52-2.5184211 0-1.3991228 1.12-2.518421 2.52-2.518421h61.46c1.4 0 2.52 1.1192982 2.52 2.518421 0 1.3991228-1.12 2.5184211-2.52 2.5184211z" fill="#dfe2ec"/><path d="m98.56 65.0592105h-75.04c-1.4 0-2.52-1.1192982-2.52-2.518421 0-1.3991228 1.12-2.5184211 2.52-2.5184211h75.04c1.4 0 2.52 1.1192983 2.52 2.5184211 0 1.3991228-1.12 2.518421-2.52 2.518421z" fill="#dfe2ec"/><path d="m84.98 77.7912281h-22.68c-1.4 0-2.52-1.1192983-2.52-2.5184211 0-1.3991228 1.12-2.518421 2.52-2.518421h22.68c1.4 0 2.52 1.1192982 2.52 2.518421 0 1.3991228-1.12 2.5184211-2.52 2.5184211z" fill="#35e8a3"/><path d="m53.06 77.7912281h-29.54c-1.4 0-2.52-1.1192983-2.52-2.5184211 0-1.3991228 1.12-2.518421 2.52-2.518421h29.54c1.4 0 2.52 1.1192982 2.52 2.518421 0 1.3991228-1.12 2.5184211-2.52 2.5184211z" fill="#dfe2ec"/><path d="m70.28 90.3833333h-46.76c-1.4 0-2.52-1.1192982-2.52-2.518421 0-1.3991228 1.12-2.5184211 2.52-2.5184211h46.76c1.4 0 2.52 1.1192983 2.52 2.5184211 0 1.3991228-1.12 2.518421-2.52 2.518421z" fill="#dfe2ec"/><path d="m78.68 90.3833333h14.98c1.4 0 2.52-1.1192982 2.52-2.518421 0-1.3991228-1.12-2.5184211-2.52-2.5184211h-14.98c-1.4 0-2.52 1.1192983-2.52 2.5184211 0 1.3991228 1.12 2.518421 2.52 2.518421z" fill="#fec55e"/><path d="m84.98 103.115351h-61.46c-1.4 0-2.52-1.119298-2.52-2.518421 0-1.399123 1.12-2.5184212 2.52-2.5184212h61.46c1.4 0 2.52 1.1192982 2.52 2.5184212 0 1.399123-1.12 2.518421-2.52 2.518421z" fill="#dfe2ec"/></g><g transform="translate(344.4 81.149123)"><path d="m16.94 10.2135965-8.96-.69956141 7.14-8.25482456z" fill="#fec55e"/><path d="m9.8 18.3285088-8.96-.6995614 7.14-8.11491231z" fill="#fec55e"/><path d="m27.3 26.4434211h-24.78l21.56-24.48464917z" fill="#fec55e"/><g fill="#fed17e"><path d="m27.3 26.4434211-17.5-8.1149123 7.14-8.2548246z"/><path d="m.84 17.6289474 1.68 8.8144737 7.14-8.1149123z"/><path d="m7.98 9.51403509 1.82 8.81447371 7.14-8.1149123z"/><path d="m15.12 1.25921053 1.82 8.81447367 7.14-8.11491227z"/></g></g><g transform="translate(250.6 78.350877)"><g transform="translate(60.2 5.596491)"><path d="m21.28 21.6864035c-5.18 4.3372807-12.88 3.6377193-17.08-1.5390351-4.34-5.1767544-3.64-12.8719298 1.54-17.06929822 5.18-4.33728071 12.88-3.6377193 17.08 1.53903508 4.34 5.17675439 3.64 12.87192984-1.54 17.06929824z" fill="#fcd991"/><path d="m16.8 10.0736842-3.92 8.2548246c0 .1399123-.14.1399123-.28.1399123 0 0 0 0-.14 0s-.28-.1399123-.28-.4197369l1.4-5.7364035-2.94.6995614s0 0-.14 0-.14 0-.28-.1399123-.14-.1399123-.14-.2798245l1.4-5.87631583c0-.13991228.14-.27982456.28-.27982456h2.38c.14 0 .28.13991228.28.27982456v.13991228l-1.26 3.35789475 2.8-.69956141h.14c.14 0 .14 0 .28.13991228.42.13991228.42.27982456.42.41973683z" fill="#fff"/></g><path d="m72.1 18.3285088c0-4.0574562-1.82-7.5552632-4.62-10.07368424-.56.27982456-1.12.6995614-1.68 1.11929825-2.8 2.37850879-4.2 5.59649119-4.34 8.95438599.14 2.6583333.98 5.1767544 2.8 7.4153508.84 1.1192983 1.96 1.958772 3.08 2.6583334 2.94-2.3785088 4.76-6.0162281 4.76-10.0736842z" fill="#231f20" opacity=".3"/><g transform="translate(43.4 2.798246)"><path d="m26.6 13.9912281c0 7.4153508-6.02 13.2916666-13.3 13.2916666-7.42 0-13.3-6.016228-13.3-13.2916666 0-7.41535091 6.02-13.2916667 13.3-13.2916667s13.3 6.01622807 13.3 13.2916667z" fill="#3a96e2"/><path d="m16.8 18.6083333c0 .1399123 0 .2798246-.14.2798246 0 0-.7.2798246-1.54.2798246-2.24 0-4.2-1.3991229-4.76-3.4978071h-.7c-.14 0-.28-.1399122-.28-.2798245v-.8394737c0-.1399123.14-.2798246.28-.2798246h.42c0-.2798245 0-.5596491 0-.8394737h-.56c-.14 0-.28-.1399122-.28-.2798245v-.8394737c0-.1399123.14-.2798246.28-.2798246h.7c.7-2.09868417 2.52-3.3578947 4.76-3.3578947.7 0 1.4.13991228 1.4.13991228s.14 0 .14.13991228v.13991229l-.28 1.11929825c0 .1399123-.14.1399123-.28.1399123 0 0-.56-.1399123-.98-.1399123-1.26 0-2.24.6995614-2.8 1.8188596h3.5c.14 0 .14 0 .14.1399123v.1399123l-.14.8394737c0 .1399123-.14.1399123-.28.1399123h-3.64v.8394737h3.36c.14 0 .14 0 .14.1399122v.1399123l-.14.8394737c0 .1399123-.14.1399123-.28.1399123h-2.8c.42 1.1192982 1.54 1.8188596 2.8 1.8188596.7 0 1.12-.1399123 1.12-.1399123h.14l.14.1399123z" fill="#fff"/></g><path d="m51.52 6.01622807c-4.62 1.95877193-7.98 6.43596493-8.26 11.75263153.28 4.477193 2.94 8.3947369 6.58 10.6333334 5.6-4.0574562 7.56-11.6127193 4.62-18.0486842-.7-1.6789474-1.68-3.0780702-2.94-4.33728073z" fill="#231f20" opacity=".3"/><g transform="translate(23.8)"><ellipse cx="15.12" cy="15.530263" fill="#fec55e" rx="14.7" ry="14.69079"/><path d="m23.66 10.0736842v9.6539474c0 .6995614-.56 1.2592105-1.26 1.2592105h-12.74c-.7 0-1.26-.5596491-1.26-1.2592105v-9.6539474c0-.69956139.56-1.25921052 1.26-1.25921052h12.74c.56 0 1.26.55964913 1.26 1.25921052zm-14.42 0v1.8188597h13.3v-1.8188597c0-.13991227-.14-.27982455-.28-.27982455h-12.74c-.14 0-.28.13991228-.28.27982455zm13.3 9.7938597v-4.8969299h-13.3v4.8969299c0 .1399122.14.2798245.28.2798245h12.74c.14 0 .28-.1399123.28-.2798245zm-12.18-1.8188597h2.1v.979386h-2.1zm3.08 0h3.08v.979386h-3.08z" fill="#fff"/></g><path d="m25.62 21.6864035c.98 2.0986842 2.38 3.7776316 3.92 5.0368421.84-1.1192982 1.68-2.518421 2.1-3.9175438 1.96-5.7364036.28-11.8925439-4.06-15.67017548-2.1 2.51842105-3.36 5.73640348-3.36 9.09429828.14 1.8188596.56 3.6377193 1.4 5.4565789z" fill="#231f20" opacity=".3"/><g transform="translate(0 1)"><path d="m28.84 19.427193c-2.66 7.5552631-11.06 11.6127193-18.62 8.9543859-7.56-2.6583333-11.62-11.0530701-8.96-18.60833329 2.66-7.55526315 10.92-11.61271929 18.62-8.95438596 7.7 2.79824561 11.62 11.05307015 8.96 18.60833335z" fill="#35e8a3"/><path d="m15.54 19.7070175v1.2592106c0 .1399123-.14.2798245-.28.2798245h-.98c-.14 0-.28-.1399122-.28-.2798245v-1.2592106c-1.68-.2798245-2.66-1.2592105-2.8-1.3991228-.14-.1399122-.14-.2798245 0-.2798245l.84-.979386.14-.1399123h.14s1.12.979386 2.38.979386c.7 0 1.54-.4197368 1.54-1.2592105 0-.6995614-.84-1.1192983-1.96-1.5390351-1.4-.5596491-3.08-1.2592105-3.08-3.0780702 0-1.3991228 1.12-2.51842105 2.66-2.79824561v-1.39912281c0-.13991228.14-.27982456.28-.27982456h.98c.14 0 .28.13991228.28.27982456v1.25921053c1.54.13991228 2.38.97938599 2.38.97938599.14.1399123.14.1399123 0 .2798245l-.56 1.1192983-.14.1399123c-.14 0-.14 0-.14 0s-.98-.8394737-2.1-.8394737c-.98 0-1.54.4197368-1.54 1.1192982 0 .8394737.98 1.1192983 1.96 1.5390351 1.4.5596491 2.94 1.1192983 2.94 2.9381579 0 1.8188597-1.12 3.0780702-2.66 3.3578947z" fill="#fff"/></g></g><g transform="translate(193.8 81.149123)"><g transform="translate(20 1)"><path d="m26.16 13.1311404c0 7.1355263-5.74 13.0118421-13.02 13.0118421-7.14 0-13.02-5.7364036-13.02-13.0118421 0-7.27543865 5.74-13.01184215 13.02-13.01184215 7.14 0 13.02 5.87631579 13.02 13.01184215z" fill="#35e8a3"/><path d="m4.62 8.39473684-4.2-4.19736842 1.4-1.39912281 2.8 2.65833334 5.04-5.17675439 1.54 1.53903509z" fill="#fff" transform="translate(7.4 8.79386)"/></g><path d="m20.26 14.1311404c0 4.0574561 1.96 7.8350877 4.9 10.0736842 1.4-1.1192983 2.66-2.6583334 3.5-4.3372807 2.66-5.5964913 1.12-12.03245618-3.36-15.95000004-3.22 2.51842105-5.04 6.15614034-5.04 10.21359654z" fill="#231f20" opacity=".3"/><g transform="translate(.8)"><path d="m25.34 19.8675439c-3.22 6.5758772-11.06 9.3741228-17.64 6.1561403-6.58-3.2179824-9.38-11.0530702-6.16-17.62894736 3.22-6.57587719 11.06-9.37412281 17.64-6.15614035s9.38 11.05307021 6.16 17.62894741z" fill="#fec55e"/><path d="m4.34 4.05745614 1.4-2.93815789 2.38 1.11929824-1.4 2.9381579 2.94 1.3991228-.98 2.09868421-2.94-1.3991228-1.4 2.9381579-2.38-1.11929825 1.4-2.9381579-2.8-1.39912281.98-2.09868421z" fill="#fff" transform="translate(8.4 8.394737)"/></g></g><path d="m26.32 19.8675439h3.22c.7 0 1.26-.5596492 1.26-1.2592106v-4.1973684c0-.6995614-.56-1.2592105-1.26-1.2592105h-2.52c-.42 0-.84-.2798246-.98-.6995614-.14-.2798246-.14-.4197369-.28-.6995614-.14-.4197369-.14-.8394737.14-1.1192983l1.82-1.81885962c.42-.41973684.42-1.25921052 0-1.67894736l-2.94-2.9381579c-.42-.41973684-1.26-.41973684-1.68 0l-1.82 1.81885965c-.28.27982456-.7.41973684-1.12.13991228-.28-.13991228-.56-.27982456-.84-.27982456-.42-.13991228-.56-.55964912-.56-.97938597v-2.51842105c0-.6995614-.56-1.25921052-1.26-1.25921052h-4.2c-.7 0-1.26.55964912-1.26 1.25921052v2.51842105c0 .41973685-.28.83947369-.7.97938597-.28.13991228-.56.13991228-.7.27982456-.42.13991228-.84.13991228-1.12-.13991228l-1.82-1.81885965c-.42-.41973684-1.26-.41973684-1.68 0l-2.94 2.9381579c-.42.41973684-.42 1.25921052 0 1.67894736l1.82 1.81885962c.28.2798246.42.6995614.28 1.1192983-.14.2798245-.28.5596491-.28.8394737-.14.4197368-.56.5596491-.98.5596491h-2.52c-.7 0-1.26.5596491-1.12 1.2592105v4.1973684c0 .6995614.56 1.2592106 1.26 1.1192983h2.52c.42 0 .84.2798245.98.6995614.14.2798245.14.4197368.28.6995614.14.4197368.14.8394737-.14 1.1192982l-1.82 1.8188597c-.42.4197368-.42 1.2592105 0 1.6789473l2.94 2.9381579c.42.4197369 1.26.4197369 1.68 0l1.82-1.8188596c.28-.2798246.7-.4197368 1.12-.1399123.28.1399123.56.2798246.84.2798246.42.1399123.56.5596491.56.9793859v2.5184211c0 .6995614.56 1.2592105 1.26 1.1192982h4.2c.7 0 1.26-.5596491 1.12-1.2592105v-2.518421c0-.4197369.28-.8394737.7-.979386.28-.1399123.42-.1399123.7-.2798246.42-.1399122.84-.1399122 1.12.1399123l1.82 1.8188597c.42.4197368 1.26.4197368 1.68 0l2.94-2.9381579c.42-.4197369.42-1.2592106 0-1.6789474l-1.82-1.8188596c-.28-.2798246-.42-.6995615-.14-1.1192983.14-.2798246.42-1.1192982.42-1.1192982zm-16.52-4.3372807c.7-3.6377193 4.48-5.73640355 7.84-4.477193 2.66.9793859 4.2 3.7776316 3.64 6.5758772-.7 3.6377193-4.48 5.7364035-7.84 4.477193-2.52-.979386-4.06-3.7776316-3.64-6.5758772z" fill="#fec55e" transform="translate(133 76.951754)"/><g transform="translate(0 68.557018)"><g transform="translate(0 1.399123)"><path d="m38.36 38.0561404h-34.86c-1.68 0-3.08-1.3991229-3.08-3.0780702v-28.82192985h37.94c.56 0 1.12.41973684 1.12 1.11929825v29.8013158c-.14.4197368-.56.979386-1.12.979386z" fill="#fdfdfe"/><path d="m4.48 32.5995614c-1.4 0-4.2.2798246-4.2 3.2179825v-31.34035092c0-1.81885965 1.4-3.21798245 3.22-3.21798245h.98z" fill="#575a8f"/></g><path d="m27.02 26.3035088h2.1c.42 0 .7-.2798246.7-.6995614v-2.6583334c0-.4197368-.28-.6995614-.7-.6995614h-1.68c-.28 0-.56-.1399122-.56-.4197368 0-.1399123-.14-.2798246-.14-.4197369-.14-.2798245-.14-.5596491.14-.6995614l1.12-1.1192982c.28-.2798246.28-.8394737 0-1.1192982l-1.82-1.8188597c-.28-.2798246-.84-.2798246-1.12 0l-1.12 1.1192982c-.14.1399123-.42.2798246-.7.1399123-.14-.1399123-.28-.1399123-.56-.1399123-.28-.1399122-.42-.2798245-.42-.5596491v-1.6789473c0-.4197369-.28-.6995614-.7-.6995614h-2.66c-.42 0-.7.2798245-.7.6995614v1.6789473c0 .2798246-.14.5596491-.42.5596491-.14 0-.28.1399123-.42.1399123-.28.1399123-.56.1399123-.7-.1399123l-1.26-1.2592105c-.28-.2798245-.84-.2798245-1.12 0l-1.82 1.8188597c-.28.2798245-.28.8394737 0 1.1192982l1.12 1.1192983c.14.1399122.28.4197368.14.6995614-.14.1399122-.14.2798245-.14.5596491-.14.2798246-.28.4197368-.56.4197368h-1.68c-.42 0-.7.2798246-.7.6995614v2.6583334c0 .4197368.28.6995614.7.6995614h1.68c.28 0 .56.1399123.56.4197368 0 .1399123.14.2798246.14.4197369.14.2798245.14.5596491-.14.6995614l-1.12 1.1192982c-.28.2798246-.28.8394737 0 1.1192983l1.82 1.8188596c.28.2798246.84.2798246 1.12 0l1.12-1.1192982c.14-.1399123.42-.2798246.7-.1399123.14.1399123.28.1399123.56.1399123.28.1399122.42.2798245.42.5596491v1.6789473c0 .4197369.28.6995614.7.6995614h2.66c.42 0 .7-.2798245.7-.6995614v-1.6789473c0-.2798246.14-.5596491.42-.5596491.14 0 .28-.1399123.42-.1399123.28-.1399123.56-.1399123.7.1399123l1.12 1.1192982c.28.2798246.84.2798246 1.12 0l1.82-1.8188596c.28-.2798246.28-.8394737 0-1.1192983l-1.12-1.1192982c-.14-.1399123-.28-.4197369-.14-.6995614.28-.2798246.42-.8394737.42-.8394737zm-10.5-2.7982456c.42-2.3785088 2.8-3.6377193 5.04-2.7982457 1.68.6995614 2.66 2.3785088 2.38 4.1973685-.42 2.3785087-2.8 3.6377193-5.04 2.7982456-1.68-.5596491-2.66-2.3785088-2.38-4.1973684z" fill="#35e8a3"/><path d="m39.34 38.6157895v-30.36096494c0-.41973684-.42-.83947368-.84-.83947368h-2.52v26.72324562.8394737 3.497807c0 .4197368.42.8394737.84.8394737h1.68c.56.1399123.84-.2798246.84-.6995614z" fill="#414042" opacity=".3"/><g transform="translate(36.4)"><path d="m.7 4.89692982h3.5v30.22105268h-3.5z" fill="#fec55e"/><path d="m4.2 34.9780702h-3.5v3.2179824c0 .6995614.56 1.1192983 1.12 1.1192983h1.26c.7 0 1.12-.5596491 1.12-1.1192983z" fill="#575a8f"/><path d="m.7 4.89692982h1.82v30.22105268h-1.82z" fill="#fde1a7"/><path d="m2.24.6995614-1.68 4.05745614h3.64l-1.68-4.05745614c0-.13991228-.14-.13991228-.28 0z" fill="#f1f2f2"/><g fill="#212121"><path d="m2.38.55964912-.42 1.11929825h.98l-.56-1.11929825c0-.13991228 0-.13991228 0 0z"/><path d="m.7 34.1385965h3.5v.8394737h-3.5z"/></g></g></g></g><g transform="translate(425.2 153.903509)"><path d="m73.22 149.846053-.98.419736-.56-1.119298 1.54-.419737v-2.658333l-13.16-31.760088-1.82-19.8675435s1.82-2.3785088 3.22-6.4359649c.84-2.5184211.56-6.0162281.28-8.2548246h.84v-3.3578947h-.42c1.68-3.2179825 5.32-12.452193 8.26-20.2872807-.14 0-.14 0-.28 0h-23.38l-.98.9793859v-.9793859h-44.38v12.5921052c0 1.6789474 1.26 2.9381579 2.94 2.9381579h1.12 11.2c-.42.1399123-.84.4197369-1.12.6995614l7.42.8394737h3.78l3.22-1.5390351h12.32c-.7 2.0986842-1.4 3.7776316-1.82 4.7570176h-1.4v3.3578947h.56l-1.4 7.1355263-.14.8394737-8.12 26.443421-2.66 37.076754h1.96v1.539036h-1.82l-2.94 3.357894h-6.3c-3.78 0-7.42 2.098684-9.1 5.596491h-.98v2.098685h27.3v-2.098685h-.98v-8.954385h-1.4v-1.539036h2.1l6.16-39.31535v-.139913l3.64-5.456579 5.04 14.410965 16.52 29.661404 1.26-.419737.84 1.539035-1.12.559649-1.4 4.197369-7.14.139912c-3.5 1.399123-4.34 1.539035-4.76 5.036842h-.56v2.098684h14.84l4.76-1.958772z" fill="#191c3c" fill-rule="nonzero" opacity=".3"/><g fill-rule="nonzero" transform="translate(0 15.390351)"><g transform="translate(0 7.995614)"><path d="m43.4 21.5258772-31.78 15.8100877c-.56.2798246-1.12 0-1.4-.4197368l-9.66-19.447807c-.28-.5596492 0-1.1192983.42-1.3991229l31.78-15.81008767c.56-.27982457 1.12 0 1.4.41973684l9.66 19.44780703c.28.5596491 0 1.1192982-.42 1.3991228z" fill="#fec55e"/><g fill="#fed17e"><path d="m43.82 20.6864035-21.7-3.6377193c-.56-.1399123-1.12.1399123-1.26.6995614l-10.08 19.447807c.42.1399123.84.2798246 1.12 0l31.22-15.5302631c.42-.1399123.56-.5596491.7-.979386z"/><path d="m.56 16.7688596 21.7 3.6377193c.56.1399123 1.12-.1399122 1.26-.6995614l10.08-19.44780697c-.42-.13991228-.84-.27982457-1.12 0l-31.22 15.53026317c-.42.2798245-.7.6995614-.7.9793859z"/></g></g><path d="m7.14 20.9868421c3.36 3.7776316 8.96 4.8969298 13.72 2.6583333 4.76-2.3785087 7.14-7.5552631 6.16-12.4521929z" fill="#231f20" opacity=".3"/><g transform="translate(2.8)"><path d="m22.82 6.99561404c2.8 5.73640346.56 12.73201756-5.18 15.53026316s-12.74.5596491-15.54-5.1767544-.56-12.73201754 5.18-15.53026315c5.74-2.79824562 12.74-.55964912 15.54 5.17675439z" fill="#35e8a3"/><path d="m18.76 9.09429825c1.68 3.49780705.28 7.69517545-3.22 9.51403505-3.5 1.6789474-7.7.2798246-9.52-3.2179824-1.68-3.497807-.28-7.69517546 3.22-9.51403511 3.5-1.67894737 7.84-.27982456 9.52 3.21798246z" fill="#a0f1d2"/></g></g><g fill-rule="nonzero" transform="translate(16.8 22.385965)"><path d="m25.9 34.5583333-25.06-15.1105263c-.42-.2798245-.56-.8394737-.28-1.3991228l10.22-16.92938595c.28-.41973685.84-.55964913 1.4-.27982457l25.06 15.11052632c.42.2798246.56.8394737.28 1.3991228l-10.22 16.929386c-.28.4197368-.98.5596491-1.4.2798245z" fill="#fff"/><path d="m22.96 24.0649123-14.28-8.5346491c2.38-3.9175439 7.42-5.1767544 11.34-2.7982457 4.06 2.3785088 5.32 7.4153509 2.94 11.3328948z" fill="#35e8a3"/><path d="m8.96 20.7070175 12.46-2.9381579 2.66 12.1723685z" fill="#575a8f"/><g fill="#6371c5"><path d="m2.52 16.929386 12.6-3.0780702 2.66 12.1723684z"/><path d="m26.46 15.95 2.8 1.6789474c.28.1399122.42.5596491.14.8394737-.14.2798245-.56.4197368-.84.1399122l-.14-.1399122c-.28-.1399123-.56-.1399123-.7.1399122-.14.2798246-.14.5596492.14.6995614l2.94 1.8188597c.28.1399123.28.4197368.14.6995614-.14.2798246-.42.2798246-.7.1399123l-9.24-5.5964913c-.28-.1399122-.28-.4197368-.14-.6995614.14-.2798245.42-.2798245.7-.1399122l.56.4197368c.28.1399123.56.1399123.7-.1399123.14-.2798245.14-.5596491-.14-.6995614l-2.66-1.5390351c-.28-.1399123-.42-.5596491-.14-.8394737.14-.2798245.56-.4197368.84-.1399122z"/></g></g><g fill-rule="nonzero" transform="translate(2.8 47.570175)"><path d="m42.7 24.0649123h-37.1v-23.64517546h40.18v20.70701756c0 1.6789474-1.4 2.9381579-3.08 2.9381579z" fill="#fcd991"/><path d="m4.48 24.0649123h1.12v-23.64517546h-4.2v20.70701756c0 1.6789474 1.4 2.9381579 3.08 2.9381579z" fill="#bda36d"/><path d="m1.4 5.45657895h2.66l1.54-5.03684211-4.2.97938597z" fill="#191c3c" opacity=".2"/><path d="m.84 3.49780702h2.94c.14 0 .42-.13991228.56-.27982456l1.26-2.65833334h-4.2l-1.12 2.23859649c-.14.27982457.14.69956141.56.69956141z" fill="#fcd991"/><path d="m45.78 5.45657895v-4.05745614l-40.18-.97938597 2.1 5.03684211z" fill="#191c3c" opacity=".2"/><path d="m46.9 3.49780702h-38.78c-.14 0-.28-.13991228-.42-.27982456l-2.1-2.79824562h40.18l1.54 2.09868421c.28.41973684 0 .97938597-.42.97938597z" fill="#fcd991"/></g><path d="m31.92 150.125877h3.92v4.337281h-3.92z" fill="#ef4f60"/><path d="m70.8322484 147.869147h3.9199632v4.33724h-3.9199632z" fill="#ef4f60" transform="matrix(.89730841 -.44140414 .44140414 .89730841 -58.752141 47.538408)"/><path d="m64.12 77.6513158-6.44 13.9912281-13.58 20.4271931-6.16 39.315351h-7.98l2.66-37.076755 8.12-26.4434207 2.1-10.2135965z" fill="#364254" fill-rule="nonzero"/><path d="m21 3.6377193-18.48-2.79824562-.84 4.33728071-.98 3.07807017c2.1 5.31666664 4.2 12.87192984 4.34 21.12675434l13.44-20.28728065z" fill="#191c3c" fill-rule="nonzero" opacity=".3" transform="translate(39.2 82.548246)"/><path d="m63.84 25.1842105h8.12v9.5140351h-8.12z" fill="#ff8c6d"/><path d="m71.96 30.3609649-8.12-2.9381579v-2.2385965h8.12z" fill="#191c3c" fill-rule="nonzero" opacity=".3"/><path d="m62.3 29.9412281 10.92 2.7982456v2.0986842s4.34 5.7364035 4.06 8.6745614-11.48 33.0192982-13.16 34.1385965h-21.42s8.54-22.3859649 9.1-24.904386c0 0 2.66-12.0324561 7.28-15.8100877 0 0 1.4-2.3785088 2.8-3.0780702 0 .1399123 1.26-1.3991228.42-3.9175438z" fill="#5bd3f9" fill-rule="nonzero"/><path d="m63.56 55.825-6.44-8.2548246 5.88-5.0368421c1.96-2.0986842 5.32-2.0986842 7.42-.1399122 2.1 1.9587719 2.1 5.3166666.14 7.4153508z" fill="#272834" fill-rule="nonzero"/><path d="m62.58 54.845614-6.3-8.2548245 6.86-5.3166667c2.1-1.6789474 5.18-1.2592105 6.86.979386l.42.4197368c1.68 2.0986842 1.26 5.1767544-.98 6.8557018z" fill="#5bd3f9" fill-rule="nonzero"/><path d="m49.42 60.0223684c-.98 2.5184211-1.96 5.3166667-2.94 7.975l4.76-2.2385965 12.32-9.9337719-4.76-6.2960526z" fill="#191c3c" fill-rule="nonzero"/><path d="m29.54 73.1741228 20.16-9.5140351 12.32-9.9337719-4.76-6.2960526-10.08 11.1929824-18.2 11.3328948.7.8394736-3.64.1399123c-1.54 0-5.74-.5596491-7.42 1.2592105l7.42.8394737z" fill="#ef4f60"/><path d="m64.12 77.6513158s1.26 6.2960526 0 10.3535088c-1.26 4.0574561-3.22 6.4359649-3.22 6.4359649l1.82 19.8675435 14.14 33.998685-7.56 2.238596-16.52-29.661403-11.9-33.9986847 1.82-9.2342105z" fill="#364254" fill-rule="nonzero"/><path d="m75.18 27.2828947h-11.76c-1.82 0-3.36-1.5390351-3.36-3.3578947v-3.7776316h-2.94c-1.26-9.9337719 2.94-12.8719298 2.94-12.8719298h15.12z" fill="#ff8c6d"/><g fill-rule="nonzero"><path d="m79.66 8.95438596c-.28-1.67894736-1.4-4.47719298-2.94-5.31666666-.84-.41973684-1.82-.41973684-2.66 0 0-1.11929825-.7-2.51842105-1.82-2.51842105-.7 0-1.54.27982456-2.24.41973684-2.52.83947368-5.04 1.67894737-7.7 1.53903509-2.8 0-5.18-1.11929825-7-3.07807018 0 1.53903509.28 3.07807018.7 4.61710526.14.55964913.42 1.11929825.7 1.53903509.42.6995614 1.12 1.11929825 1.96 1.67894737 2.1 1.39912281 3.64.55964912 5.88.6995614.98 0 1.82.27982456 2.8.27982456.84 0 1.96-.27982456 2.8.13991228 2.66 1.39912284-3.5 5.03684214-3.5 6.29605264 1.4-.6995614 2.8-1.5390351 4.06-2.2385965-1.4 1.6789474-2.94 3.497807-2.94 5.7364035.98-.979386 2.24-1.6789474 3.64-1.9587719-.42.9793859-.84 1.8188596-1.4 2.7982456-.14.2798246-.28.6995614 0 .8394737.42.2798245.98-.5596491 1.4-.2798246-.56 1.2592105-1.12 2.5184211-1.68 3.9175439.56-.2798246 1.12-.5596491 1.4-.979386-.42 1.3991228-.28 2.9381579.28 4.1973684.98-.1399122 1.82.6995614 2.94.8394737.98.1399123 1.54-.5596491 2.24-.8394737.98-.4197368 2.38-.4197368 3.36-.1399122-.42-.6995614-.84-1.3991229-.98-2.2385965-.56-2.0986842.56-3.6377193.84-5.5964913.28-2.3785087.28-4.7570175.28-7.1355263-.14-1.1192982-.14-2.23859647-.42-3.21798244z" fill="#30333f"/><path d="m41.86 76.5320175h23.52v3.3578948h-23.52z" fill="#272834"/><path d="m28.42 72.0548246-2.38-2.3785088c-.42-.2798246-.56-.6995614-.42-1.1192983.28-.4197368.7-.5596491 1.12-.4197368l3.22 1.6789474c.42.2798245.56.6995614.42 1.1192982-.28.4197369-1.54 1.2592105-1.96 1.1192983z" fill="#ddb758"/><path d="m37.24 152.924123h-7.14l-2.94 3.357895h-6.16c-3.78 0-7.42 2.098684-9.1 5.596491h25.2v-8.954386z" fill="#e4e4e4"/><path d="m10.92 161.878509h27.3v2.098684h-27.3z" fill="#e4e4e4"/><path d="m76.86 149.566228-6.58 2.798246-1.4 4.197368-7.14.139912c-3.5 1.539035-4.48 1.539035-4.76 5.316667h13.16l10.08-4.197368z" fill="#e4e4e4"/><path d="m56.42 161.738596h14.84v2.098685h-14.84z" fill="#e4e4e4"/><path d="m70.3999612 159.616997h11.0596036v2.098609h-11.0596036z" fill="#e4e4e4" transform="matrix(.91923294 -.3937141 .3937141 .91923294 -57.123965 42.871163)"/></g></g><g transform="translate(149.4 137.114035)"><path d="m90.02 4.3372807c0-.13991228-.14-.27982456-.28-.41973684s-.28-.13991228-.56-.13991228h-.14-.14-.14c0-.6995614 0-1.39912281-.14-2.09868421h-.14c0-.13991228 0-.41973684 0-.55964912-7.7 0-15.26-.13991228-22.96-.13991228v.41973684h-.14c-.14 1.81885965-.28 3.49780701 0 5.31666666h.14v.41973685c7.7 0 15.26.13991228 22.96.13991228 0-.13991228 0-.27982456 0-.41973685h.28c.14-.83947368.14-1.53903508.14-2.37850877h.14.28v.13991228 1.11929825 4.75701759 1.1192982.2798246.1399122c0 .1399123-.14.1399123-.14.2798246l-.28.1399123-.56.2798245-1.12.5596492-4.2 1.9587719-4.2 1.9587719-.56.2798246c-.14.1399123-.28.1399123-.42.2798245-.14.1399123-.14.2798246-.28.4197369 0 .1399123-.14.2798246-.14.4197368v.1399123.1399123.5596491 1.8188597h-1.12v.4197368c0 .1399123 0 .1399123.14.1399123h.98-.98c-.28 0-.42.1399123-.42.4197368l-.14 1.6789474c-.7.2798246-1.54.5596491-2.24.8394737-.7.2798245-1.4.5596491-1.82 1.2592105-.28.4197369-.42.8394737-.42 1.3991228-.14.979386-.14 1.9587719 0 3.0780702v.8394737l-.42-.1399123-17.64 12.1723684s-10.22-5.3166666-15.26-7.4153509c-3.36-1.3991228-5.46-.8394736-6.44-.4197368l-.84-4.477193c1.12.1399123 2.38-.1399123 3.64-.1399123.98 0 1.96 0 2.66-.5596491.98-.6995614 1.4-1.8188596 1.68-2.9381579.28-.6995614.42-1.5390351.7-2.2385965s.42-1.3991228.42-2.2385965c0-.6995614-.28-1.3991228-.84-1.8188596h.98c.28 0 .56-.2798246.42-.5596491-.28-1.3991228-.7-2.7982457-.98-4.1973685-.28-1.539035 0-3.0780701-.98-4.4771929.28-.2798246.42-.5596492.7-.8394737.28-.5596491.56-1.11929827.42-1.67894739-.14-.69956141-.7-1.39912281-1.26-1.67894737-1.68-.83947369-2.94-.55964912-4.62 0-.7.27982456-1.68.27982456-2.24-.27982456-.28-.13991228-.42-.41973684-.56-.69956141-.98-1.25921052-3.08-1.3991228-4.2-.27982456-1.12 1.11929825-1.54 1.95877193-3.08 2.51842105-.98.27982457-2.1.69956141-2.8 1.53903514v2.9381578c.14.2798246.28.5596492.28.979386.14.4197369-.14.8394737-.28 1.1192983v6.2960526c.84.8394737.7 1.9587719.7 3.2179824 0 .6995614-.42 1.1192983-.7 1.6789474v2.0986842c.56.6995614 1.68.6995614 2.52.2798246v.4197368c0 .2798246.28.5596492.56.5596492h.56l-.84 6.016228h-1.26l-1.68.5596491v121.7236845h2.24.84v-1.958772h-.84v-.559649l-.84-3.07807h-.56v-.419737h1.12l2.1-36.79693 8.82-24.0649124 13.16 14.9706144-10.22 31.200438 1.26.139912-.42.839474h-.7l-1.82 2.238597v1.818859h-.7v1.399123h.7 19.6.56v-1.399123h-.42v-.139912c0-1.25921-.84-2.378509-2.1-2.518421l-6.58-1.399123h-4.62l.28-.559649 1.26.139912 16.52-34.418421-16.24-27.9824559-.84-1.3991228 1.96-24.4846491 13.58 1.8188597c.7.1399122 1.4-.1399123 1.96-.6995614.14-.1399123.28-.4197369.42-.5596492l14.98-16.6495614v.4197369c0 .2798245.14.4197368.42.4197368h3.64c.28 0 .42-.1399123.42-.4197368l-.14-2.3785088c.56-.2798246.98-.6995614 1.26-1.3991228.28-.8394737 0-.979386-.14-1.6789474-.14-.5596491.14-.9793859-.42-1.2592105 0 0-.14 0-.14-.1399123s0-.2798245.14-.2798245c.42-.4197369.28-1.2592106-.14-1.5390351-.14-.1399123-.42-.2798246-.7-.4197369l-.14-2.7982456c0-.2798245-.28-.4197368-.42-.4197368h-.7.84c.14 0 .14 0 .14-.1399123v-.4197369h-.98v-1.8188596-.5596491-.2798246-.1399123c0-.1399122.14-.1399122.14-.2798245l.56-.2798246 4.2-1.9587719 4.2-1.9587719 1.12-.5596492.56-.2798245.28-.1399123c.14 0 .14-.1399123.14-.1399123.28-.1399123.42-.4197368.42-.6995614 0-.1399123 0-.1399123 0-.2798246v-.1399122-.1399123-.2798246-1.1192982-4.75701757-1.11929825-.13991228c.28.13991228.28 0 .28 0zm-14.84 28.9618421-.28-.1399123c.14 0 .14 0 .28-.1399123z" fill="#191c3c" fill-rule="nonzero" opacity=".3"/><g fill-rule="nonzero" transform="translate(61.6)"><path d="m25.62 4.61710526c0-.13991228 0-.13991228 0-.27982456s-.14-.27982456-.28-.41973684-.28-.13991228-.56-.13991228h-.14-.14-2.38v.13991228.13991228.13991228.13991228.13991228h2.38.28v.13991228 1.11929825 4.75701759 1.1192982.2798246.1399122c0 .1399123-.14.1399123-.14.2798246l-.28.1399123-.56.2798245-1.12.5596492-4.2 1.9587719-4.2 1.9587719-.56.2798246c-.14.1399123-.28.1399123-.42.2798245-.14.1399123-.14.2798246-.28.4197369 0 .1399123-.14.2798246-.14.4197368v.1399123.1399123.5596491 2.3785088h.14.14.14.14.14v-2.3785088-.5596491-.2798246-.1399122c0-.1399123.14-.1399123.14-.2798246l.56-.2798246 4.2-1.9587719 4.2-1.9587719 1.12-.5596492.56-.2798245.28-.1399123c.14 0 .14-.1399123.14-.1399123.28-.1399123.42-.4197368.42-.6995614 0-.1399123 0-.1399123 0-.2798245v-.1399123-.1399123-.2798246-1.1192982-4.75701755-1.11929825c.42.41973684.42.27982456.42.27982456z" fill="#fff"/><path d="m24.08 6.99561404c-.14 0-.28 0-.42 0 0-1.81885965 0-3.49780702 0-5.31666667h.42c.28 1.67894737.28 3.49780702 0 5.31666667z" fill="#fec55e"/><path d="m.7 6.71578947h.42c0-1.81885965 0-3.49780701 0-5.31666666-.14 0-.28 0-.42 0-.14 1.67894737-.14 3.49780701 0 5.31666666z" fill="#fec55e"/><path d="m23.94 1.11929825c.14 2.09868421.14 4.19736842 0 6.29605263-7.7 0-15.26-.13991228-22.96-.13991228-.14-2.09868421-.14-4.19736842 0-6.29605263 7.56 0 15.26 0 22.96.13991228z" fill="#42a37e"/><path d="m.84 4.05745614c0 .97938597 0 2.09868421.14 3.07807018 7.7 0 15.26.13991228 22.96.13991228.14-.97938597.14-2.09868421.14-3.07807018-7.84 0-15.54-.13991228-23.24-.13991228z" fill="#35e8a3"/><path d="m10.64 34.2785088c0 .2798245.14.4197368.42.4197368h3.64c.28 0 .42-.1399123.42-.4197368l-.42-11.8925439c0-.2798245-.28-.4197368-.42-.4197368h-2.66c-.28 0-.42.1399123-.42.4197368z" fill="#fec55e"/><path d="m14.56 21.4065789v.4197369c0 .1399123 0 .1399123-.14.1399123h-2.8c-.14 0-.14 0-.14-.1399123v-.4197369z" fill="#bf9855"/><path d="m13.16 21.9662281h-1.4c-.28 0-.42.1399123-.42.4197368l-.56 11.8925439c0 .2798245.14.4197368.42.4197368h1.82z" fill="#feca71"/></g><path d="m77.14 25.6039474c-1.12-1.1192983-3.08.2798245-4.2.6995614.7-.2798246.98-1.5390351.42-2.0986842-.14-.1399123-.14-.1399123-.28-.1399123s-.28 0-.42 0c-.7.2798245-1.54.5596491-2.24.8394737-.7.2798245-1.4.5596491-1.82 1.2592105-.28.4197368-.42.8394737-.42 1.3991228-.14.979386-.14 1.9587719 0 3.0780702v1.1192982c.7.8394737 1.82.8394737 2.8 1.3991228.28.1399123.56.2798246.84.1399123.28 0 .56-.1399123.84-.2798246.98-.4197368 2.1-.8394736 3.22-.8394736.98 0 1.82-.5596492 2.1-1.5390351.28-.8394737 0-.979386-.14-1.6789474-.14-.5596491.14-.979386-.42-1.2592105 0 0-.14 0-.14-.1399123s0-.2798246.14-.2798246c.28-.5596491.14-1.2592105-.28-1.6789473z" fill="#ef4f60"/><path d="m15.26 149.70614h3.5v5.036842h-3.5z" fill="#ef4f60"/><path d="m34.0936482 136.307629h5.0399416v3.497766h-5.0399416z" fill="#ef4f60" transform="matrix(.43400503 -.90091045 .90091045 .43400503 -103.65343 111.124884)"/><path d="m14.56 7.13552632c0-.27982457 0-.55964913-.14-.83947369-.28-.41973684-.7-.55964912-1.12-.55964912s-.84 0-1.26-.13991228-.7-.41973684-1.12-.41973684c-.98-.13991228-1.82 1.25921052-2.8.97938596-.28 0-.42-.13991228-.7-.27982456-.84-.27982456-1.68.41973684-1.82 1.25921053-.28.83947368 0 1.67894736.14 2.51842105.28 1.11929823 1.26 3.07807013 1.96 4.05745613 1.82 0 2.24.5596491 4.06.6995614 0 0 .84-1.3991228.7-1.3991228h.14c.14-.4197368.7-.8394737.98-1.2592105.42-.4197369.84-.979386 1.12-1.5390351.14-.41973685.14-.97938597.14-1.5390351-.28-.41973684-.28-.97938596-.28-1.53903508z" fill="#ef4f60"/><path d="m28.7 36.9368421h-8.12l1.4-10.6333333h4.62z" fill="#ff8c6d"/><path d="m17.78 71.775-6.72 42.113596 3.36 38.61579h5.46l2.24-36.79693 8.82-24.0649121 13.16 14.9706141-10.36 31.200438 6.3.279825 16.52-34.418421-18.62-31.9z" fill="#dde59e" fill-rule="nonzero"/><path d="m44.66 106.053509-11.62-16.5096494-2.1 2.0986843 13.16 14.9706141z" fill="#7f8550" fill-rule="nonzero"/><path d="m26.6 26.3035088h-4.62l-.84 6.4359649 6.3-2.0986842z" fill="#191c3c" fill-rule="nonzero" opacity=".3"/><path d="m30.66 30.2210526h-9.66c-.28 0-.56-.2798245-.56-.5596491v-20.14736841h9.66c1.26 0 2.38.27982456 3.5.83947371 3.22 1.6789473 2.52 3.9175438 2.8 6.016228.28 1.3991228.7 2.7982457.98 4.1973685 0 .2798245-.14.5596491-.42.5596491-.84 0-2.24.1399123-2.24.1399123l.56 3.497807c.42 2.7982456-1.82 5.4565789-4.62 5.4565789z" fill="#ff8c6d"/><g fill-rule="nonzero"><path d="m35.84 21.1267544c-2.38-1.3991228-3.78 1.5390351-5.46 2.3785088-.84.2798245-1.96.2798245-2.38-.5596492-.7-.9793859-1.26-2.9381579-1.12-4.0574561.14-1.1192983.28-2.2385965.7-3.2179825.56-.9793859 1.4-2.0986842 2.52-2.6583333.56-.2798246 1.12-.4197368 1.68-.2798246.84.1399123 1.26.4197369 2.1.1399123.84-.2798245 1.68-1.1192982 2.24-1.9587719.28-.5596491.56-1.11929825.42-1.67894737-.14-.69956141-.7-1.39912281-1.26-1.67894737-1.68-.83947369-2.94-.55964912-4.62 0-.7.27982456-1.68.27982456-2.24-.27982456-.28-.13991228-.42-.41973685-.56-.69956141-.98-1.25921052-3.08-1.3991228-4.2-.27982456-1.12 1.11929825-1.54 1.95877193-3.08 2.51842105-.98.27982457-2.24.83947369-2.94 1.67894742-.98 1.539035.28 2.3785087.42 3.7776315.14.6995614-.42 1.2592106-.7 1.8188597-.7 1.1192982-.98 2.518421-.7 3.7776316.14.5596491.42 1.2592105.84 1.539035 1.12.8394737.98 2.0986843.98 3.4978071 0 1.1192982-.98 1.6789473-.98 2.6583333-.14 2.0986842 3.08 2.0986842 3.78.4197368.84-2.2385965.14-4.7570175.14-6.995614 0-1.2592105 1.4-2.9381579 2.8-1.9587719.84.5596491.7 1.3991228.7 2.2385965 0 1.2592105-.14 2.518421-.14 3.7776315-.14 1.8188597-.84 4.3372807 1.12 5.5964913 1.82.9793859 3.36.4197368 5.32.4197368.98 0 1.96 0 2.66-.5596491.98-.6995614 1.4-1.8188597 1.68-2.9381579.28-.6995614.42-1.5390351.7-2.2385965s.42-1.3991228.42-2.2385965-.28-1.5390351-.84-1.9587719z" fill="#30333f"/><path d="m17.78 71.775-1.12 6.8557018c1.96 0 4.62.4197368 6.44-.2798246 2.1-.8394737 3.92-2.6583333 6.3-2.5184211 1.12.1399123 2.1.5596492 3.08.8394737 1.4.4197369 2.94.4197369 4.34.1399123 1.26-.2798246 2.24-.979386 3.5-1.2592105l-2.24-3.7776316z" fill="#191c3c" opacity=".3"/><path d="m27.72 36.0973684s2.1-2.0986842 7.14 0c4.9 2.0986842 15.26 7.4153509 15.26 7.4153509l17.64-12.1723684 5.04 2.2385965-15.4 16.9293859c-.42.8394737-1.4 1.3991228-2.38 1.2592106l-13.58-1.8188597-1.96 24.4846491c-1.26.1399123-2.24.979386-3.5 1.2592106-1.4.2798245-2.8.2798245-4.2-.1399123-.98-.2798246-1.96-.8394737-2.94-.8394737-2.24-.1399123-3.92 1.5390351-6.02 2.3785088-1.96.8394737-5.32.1399122-7.28.4197368-.56-2.518421 1.68-5.5964912 1.4-8.2548246-.42-4.0574561-1.26-8.3947368-3.64-11.7526315l-12.46-24.0649123 6.02-19.447807h5.74l-3.22 16.2298245 4.62 8.1149123 5.74-2.0986842z" fill="#8475d3"/><path d="m18.06 77.2315789c.98 0 1.96.1399123 2.8 0-.98 0-1.96 0-2.8 0z" fill="#db6767"/><path d="m20.16 158.520614h-6.3v-2.798246l.84-2.798245h4.62l.84 3.07807z" fill="#9b9b9b"/><path d="m13.02 156.561842h7.98v1.958772h-7.98z" fill="#9b9b9b"/><path d="m51.8 144.109649h-19.6v-3.217982l1.82-2.238597h9.1l6.58 1.399123c1.26.279825 2.1 1.399123 2.1 2.518421z" fill="#9b9b9b"/><path d="m31.5 142.710526h20.86v1.399123h-20.86z" fill="#9b9b9b"/></g></g></g></svg>