<svg enable-background="new 0 0 120 120" viewBox="0 0 120 120" xmlns="http://www.w3.org/2000/svg"><g fill="none" fill-rule="evenodd" transform="translate(.5 1.326389)"><path d="m110.955544 6.39167849h-89.2837591c-3.3955792 0-6.0920686 2.79635934-6.0920686 6.09206851v23.3695745c0 3.3955792 2.7963594 6.0920686 6.0920686 6.0920686h5.0933688v9.9869976l15.6795863-9.9869976h13.5823167l10.2866076 10.2866075 10.3864775-10.2866075h13.5823168l15.5797164 9.9869976v-9.9869976h5.093369c3.395579 0 6.092068-2.7963594 6.092068-6.0920686v-23.3695745c0-3.39557915-2.696489-6.09206851-6.092068-6.09206851z" fill="#bdc5d1" fill-rule="nonzero" opacity=".5"/><path d="m103.565165.59921986h-89.2837584c-3.3955792 0-6.09206854 2.79635934-6.09206854 6.09206856v23.36957448c0 3.3955792 2.79635934 6.0920685 6.09206854 6.0920685h5.0933688v9.9869977l15.6795863-9.9869977h13.5823168l10.2866076 10.3864776 10.2866075-10.2866076h13.5823168l15.6795863 9.9869977v-9.9869977h5.0933683c3.39558 0 6.092069-2.7963593 6.092069-6.0920685v-23.46944448c0-3.29570922-2.696489-6.09206856-6.092069-6.09206856z" fill="#377dff" fill-rule="nonzero"/><g stroke-linecap="round" stroke-linejoin="round" stroke-width="1.983333"><g transform="translate(73.903783 58.923286)"><g stroke="#bdc5d1"><path d="m31.3591726 15.7794563c.3994799-1.1984398.5992198-2.5966194.5992198-3.8949291 0-6.59141845-4.6938889-11.48504729-10.4863475-11.48504729s-10.4863475 4.89362884-10.4863475 11.48504729c0 1.3981797.19974 2.6964893.5992199 3.8949291-.7989599.4993498-1.3981797 1.4980496-1.3981797 2.5966194 0 1.3981796.8988298 2.5966193 2.1971395 2.9960992 1.4980496 4.494149 4.9934988 7.6899882 9.0881678 7.6899882s7.5901182-3.1958392 9.0881679-7.6899882c1.2983097-.3994799 2.1971394-1.4980496 2.1971394-2.9960992-.0998699-1.0985698-.5992198-1.9973996-1.3981796-2.5966194z"/><path d="m26.5654137 9.98699764-.4993499-2.59661939s-1.0985697 0-2.8962293 1.59791962c-3.6951891 3.39557923-7.8897281.69908984-7.8897281.69908984"/><path d="m30.5602128 34.8546217 9.9869976 4.1945391c1.8975296.8988297 2.5966194 2.7963593 2.5966194 4.6938888v.39948 6.7911583"/></g><path d="m21.5719149 36.3526714 3.7950591 4.394279 5.1932388-5.6925887-2.1971395-3.8949291" stroke="#377dff"/><path d="m12.483747 34.8546217-9.78725764 3.9947991c-.59921986.3994799-1.09856974.8988298-1.59791962 1.4980496-.69908983.8988298-.99869976 1.9973996-.99869976 3.1958393v7.3903782" stroke="#bdc5d1"/><path d="m21.5719149 36.3526714-3.8949291 4.394279-5.1932388-5.6925887 2.1971395-3.8949291" stroke="#377dff"/><path d="m28.3630733 31.1594326-6.7911584 5.1932388" stroke="#377dff"/><path d="m14.6808865 31.1594326 6.8910284 5.1932388" stroke="#377dff"/><path d="m43.1438298 50.9336879c-6.0920686 3.3955792-13.4824468 5.3929788-21.4720449 5.3929788s-15.37997639-1.9973996-21.47204495-5.3929788" stroke="#bdc5d1"/></g><g transform="translate(36.951891 51.932388)"><g stroke="#bdc5d1"><path d="m31.6587825 16.1789362c.3994799-1.1984397.5992199-2.5966194.5992199-3.8949291 0-6.59141845-4.6938889-11.48504729-10.4863476-11.48504729-5.7924586 0-10.4863475 4.89362884-10.4863475 11.48504729 0 1.3981797.19974 2.6964894.5992199 3.8949291-.7989598.4993499-1.3981797 1.4980496-1.3981797 2.5966194 0 1.3981796.8988298 2.5966193 2.1971395 2.9960992 1.4980496 4.494149 4.9934988 7.6899882 9.0881678 7.6899882 4.0946691 0 7.5901182-3.1958392 9.0881679-7.6899882 1.2983097-.3994799 2.1971395-1.4980496 2.1971395-2.9960992 0-1.0985698-.5992199-2.0972695-1.3981797-2.5966194z"/><path d="m26.9648936 10.3864775-.4993499-2.59661934s-1.0985697 0-2.8962293 1.59791962c-3.6951891 3.39557922-7.8897281.69908982-7.8897281.69908982"/><path d="m30.8598227 35.2541017 9.9869976 4.194539c1.8975296.8988297 2.5966194 2.7963593 2.5966194 4.6938889"/></g><path d="m21.8715248 36.7521513 3.8949291 4.294409 5.1932388-5.5927187-2.2970095-3.8949291" stroke="#377dff"/><path d="m12.883227 35.2541017-9.78725773 3.994799c-.59921986.3994799-1.09856974.8988298-1.59791962 1.4980497-.69908984.8988297-.99869977 1.9973995-.99869977 3.1958392" stroke="#bdc5d1"/><path d="m21.8715248 36.7521513-3.8949291 4.294409-5.1932387-5.5927187 2.2970094-3.8949291" stroke="#377dff"/><path d="m28.6626832 31.5589125-6.7911584 5.1932388" stroke="#377dff"/><path d="m15.0803664 31.5589125 6.7911584 5.1932388" stroke="#377dff"/><path d="m37.1516312 54.1295272c-4.5940189 1.5979196-9.7872577 2.4967494-15.1802364 2.4967494-5.4928487 0-10.5862175-.8988298-15.28010638-2.5966194" stroke="#bdc5d1"/></g><g transform="translate(0 58.923286)"><g stroke="#bdc5d1"><path d="m31.9583924 15.7794563c.3994799-1.1984398.5992199-2.5966194.5992199-3.8949291 0-6.59141845-4.6938889-11.48504729-10.4863475-11.48504729-5.7924587 0-10.4863475 4.89362884-10.4863475 11.48504729 0 1.3981797.1997399 2.6964893.5992198 3.8949291-.7989598.4993498-1.3981797 1.4980496-1.3981797 2.5966194 0 1.3981796.8988298 2.5966193 2.1971395 2.9960992 1.4980497 4.494149 4.9934988 7.6899882 9.0881679 7.6899882 4.094669 0 7.5901182-3.1958392 9.0881678-7.6899882 1.2983097-.3994799 2.1971395-1.4980496 2.1971395-2.9960992 0-1.0985698-.5992199-1.9973996-1.3981797-2.5966194z"/><path d="m27.2645035 9.98699764-.4993498-2.59661939s-1.0985698 0-2.8962294 1.59791962c-3.6951891 3.39557923-7.8897281.69908984-7.8897281.69908984"/><path d="m31.1594326 34.8546217 9.9869977 4.1945391c1.8975295.8988297 2.5966193 2.7963593 2.5966193 4.6938888v.39948 6.7911583"/></g><path d="m22.1711348 36.3526714 3.894929 4.394279 5.1932388-5.6925887-2.1971395-3.8949291" stroke="#377dff"/><path d="m13.1828369 34.8546217-9.7872577 3.9947991c-.59921986.3994799-1.09856974.8988298-1.59791963 1.4980496-.69908983.8988298-.99869976 1.9973996-.99869976 3.1958393v7.3903782" stroke="#bdc5d1"/><path d="m22.1711348 36.3526714-3.7950591 4.394279-5.1932388-5.6925887 2.1971395-3.8949291" stroke="#377dff"/><path d="m29.0621631 31.1594326-6.8910283 5.1932388" stroke="#377dff"/><path d="m15.3799764 31.1594326 6.7911584 5.1932388" stroke="#377dff"/><path d="m43.7430496 50.9336879c-6.0920685 3.3955792-13.4824468 5.3929788-21.4720449 5.3929788s-15.37997633-1.9973996-21.47204489-5.3929788" stroke="#bdc5d1"/></g><path d="m59.322766 7.09076832-11.1854374 16.67828608h10.2866076l-1.3981797 11.1854373 12.683487-16.977896h-11.2853073z" stroke="#fff"/><g opacity=".5" stroke="#fff"><g transform="translate(79.895981 11.984397)"><path d="m.59921986.59921986h15.08036644"/><path d="m.59921986 7.1906383h15.08036644"/><path d="m.59921986 13.7820567h6.19193853"/></g><g transform="translate(21.971395 11.984397)"><path d="m.29960993.59921986h15.08036647"/><path d="m.29960993 7.1906383h15.08036647"/><path d="m.29960993 13.7820567h6.19193853"/></g></g></g></g></svg>