<svg enable-background="new 0 0 120 120" viewBox="0 0 120 120" xmlns="http://www.w3.org/2000/svg"><g fill="none" transform="translate(.5 12.109756)"><path d="m94.1574439 55.8652756c0-2.1544079-.7664616-4.0399774-2.2996024-5.6562732l-44.436922-44.37509996c-1.5742829-1.57558903-3.6873311-2.91129146-6.3391445-4.00884878-2.6515957-1.097775-5.0761482-1.64677134-7.2721335-1.64677134h-25.85441894c-2.15419024 0-4.01929756.78779451-5.59314512 2.36142439-1.57493598 1.57450061-2.36207744 3.43917256-2.36207744 5.59401585v25.85441894c0 2.1959853.54834329 4.619014 1.64655366 7.2714805 1.09842805 2.6524664 2.4352189 4.7437463 4.00906646 6.2773225l44.43757498 44.4991793c1.5331409 1.5331408 3.3975951 2.2996024 5.5931451 2.2996024 2.1546257 0 4.0406305-.7664616 5.6562732-2.2996024l30.5160988-30.5779208c1.5322701-1.5335762 2.2987317-3.3967243 2.2987317-5.5929274zm-67.5454084-29.0756321c-1.8576147 1.8573544-4.0987738 2.7865521-6.7239978 2.7865521-2.6241832 0-4.8653424-.9291977-6.722957-2.7865521-1.8576147-1.8576147-2.7855113-4.0979932-2.7855113-6.722957 0-2.625224.9278966-4.8663831 2.7855113-6.722957 1.8576146-1.8576146 4.0987738-2.7868123 6.722957-2.7868123 2.625224 0 4.8663831.9291977 6.7239978 2.7868123 1.8565738 1.8565739 2.7860317 4.0979932 2.7860317 6.722957-.0002603 2.6249638-.9294579 4.8653423-2.7860317 6.722957z" fill="#bdc5d1"/><path d="m115.722856 50.2096555-44.4375749-44.37488233c-1.5738476-1.57558902-3.6873311-2.91129146-6.3393622-4.00906646-2.650725-1.09755732-5.0748421-1.64655366-7.2710451-1.64655366h-13.9214762c2.1959853 0 4.619667.54899634 7.2710451 1.64655366 2.6524664 1.09842805 4.7655146 2.43413049 6.3400152 4.00906646l44.4371401 44.37488233c1.533793 1.6158604 2.301126 3.5012122 2.301126 5.6556201 0 2.1962031-.767333 4.0591335-2.301126 5.5929274l-29.2110901 29.210872c1.244711 1.2843293 2.3420506 2.2164476 3.2941958 2.7965726.9534512.5803426 2.1759585.8702963 3.6666512.8702963 2.155714 0 4.0412835-.7664616 5.6554024-2.2996024l30.5160987-30.5779208c1.533794-1.5337939 2.301126-3.3967244 2.301126-5.5929274-.00087-2.1546256-.767332-4.0399774-2.301126-5.6558378z" fill="#2860DD"/></g></svg>