<svg enable-background="new 0 0 120 120" viewBox="0 0 120 120" xmlns="http://www.w3.org/2000/svg"><g fill="none" transform="translate(-.5 .5)"><path d="m37.4693966 36.0980345-26.894 26.894c-12.76787936 12.7678793-12.76787936 33.6585345 0 46.4243625 12.7678793 12.767879 33.6585344 12.767879 46.424362 0l26.894-26.8940004z" fill="#2860DD"/><path d="m83.9347931 82.4834138 26.4836549-26.4816035c12.765828-12.7678793 12.765828-33.6585344 0-46.42436202-12.767879-12.76787931-33.6585342-12.76787931-46.4243618 0l-26.4857069 26.47955172z" fill="#dee2e8"/><g fill="#fff" fill-opacity=".5"><path d="m46.2323103 44.780931-35.105 35.105c-1.2023103 1.2002587-1.2023103 3.1514483 0 4.3517069.6011552.6011552 1.3890173.9007069 2.1768794.9007069.787862 0 1.5757241-.2995517 2.1768793-.9007069l35.105-35.105z"/><path d="m50.5799138 49.1346897 32.606-32.6039483c1.2023103-1.2002586 1.2023103-3.1514483 0-4.3517069-1.2023104-1.2023104-3.1493966-1.2023104-4.3517069 0l-32.606 32.6039483z"/></g></g></svg>