<svg width="160" height="160" xmlns="http://www.w3.org/2000/svg">
  <g fill="none" fill-rule="evenodd">
    <g stroke-width="3.357">
      <circle stroke="#EFEFF2" cx="80" cy="80" r="78.322"/>
      <circle stroke="#EFEFF2" cx="80" cy="80" r="59.86"/>
      <circle stroke="#FFF" fill="#8EBCE3" cx="10.35" cy="114.965" r="8.671"/>
    </g>
    <path d="M80 58.854c5.638 0 10.208 4.57 10.208 10.209 0 5.637-4.57 10.208-10.208 10.208S69.792 74.7 69.792 69.062c0-5.637 4.57-10.208 10.208-10.208zm-20.417 7.292a8.61 8.61 0 014.463 1.225 16.147 16.147 0 003.296 11.55c-1.459 2.8-4.375 4.725-7.759 4.725a8.75 8.75 0 010-17.5zm40.834 0a8.75 8.75 0 010 17.5c-3.384 0-6.3-1.925-7.759-4.725a16.147 16.147 0 003.296-11.55 8.61 8.61 0 014.463-1.225zM61.042 96.042c0-6.038 8.487-10.938 18.958-10.938 10.47 0 18.958 4.9 18.958 10.938v5.104H61.042v-5.104zM45 101.146V96.77c0-4.054 5.513-7.467 12.98-8.459-1.722 1.984-2.772 4.725-2.772 7.73v5.104H45zm70 0h-10.208v-5.104c0-3.005-1.05-5.746-2.771-7.73 7.466.992 12.979 4.405 12.979 8.459v4.375z" fill="#8EBCE3" fill-rule="nonzero"/>
  </g>
</svg>
