<svg enable-background="new 0 0 120 120" viewBox="0 0 120 120" xml:space="preserve" xmlns="http://www.w3.org/2000/svg"><g fill="none" fill-rule="evenodd" transform="translate(.5 .5)"><rect height="114.041667" rx="5.95" stroke="#d0d6de" stroke-width="3.966667" width="114.041667" x="1.983333" y="1.983333"/><path d="m80.6359341 44.1499307h22.2799829c1.597407 0 2.892361 1.2949542 2.892361 2.8923611 0 1.597407-1.294954 2.8923612-2.892361 2.8923612h-28.9236115c-1.5974069 0-2.8923611-1.2949542-2.8923611-2.8923612v-28.9236111c0-1.5974069 1.2949542-2.8923611 2.8923611-2.8923611 1.597407 0 2.8923611 1.2949542 2.8923611 2.8923611v21.5766715l32.6561354-35.06463398c1.129537-1.12953728 2.960879-1.12953728 4.090416 0 1.129538 1.12953727 1.129538 2.96087903 0 4.09041631z" fill="#d0d6de" fill-rule="nonzero"/><g fill="#2860DD" font-family="Barlow-SemiBold, Barlow SemiBold" font-weight="500"><text font-size="59.5">                 <tspan x="10.908333" y="102.641667">2</tspan>             </text><text font-size="24.791667">                 <tspan x="43.633333" y="102.35">mb</tspan>             </text></g></g></svg>