<svg enable-background="new 0 0 120 120" viewBox="0 0 120 120" xmlns="http://www.w3.org/2000/svg"><g fill="none"><g transform="translate(27.370968 27.370968)"><path d="m32.6290323 0c16.3720967 0 29.9246612 12.1303226 32.2413225 27.8690323l-3.7830483.6295483c-2.0114839-13.9210806-13.9882581-24.65987092-28.4582742-24.65987092-.0978871 0-.1938549.01343548-.291742.01535484l-.6333871-3.80608065c.3109355-.00959677.6122742-.04798387.9251291-.04798387z" fill="#bdc5d1"/><path d="m32.6290323 7.67741935c13.7579354 0 24.9516129 11.19367745 24.9516129 24.95161295 0 13.7579354-11.1936775 24.9516129-24.9516129 24.9516129-13.7579355 0-24.95161295-11.1936775-24.95161295-24.9516129 0-13.7579355 11.19367745-24.95161295 24.95161295-24.95161295z" fill="#3a96e2"/><g fill="#bdc5d1"><path d="m0 32.6290323c0-16.3720968 12.1303226-29.92466133 27.8690323-32.24132262l.6295483 3.78304838c-13.9210806 2.01148388-24.65987092 13.98825804-24.65987092 28.45827424 0 .0978871.01343548.1938548.01535484.2917419l-3.80608065.6333871c-.00959677-.3109355-.04798387-.6122742-.04798387-.925129z"/><path d="m32.6290323 65.2580645c-16.3720968 0-29.92466133-12.1303226-32.24132262-27.8690322l3.78304838-.6295484c2.01148388 13.9210806 13.98825804 24.6598709 28.45827424 24.6598709 15.8749838 0 28.7903225-12.9153387 28.7903225-28.7903225 0-.0978871-.0134354-.1938549-.0153548-.291742l3.8060806-.6333871c.0095968.3109355.0479839.6122742.0479839.9251291 0 17.9920322-14.637 32.6290322-32.6290322 32.6290322z"/><path d="m53.6075806 62.4097419c3.4126129-2.4107096 6.3914517-5.3895484 8.8021613-8.8021613l3.0133871 3.0133871-8.8021613 8.8021613z"/><path d="m82.0677742 88.2903226c-1.6621613 0-3.2264355-.6468226-4.4010807-1.8214678l-18.331758-18.331758 8.8021613-8.8021613 18.331758 18.331758c1.1746452 1.1746452 1.8214678 2.7389194 1.8214678 4.4010807 0 3.4318064-2.790742 6.2225484-6.2225484 6.2225484z"/></g></g><g transform="translate(84.951613 .5)"><path d="m17.2741935 34.5483871c9.5257581 0 17.2741936-7.7484355 17.2741936-17.2741936 0-9.52575802-7.7484355-17.2741935-17.2741936-17.2741935-9.52575802 0-17.2741935 7.74843548-17.2741935 17.2741935 0 9.5257581 7.74843548 17.2741936 17.2741935 17.2741936z" fill="#bdc5d1"/><path d="m17.2741935 30.7096774c7.408923 0 13.4354839-6.0265609 13.4354839-13.4354839 0-7.40892289-6.0265609-13.43548382-13.4354839-13.43548382-7.40892289 0-13.43548382 6.02656093-13.43548382 13.43548382 0 7.408923 6.02656093 13.4354839 13.43548382 13.4354839z" fill="#3a96e2"/><g fill="#fff"><path d="m23.0322581 29.3949194c-1.7485323.833-3.6966775 1.314758-5.7580646 1.314758-2.061387 0-4.0095322-.481758-5.7580645-1.314758v-2.5239517c0-3.1746129 2.5834516-5.7580645 5.7580645-5.7580645 3.174613 0 5.7580646 2.5834516 5.7580646 5.7580645z"/><path d="m13.4354839 13.4354839c0-2.1170484 1.7216613-3.83870971 3.8387096-3.83870971 2.1170484 0 3.8387097 1.72166131 3.8387097 3.83870971s-1.7216613 3.8387096-3.8387097 3.8387096c-2.1170483 0-3.8387096-1.7216612-3.8387096-3.8387096z"/><path d="m17.2741935 3.83870968c7.4067904 0 13.4354839 6.02869355 13.4354839 13.43548382 0 3.6602097-1.4759839 6.9787742-3.8579032 9.4048388-.0652581-3.2264355-1.7139839-6.0728388-4.2149032-7.7637904 1.4241613-1.3934516 2.3147419-3.332 2.3147419-5.479758 0-4.2340968-3.4433226-7.67741938-7.6774194-7.67741938-4.2340967 0-7.67741931 3.44332258-7.67741931 7.67741938 0 2.147758.89058061 4.0863064 2.31474191 5.479758-2.50283868 1.692871-4.15156449 4.5373549-4.2149032 7.7637904-2.38191935-2.4260646-3.85790322-5.7446291-3.85790322-9.4048388 0-7.40679027 6.02869355-13.43548382 13.43548382-13.43548382z"/></g></g><g transform="translate(.5 .5)"><path d="m17.2741935 34.5483871c9.5257581 0 17.2741936-7.7484355 17.2741936-17.2741936 0-9.52575802-7.7484355-17.2741935-17.2741936-17.2741935-9.52575802 0-17.2741935 7.74843548-17.2741935 17.2741935 0 9.5257581 7.74843548 17.2741936 17.2741935 17.2741936z" fill="#bdc5d1"/><path d="m17.2741935 30.7096774c7.408923 0 13.4354839-6.0265609 13.4354839-13.4354839 0-7.40892289-6.0265609-13.43548382-13.4354839-13.43548382-7.40892289 0-13.43548382 6.02656093-13.43548382 13.43548382 0 7.408923 6.02656093 13.4354839 13.43548382 13.4354839z" fill="#3a96e2"/><g fill="#fff"><path d="m23.0322581 29.3949194c-1.7485323.833-3.6966775 1.314758-5.7580646 1.314758-2.061387 0-4.0095322-.481758-5.7580645-1.314758v-2.5239517c0-3.1746129 2.5834516-5.7580645 5.7580645-5.7580645 3.174613 0 5.7580646 2.5834516 5.7580646 5.7580645z"/><path d="m13.4354839 13.4354839c0-2.1170484 1.7216613-3.83870971 3.8387096-3.83870971 2.1170484 0 3.8387097 1.72166131 3.8387097 3.83870971s-1.7216613 3.8387096-3.8387097 3.8387096c-2.1170483 0-3.8387096-1.7216612-3.8387096-3.8387096z"/><path d="m17.2741935 3.83870968c7.4067904 0 13.4354839 6.02869355 13.4354839 13.43548382 0 3.6602097-1.4759839 6.9787742-3.8579032 9.4048388-.0652581-3.2264355-1.7139839-6.0728388-4.2149032-7.7637904 1.4241613-1.3934516 2.3147419-3.332 2.3147419-5.479758 0-4.2340968-3.4433226-7.67741938-7.6774194-7.67741938-4.2340967 0-7.67741931 3.44332258-7.67741931 7.67741938 0 2.147758.89058061 4.0863064 2.31474191 5.479758-2.50091933 1.692871-4.14964513 4.5373549-4.2149032 7.7637904-2.38191935-2.4260646-3.85790322-5.7446291-3.85790322-9.4048388 0-7.40679027 6.02869355-13.43548382 13.43548382-13.43548382z"/></g></g><g transform="translate(.5 84.951613)"><path d="m17.2741935 0c-9.52575802 0-17.2741935 7.74843548-17.2741935 17.2741935 0 9.5257581 7.74843548 17.2741936 17.2741935 17.2741936 9.5257581 0 17.2741936-7.7484355 17.2741936-17.2741936 0-9.52575802-7.7484355-17.2741935-17.2741936-17.2741935z" fill="#bdc5d1"/><path d="m17.2741935 3.83870968c-7.40892289 0-13.43548382 6.02656093-13.43548382 13.43548382 0 7.408923 6.02656093 13.4354839 13.43548382 13.4354839 7.408923 0 13.4354839-6.0265609 13.4354839-13.4354839 0-7.40892289-6.0265609-13.43548382-13.4354839-13.43548382z" fill="#3a96e2"/><g fill="#fff"><path d="m23.0322581 29.3949194c-1.7485323.833-3.6966775 1.314758-5.7580646 1.314758-2.061387 0-4.0095322-.481758-5.7580645-1.314758v-2.5239517c0-3.1746129 2.5834516-5.7580645 5.7580645-5.7580645 3.174613 0 5.7580646 2.5834516 5.7580646 5.7580645z"/><path d="m13.4354839 13.4354839c0-2.1170484 1.7216613-3.83870971 3.8387096-3.83870971 2.1170484 0 3.8387097 1.72166131 3.8387097 3.83870971s-1.7216613 3.8387096-3.8387097 3.8387096c-2.1170483 0-3.8387096-1.7216612-3.8387096-3.8387096z"/><path d="m26.8517742 26.6790323c-.0652581-3.2264355-1.7139839-6.0728388-4.2149032-7.7637904 1.4241613-1.3934516 2.3147419-3.332 2.3147419-5.479758 0-4.2340968-3.4433226-7.67741938-7.6774194-7.67741938-4.2340967 0-7.67741931 3.44332258-7.67741931 7.67741938 0 2.147758.89058061 4.0863064 2.31474191 5.479758-2.50091933 1.692871-4.14964513 4.5373549-4.2149032 7.7637904-2.38191935-2.4260646-3.85790322-5.7446291-3.85790322-9.4048388 0-7.40679027 6.02869355-13.43548382 13.43548382-13.43548382 7.4067904 0 13.4354839 6.02869355 13.4354839 13.43548382 0 3.6602097-1.4759839 6.9787742-3.8579032 9.4048388z"/></g></g></g></svg>