<svg enable-background="new 0 0 120 120" viewBox="0 0 120 120" xml:space="preserve" xmlns="http://www.w3.org/2000/svg"><g fill="none" fill-rule="evenodd" transform="translate(1 .5)"><g fill-rule="nonzero"><path d="m3.71185103 107.722564h110.33330697c1.991573 0 3.606061 1.614488 3.606061 3.606061v3.715334c0 1.991573-1.614488 3.606061-3.606061 3.606061h-110.33330697c-1.99157229 0-3.60606061-1.614488-3.60606061-3.606061v-3.715334c0-1.991573 1.61448832-3.606061 3.60606061-3.606061z" fill="#e5e8ed"/><g fill="#2860DD" transform="translate(15.127119 41.347458)"><path d="m53.5593546.423426h5.7603305c.9957862 0 1.8030304.80724417 1.8030304 1.80303032v55.83505048c0 .9957862-.8072442 1.8030305-1.8030304 1.8030305h-5.7603305c-.9957861 0-1.8030303-.8072443-1.8030303-1.8030305v-55.83505048c0-.99578615.8072442-1.80303032 1.8030303-1.80303032z"/><path d="m28.1830865.423426h5.7603305c.9957861 0 1.8030303.80724417 1.8030303 1.80303032v55.83505048c0 .9957862-.8072442 1.8030305-1.8030303 1.8030305h-5.7603305c-.9957862 0-1.8030304-.8072443-1.8030304-1.8030305v-55.83505048c0-.99578615.8072442-1.80303032 1.8030304-1.80303032z"/><path d="m2.80681831.423426h5.76033054c.99578615 0 1.80303035.80724417 1.80303035 1.80303032v55.83505048c0 .9957862-.8072442 1.8030305-1.80303035 1.8030305h-5.76033054c-.99578615 0-1.80303032-.8072443-1.80303032-1.8030305v-55.83505048c0-.99578615.80724417-1.80303032 1.80303032-1.80303032z"/><path d="m78.9356228.423426h5.7603309c.995786 0 1.8030295.80724417 1.8030295 1.80303032v55.83505048c0 .9957862-.8072435 1.8030305-1.8030295 1.8030305h-5.7603309c-.9957862 0-1.8030304-.8072443-1.8030304-1.8030305v-55.83505048c0-.99578615.8072442-1.80303032 1.8030304-1.80303032z"/></g><path d="m1.93502936 33.1423791h113.88702464c.663856 0 1.20202-.5381628 1.20202-1.2020202 0-.4420292-.242609-.8483932-.631719-1.0581152l-54.6623023-29.46185402c-1.7799687-.95936641-3.9230542-.95936641-5.7030229 0l-54.66230274 29.46185402c-.58438091.3149692-.8027822 1.0440366-.48781294 1.6284174.2097221.3891098.61608616.631718 1.05811524.631718z" fill="#e5e8ed"/><circle cx="58.878353" cy="18.148285" fill="#fff" r="12.269037"/></g><text fill="#2860DD" font-family="Barlow-SemiBold, Barlow SemiBold" font-size="22.186441" font-weight="500">                 <tspan x="52.588497" y="25.811453">$</tspan>             </text></g></svg>