<svg width="161" height="160" xmlns="http://www.w3.org/2000/svg">
  <g fill="none" fill-rule="evenodd">
    <g transform="translate(.5)" stroke-width="3.357">
      <circle stroke="#EFEFF2" cx="80" cy="80" r="78.322"/>
      <circle stroke="#EFEFF2" cx="80" cy="80" r="59.86"/>
      <circle stroke="#FFF" fill="#B5ADE0" cx="10.35" cy="114.965" r="8.671"/>
    </g>
    <path d="M105.955 51.364H95.773C94.5 47.545 91 45 86.863 45c-4.136 0-7.636 2.545-8.908 6.364H67.773c-3.5 0-6.364 2.863-6.364 6.363V95.91c0 3.5 2.864 6.364 6.364 6.364h38.182c3.5 0 6.363-2.864 6.363-6.364V57.727c0-3.5-2.863-6.363-6.363-6.363m-19.091 0c1.909 0 3.181 1.59 3.181 3.181s-1.59 3.182-3.181 3.182-3.182-1.59-3.182-3.182c0-1.59 1.273-3.181 3.182-3.181m6.363 35H70.955V80h22.272m9.546-6.364H70.955v-6.363h31.818m-47.728 41.363h44.546V115H55.045c-3.5 0-6.363-2.864-6.363-6.364V64.091h6.363" fill="#B5ADE0" fill-rule="nonzero"/>
  </g>
</svg>
