<svg height="59" viewBox="0 0 60 59" width="60" xmlns="http://www.w3.org/2000/svg"><g fill="none" fill-rule="evenodd" transform="translate(2 2)"><circle cx="38.386325" cy="43.220513" fill="#bdc5d1" fill-rule="nonzero" opacity=".5" r="13.018803"/><circle cx="33.6" cy="39.152137" fill="#2860DD" fill-rule="nonzero" r="13.018803"/><path d="m35.6102564 38.7213675c.6222222.191453 1.1008547.5264957 1.5316239.957265.4307693.4786325.7179488 1.0051282.8615385 1.5794872.1435897.5743589.0957265 1.2444444-.0957265 1.8666666-.2393162.6700855-.6700855 1.2444445-1.2923077 1.6273505-.6222222.3829059-1.2923077.6222222-2.0102564.6222222v1.4837607c0 .1435897-.0478632.2871794-.1435897.3350427-.0957265.0478632-.191453.1435897-.3350428.1435897h-1.0051282c-.1435897 0-.2871795-.0478632-.3350427-.1435897-.0478633-.0957265-.1435898-.191453-.1435898-.3350427v-1.4837607c-1.0051282 0-1.9145299-.2871795-2.6803418-.9094017-.0957265-.0957265-.1435898-.2393163-.191453-.382906 0-.1435898.0478632-.2871795.1435897-.382906l1.0529915-1.0529915c.0957265-.0478632.191453-.0957264.2871795-.1435897.0957265 0 .2393162 0 .3350427.0957265.2871795.191453.6700855.2871795 1.0529914.2871795h2.0581197c.2393162 0 .4786325-.0957265.6222222-.2871795.191453-.191453.2871795-.382906.2871795-.6700855 0-.191453-.0478632-.382906-.191453-.5264957-.1435897-.1435897-.2871795-.2871795-.4786325-.3350427l-3.2068376-.8615385c-.7179487-.191453-1.2923077-.574359-1.7709401-1.1008547-.4786325-.5264957-.765812-1.1487179-.8615385-1.8666667-.0478632-.6700854.0957265-1.2923077.382906-1.8666666.2871795-.574359.7179487-1.0051282 1.2444444-1.3880342.5264958-.3350428 1.148718-.5264957 1.8188034-.5264957h.0478633v-1.4837607c0-.1435898.0478632-.2871795.1435897-.3350428.0957265-.0478632.191453-.1435897.3350428-.1435897h1.0051282c.1435897 0 .2871795.0478632.3350427.1435897.0478633.0957265.1435898.191453.1435898.3350428v1.4837607c1.0051282 0 1.8666666.2871794 2.6803418.9094017.1435898.0957265.191453.2393162.2393163.3829059 0 .1435898-.0478633.2871795-.1435898.382906l-1.0529914 1.1008547c-.0957265.0478633-.191453.0957265-.2871795.1435898-.0957265 0-.2393162 0-.3350427-.0478633-.2871795-.2393162-.6700855-.3350427-1.0529915-.3350427h-2.0581197c-.2393162 0-.4786324.0957265-.6222222.2871795-.191453.191453-.2871795.382906-.2871795.6700855 0 .1914529.0478633.3829059.191453.5264957.1435898.1435897.2871795.2871795.4786325.3350427z" fill="#fff" fill-rule="nonzero"/><g stroke-linecap="round" stroke-linejoin="round" stroke-width="3"><path d="m17.4222222 38.1470085h-14.98119656c-1.29230769 0-2.39316239-1.0529914-2.39316239-2.3931623v-33.12136757c0-1.29230769 1.05299145-2.39316239 2.39316239-2.39316239h50.73504276c1.2923077 0 2.3931624 1.05299145 2.3931624 2.39316239v33.12136757c0 1.2923076-1.0529915 2.3931623-2.3931624 2.3931623" stroke="#bdc5d1"/><circle cx="15.938462" cy="5.073504" opacity=".5" r="1.483761" stroke="#bdc5d1"/><circle cx="10.338462" cy="5.073504" opacity=".5" r="1.483761" stroke="#bdc5d1"/><circle cx="4.786325" cy="5.073504" r="1.483761" stroke="#2860DD"/><path d="m6.07863248 29.5794872 13.68888892-7.5145299 2.5367521 2.7760683 10.817094-6.6051282 3.4940171 4.0205129 15.2683761-12.87521372" stroke="#2860DD"/><path d="m47.5282051 10.3384615 4.3555556-.95726492-1.4358975 4.11623932" stroke="#2860DD"/><path d="m39.008547 15.6991453v-8.37606838h2.7760684v5.88717948" opacity=".5" stroke="#bdc5d1"/><path d="m28.1435897 17.7094017v-7.3709402h2.7282052v5.3606838" opacity=".5" stroke="#bdc5d1"/><path d="m22.6871795 20.7726496v-4.3555556h2.7282051v2.8239316" opacity=".5" stroke="#bdc5d1"/><path d="m17.2307692 19.7675214v-5.408547h2.7282052v3.876923" opacity=".5" stroke="#bdc5d1"/><path d="m11.774359 22.782906v-3.8290598h2.7282051v2.2974359" opacity=".5" stroke="#bdc5d1"/><path d="m33.6 15.1247863v-2.7760684h2.7282051v4.8341881" opacity=".5" stroke="#bdc5d1"/></g></g></svg>