<svg height="56" viewBox="0 0 59 56" width="59" xmlns="http://www.w3.org/2000/svg"><g fill="none" fill-rule="evenodd" transform="translate(2)"><g stroke-linecap="round" stroke-linejoin="round" stroke-width="3"><path d="m32.7669492 35.470339h12.2584745l1.3983051 3.3559322h-15.1016949z" stroke="#bdc5d1"/><g opacity=".5" stroke="#bdc5d1" transform="translate(0 7.457627)"><path d="m42.4152542.18644068h5.6398305c1.4449153 0 2.5635594 1.16525424 2.5635594 2.56355932v29.9237288"/><path d="m23.0254237 36.6822034h-20.18220336c-1.44491526 0-2.56355932-1.1652542-2.56355932-2.5635593v-31.3686441c0-1.44491525 1.16525423-2.56355932 2.56355932-2.56355932h17.85169496"/><path d="m.23305085 28.8050847h30.15677965"/><path d="m47.0762712 28.8050847h3.2627119"/><path d="m1.86440678.32627119-1.49152542 7.08474576" transform="translate(17.245763 36.355932)"/><path d="m23.0254237 43.7669492h-10.5338983"/></g><g transform="translate(3.728814 12.584746)"><path d="m15.6144068 7.59745763c.1864407-.60593221.279661-1.25847458.279661-1.95762712 0-3.2161017-2.3305085-5.59322034-5.1737288-5.59322034-2.84322036 0-5.12711866 2.42372881-5.12711866 5.63983051 0 .69915254.09322034 1.35169491.27966102 1.95762712-.41949153.27966101-.65254238.74576271-.65254238 1.25847457 0 .69915255.4661017 1.25847453 1.0720339 1.44491523.74576271 2.190678 2.47033898 3.7754238 4.47457632 3.7754238 2.0042372 0 3.7288135-1.5381356 4.4745762-3.7754238.6059322-.2330508 1.0720339-.79237285 1.0720339-1.4915254 0-.51271186-.279661-.97881356-.6991525-1.25847457z" stroke="#bdc5d1"/><path d="m14.3559322 5.40677966c-.1398305-.6059322-.559322-.6059322-1.0720339-.6059322-.1864407 0-.279661-1.35169492-.279661-1.35169492s-.559322 0-1.4915254.83898305c-1.95762715 1.72457627-4.10169495.37288136-4.10169495.37288136" stroke="#bdc5d1"/><g transform="translate(0 14.449153)"><path d="m15.2415254 1.91101695 4.8940678 2.05084746c.8855932.46610169 1.2584746 1.35169491 1.2584746 2.2838983v.18644068 2.61016949" stroke="#bdc5d1"/><path d="m10.8135593 2.61016949 1.911017 2.1440678 2.5635593-2.75-1.1186441-1.91101695" stroke="#2860DD"/><path d="m6.38559322 1.91101695-4.80084746 1.95762712c-.32627118.18644068-.55932203.41949152-.74576271.69915254-.32627119.4661017-.51271186.97881356-.51271186 1.58474576v2.88983051" stroke="#bdc5d1"/><g stroke="#2860DD"><path d="m10.8135593 2.61016949-1.86440676 2.1440678-2.56355932-2.75 1.0720339-1.91101695"/><path d="m14.1694915.09322034-3.3559322 2.51694915"/><path d="m7.45762712.09322034 3.35593218 2.51694915"/></g></g></g><path d="m28.9449153 50.2457627v3.8220339" stroke="#bdc5d1"/><path d="m49.2669492 50.2457627v3.8220339" stroke="#bdc5d1"/><g stroke="#bdc5d1" transform="translate(22.838983 13.983051)"><path d="m18.7838983 21.4872881v-.9788135c1.7245763-.9322034 3.0762712-2.7033899 3.8220339-4.8940678.9322034-.279661 1.6313559-1.1186441 1.6313559-2.190678 0-.7923729-.4194915-1.4915254-.9788135-1.9110169.279661-.9322034.4661017-1.91101698.4661017-2.88983054 0-4.84745763-3.4957627-8.43644068-7.7838983-8.43644068s-7.78389834 3.63559322-7.78389834 8.43644068c0 1.02542372.13983051 2.00423724.4661017 2.88983054-.60593221.4194915-.97881356 1.118644-.97881356 1.9110169 0 1.0254237.69915254 1.911017 1.63135593 2.190678.74576267 2.1906779 2.09745767 3.9618644 3.82203387 4.8940678v.9788135"/><path d="m31.9279661 40.0847458v-9.2288136-.279661c0-1.3983051-.559322-2.75-1.9110169-3.4491526l-6.3855933-2.3305084v.0466101"/><path d="m8.57627119 24.6567797-6.47881356 2.3305084c-.4661017.2796611-.83898305.6525424-1.16525424 1.0720339-.46610169.6991526-.74576271 1.4915255-.74576271 2.3771187v9.6483051"/></g><path d="m44.8855932 45.7711864-5.3135593 5.3135594" opacity=".5" stroke="#bdc5d1"/><path d="m44.279661 49.6398305-1.7711864 1.7711864" opacity=".5" stroke="#bdc5d1"/><path d="m46.0974576 25.5423729c-.559322 1.6313559-2.2372881 3.1228813-3.2627118 3.9152542-.1398305.0932204-1.1186441-1.1652542-1.1186441-1.1652542s-.6059322 2.2372881-.9322034 2.3305085c-2.9830508 1.118644-6.6652542-.2796611-9.3686441-5.1271187" stroke="#bdc5d1"/></g><g transform="translate(17.711864)"><path d="m22.4661017 2.56355932h-17.71186441c-1.11864407 0-2.00423729.88559322-2.00423729 2.00423729v6.66525419c0 1.1186441.88559322 2.0042373 2.00423729 2.0042373h1.6779661v3.2627119l5.17372881-3.2627119h10.8601695c1.1186441 0 2.0042373-.8855932 2.0042373-2.0042373v-6.66525419c0-1.11864407-.8855932-2.00423729-2.0042373-2.00423729z" fill="#bdc5d1" fill-rule="nonzero" opacity=".5"/><path d="m19.7627119 0h-17.71186444c-1.11864407 0-2.00423729.88559322-2.00423729 2.00423729v6.66525424c0 1.11864406.88559322 2.00423727 2.00423729 2.00423727h1.6779661v3.2627119l5.17372881-3.2627119h10.86016953c1.118644 0 2.0042373-.88559321 2.0042373-2.00423727v-6.66525424c0-1.11864407-.8855933-2.00423729-2.0042373-2.00423729z" fill="#2860DD" fill-rule="nonzero"/><g stroke="#fff" stroke-linecap="round" stroke-linejoin="round" stroke-width="3" transform="translate(5.127119 3.262712)"><path d="m11.1398305.6059322h-10.72033897"/><path d="m2.88983051 3.49576271h-2.47033898"/></g></g></g></svg>