<svg enable-background="new 0 0 120 120" viewBox="0 0 120 120" xmlns="http://www.w3.org/2000/svg"><g fill="none" fill-rule="evenodd" transform="translate(13.541096 .5)"><g fill="#bdc5d1"><path d="m83.332602 14.671233h9.291781v104.328767h-9.291781z" opacity=".5"/><path d="m81.5553076 119h-72.06523544c-5.23931067 0-9.49007216-4.264167-9.49007216-9.52v-97.3816667c0-6.64416663 5.43702051-12.0983333 12.0603-12.0983333h69.5938625c.7908394 0 1.4828238.69416667 1.4828238 1.4875v99.860833c0 .793334-.6919844 1.4875-1.4828238 1.4875h-72.16409034c-3.55877706 0-6.52442461 2.975-6.52442461 6.644167s2.86679263 6.545 6.52442461 6.545h72.06523544c.7908394 0 1.4828238.694167 1.4828238 1.4875s-.6919844 1.4875-1.4828238 1.4875zm-69.4950076-116.025c-5.0416008 0-9.09465245 4.06583333-9.09465245 9.1233333v90.4399997c1.68053361-1.586666 3.95419673-2.6774997 6.52442461-2.6774997h70.68126664v-96.8858333z" fill-rule="nonzero"/><path d="m81.6520437 107.589041h-70.3862792c-.7919694 0-1.48494258-.76073-1.48494258-1.630137 0-.869406.69297318-1.630137 1.48494258-1.630137h70.3862792c.7919694 0 1.4849426.760731 1.4849426 1.630137 0 .869407-.6929732 1.630137-1.4849426 1.630137z"/><path d="m81.6520437 114.109589h-70.3862792c-.7919694 0-1.48494258-.760731-1.48494258-1.630137s.69297318-1.630137 1.48494258-1.630137h70.3862792c.7919694 0 1.4849426.760731 1.4849426 1.630137s-.6929732 1.630137-1.4849426 1.630137z"/></g><path d="m16.30137 13.041096h53.794521v78.246575h-53.794521z" fill="#377dff"/><path d="m49.0178401 39.1232877h-10.0082829c-.8087501 0-1.5164065-.7607306-1.5164065-1.630137s.7076564-1.630137 1.5164065-1.630137h10.0082829c.8087501 0 1.5164065.7607306 1.5164065 1.630137s-.7076564 1.630137-1.5164065 1.630137z" fill="#fff"/><path d="m57.2418594 47.2739726h-26.4563216c-.7696384 0-1.443072-.7607306-1.443072-1.630137s.6734336-1.630137 1.443072-1.630137h26.4563216c.7696385 0 1.4430721.7607306 1.4430721 1.630137s-.6734336 1.630137-1.4430721 1.630137z" fill="#fff"/><path d="m57.2418594 55.4246575h-26.4563216c-.7696384 0-1.443072-.7607306-1.443072-1.630137 0-.8694063.6734336-1.6301369 1.443072-1.6301369h26.4563216c.7696385 0 1.4430721.7607306 1.4430721 1.6301369 0 .8694064-.6734336 1.630137-1.4430721 1.630137z" fill="#fff"/><path d="m57.2418594 63.5753425h-26.4563216c-.7696384 0-1.443072-.7607306-1.443072-1.630137s.6734336-1.630137 1.443072-1.630137h26.4563216c.7696385 0 1.4430721.7607306 1.4430721 1.630137s-.6734336 1.630137-1.4430721 1.630137z" fill="#fff"/></g></svg>