<svg enable-background="new 0 0 120 120" viewBox="0 0 120 120" xmlns="http://www.w3.org/2000/svg"><g fill="none" fill-rule="evenodd" transform="translate(.5 19.782407)"><path d="m25.783333 62.238356h67.433333v9.559328h-67.433333z" stroke="#bdc5d1" stroke-width="3.966667"/><rect height="7.933333" rx="1.983333" stroke="#dee2e8" stroke-width="3.966667" width="7.933333" x="31.733333" y="7.933333"/><rect fill="#dee2e8" height="11.9" rx="2.975" width="119" y="67.831017"/><rect fill="#dee2e8" height="51.566667" rx="25.783333" width="119" y="13.883333"/><circle cx="59.5" cy="39.666667" fill="#fff" r="17.85"/><circle cx="59.5" cy="39.666667" r="20.384259" stroke="#377dff" stroke-width=".991667"/><path d="m59.5 51.5666667c4.3811523 0 7.9333333-3.552181 7.9333333-7.9333334 0-3.6219075-5.1568603-13.0088459-6.2037273-14.8556315-.3815591-.58396-1.031372-.9364665-1.729606-.9364665s-1.3480469.3525065-1.729606.9364665c-1.0371827 1.8467856-6.2037273 11.233724-6.2037273 14.8556315 0 4.3811524 3.552181 7.9333334 7.9333333 7.9333334z" fill="#377dff" fill-rule="nonzero"/><rect fill="#bdc5d1" height="9.916667" rx="1.983333" width="15.866667" x="27.766667"/></g></svg>