<svg enable-background="new 0 0 120 120" viewBox="0 0 120 120" xmlns="http://www.w3.org/2000/svg" xmlns:xlink="http://www.w3.org/1999/xlink"><defs><path id="a" d="m114.896552 59.0896552h-16.4137934v19.6965517l-6.5655172-4.3701724-6.5655173 4.3701724v-19.6965517h-16.4137931c-1.8055172 0-3.2827586 1.4772414-3.2827586 3.2827586v39.3931032c0 1.805517 1.4772414 3.282759 3.2827586 3.282759h45.958621c1.805517 0 3.282758-1.477242 3.282758-3.282759v-39.3931032c0-1.8055172-1.477241-3.2827586-3.282758-3.2827586zm-78.7862072-13.1310345h45.9586207c1.8055173 0 3.2827586-1.4772414 3.2827586-3.2827586v-39.39310348c0-1.80551724-1.4772413-3.28275862-3.2827586-3.28275862h-16.4137931v19.6965517l-6.5655172-4.3701724-6.5655173 4.3701724v-19.6965517h-16.4137931c-1.8055172 0-3.2827586 1.47724138-3.2827586 3.28275862v39.39310348c0 1.8055172 1.4772414 3.2827586 3.2827586 3.2827586zm13.1310345 13.1310345h-16.4137931v19.6965517l-6.5655172-4.3701724-6.5655173 4.3701724v-19.6965517h-16.41379308c-1.80551724 0-3.28275862 1.4772414-3.28275862 3.2827586v39.3931032c0 1.805517 1.47724138 3.282759 3.28275862 3.282759h45.95862068c1.8055173 0 3.2827586-1.477242 3.2827586-3.282759v-39.3931032c0-1.8055172-1.4772413-3.2827586-3.2827586-3.2827586z"/><mask id="b" fill="#fff"><use fill="#fff" fill-rule="evenodd" xlink:href="#a"/></mask></defs><g fill="none" fill-rule="evenodd" transform="translate(.5 7.33908)"><use fill="#bdc5d1" fill-rule="nonzero" xlink:href="#a"/><path d="m31.45977 0h57.448276v48.370536h-57.448276z" fill="#377dff" mask="url(#b)"/></g></svg>