<svg enable-background="new 0 0 120 120" viewBox="0 0 120 120" xmlns="http://www.w3.org/2000/svg"><g fill="none" fill-rule="evenodd" transform="translate(.5 16.201389)"><g fill-rule="nonzero"><path d="m113.157844 82.2639563h-79.8234648l24.4619375-24.0399834 24.600433-24.3421937 30.7610943 24.8667854z" fill="#dee2e8"/><path d="m113.157844 4.40771042v49.28586858l-30.3946851-22.4532899-23.6515617 25.0234946h-7.7073837l-22.8493197-11.0462629-23.84117158 12.8553469-.4086493-53.66515728zm-51.712194 25.50541878c0-4.7111638-3.8191529-8.5303167-8.5303167-8.5303167s-8.5303166 3.8191529-8.5303166 8.5303167 3.8191528 8.5303166 8.5303166 8.5303166c4.7107726-.0009444 8.5293723-3.8195441 8.5303167-8.5303166z" fill="#fff"/><circle cx="52.915333" cy="29.913129" fill="#dee2e8" r="8.530317"/><path d="m57.7963167 58.2239729-24.4619375 24.0399833h-29.02930628v-21.4968541l26.81119578-15.5495813 26.6686438 12.9950479z" fill="#dee2e8"/><g fill="#bdc5d1"><path d="m118.033125 4.56166667c0-2.51933894-2.042328-4.56166667-4.561667-4.56166667h-108.90979133c-2.51933894 0-4.56166667 2.04232773-4.56166667 4.56166667v78.11854163c0 2.519339 2.04232773 4.5616667 4.56166667 4.5616667h108.90979133c2.519339 0 4.561667-2.0423277 4.561667-4.5616667zm-5.283931 1.52055555v44.43114018l-27.3944425-19.5010236c-1.9370531-1.3904149-4.5959115-1.1741642-6.2828215.5109953l-22.3683099 22.0175051-25.883809-12.6215234c-1.434939-.725006-3.1418147-.6614496-4.518863.1682621l-21.58722588 12.6060011v-47.61135678zm-108.44412108 54.68487988 24.74022448-14.162921 23.8700359 11.4686866-23.8700359 22.5165767h-24.33157518zm32.88022978 19.8223423 45.0125101-44.8487861 30.5513812 23.261649v21.5871371z"/><path d="m52.9153333 43.0051125c7.2305028 0 13.0919834-5.8614806 13.0919834-13.0919833 0-7.2305028-5.8614806-13.0919834-13.0919834-13.0919834-7.2305027 0-13.0919833 5.8614806-13.0919833 13.0919834.0081701 7.2271158 5.8648675 13.0838132 13.0919833 13.0919833zm0-21.4550389c4.6187881 0 8.3630556 3.7442675 8.3630556 8.3630556 0 4.618788-3.7442675 8.3630555-8.3630556 8.3630555-4.618788 0-8.3630555-3.7442675-8.3630555-8.3630555.0052973-4.6165921 3.7464635-8.3577583 8.3630555-8.3630556z"/></g></g><g fill="#377dff"><path d="m110.411821 0h3.041111c2.519339 0 4.561666 2.04232773 4.561666 4.56166667v3.04111111h-7.602777z"/><path d="m99.007654 0h7.602778v7.602778h-7.602778z"/><path d="m87.603487 0h7.602778v7.602778h-7.602778z"/><path d="m110.411821 11.404167h7.602778v7.602778h-7.602778z"/><path d="m99.007654 11.404167h7.602778v7.602778h-7.602778z"/><path d="m87.603487 11.404167h7.602778v7.602778h-7.602778z"/><path d="m110.411821 22.808333h7.602778v7.602778h-7.602778z"/><path d="m99.007654 22.808333h7.602778v7.602778h-7.602778z"/><path d="m87.603487 22.808333h7.602778v7.602778h-7.602778z"/><path d="m110.411821 34.2125h7.602778v7.602778h-7.602778z"/><path d="m99.007654 34.2125h7.602778v7.602778h-7.602778z"/><path d="m110.411821 45.616667h7.602778v7.602778h-7.602778z"/><path d="m76.199321 0h7.602778v7.602778h-7.602778z"/><path d="m76.199321 11.404167h7.602778v7.602778h-7.602778z"/><path d="m64.795154 0h7.602778v7.602778h-7.602778z"/></g></g></svg>