<svg enable-background="new 0 0 120 120" viewBox="0 0 120 120" xmlns="http://www.w3.org/2000/svg"><g fill="none" transform="translate(.5 3.598958)"><path d="m16.1641667 73.8791667c-1.785 0-3.2725-1.4875-3.2725-3.2725v-36.3941667c0-1.785 1.4875-3.2725 3.2725-3.2725 1.785 0 3.2725 1.4875 3.2725 3.2725v36.295c0 1.8841667-1.4875 3.3716667-3.2725 3.3716667z" fill="#377dff"/><path d="m75.565 31.7333333h-36.295c-1.785 0-3.2725-1.4875-3.2725-3.2725 0-1.785 1.4875-3.2725 3.2725-3.2725h36.295c1.785 0 3.2725 1.4875 3.2725 3.2725 0 1.785-1.4875 3.2725-3.2725 3.2725z" fill="#377dff"/><path d="m95.6958333 75.8625c-1.785 0-3.2725-1.4875-3.2725-3.2725v-36.295c0-1.785 1.4875-3.2725 3.2725-3.2725 1.785 0 3.2725 1.4875 3.2725 3.2725v36.295c.0991667 1.785-1.3883333 3.2725-3.2725 3.2725z" fill="#377dff"/><path d="m114.636667 112.7525h-40.4600003c-1.8841667 0-3.3716667-1.4875-3.3716667-3.371667v-40.4599997c0-1.8841666 1.4875-3.3716666 3.3716667-3.3716666h40.4600003c1.884166 0 3.371666 1.4875 3.371666 3.3716666v40.4599997c0 1.884167-1.4875 3.371667-3.371666 3.371667z" fill="#bdc5d1" opacity=".5"/><path d="m109.7775 106.8025h-39.3691667c-1.785 0-3.2725-1.4875-3.2725-3.2725v-39.3691667c0-1.785 1.4875-3.2725 3.2725-3.2725h39.3691667c1.785 0 3.2725 1.4875 3.2725 3.2725v39.3691667c0 1.785-1.4875 3.2725-3.2725 3.2725z" fill="#377dff"/><path d="m71.8958333 93.1175h-36.295c-1.785 0-3.2725-1.4875-3.2725-3.2725 0-1.785 1.4875-3.2725 3.2725-3.2725h36.295c1.785 0 3.2725 1.4875 3.2725 3.2725 0 1.785-1.4875 3.2725-3.2725 3.2725z" fill="#377dff"/><path d="m22.1141667 105.315c-11.8008334 0-21.42000003-9.6191667-21.42000003-21.42 0-11.9 9.52000003-21.42 21.42000003-21.42 11.8008333 0 21.42 9.6191667 21.42 21.42 0 11.8008333-9.6191667 21.42-21.42 21.42z" fill="#fff" stroke="#bdc5d1" stroke-width="2.975"/><path d="m22.1141667 43.7325c-11.8008334 0-21.42000003-9.6191667-21.42000003-21.42 0-11.8008333 9.61916663-21.42 21.42000003-21.42 11.8008333 0 21.42 9.6191667 21.42 21.42 0 11.8008333-9.6191667 21.42-21.42 21.42z" fill="#fff" stroke="#bdc5d1" stroke-width="2.975"/><path d="m90.1425 43.7325c-11.8008333 0-21.42-9.6191667-21.42-21.42 0-11.8008333 9.6191667-21.42 21.42-21.42 11.800833 0 21.42 9.6191667 21.42 21.42-.099167 11.8008333-9.619167 21.42-21.42 21.42z" fill="#fff" stroke="#bdc5d1" stroke-width="2.975"/><g fill="#bdc5d1"><path d="m68.1275 86.4733333h-36.5925c-1.4875 0-2.6775-1.19-2.6775-2.6775 0-1.4875 1.19-2.6775 2.6775-2.6775h36.5925c1.4875 0 2.6775 1.19 2.6775 2.6775 0 1.4875-1.19 2.6775-2.6775 2.6775z"/><path d="m89.7458333 77.4491667c-1.4875 0-2.6775-1.0908334-2.6775-2.5783334v-30.0475c0-1.3883333 1.19-2.5783333 2.6775-2.5783333 1.4875 0 2.6775 1.0908333 2.6775 2.5783333v30.0475c0 1.4875-1.19 2.5783334-2.6775 2.5783334z"/><path d="m22.1141667 63.8633333c-1.4875 0-2.6775-1.2891666-2.6775-2.975v-28.6591666c0-1.6858334 1.19-2.975 2.6775-2.975 1.4875 0 2.6775 1.2891666 2.6775 2.975v28.56c0 1.6858333-1.19 3.0741666-2.6775 3.0741666z"/><path d="m80.4241667 25.2875h-35.7991667c-1.4875 0-2.5783333-1.19-2.5783333-2.6775 0-1.4875 1.19-2.6775 2.5783333-2.6775h35.7991667c1.4875 0 2.5783333 1.19 2.5783333 2.6775.0991667 1.4875-1.0908333 2.6775-2.5783333 2.6775z"/></g><circle cx="89.646667" cy="84.1925" fill="#377dff" r="8.230833" stroke="#fff" stroke-width="2.975"/><circle cx="90.1425" cy="22.61" fill="#fff" r="8.230833" stroke="#377dff" stroke-width="2.975"/><circle cx="22.114167" cy="22.3125" fill="#fff" r="8.230833" stroke="#377dff" stroke-width="2.975"/><circle cx="22.114167" cy="83.895" fill="#fff" r="8.230833" stroke="#377dff" stroke-width="2.975"/></g></svg>