<svg enable-background="new 0 0 120 120" viewBox="0 0 120 120" xmlns="http://www.w3.org/2000/svg"><g fill="none" fill-rule="evenodd"><g stroke="#bdc5d1" stroke-width="2.5" transform="translate(5)"><rect height="116.5" rx="2" width="107.5" x="1.25" y="1.83888"/><path d="m28.25 2v116.953656"/><path d="m55 2.34878149v116.95365551"/><path d="m81.75 2.34878149v116.95365551"/><path d="m55-50.371518v105.371518" transform="matrix(0 1 -1 0 57 -53)"/><path d="m55 65.864582v105.371518" transform="matrix(0 1 -1 0 173.2361 63.2361)"/><path d="m55 54.240972v105.371518" transform="matrix(0 1 -1 0 161.61249 51.61249)"/><path d="m55 42.617362v105.371518" transform="matrix(0 1 -1 0 149.98888 39.98888)"/><path d="m55 30.993752v105.371518" transform="matrix(0 1 -1 0 138.36527 28.36527)"/><path d="m55 19.370142v105.371518" transform="matrix(0 1 -1 0 126.74166 16.74166)"/><path d="m55 7.74653202v105.37151798" transform="matrix(0 1 -1 0 115.11805 5.11805)"/><path d="m55-3.87707798v105.37151798" transform="matrix(0 1 -1 0 103.49444 -6.50556)"/><path d="m55-15.500688v105.371518" transform="matrix(0 1 -1 0 91.87083 -18.12917)"/><path d="m55-27.124298v105.371518" transform="matrix(0 1 -1 0 80.24722 -29.75278)"/><path d="m55-38.747908v105.371518" transform="matrix(0 1 -1 0 68.62361 -41.37639)"/></g><g fill="#2860DD"><rect height="8.305967" rx="2" width="23.423952" x="8.04661" y="3.659258"/><rect height="8.305967" rx="2" width="23.423952" x="8.04661" y="15.276947"/><rect height="8.305967" rx="2" width="23.423952" x="8.04661" y="26.894637"/><rect height="8.305967" rx="2" width="23.423952" x="8.04661" y="38.512327"/><rect height="8.305967" rx="2" width="23.423952" x="8.04661" y="50.130017"/><rect height="8.305967" rx="2" width="23.423952" x="8.04661" y="61.747706"/><rect height="8.305967" rx="2" width="23.423952" x="8.04661" y="73.365396"/><rect height="8.305967" rx="2" width="23.423952" x="8.04661" y="84.983086"/><rect height="8.305967" rx="2" width="23.423952" x="8.04661" y="96.600775"/><rect height="8.305967" rx="2" width="23.423952" x="8.04661" y="108.218465"/></g></g></svg>