<svg enable-background="new 0 0 120 120" viewBox="0 0 120 120" xmlns="http://www.w3.org/2000/svg"><g fill="none" fill-rule="evenodd" transform="translate(6.205479 .5)"><circle cx="71.551856" cy="69.702882" fill="#bdc5d1" fill-rule="nonzero" opacity=".5" r="23.204286" transform="matrix(.98768834 .15643447 -.15643447 .98768834 11.784855 -10.335018)"/><path d="m84.090634 95.6975321-6.872607-6.798708" stroke="#bdc5d1" stroke-linecap="round" stroke-linejoin="round" stroke-width="1.700689" transform="matrix(.98768834 .15643447 -.15643447 .98768834 15.431605 -11.480773)"/><circle cx="66.499176" cy="68.059095" fill="#377dff" fill-rule="nonzero" r="23.204286" transform="matrix(.98768834 .15643447 -.15643447 .98768834 11.465503 -9.564843)"/><g stroke-linecap="round" stroke-linejoin="round"><path d="m82.6336591 58.3626004c1.847475 3.103758 2.734263 6.724809 2.586465 10.271961-.147798 4.581738-1.995273 9.089577-5.542425 12.56283-7.316001 7.316001-19.21374 7.316001-26.60364 0-7.316001-7.316001-7.316001-19.21374 0-26.60364 7.316001-7.316001 19.21374-7.316001 26.60364 0" stroke="#fff" stroke-width="1.700689" transform="matrix(.98768834 .15643447 -.15643447 .98768834 11.438843 -9.553144)"/><path d="m83.5373047 88.2828799 4.581738 4.581738" stroke="#bdc5d1" stroke-width="1.700689" transform="matrix(.98768834 .15643447 -.15643447 .98768834 15.225543 -12.311371)"/><path d="m103.518595 115.335038c-1.921374 1.921374-5.0990313 1.921374-7.0204053 0l-15.888285-15.8143863 7.020405-7.020405 15.8882853 15.8882853c1.921374 1.847475 1.921374 5.025132 0 6.946506z" stroke="#bdc5d1" stroke-width="1.700689" transform="matrix(.98768834 .15643447 -.15643447 .98768834 17.511349 -13.226466)"/><path d="m64.9201259 54.5543365s-7.833294.443394-9.311274 8.424486" stroke="#fff" stroke-width="1.700689" transform="matrix(.98768834 .15643447 -.15643447 .98768834 9.935074 -8.703929)"/><path d="m37.21725 71.13225h-32.6655c-2.40975 0-4.4625-1.9635-4.4625-4.4625v-61.761c0-2.40975 1.9635-4.4625 4.4625-4.4625h94.605c2.40975 0 4.4625 1.9635 4.4625 4.4625v61.761c0 2.40975-1.9635 4.4625-4.4625 4.4625" stroke="#bdc5d1" stroke-width="2.053973"/><circle cx="29.72025" cy="9.4605" opacity=".5" r="2.76675" stroke="#bdc5d1" stroke-width="2.053973"/><circle cx="19.278" cy="9.4605" opacity=".5" r="2.76675" stroke="#bdc5d1" stroke-width="2.053973"/><circle cx="8.925" cy="9.4605" r="2.76675" stroke="#377dff" stroke-width="2.053973"/><path d="m11.33475 55.1565 25.5255-14.01225 4.73025 5.1765 20.1705-12.3165 6.51525 7.497 28.47075-24.00825" stroke="#377dff" stroke-width="2.053973"/><path d="m88.62525 19.278 8.12175-1.785-2.6775 7.6755" stroke="#377dff" stroke-width="2.053973"/><path d="m72.73875 29.274v-15.61875h5.1765v10.97775" opacity=".5" stroke="#bdc5d1" stroke-width="2.053973"/><path d="m52.479 33.0225v-13.7445h5.08725v9.996" opacity=".5" stroke="#bdc5d1" stroke-width="2.053973"/><path d="m42.3045 38.7345v-8.12175h5.08725v5.26575" opacity=".5" stroke="#bdc5d1" stroke-width="2.053973"/><path d="m32.13 36.86025v-10.08525h5.08725v7.22925" opacity=".5" stroke="#bdc5d1" stroke-width="2.053973"/><path d="m21.9555 42.483v-7.14h5.08725v4.284" opacity=".5" stroke="#bdc5d1" stroke-width="2.053973"/><path d="m62.6535 28.203v-5.1765h5.08725v9.01425" opacity=".5" stroke="#bdc5d1" stroke-width="2.053973"/></g></g></svg>