<svg enable-background="new 0 0 120 120" viewBox="0 0 120 120" xmlns="http://www.w3.org/2000/svg"><g fill="none" fill-rule="evenodd" transform="translate(.5 10)"><circle cx="65.659093" cy="59.455862" fill="#bdc5d1" fill-rule="nonzero" opacity=".5" r="36.550155" transform="matrix(.01280567 -.999918 .999918 .01280567 5.367297 124.348199)"/><circle cx="59.726067" cy="50.623146" fill="#fff" fill-rule="nonzero" r="36.550155" transform="matrix(.01280567 -.999918 .999918 .01280567 8.342239 109.696052)"/><g stroke-linecap="round" stroke-linejoin="round"><path d="m118.715447 50.6930894c0 11.4532521-26.3922763 20.7154472-58.9593494 20.7154472-32.5670732 0-58.95934963-9.2621951-58.95934963-20.7154472 0-6.2743902 7.86788618-11.851626 20.31707313-15.6361788" stroke="#bdc5d1" stroke-width="2.176829"/><path d="m112.24187 41.2317073c.896341.597561 1.693089 1.2947155 2.489837 1.8922764" stroke="#bdc5d1" stroke-width="2.176829"/><path d="m56.8678862 75.9898374c-.8963415-.796748-1.8922764-1.5934959-2.7886179-2.3902439-2.9878049-2.5894309-5.9756098-5.3780488-8.9634146-8.2662602-23.0060976-23.0060975-35.15650411-48.3028455-27.0894309-56.36991867" stroke="#2860DD" stroke-width="2.176829"/><path d="m91.2276423 32.6666667h-62.9430895" stroke="#bdc5d1" stroke-width="2.176829"/><path d="m59.7560976 14.0426829v48.4024391" stroke="#bdc5d1" stroke-width="2.176829"/><path d="m44.6178862 58.4613821c-.199187-2.4898374-.2987805-5.0792683-.2987805-7.7682927 0-20.2174796 6.9715447-36.6504065 15.4369919-36.6504065 8.4654471 0 15.4369918 16.4329269 15.4369918 36.6504065 0 2.6890244-.0995935 5.2784553-.2987805 7.7682927" stroke="#bdc5d1" stroke-width="2.176829"/><path d="m70.3130081 15.6361789c10.0589431-6.27439028 19.0223578-9.56097565 25.1971545-9.06300817" stroke="#2860DD" stroke-width="2.176829"/><circle cx="59.726067" cy="50.623146" r="36.550155" stroke="#2860DD" stroke-width="2.17679" transform="matrix(.01280567 -.999918 .999918 .01280567 8.342239 109.696052)"/><path d="m102.083333 75.8902439c2.589431 7.4695122 2.589431 13.3455285-.597561 16.5325203-6.0752029 6.0752033-21.7113818.796748-38.8414631-11.851626" stroke="#2860DD" stroke-width="2.176829"/><path d="m103.97561 15.8353659c.199187 14.0426829-11.1544718 28.4837398-19.6199189 38.5426829-11.7520326 14.1422764-26.093496 27.2886179-42.5264228 35.554878-5.5772358 2.7886179-12.25 5.6768293-18.6239837 4.8800813" stroke="#2860DD" stroke-width="2.176829"/><path d="m80.9695122 50.2947154h-42.4268293" stroke="#bdc5d1" stroke-width="2.176829"/></g><circle cx="21.611789" cy="89.73374" fill="#bdc5d1" fill-rule="nonzero" opacity=".5" r="7.469512"/><circle cx="17.528455" cy="92.422764" r="7.469512" style="stroke:#2860DD;stroke-width:2.176829;fill:#2860DD;fill-rule:nonzero;stroke-linecap:round;stroke-linejoin:round"/><circle cx="17.528455" cy="92.422764" fill="#fff" fill-rule="nonzero" r="3.684959"/><path d="m114.731707 11.254065c0 4.6808943-3.784553 8.5650407-8.56504 8.5650407-4.780488 0-8.565041-3.7845529-8.565041-8.5650407 0-4.78048776 3.784553-8.56504061 8.565041-8.56504061 4.780487 0 8.56504 3.88414634 8.56504 8.56504061z" fill="#bdc5d1" fill-rule="nonzero" opacity=".5"/><path d="m109.353659 9.26219512c0 4.68089428-3.784553 8.56504068-8.565041 8.56504068-4.7804879 0-8.5650408-3.7845529-8.5650408-8.56504068 0-4.7804878 3.7845529-8.56504065 8.5650408-8.56504065 4.780488 0 8.565041 3.88414634 8.565041 8.56504065z" style="stroke:#2860DD;stroke-width:1.814024;fill:#2860DD;fill-rule:nonzero;stroke-linecap:round;stroke-linejoin:round"/><path d="m105.170732 9.26219512c0 2.39024388-1.99187 4.38211378-4.382114 4.38211378s-4.3821139-1.9918699-4.3821139-4.38211378c0-2.3902439 1.9918699-4.38211382 4.3821139-4.38211382s4.382114 1.99186992 4.382114 4.38211382z" fill="#fff" fill-rule="nonzero"/><path d="m18.4247967 74.097561c.597561-1.394309 2.390244-6.1747968 3.0873984-7.5691057" stroke="#bdc5d1" stroke-linecap="round" stroke-linejoin="round" stroke-width="2.176829"/><path d="m23.4044715 6.57317073c.995935-.09959349 3.5853659-.49796748 4.7804878-.39837398" stroke="#bdc5d1" stroke-linecap="round" stroke-linejoin="round" stroke-width="2.176829"/></g></svg>