<svg enable-background="new 0 0 120 120" viewBox="0 0 120 120" xmlns="http://www.w3.org/2000/svg"><g fill="none" transform="translate(.5 7.33908)"><path d="m100.72039 91.5534425h-98.39964368v-84.47516621c0-2.56369946 2.0777932-4.64149265 4.64149265-4.64149265h89.11665883c2.5636994 0 4.6414922 2.07779319 4.6414922 4.64149265z"/><path d="m100.72039 20.0363811h-98.39964368v-12.95810481c0-2.56369946 2.0777932-4.64149265 4.64149265-4.64149265h89.11665883c2.5636994 0 4.6414922 2.07779319 4.6414922 4.64149265z" fill="#2860DD"/><path d="m13.4213473 40.3664814h70.0004177v16.1998973h-70.0004177z" fill="#2860DD"/><path d="m93.1707126 56.1475564c0 12.3044881-9.9746766 22.2791647-22.2791648 22.2791647-12.3044881 0-22.2791647-9.9746766-22.2791647-22.2791647 0-12.3044882 9.9746766-22.2791647 22.2791647-22.2791647 12.3044882 0 22.2791648 9.9746765 22.2791648 22.2791647z" fill="#2860DD"/><path d="m108.64447 101.75838-18.379223-18.3792225 7.8569955-7.856089 18.3792225 18.3792231z" fill="#dee2e8"/><path d="m83.2585873 75.0797697 6.5642674-6.5642672 7.6512106 7.6521171-6.5633607 6.5642671z" fill="#fff"/><path d="m83.8877273 56.1475564c0 7.1770892-5.8190902 12.9961794-12.9961795 12.9961794-7.1779959 0-12.9961794-5.8190902-12.9961794-12.9961794 0-7.177996 5.8181835-12.9961794 12.9961794-12.9961794 7.1770893 0 12.9961795 5.8181834 12.9961795 12.9961794z" fill="#fff"/><g fill="#bdc5d1"><path d="m14.3215432 8.91492932c-.6110091 0-1.2093265.24839249-1.6408402.67990626-.4315138.43151382-.6799061 1.03073762-.6799061 1.64355972 0 .6101026.2483923 1.2084198.6799061 1.6381206.4315137.4342335 1.0298311.6799061 1.6408402.6799061.6101024 0 1.2093263-.2456726 1.6408401-.6799061.4315138-.4315137.6799063-1.028018.6799063-1.6381206 0-.6128221-.2483925-1.2093263-.6799063-1.64355972-.4315138-.43151377-1.0307377-.67990626-1.6408401-.67990626z"/><path d="m25.054995 8.91492932c-.6110091 0-1.2093265.24839249-1.64356.67990626-.4315137.43151382-.6771863 1.03073762-.6771863 1.64084002 0 .6128223.2456726 1.2111395.6771863 1.6426535.4342335.4324203 1.0307377.6780929 1.64356.6780929.6101024 0 1.2093263-.2456726 1.6408401-.6780929.4315137-.431514.6799062-1.0298312.6799062-1.6426535 0-.6101024-.2483925-1.2093262-.6799062-1.64084002-.4315138-.43151377-1.0307377-.67990626-1.6408401-.67990626z"/><path d="m68.733979 89.2336026c-.6128221 0-1.2093263.2456728-1.6408403.6799063-.4324202.4315138-.679906 1.028018-.679906 1.64084 0 .6101024.2474858 1.2093266.679906 1.6408403.431514.4315138 1.0280182.6799061 1.6408403.6799061.6101024 0 1.2066068-.2483923 1.6399336-.6799061.4324202-.4315137.6808127-1.0307379.6808127-1.6408403 0-.612822-.2483925-1.2093262-.6808127-1.64084-.4315138-.4342335-1.0298312-.6799063-1.6399336-.6799063z"/><path d="m13.7141603 74.6672933c-1.2818498 0-2.3207463 1.0398032-2.3207463 2.3207463 0 1.2818498 1.0388965 2.3207463 2.3207463 2.3207463h13.9317303c1.2818498 0 2.3207463-1.0388965 2.3207463-2.3207463 0-1.2809431-1.0388965-2.3207463-2.3207463-2.3207463z"/><path d="m118.142305 92.2596384-15.101168-15.101169v-70.08019311c0-3.83920345-3.1230358-6.96223897-6.9622392-6.96223897h-89.11665883c-3.83920345 0-6.96223897 3.12303552-6.96223897 6.96223897v84.47516621c0 1.2818498 1.03889648 2.3207463 2.32074632 2.3207463h57.09035958c1.2818498 0 2.3207463-1.0388965 2.3207463-2.3207463 0-1.2818499-1.0388965-2.3207464-2.3207463-2.3207464h-54.76961325v-66.8755687h93.75815145v50.8615126c-.1949065-.0235702-.3916259-.021757-.5856259.0045327l-5.3159596-5.3150531c5.0730067-9.3301254 3.6705869-21.2738102-4.2117918-29.1561886-9.3491628-9.349163-24.4122569-9.5830506-34.0506065-.7071024h-40.814313c-1.2818496 0-2.3207463 1.0388964-2.3207463 2.3207463v16.199897c0 1.2818499 1.0388967 2.3207464 2.3207463 2.3207464h33.0343735c.2103176 1.8910457.6382052 3.7612407 1.2845695 5.5697911h-34.02613c-1.2818498 0-2.3207463 1.0398032-2.3207463 2.3207464 0 1.2818498 1.0388965 2.3207463 2.3207463 2.3207463h36.2598483c.9790649 1.5810084 2.1521295 3.0740824 3.5228203 4.4447732 4.7965113 4.7956048 11.0942552 7.1934071 17.3947189 7.1934071 4.0540538 0 8.107201-.9953827 11.7605633-2.9816153l5.3159595 5.3150531c-.0924671.6925977.1251029 1.417831.6563361 1.9499709l4.2136051 4.213605h-14.821954c-1.2818498 0-2.3207463 1.0388965-2.3207463 2.3207464 0 1.2818498 1.0388965 2.3207463 2.3207463 2.3207463h19.4634466l9.5241256 9.5241252c.453271.453271 1.047962.679906 1.641747.679906.593784 0 1.187569-.226635 1.64084-.679906l7.856088-7.8569953c.906542-.9065415.906542-2.3760455 0-3.2816803zm-113.50081235-74.5440037v-10.63735841c0-1.28003665 1.04070968-2.32074633 2.32074632-2.32074633h89.11665883c1.2800366 0 2.3207463 1.04070968 2.3207463 2.32074633v10.63735841zm11.10060105 24.971593h34.5564567c-2.303522 3.5210073-3.6098483 7.5079768-3.9216986 11.5584046h-30.6347581zm41.0364156 27.5724608c-7.7817525-7.7817526-7.7817525-20.4434182 0-28.2251707 3.8908762-3.8908763 9.0019573-5.8363145 14.1130385-5.8363145 5.1101746 0 10.2212559 1.9454382 14.1121321 5.8363145 7.2142574 7.2133509 7.7355189 18.6176434 1.5764756 26.4429099l-3.3578298 3.3578298c-7.826173 6.1599498-19.2304655 5.6377819-26.4438164-1.575569zm31.5077575 3.2825868c.5529904-.5538969 1.0733451-1.1286442 1.5628776-1.7197092l4.344147 4.3450535-3.2816803 3.2816803-4.3450536-4.344147c.5919716-.4895324 1.1658123-1.0098872 1.7197093-1.5628776zm20.3582032 24.9326118-8.562285-8.5622847h-.000906l-6.5334452-6.5343514 4.5744087-4.5744087.9545882.9545882c.001813.0018132.0036262.0036262.0054391.0054394l14.1375152 14.1366085z"/></g><path d="m86.2084736 56.1475564c0-4.0912219-1.5937001-7.9376777-4.486474-10.8313583-5.9722956-5.9713891-15.6895144-5.9713891-21.6609035 0-5.9722956 5.9722956-5.9722956 15.6895144 0 21.66181 2.9852412 2.9861477 6.9078465 4.4792217 10.8304517 4.4792217 3.9216988 0 7.8443039-1.493074 10.8304518-4.4792217 2.8927739-2.8927741 4.486474-6.7392299 4.486474-10.8304517zm-7.7690608 7.5478649c-4.1619323 4.1628387-10.9347041 4.1628387-15.0966364 0-4.1619322-4.1619323-4.1619322-10.9347041 0-15.0975428 2.0814194-2.0814194 4.8146422-3.1212226 7.5487714-3.1212226 2.7332228 0 5.4673521 1.0407097 7.547865 3.1212226 2.0170548 2.0170548 3.1275681 4.6976983 3.1275681 7.5487714 0 2.8519795-1.1105133 5.532623-3.1275681 7.5487714z" fill="#2860DD"/></g></svg>