<svg enable-background="new 0 0 120 120" viewBox="0 0 120 120" xmlns="http://www.w3.org/2000/svg"><g fill="none" fill-rule="evenodd" transform="translate(.5 4.314103)"><path d="m95.2 24.5933333h17.354167c3.074166 0 5.553333 2.4791667 5.553333 5.5533334v66.9375c0 3.0741663-2.479167 5.5533333-5.553333 5.5533333h-96.5883337c-3.0741666 0-5.5533333-2.479167-5.5533333-5.5533333v-67.0366667c0-3.0741667 2.4791667-5.5533333 5.5533333-5.5533333h17.3541667" fill="#bdc5d1" fill-rule="nonzero" opacity=".4"/><g stroke-linecap="round" stroke-linejoin="round" stroke-width="2.975"><path d="m84.9858333 17.1558333h17.3541667c3.074167 0 5.553333 2.4791667 5.553333 5.5533334v66.9375c0 3.0741666-2.479166 5.5533333-5.553333 5.5533333h-96.58833333c-3.07416667 0-5.55333334-2.4791667-5.55333334-5.5533333v-66.9375c0-3.0741667 2.47916667-5.5533334 5.55333334-5.5533334h17.35416663" fill="#fff" fill-rule="nonzero" stroke="#bdc5d1"/><path d="m54.145 31.4358333h22.61" stroke="#bdc5d1"/><path d="m54.145 25.1883333h22.61" stroke="#2860DD"/><path d="m71.995 13.8833333h12.9908333l-12.9908333-13.08999997z" stroke="#bdc5d1"/><path d="m23.1058333 68.7225v-67.92916667h48.8891667" stroke="#bdc5d1"/><path d="m84.9858333 13.8833333v54.8391667" stroke="#bdc5d1"/></g><path d="m42.1458333 24.5933333 1.8841667 3.7683334c.0991667.0991666.1983333.1983333.2975.1983333l4.0658333.595c.3966667.0991667.4958334.4958333.1983334.7933333l-2.975 2.8758334v.3966666l.6941666 4.0658334c.0991667.3966666-.2975.595-.6941666.4958333l-3.6691667-1.9833333c-.0991667-.0991667-.2975-.0991667-.3966667 0l-3.6691666 1.9833333c-.2975.1983333-.6941667-.0991667-.6941667-.4958333l.6941667-4.0658334c0-.0991666 0-.2975-.0991667-.3966666l-2.975-2.8758334c-.2975-.2975-.0991667-.6941666.1983333-.7933333l4.0658334-.595c.0991666 0 .2975-.0991667.2975-.1983333l1.8841666-3.7683334c.2975-.2975.7933334-.2975.8925 0z" fill="#bdc5d1" fill-rule="nonzero" opacity=".5"/><path d="m38.8733333 21.3208333 1.8841667 3.7683334c.0991667.0991666.1983333.1983333.2975.1983333l4.0658333.595c.3966667.0991667.4958334.4958333.1983334.7933333l-2.975 2.8758334c-.0991667.0991666-.1983334.2975-.0991667.3966666l.6941667 4.0658334c.0991666.3966666-.2975.595-.6941667.4958333l-3.6691667-1.9833333c-.0991666-.0991667-.2975-.0991667-.3966666 0l-3.6691667 1.9833333c-.2975.1983333-.6941667-.0991667-.6941667-.4958333l.6941667-4.0658334c0-.0991666 0-.2975-.0991667-.3966666l-2.975-2.8758334c-.2975-.2975-.0991666-.6941666.1983334-.7933333l4.0658333-.595c.0991667 0 .2975-.0991667.2975-.1983333l1.8841667-3.7683334c.3966666-.2975.8925-.2975.9916666 0z" fill="#2860DD" fill-rule="nonzero"/><path d="m38.5758333 25.9816667.4958334 1.0908333s.0991666.0991667.0991666.0991667l1.19.1983333c.0991667 0 .0991667.0991667.0991667.1983333l-.7933333.7933334v.0991666l.1983333 1.19c0 .0991667-.0991667.1983334-.1983333.0991667l-1.0908334-.595h-.0991666l-1.0908334.595c-.0991666 0-.1983333 0-.1983333-.0991667l.1983333-1.19v-.0991666l-.8925-.7933334c-.0991666-.0991666 0-.1983333.0991667-.1983333l1.19-.1983333s.0991667 0 .0991667-.0991667l.4958333-1.0908333c.0991667-.0991667.1983333-.0991667.1983333 0z" fill="#fff" fill-rule="nonzero"/><path d="m54.145 46.6083333h22.61" stroke="#2860DD" stroke-linecap="round" stroke-linejoin="round" stroke-width="2.975"/><path d="m54.145 52.955h22.61" stroke="#bdc5d1" stroke-linecap="round" stroke-linejoin="round" stroke-width="2.975"/><path d="m42.1458333 46.1125 1.8841667 3.7683333c.0991667.0991667.1983333.1983334.2975.1983334l4.0658333.595c.3966667.0991666.4958334.4958333.1983334.7933333l-2.975 2.8758333v.3966667l.6941666 4.0658333c.0991667.3966667-.2975.595-.6941666.4958334l-3.6691667-1.9833334c-.0991667-.0991666-.2975-.0991666-.3966667 0l-3.6691666 1.9833334c-.2975.1983333-.6941667-.0991667-.6941667-.4958334l.6941667-4.0658333c0-.0991667 0-.2975-.0991667-.3966667l-2.975-2.8758333c-.2975-.2975-.0991667-.6941667.1983333-.7933333l4.0658334-.595c.0991666 0 .2975-.0991667.2975-.1983334l1.8841666-3.7683333c.2975-.3966667.7933334-.3966667.8925 0z" fill="#bdc5d1" fill-rule="nonzero" opacity=".5"/><path d="m38.8733333 42.84 1.8841667 3.7683333c.0991667.0991667.1983333.1983334.2975.1983334l4.0658333.595c.3966667.0991666.4958334.4958333.1983334.7933333l-2.975 2.8758333c-.0991667.0991667-.1983334.2975-.0991667.3966667l.6941667 4.0658333c.0991666.3966667-.2975.595-.6941667.4958334l-3.6691667-1.9833334c-.0991666-.0991666-.2975-.0991666-.3966666 0l-3.6691667 1.9833334c-.2975.1983333-.6941667-.0991667-.6941667-.4958334l.6941667-4.0658333c0-.0991667 0-.2975-.0991667-.3966667l-2.975-2.8758333c-.2975-.2975-.0991666-.6941667.1983334-.7933333l4.0658333-.595c.0991667 0 .2975-.0991667.2975-.1983334l1.8841667-3.7683333c.3966666-.3966667.8925-.3966667.9916666 0z" fill="#2860DD" fill-rule="nonzero"/><path d="m93.5141667 68.7225h-78.9366667" stroke="#bdc5d1" stroke-linecap="round" stroke-linejoin="round" stroke-width="2.975"/><path d="m38.5758333 47.4016667.4958334 1.0908333s.0991666.0991667.0991666.0991667l1.19.1983333c.0991667 0 .0991667.0991667.0991667.1983333l-.7933333.7933334v.0991666l.1983333 1.19c0 .0991667-.0991667.1983334-.1983333.0991667l-1.0908334-.595h-.0991666l-1.0908334.595c-.0991666 0-.1983333 0-.1983333-.0991667l.1983333-1.19v-.0991666l-.8925-.7933334c-.0991666-.0991666 0-.1983333.0991667-.1983333l1.19-.1983333s.0991667 0 .0991667-.0991667l.4958333-1.0908333z" fill="#fff" fill-rule="nonzero"/><path d="m.19833333 78.3416667h107.69499967" stroke="#bdc5d1" stroke-linecap="round" stroke-linejoin="round" stroke-width="2.975"/><path d="m57.0208333 87.0683333c0 1.6858334-1.3883333 2.975-2.975 2.975-1.6858333 0-2.975-1.3883333-2.975-2.975 0-1.6858333 1.3883334-2.975 2.975-2.975 1.6858334-.0991666 2.975 1.2891667 2.975 2.975z" stroke="#3a96e2" stroke-linecap="round" stroke-linejoin="round" stroke-width="2.975"/><path d="m81.8125 110.273333h-55.4341667" stroke="#2860DD" stroke-linecap="round" stroke-linejoin="round" stroke-width="2.975"/><path d="m40.5591667 94.3075-3.1733334 15.073333h33.4191667l-3.2725-15.073333z" fill="#2860DD" fill-rule="nonzero"/></g></svg>