<svg enable-background="new 0 0 120 120" viewBox="0 0 120 120" xml:space="preserve" xmlns="http://www.w3.org/2000/svg"><g fill="none" fill-rule="evenodd"><g fill-rule="nonzero" transform="translate(10.416667 84.251208)"><path d="m98.2345 9.69121125c0 5.73727265-21.9913041 11.08916375-49.11725 11.08916375s-49.11725-5.3518911-49.11725-11.08916375c0-5.73916175 21.9913041-9.69121125 49.11725-9.69121125s49.11725 3.9520495 49.11725 9.69121125" fill="#dee2e8"/><path d="m49.11725 20.780375c-27.1259459 0-49.11725-5.5955882-49.11725-11.33475v13.2163185c.015113 5.7353835 21.9988606 11.3423065 49.11725 11.3423065s49.102137-5.606923 49.11725-11.3423065v-13.2163185c0 5.7391618-21.9913041 11.33475-49.11725 11.33475" fill="#bdc5d1"/></g><g transform="translate(10.416667 .5)"><path d="m49.3091143 0c-26.9949174 0-49.3091143 21.9300847-49.3091143 48.9253857 0 26.9953011 22.3141969 49.3091143 49.3091143 49.3091143 26.9949173 0 48.9253857-22.3138132 48.9253857-49.3091143 0-26.995301-21.9304684-48.9253857-48.9253857-48.9253857z" fill="#2860DD" fill-rule="nonzero"/><path d="m49.3091143 11.5118555c-20.6066051 0-37.7972588 16.8071171-37.7972588 37.4135302 0 20.6064132 17.1906537 37.7972588 37.7972588 37.7972588 20.606605 0 37.4135302-17.1908456 37.4135302-37.7972588 0-20.6064131-16.8069252-37.4135302-37.4135302-37.4135302z" fill="#fff" fill-rule="nonzero"/><text fill="#2860DD" font-family="Barlow-SemiBold, Barlow SemiBold" font-size="57.516667" font-weight="500" transform="matrix(-1 0 0 1 99.166666 0)">                     <tspan x="33.277358" y="69.9">$</tspan>                 </text></g></g></svg>