<svg enable-background="new 0 0 120 120" viewBox="0 0 120 120" xmlns="http://www.w3.org/2000/svg"><g fill="none" fill-rule="evenodd"><g fill="#bdc5d1" opacity=".4" transform="translate(26.070248 12.301653)"><path d="m73.5636364 88.4140496c-7.277686 7.6710744-16.3256199 13.6702484-26.4553719 17.3090904-26.2586777-9.3429747-45.14132235-34.32314-45.14132235-63.5322309v-24.8818182l45.04297525-14.94876032 45.0429752 14.94876032v24.8818182c0 9.0479339-1.770248 17.7024793-5.1140496 25.5702479.0983471 0-5.7041323 13.670248-13.3752066 20.6528926z"/><path d="m47.1082645 107.198347c-.1966943 0-.2950414 0-.4917356-.098347-27.6355372-9.8347107-46.12479336-35.8966942-46.12479336-64.9090909v-24.8818182c0-.5900826.39338843-1.1801653.98347107-1.3768595l45.04297519-14.94876033c.2950413-.0983471.5900827-.0983471.885124 0l45.0429752 14.94876033c.5900826.1966942.9834711.7867769.9834711 1.3768595v24.8818182c0 9.146281-1.770248 17.9975207-5.2123967 26.1603306h-.0983471c-.4917356 1.7702479-2.2619835 5.1140496-3.8355372 7.9661157-2.2619835 3.9338843-5.7041323 9.4413223-9.8347108 13.1785124-7.4743801 7.8677686-16.8173553 13.9652892-26.9471074 17.6041322-.0983471.098347-.1966942.098347-.3933884.098347zm-43.66611574-88.8074379v23.8c0 27.6355372 17.50578514 52.4190083 43.66611574 61.9586779 9.5396694-3.540496 18.2925619-9.3429754 25.3735537-16.7190085 0 0 .0983471-.0983471.0983471-.0983471 6.7859504-6.1958678 12.3917355-18.4892562 12.9818182-19.9644628 0-.0983471 0-.0983471.0983471-.1966942 3.3438016-7.7694215 5.0157025-16.2272727 5.0157025-24.9801653v-23.8l-43.6661157-14.4570248z" fill-rule="nonzero"/></g><g transform="translate(.5 .5)"><path d="m82.0214876 98.2487603c-8.1628099 8.5561987-18.1942149 15.2438017-29.5041322 19.2760327-29.1107438-10.326446-50.15702482-38.1586773-50.15702482-70.7115699v-27.8322314l50.15702482-16.62066112 50.1570246 16.62066112v27.7338843c0 10.031405-2.065289 19.6694215-5.7041321 28.5206612.0983471 0-6.2942148 15.2438016-14.9487603 23.0132231z" fill="#fff"/><path d="m52.5173554 119c-.1966942 0-.2950414 0-.4917356-.098347-30.5859504-10.818182-51.14049583-39.8305786-51.14049583-72.0884299v-27.8322314c0-.5900826.39338843-1.1801653.98347107-1.3768595l50.15702476-16.62066113c.2950414-.0983471.5900827-.0983471.885124 0l50.1570252 16.62066113c.590082.1966942.983471.7867769.983471 1.3768595v27.7338843c0 9.8347108-1.966942 19.5710744-5.8024797 29.0123967-.0983471.4917356-.4917355 1.2785124-1.1801653 2.753719-.6884297 1.3768595-1.7702479 3.638843-3.1471074 6.1958678-2.4586777 4.4256198-6.392562 10.5231405-11.014876 14.653719-8.4578513 8.8512395-18.7842976 15.6371905-29.9958678 19.5710745-.0983471.098347-.1966942.098347-.3933884.098347zm-48.68181821-98.9371901v26.7504132c0 30.8809918 19.57107441 58.6148759 48.68181821 69.1380169 10.6214876-3.835538 20.4561983-10.326447 28.422314-18.6859507 0 0 .0983471-.0983472.0983471-.0983472 8.2611571-7.376033 14.1619835-21.5380165 14.5553719-22.3247933 0-.0983471 0-.0983471.0983471-.1966943 3.7371901-9.0479338 5.6057855-18.390909 5.6057855-27.9305785v-26.6520661l-48.7801656-16.1289256z" fill="#bdc5d1" fill-rule="nonzero"/></g><g fill="#bdc5d1" opacity=".2" transform="translate(50.657025 .5)"><path d="m2.36033058 2.45867769v115.06611531c11.30991732-4.032231 21.43966942-10.719834 29.50413222-19.2760327 8.5561984-7.7694215 15.0471074-23.0132231 15.0471074-23.0132231 3.638843-8.7528926 5.7041323-18.3909091 5.7041323-28.5206612v-27.7338843z"/><path d="m2.36033058 119c-.29504132 0-.59008265-.098347-.88512397-.295041-.39338843-.295042-.59008264-.68843-.59008264-1.180166v-115.06611531c0-.49173554.19669421-.88512397.59008264-1.18016529.39338843-.29504133.88512397-.39338843 1.2785124-.19669422l50.35371899 16.52231402c.5900827.1966942.9834711.7867769.9834711 1.3768595v27.7338843c0 10.031405-1.9669422 19.7677686-5.8024793 29.1107438-.2950414.6884298-6.6876034 15.6371901-15.3421488 23.5049587-8.261157 8.7528925-18.6859504 15.5388425-29.99586778 19.5710745-.29504132.098347-.39338843.098347-.59008264.098347zm1.47520661-114.47603306v110.93553706c10.12975211-3.933884 19.47272731-10.228099 26.94710741-18.1942147 0 0 .0983471-.0983472.0983471-.0983472 8.2611571-7.4743801 14.653719-22.3247933 14.653719-22.5214876 3.7371901-8.9495867 5.6057852-18.2925619 5.6057852-27.9305785v-26.6520661z" fill-rule="nonzero"/></g><circle cx="51.443802" cy="58.033058" fill="#2860DD" r="28.323967"/><circle cx="51.148761" cy="86.258678" fill="#fff" r="21.341322"/><circle cx="51.443802" cy="58.033058" r="28.323967"/><circle cx="51.443802" cy="47.41157" fill="#fff" r="8.16281"/></g></svg>