<svg enable-background="new 0 0 120 120" viewBox="0 0 120 120" xmlns="http://www.w3.org/2000/svg"><g fill="none" fill-rule="evenodd" transform="translate(-1.5 -4.565541)"><path d="m28.3827293 93.8907607c20.628292 30.4721803 83.3738027 22.6767163 86.0804367-28.4254641 0-27.2652678-22.1028665-49.3681344-49.3681343-49.3681344s-49.3681344 22.1028666-49.3681344 49.3681344" stroke="#bdc5d1" stroke-width="3.537838" transform="matrix(.91354546 .40673664 -.40673664 .91354546 31.634566 -20.948618)"/><path d="m5.74890158 78.6720938 14.18497452-23.8262817c.249881-.4197212.7927007-.5574038 1.2124219-.3075229.1263575.0752269.2319639.1807728.3072633.3070871l14.203488 23.8262818c.2501216.4195777.1127502.9624764-.3068276 1.212598-.1369576.0816441-.2934388.1247466-.4528852.1247466h-28.38846255c-.48847347 0-.88445946-.3959859-.88445946-.8844594 0-.1592743.04300958-.315593.12448709-.4524495z" fill="#bdc5d1"/><path d="m47.2737003 93.1273202 35.6426628-36.3818308h-14.0781087l14.0781087-21.9924935-31.6974407 27.8076469h13.8761093z" fill="#2860DD"/></g></svg>