<svg enable-background="new 0 0 120 120" viewBox="0 0 120 120" xmlns="http://www.w3.org/2000/svg"><g fill="none"><g transform="translate(27.4,27.4)"><path d="M 32.6 0 c 16.4 0 29.9 12.1 32.2 27.9 l -3.8 0.6 c -2 -13.9 -14 -24.7 -28.5 -24.7 c -0.1 0 -0.2 0 -0.3 0 l -0.6 -3.8 c 0.3 0 0.6 0 0.9 0 z" fill="#bdc5d1"/><path d="M 32.6 7.7 c 13.8 0 25 11.2 25 25 c 0 13.8 -11.2 25 -25 25 c -13.8 0 -25 -11.2 -25 -25 c 0 -13.8 11.2 -25 25 -25 z" fill="#2860DD"/><g fill="#bdc5d1"><path d="M 0 32.6 c 0 -16.4 12.1 -29.9 27.9 -32.2 l 0.6 3.8 c -13.9 2 -24.7 14 -24.7 28.5 c 0 0.1 0 0.2 0 0.3 l -3.8 0.6 c 0 -0.3 0 -0.6 0 -0.9 z"/><path d="M 32.6 65.3 c -16.4 0 -29.9 -12.1 -32.2 -27.9 l 3.8 -0.6 c 2 13.9 14 24.7 28.5 24.7 c 15.9 0 28.8 -12.9 28.8 -28.8 c 0 -0.1 0 -0.2 0 -0.3 l 3.8 -0.6 c 0 0.3 0 0.6 0 0.9 c 0 18 -14.6 32.6 -32.6 32.6 z"/><path d="M 53.6 62.4 c 3.4 -2.4 6.4 -5.4 8.8 -8.8 l 3 3 l -8.8 8.8 z"/><path d="M 82.1 88.3 c -1.7 0 -3.2 -0.6 -4.4 -1.8 l -18.3 -18.3 l 8.8 -8.8 l 18.3 18.3 c 1.2 1.2 1.8 2.7 1.8 4.4 c 0 3.4 -2.8 6.2 -6.2 6.2 z"/></g></g><g transform="translate(85,0.5)"><path d="M 17.3 34.5 c 9.5 0 17.3 -7.7 17.3 -17.3 c 0 -9.5 -7.7 -17.3 -17.3 -17.3 c -9.5 0 -17.3 7.7 -17.3 17.3 c 0 9.5 7.7 17.3 17.3 17.3 z" fill="#bdc5d1"/><path d="M 17.3 30.7 c 7.4 0 13.4 -6 13.4 -13.4 c 0 -7.4 -6 -13.4 -13.4 -13.4 c -7.4 0 -13.4 6 -13.4 13.4 c 0 7.4 6 13.4 13.4 13.4 z" fill="#2860DD"/><g fill="#ffffff"><path d="M 23 29.4 c -1.7 0.8 -3.7 1.3 -5.8 1.3 c -2.1 0 -4 -0.5 -5.8 -1.3 v -2.5 c 0 -3.2 2.6 -5.8 5.8 -5.8 c 3.2 0 5.8 2.6 5.8 5.8 z"/><path d="M 13.4 13.4 c 0 -2.1 1.7 -3.8 3.8 -3.8 c 2.1 0 3.8 1.7 3.8 3.8 s -1.7 3.8 -3.8 3.8 c -2.1 0 -3.8 -1.7 -3.8 -3.8 z"/><path d="M 17.3 3.8 c 7.4 0 13.4 6 13.4 13.4 c 0 3.7 -1.5 7 -3.9 9.4 c -0.1 -3.2 -1.7 -6.1 -4.2 -7.8 c 1.4 -1.4 2.3 -3.3 2.3 -5.5 c 0 -4.2 -3.4 -7.7 -7.7 -7.7 c -4.2 0 -7.7 3.4 -7.7 7.7 c 0 2.1 0.9 4.1 2.3 5.5 c -2.5 1.7 -4.2 4.5 -4.2 7.8 c -2.4 -2.4 -3.9 -5.7 -3.9 -9.4 c 0 -7.4 6 -13.4 13.4 -13.4 z"/></g></g><g transform="translate(0.5,0.5)"><path d="M 17.3 34.5 c 9.5 0 17.3 -7.7 17.3 -17.3 c 0 -9.5 -7.7 -17.3 -17.3 -17.3 c -9.5 0 -17.3 7.7 -17.3 17.3 c 0 9.5 7.7 17.3 17.3 17.3 z" fill="#bdc5d1"/><path d="M 17.3 30.7 c 7.4 0 13.4 -6 13.4 -13.4 c 0 -7.4 -6 -13.4 -13.4 -13.4 c -7.4 0 -13.4 6 -13.4 13.4 c 0 7.4 6 13.4 13.4 13.4 z" fill="#2860DD"/><g fill="#ffffff"><path d="M 23 29.4 c -1.7 0.8 -3.7 1.3 -5.8 1.3 c -2.1 0 -4 -0.5 -5.8 -1.3 v -2.5 c 0 -3.2 2.6 -5.8 5.8 -5.8 c 3.2 0 5.8 2.6 5.8 5.8 z"/><path d="M 13.4 13.4 c 0 -2.1 1.7 -3.8 3.8 -3.8 c 2.1 0 3.8 1.7 3.8 3.8 s -1.7 3.8 -3.8 3.8 c -2.1 0 -3.8 -1.7 -3.8 -3.8 z"/><path d="M 17.3 3.8 c 7.4 0 13.4 6 13.4 13.4 c 0 3.7 -1.5 7 -3.9 9.4 c -0.1 -3.2 -1.7 -6.1 -4.2 -7.8 c 1.4 -1.4 2.3 -3.3 2.3 -5.5 c 0 -4.2 -3.4 -7.7 -7.7 -7.7 c -4.2 0 -7.7 3.4 -7.7 7.7 c 0 2.1 0.9 4.1 2.3 5.5 c -2.5 1.7 -4.1 4.5 -4.2 7.8 c -2.4 -2.4 -3.9 -5.7 -3.9 -9.4 c 0 -7.4 6 -13.4 13.4 -13.4 z"/></g></g><g transform="translate(0.5,85)"><path d="M 17.3 0 c -9.5 0 -17.3 7.7 -17.3 17.3 c 0 9.5 7.7 17.3 17.3 17.3 c 9.5 0 17.3 -7.7 17.3 -17.3 c 0 -9.5 -7.7 -17.3 -17.3 -17.3 z" fill="#bdc5d1"/><path d="M 17.3 3.8 c -7.4 0 -13.4 6 -13.4 13.4 c 0 7.4 6 13.4 13.4 13.4 c 7.4 0 13.4 -6 13.4 -13.4 c 0 -7.4 -6 -13.4 -13.4 -13.4 z" fill="#2860DD"/><g fill="#ffffff"><path d="M 23 29.4 c -1.7 0.8 -3.7 1.3 -5.8 1.3 c -2.1 0 -4 -0.5 -5.8 -1.3 v -2.5 c 0 -3.2 2.6 -5.8 5.8 -5.8 c 3.2 0 5.8 2.6 5.8 5.8 z"/><path d="M 13.4 13.4 c 0 -2.1 1.7 -3.8 3.8 -3.8 c 2.1 0 3.8 1.7 3.8 3.8 s -1.7 3.8 -3.8 3.8 c -2.1 0 -3.8 -1.7 -3.8 -3.8 z"/><path d="M 26.9 26.7 c -0.1 -3.2 -1.7 -6.1 -4.2 -7.8 c 1.4 -1.4 2.3 -3.3 2.3 -5.5 c 0 -4.2 -3.4 -7.7 -7.7 -7.7 c -4.2 0 -7.7 3.4 -7.7 7.7 c 0 2.1 0.9 4.1 2.3 5.5 c -2.5 1.7 -4.1 4.5 -4.2 7.8 c -2.4 -2.4 -3.9 -5.7 -3.9 -9.4 c 0 -7.4 6 -13.4 13.4 -13.4 c 7.4 0 13.4 6 13.4 13.4 c 0 3.7 -1.5 7 -3.9 9.4 z"/></g></g></g></svg>