<svg enable-background="new 0 0 120 120" viewBox="0 0 120 120" xmlns="http://www.w3.org/2000/svg"><g fill="none" transform="translate(.5 4.466667)"><path d="m104.085333 7.25106667h-9.551733-46.9812-9.4406667l-13.328 6.66400003v2.6656 3.2209333 6.2197333l13.328 3.1098667-13.328 6.7750667v2.5545333 3.2209333 6.2197334l13.328 3.1098666-13.328 6.7750667v2.5545333 3.332 6.2197334l13.328 3.1098666-13.328 6.664v2.6656 3.2209334 6.2197333l13.328 3.1098667h9.4406667 46.9812 9.551733l13.328-3.1098667v-6.2197333-3.2209334-2.6656l-13.328-6.664 13.328-3.1098666v-6.2197334-3.332-2.5545333l-13.328-6.7750667 13.328-3.1098666v-6.2197334-3.2209333-2.5545333l-13.328-6.7750667 13.328-3.1098667v-6.2197333-3.2209333-2.6656z" fill="#e5e8ed"/><path d="m90.8684 1.4756h-9.4406667-47.0922666-9.4406667l-13.328 6.77506667v2.55453333 3.2209333 6.3308l13.328 3.1098667h9.4406667 47.0922666 9.4406667l13.328-3.1098667v-6.3308-3.2209333-2.55453333z" fill="#fff" stroke="#bdc5d1" stroke-width="3.332"/><g fill="#377dff"><path d="m27.8936 105.989333c-1.3328 0-2.4434667-1.221733-2.4434667-2.776666v-12.3284003c0-1.5549334 1.1106667-2.7766667 2.4434667-2.7766667 1.3328 0 2.4434667 1.2217333 2.4434667 2.7766667v12.3284003c0 1.554933-.9996 2.776666-2.4434667 2.776666z"/><path d="m58.8812 105.989333c-1.3328 0-2.4434667-1.221733-2.4434667-2.776666v-12.3284003c0-1.5549334 1.1106667-2.7766667 2.4434667-2.7766667 1.3328 0 2.4434667 1.2217333 2.4434667 2.7766667v12.3284003c0 1.554933-1.1106667 2.776666-2.4434667 2.776666z"/><path d="m87.9806667 105.989333c-1.3328 0-2.4434667-1.221733-2.4434667-2.776666v-12.3284003c0-1.5549334 1.1106667-2.7766667 2.4434667-2.7766667 1.3328 0 2.4434666 1.2217333 2.4434666 2.7766667v12.3284003c.1110667 1.554933-.9996 2.776666-2.4434666 2.776666z"/><path d="m29.8928 13.2486667c0 1.666-1.3328 2.9988-2.9988 2.9988s-2.9988-1.3328-2.9988-2.9988 1.3328-2.9988 2.9988-2.9988c1.5549333-.1110667 2.9988 1.3328 2.9988 2.9988z"/><path d="m91.0905333 13.2486667c0 1.666-1.3328 2.9988-2.9988 2.9988s-2.9988-1.3328-2.9988-2.9988 1.3328-2.9988 2.9988-2.9988c1.5549334-.1110667 2.9988 1.3328 2.9988 2.9988z"/></g><path d="m90.8684 23.4668h-9.4406667-47.0922666-9.4406667l-13.328 6.664v2.6656 3.2209333 6.2197334l13.328 3.1098666h9.4406667 47.0922666 9.4406667l13.328-3.1098666v-6.2197334-3.2209333-2.6656z" fill="#fff" stroke="#bdc5d1" stroke-width="3.332"/><path d="m29.8928 35.1288c0 1.666-1.3328 2.9988-2.9988 2.9988s-2.9988-1.3328-2.9988-2.9988 1.3328-2.9988 2.9988-2.9988 2.9988 1.3328 2.9988 2.9988z" fill="#377dff"/><path d="m91.0905333 35.1288c0 1.666-1.3328 2.9988-2.9988 2.9988s-2.9988-1.3328-2.9988-2.9988 1.3328-2.9988 2.9988-2.9988c1.5549334 0 2.9988 1.3328 2.9988 2.9988z" fill="#377dff"/><path d="m90.8684 45.3469333h-9.4406667-47.0922666-9.4406667l-13.328 6.664v2.6656 3.2209334 6.2197333l13.328 3.1098667h9.4406667 47.0922666 9.4406667l13.328-3.1098667v-6.2197333-3.2209334-2.6656z" fill="#377dff" stroke="#377dff" stroke-width="3.332"/><path d="m29.8928 57.0089333c0 1.666-1.3328 2.9988-2.9988 2.9988s-2.9988-1.3328-2.9988-2.9988 1.3328-2.9988 2.9988-2.9988 2.9988 1.3328 2.9988 2.9988z" fill="#fff"/><path d="m91.0905333 57.0089333c0 1.666-1.3328 2.9988-2.9988 2.9988s-2.9988-1.3328-2.9988-2.9988 1.3328-2.9988 2.9988-2.9988c1.5549334 0 2.9988 1.3328 2.9988 2.9988z" fill="#fff"/><path d="m90.8684 67.2270667h-9.4406667-47.0922666-9.4406667l-13.328 6.7750666v2.5545334 3.2209333 6.2197333l13.328 3.1098667h9.4406667 47.0922666 9.4406667l13.328-3.1098667v-6.2197333-3.2209333-2.5545334z" fill="#fff" stroke="#bdc5d1" stroke-width="3.332"/><path d="m29.8928 79.0001333c0 1.666-1.3328 2.9988-2.9988 2.9988s-2.9988-1.3328-2.9988-2.9988 1.3328-2.9988 2.9988-2.9988 2.9988 1.2217334 2.9988 2.9988z" fill="#377dff"/><path d="m91.0905333 79.0001333c0 1.666-1.3328 2.9988-2.9988 2.9988s-2.9988-1.3328-2.9988-2.9988 1.3328-2.9988 2.9988-2.9988c1.5549334-.1110666 2.9988 1.2217334 2.9988 2.9988z" fill="#377dff"/><path d="m113.303867 108.654933h-109.067467c-2.11026667 0-3.77626667-1.777066-3.77626667-3.887333 0-2.110267 1.666-3.887333 3.77626667-3.887333h108.9564c2.110267 0 3.776267 1.777066 3.776267 3.887333.111066 2.221333-1.554934 3.887333-3.6652 3.887333z" fill="#bdc5d1" opacity=".7"/><path d="m33.6690667 104.7676c0 3.220933-2.6656 5.886533-5.8865334 5.886533-3.2209333 0-5.8865333-2.6656-5.8865333-5.886533s2.6656-5.8865333 5.8865333-5.8865333c3.2209334 0 5.8865334 2.6656003 5.8865334 5.8865333z" fill="#fff" stroke="#377dff" stroke-width="3.332"/><path d="m64.6566667 104.7676c0 3.220933-2.6656 5.886533-5.8865334 5.886533-3.2209333 0-5.8865333-2.6656-5.8865333-5.886533s2.6656-5.8865333 5.8865333-5.8865333c3.2209334 0 5.8865334 2.6656003 5.8865334 5.8865333z" fill="#fff" stroke="#377dff" stroke-width="3.332"/><path d="m93.8672 104.7676c0 3.220933-2.6656 5.886533-5.8865333 5.886533-3.2209334 0-5.8865334-2.6656-5.8865334-5.886533s2.6656-5.8865333 5.8865334-5.8865333c3.2209333 0 5.8865333 2.6656003 5.8865333 5.8865333z" fill="#fff" stroke="#377dff" stroke-width="3.332"/></g></svg>