<svg enable-background="new 0 0 120 120" viewBox="0 0 120 120" xml:space="preserve" xmlns="http://www.w3.org/2000/svg"><g fill="none" fill-rule="evenodd" transform="translate(12 .5)"><path d="m30.4350125 1.95482546h60.2200183c2.6990507 0 4.8870637 2.18801293 4.8870637 4.88706366v107.14887088c0 2.69905-2.188013 4.887063-4.8870637 4.887063h-83.81314168c-2.69905073 0-4.88706366-2.188013-4.88706366-4.887063v-83.1562673c0-.5775125.22716825-1.1318491.63243955-1.5432807l26.28100839-26.6804886c.4133387-.41962158.9777305-.65589794 1.5667391-.65589794z" fill="#dee2e8"/><path d="m3.31452804 31.9317929h26.52566276c.7701066 0 1.3944014-.6242948 1.3944014-1.3944014v-27.11775343c0-.77010665-.6242948-1.39440144-1.3944014-1.39440144-.3751543 0-.7344828.1511673-.9968129.41935302l-26.52566276 27.11775345c-.53850437.5505245-.52876008 1.4333569.02176448 1.9718613.2605609.2548718.61056027.3975885.97504842.3975885z" fill="#bdc5d1"/><text fill="#377dff" font-family="Barlow-SemiBold, Barlow SemiBold" font-size="33.476386" font-weight="500">                 <tspan x="18.693019" y="83.581109">CSV</tspan>             </text></g></svg>