<svg enable-background="new 0 0 120 120" viewBox="0 0 120 120" xmlns="http://www.w3.org/2000/svg"><g fill="none" transform="translate(.5 .5)"><g fill="#bdc5d1" transform="translate(26.045915 3.050423)"><path d="m8.33258113 12.290387-2.5876969-2.58746221 3.32707239-3.51174028-3.32707239-3.51197493 2.5876969-2.58746226 6.09943717 6.09943719z"/><path d="m.19992 4.342863h11.459499v3.696643h-11.459499z"/></g><path d="m46.946941 101.471836h24.397514v14.971239h-24.397514z" fill="#2860DD"/><path d="m71.3444555 118.291397h-24.3975141c-1.1089459 0-1.8483214-.739376-1.8483214-1.848322v-14.971239c0-1.108946.7393755-1.8483211 1.8483214-1.8483211h24.3975141c1.1089459 0 1.8483214.7393751 1.8483214 1.8483211v14.971239c0 1.108946-.7393755 1.848322-1.8483214 1.848322zm-22.5491927-3.696643h20.7011059v-11.274596h-20.7011059z" fill="#bdc5d1"/><path d="m46.946941 76.519849h24.397514v14.971239h-24.397514z" fill="#2860DD"/><path d="m71.3444555 93.3394099h-24.3975141c-1.1089459 0-1.8483214-.7393755-1.8483214-1.8483214v-14.9712392c0-1.1089459.7393755-1.8483214 1.8483214-1.8483214h24.3975141c1.1089459 0 1.8483214.7393755 1.8483214 1.8483214v14.9712392c0 1.1089459-.7393755 1.8483214-1.8483214 1.8483214zm-22.5491927-3.6966429h20.7011059v-11.2745963h-20.7011059z" fill="#bdc5d1"/><path d="m46.946941 51.75253h24.397514v14.971239h-24.397514z" fill="#2860DD"/><path d="m71.3444555 68.3871882h-24.3975141c-1.1089459 0-1.8483214-.7393755-1.8483214-1.8483214v-14.9712392c0-1.1089459.7393755-1.8483214 1.8483214-1.8483214h24.3975141c1.1089459 0 1.8483214.7393755 1.8483214 1.8483214v14.9712392c0 1.1089459-.7393755 1.8483214-1.8483214 1.8483214zm-22.5491927-3.6966428h20.7011059v-11.2745964h-20.7011059z" fill="#bdc5d1"/><path d="m46.946941 26.800309h24.397514v14.971239h-24.397514z" fill="#e5e8ed"/><path d="m71.3444555 43.619869h-24.3975141c-1.1089459 0-1.8483214-.7393755-1.8483214-1.8483214v-14.9712391c0-1.108946.7393755-1.8483215 1.8483214-1.8483215h24.3975141c1.1089459 0 1.8483214.7393755 1.8483214 1.8483215v14.9712391c0 .924278-.7393755 1.8483214-1.8483214 1.8483214zm-22.5491927-3.6964082h20.7011059v-11.2745963h-20.7011059z" fill="#bdc5d1"/><path d="m46.946941 1.848321h24.397514v14.971239h-24.397514z" fill="#e5e8ed"/><g fill="#bdc5d1" transform="translate(1.173239)"><path d="m70.1712161 18.667882h-24.3975141c-1.1089459 0-1.8483214-.7393755-1.8483214-1.8483214v-14.97123919c0-1.10894592.7393755-1.84832141 1.8483214-1.84832141h24.3975141c1.1089459 0 1.8483214.73937549 1.8483214 1.84832141v14.97123919c0 .9240433-.7393755 1.8483214-1.8483214 1.8483214zm-22.5491927-3.6966428h20.7011059v-11.27459638h-20.7011059z"/><path d="m78.3038772 114.410086-2.5876969-2.587697 3.3268377-3.327072-3.3268377-3.51174 2.5876969-2.587463 5.9145346 6.099203z"/><path d="m70.171216 106.646995h11.459499v3.696643h-11.459499z"/><path d="m34.6837735 113.670711-2.7723648-2.587697 3.5117403-3.51174-3.5117403-3.511741 2.7723648-2.587697 5.9145347 6.099438z"/><path d="m37.8259434 109.419595h-24.0279437c-7.5779535 0-13.67739069-6.099437-13.67739069-13.6773908 0-7.5779535 6.28433972-13.4927228 13.86229329-13.4927228h31.7907997v3.6966428h-31.7907997c-5.54496427 0-9.98074793 4.4360183-9.98074793 9.9807479 0 5.5447299 4.43601831 9.9807479 9.98074793 9.9807479h24.0279436v3.511975z"/><path d="m34.6837735 63.766502-2.7723648-2.5876969 3.5117403-3.3268378-3.5117403-3.5117403 2.7723648-2.5876969 5.9145347 6.0994372z"/><path d="m37.8259434 59.7002887h-24.0279437c-7.5779535 0-13.67739069-6.0994372-13.67739069-13.6773907s6.28433972-13.6773907 13.86229329-13.6773907h31.7907997v3.6964082h-31.7907997c-5.54496427 0-9.98074793 4.4360183-9.98074793 9.9807479s4.43601831 9.9807479 9.98074793 9.9807479h24.0279436v3.6968774z"/><path d="m81.2611445 89.642767-5.9145346-6.0994371 5.9145346-5.9145347 2.7723648 2.5874623-3.5117403 3.3270724 3.5117403 3.5117402z"/><path d="m101.962016 85.3916513h-24.0279439v-3.6966428h24.0279439c5.544964 0 9.980748-4.4360184 9.980748-9.9807479v-.9240434c0-5.5449642-4.436019-9.9807479-9.980748-9.9807479h-31.7907999v-3.6966428h31.7907999c7.577953 0 13.67739 6.0994372 13.67739 13.6773907v.9240434c0 7.5779535-6.099202 13.6773907-13.67739 13.6773907z"/><path d="m81.2611445 39.9234608-5.9145346-6.0994371 5.9145346-6.0994372 2.7723648 2.5876969-3.5117403 3.5117403 3.5117403 3.5117402z"/><path d="m101.962016 35.6723451h-24.0279439v-3.6966428h24.0279439c5.544964 0 9.980748-4.4360184 9.980748-9.9807479v-.9240434c0-5.5449642-4.436019-9.9807479-9.980748-9.9807479h-31.7907999v-3.69687747h31.7907999c7.577953 0 13.67739 6.09943717 13.67739 13.67739067v.9240434c0 7.5781882-6.099202 13.6776254-13.67739 13.6776254z"/></g><path d="m92.045561 101.471836h24.397514v14.971239h-24.397514z" fill="#2860DD"/><path d="m116.443075 118.291397h-24.3975136c-1.1089459 0-1.8483214-.739376-1.8483214-1.848322v-14.971239c0-1.108946.7393755-1.8483211 1.8483214-1.8483211h24.3975136c1.108946 0 1.848322.7393751 1.848322 1.8483211v14.971239c0 1.108946-.739376 1.848322-1.848322 1.848322zm-22.5491922-3.696643h20.7011062v-11.274596h-20.7011062z" fill="#bdc5d1"/><path d="m1.848321 1.848321h24.397514v14.971239h-24.397514z" fill="#e5e8ed"/><path d="m26.2458355 18.667882h-24.39751409c-1.10894592 0-1.84832141-.7393755-1.84832141-1.8483214v-14.97123919c0-1.10894592.73937549-1.84832141 1.84832141-1.84832141h24.39751409c1.1089459 0 1.8483214.73937549 1.8483214 1.84832141v14.97123919c0 .9240433-.7393755 1.8483214-1.8483214 1.8483214zm-22.54919268-3.6966428h20.70110588v-11.27459638h-20.70110588z" fill="#bdc5d1"/></g></svg>