<svg height="55" viewBox="0 0 58 55" width="58" xmlns="http://www.w3.org/2000/svg"><g fill="none" fill-rule="evenodd" transform="translate(1)"><path d="m2.75333333 40.0866667c-2.47333333-1.4-2.47333333-3.7333334 0-5.1333334l20.71999997-11.9933333c2.4733334-1.4 6.44-1.4 8.9133334 0l20.7666666 11.9933333c2.4733334 1.4 2.4733334 3.7333334 0 5.1333334l-20.72 11.9933333c-2.4733333 1.4-6.44 1.4-8.9133333 0z" stroke="#bdc5d1" stroke-linecap="round" stroke-linejoin="round" stroke-width="3"/><g fill-rule="nonzero"><path d="m2.19333333 29.2133333c-2.52-1.4466666-2.52-3.8266666 0-5.2733333l21.23333337-12.2266667c2.52-1.4466666 6.6266666-1.4466666 9.1 0l21.2333333 12.2266667c2.52 1.4466667 2.52 3.8266667 0 5.2733333l-21.1866667 12.2266667c-2.52 1.4466667-6.6266666 1.4466667-9.1 0z" fill="#bdc5d1" opacity=".5"/><path d="m2.19333333 18.6666667c-2.52-1.4466667-2.52-3.8266667 0-5.2733334l21.23333337-12.22666663c2.52-1.44666667 6.6266666-1.44666667 9.1 0l21.2333333 12.22666663c2.52 1.4466667 2.52 3.8266667 0 5.2733334l-21.1866667 12.2733333c-2.52 1.4466667-6.6266666 1.4466667-9.1 0z" fill="#2860DD"/></g></g></svg>