<svg height="51" viewBox="0 0 58 51" width="58" xmlns="http://www.w3.org/2000/svg"><g fill="none" fill-rule="evenodd" transform="translate(2 2)"><path d="m8.61176471 17.2705882h-.65882353c-2.21176471 0-4 1.7882353-4 4v23.2470589c0 2.2117647 1.78823529 4 4 4h44.00000002c2.2117647 0 4-1.7882353 4-4v-23.2c0-2.2117647-1.7882353-4-4-4h-2.9176471" fill="#bdc5d1" fill-rule="nonzero" opacity=".5"/><path d="m4.98823529 12.1882353h-.65882353c-2.2117647 0-3.99999999 1.7882353-3.99999999 4v23.2470588c0 2.2117647 1.78823529 4 3.99999999 4h44.00000004c2.2117647 0 4-1.7882353 4-4v-23.2470588c0-2.2117647-1.7882353-4-4-4h-2.9176471" style="stroke:#bdc5d1;stroke-width:3;fill:#fff;fill-rule:nonzero;stroke-linecap:round;stroke-linejoin:round"/><path d="m17.7882353 21.8352941v16.2352941c0 .7529412-.6117647 1.4117647-1.4117647 1.4117647h-10.21176472c-.75294117 0-1.4117647-.6117647-1.4117647-1.4117647v-16.2352941c0-.7529412.6117647-1.4117647 1.4117647-1.4117647h10.21176472c.8 0 1.4117647.6117647 1.4117647 1.4117647z" fill="#bdc5d1" fill-rule="nonzero" opacity=".5"/><path d="m15.8588235 23.7176471v16.2352941c0 .7529412-.6117647 1.4117647-1.4117647 1.4117647h-10.21176468c-.75294118 0-1.41176471-.6117647-1.41176471-1.4117647v-16.2352941c0-.7529412.61176471-1.4117647 1.41176471-1.4117647h10.21176468c.8 0 1.4117647.6117647 1.4117647 1.4117647z" fill="#2860DD" fill-rule="nonzero"/><g stroke-linecap="round" stroke-linejoin="round"><path d="m11.6235294 38.3058824v1.9764705" opacity=".5" stroke="#fff" stroke-width="3"/><path d="m12.9882353 36.2352941v4.0470588" opacity=".5" stroke="#fff" stroke-width="3"/><path d="m11.294118 23.388235h1.741176v3.811765h-1.741176z" opacity=".5" stroke="#fff" stroke-width="2"/><path d="m5.27058824 23.4352941v16.8470588" stroke="#fff" stroke-width="3"/><path d="m8.42352941 23.4352941v16.8470588" stroke="#fff" stroke-width="3"/><path d="m5.83529412 15.7176471-1.36470588-10.58823534 37.88235296-4.98823529.8941176 6.82352941" fill="#fff" fill-rule="nonzero" stroke="#bdc5d1" stroke-width="3"/><path d="m7.24705882 17.6470588v-10.68235292h38.16470588v10.68235292" stroke="#2860DD" stroke-width="3"/></g><path d="m43.9058824 17.0352941v-5.1294117c-1.4588236 0-2.5882353-1.2235295-2.5882353-2.72941181v-.04705883h-26.3529412v.04705883c0 1.50588231-1.1764706 2.72941181-2.5882353 2.72941181v5.1294117" fill="#bdc5d1" fill-rule="nonzero" opacity=".5"/><path d="m42.1176471 18.3058824v-4.9411765c-1.4588236 0-2.5882353-1.1764706-2.5882353-2.5882353v-.0470588h-26.3529412v.0470588c0 1.4588235-1.1764706 2.5882353-2.5882353 2.5882353v4.9411765" fill="#2860DD" fill-rule="nonzero"/><path d="m31.6235294 18.3058824c-.7529412-2.2117648-2.8235294-3.8117648-5.2705882-3.8117648s-4.5176471 1.6-5.2705883 3.8117648" stroke="#fff" stroke-linecap="round" stroke-linejoin="round" stroke-width="3"/><path d="m47.9529412 17.6470588h-43.24705885" stroke="#bdc5d1" stroke-linecap="round" stroke-linejoin="round" stroke-width="3"/><path d="m52.3294118 23.1058824h-2.0705883l-1.1764706 2.4941176h-14.8235294l-1.1294117-2.4941176h-2.1176471" opacity=".5" stroke="#bdc5d1" stroke-linecap="round" stroke-linejoin="round" stroke-width="3"/><path d="m52.3294118 27.5764706h-2.0705883l-1.1764706 2.4941176h-14.8235294l-1.1294117-2.4941176h-2.1176471" opacity=".5" stroke="#bdc5d1" stroke-linecap="round" stroke-linejoin="round" stroke-width="3"/><path d="m52.3294118 32.0941176h-2.0705883l-1.1764706 2.4941177h-14.8235294l-1.1294117-2.4941177h-2.1176471" opacity=".5" stroke="#bdc5d1" stroke-linecap="round" stroke-linejoin="round" stroke-width="3"/><path d="m19.1058824 43.4823529v-7.1529411l-18.82352946-7.0117647v10.1647058c0 2.2117647 1.7882353 3.9529412 3.95294118 3.9529412h14.87058828z" style="stroke:#bdc5d1;stroke-width:3;fill:#fff;fill-rule:nonzero;stroke-linecap:round;stroke-linejoin:round"/></g></svg>