<svg enable-background="new 0 0 120 120" viewBox="0 0 120 120" xmlns="http://www.w3.org/2000/svg"><g fill="none" fill-rule="evenodd" transform="translate(.5 9.5)"><rect height="26" rx="6" stroke="#bdc5d1" stroke-width="8" width="39" x="40"/><rect fill="#dee2e8" height="85.5" rx="10" width="119" y="14.534483"/><path d="m78.404789 64.3709231h-10.8183486c-.5522848 0-1 .4477153-1 1v10.8183486c0 .5522848-.4477153 1-1 1h-12.1728808c-.5522847 0-1-.4477152-1-1v-10.8183486c0-.5522847-.4477152-1-1-1h-10.8183486c-.5522847 0-1-.4477152-1-1v-12.1728807c0-.5522848.4477153-1 1-1h10.8183486c.5522848 0 1-.4477153 1-1v-10.8183486c0-.5522848.4477153-1 1-1h12.1728808c.5522847 0 1 .4477152 1 1v10.8183486c0 .5522847.4477152 1 1 1h10.8183486c.5522847 0 1 .4477152 1 1v12.1728807c0 .5522848-.4477153 1-1 1z" fill="#377dff" fill-rule="nonzero"/><g fill="#fff"><path d="m15.5 14.534483h7v85.5h-7z"/><path d="m96.5 14.534483h7v85.5h-7z"/></g></g></svg>