<svg enable-background="new 0 0 120 120" viewBox="0 0 120 120" xmlns="http://www.w3.org/2000/svg"><g fill="none" transform="translate(12.5 3)"><rect height="75.050633" rx=".974684" stroke="#dee2e8" stroke-width="4.873418" width="61.01519" x="-2.241772" y="37.33038"/><path d="m4.873418 44.44557h35.088608v4.678481h-35.088608z" fill="#bdc5d1"/><path d="m44.640506 44.44557h7.017722v4.678481h-7.017722z" fill="#3a96e2"/><path d="m4.873418 53.802532h23.392405v4.678481h-23.392405z" fill="#3a96e2"/><path d="m32.944304 53.802532h18.713924v4.678481h-18.713924z" fill="#bdc5d1"/><path d="m4.873418 63.159494h7.017722v4.678481h-7.017722z" fill="#3a96e2"/><g fill="#bdc5d1"><path d="m16.56962 63.159494h35.088608v4.678481h-35.088608z"/><path d="m16.56962 91.23038h35.088608v4.678481h-35.088608z"/><path d="m4.873418 91.23038h7.017722v4.678481h-7.017722z"/><path d="m28.265823 81.873418h23.392405v4.678481h-23.392405z"/></g><path d="m4.873418 81.873418h18.713924v4.678481h-18.713924z" fill="#3a96e2"/><path d="m44.640506 72.516456h7.017722v4.678481h-7.017722z" fill="#3a96e2"/><path d="m4.873418 72.516456h35.088608v4.678481h-35.088608z" fill="#bdc5d1"/><path d="m4.873418 100.587342h21.053165v4.678481h-21.053165z" fill="#bdc5d1"/><path d="m30.605063 100.587342h21.053165v4.678481h-21.053165z" fill="#3a96e2"/><path d="m96.1049671 0c-.0002924 0-.0008772 0-.0011696 0h-37.4278481c-1.2915532-.00029241-2.3389481 1.04651772-2.3392405 2.33807089v.00116962 21.05316459c-.0002924 1.2915531 1.0465177 2.3389481 2.3380708 2.3392405h.0011697 5.1901898l1.8982937 7.5852797c.2178418.8751684.9204912 1.5468228 1.8047241 1.7246051.1526354.0312873.3079025.0470772.4637544.0467848.7362759.0002924 1.4295683-.3465 1.8708076-.9354038l6.3165342-8.4212658h19.8835443c1.2915531.0002924 2.3389481-1.0465178 2.3392405-2.3380709 0-.0002924 0-.0008772 0-.0011696v-21.05316459c.0002924-1.29155317-1.0465177-2.3389481-2.3380709-2.33924051zm-2.3404101 21.0531646h-18.7139241c-.7362759-.0002924-1.4295683.3465-1.8708076.9354038l-4.068524 5.4255759-1.1491519-4.5892975c-.2602405-1.040962-1.1953519-1.7713898-2.2684785-1.7716822h-4.678481v-16.37468359h32.7493671z" fill="#dee2e8"/><path d="m65.693671 9.356962h14.035443v4.678481h-14.035443z" fill="#3a96e2"/><path d="m84.407595 9.356962h4.678481v4.678481h-4.678481z" fill="#3a96e2"/></g></svg>