<svg viewBox="0 0 60 67" xmlns="http://www.w3.org/2000/svg"><g fill="none" fill-rule="evenodd" transform="translate(-11.035148 -11)"><path d="m40.815148 69.6302961c15.9141669 0 28.8151481-12.9009812 28.8151481-28.8151481 0-15.9141668-12.9009812-28.815148-28.8151481-28.815148-15.9141668 0-28.815148 12.9009812-28.815148 28.815148" stroke="#377dff" stroke-linecap="round" stroke-linejoin="round" transform="matrix(.70710678 -.70710678 .70710678 .70710678 -16.906188 40.815148)"/><rect fill="#bdc5d1" height="5.416557" rx="1" width="8.824052" x="36.403122" y="72.528835"/><rect fill="#bdc5d1" height="19.9" rx="2" width="16.228481" x="32.700908" y="54.313794"/><path d="m32.700908 54.313794h16.228481v10.676067h-16.228481z" fill="#dee2e8"/><circle cx="40.815148" cy="40.815148" fill="#dee2e8" r="18.698832"/><path d="m43.430878 44.593794h6.075696v6.075696h-6.075696z" fill="#377dff"/><path d="m31.949905 31.69288h6.075696v6.075696h-6.075696z" fill="#377dff"/><g fill="#bdc5d1"><path d="m42.189327 30.700027h3.037848v3.037848h-3.037848z"/><path d="m27.924173 40.500577h3.037848v3.037848h-3.037848z"/><path d="m46.668023 30.700027h3.037848v3.037848h-3.037848z"/><path d="m32.402869 40.500577h3.037848v3.037848h-3.037848z"/><path d="m42.189327 35.076952h3.037848v3.037848h-3.037848z"/><path d="m27.924173 44.877502h3.037848v3.037848h-3.037848z"/><path d="m46.668023 35.076952h3.037848v3.037848h-3.037848z"/><path d="m32.402869 44.877502h3.037848v3.037848h-3.037848z"/><path d="m42.189327 39.453877h3.037848v3.037848h-3.037848z"/><path d="m46.668023 39.453877h3.037848v3.037848h-3.037848z"/><path d="m32.402869 49.254427h3.037848v3.037848h-3.037848z"/><path d="m36.402869 40.500577h3.037848v3.037848h-3.037848z"/><path d="m50.668023 35.076952h3.037848v3.037848h-3.037848z"/><path d="m36.402869 44.877502h3.037848v3.037848h-3.037848z"/><path d="m50.668023 39.453877h3.037848v3.037848h-3.037848z"/><path d="m36.402869 49.254427h3.037848v3.037848h-3.037848z"/></g><rect fill="#bdc1c7" height="1.833387" rx=".916694" width="27.215726" x="27.207285" y="64.073168"/><rect fill="#bdc1c7" height="1.833387" rx=".916694" width="27.215726" x="27.207285" y="68.420634"/></g></svg>