<svg width="161" height="160" xmlns="http://www.w3.org/2000/svg">
  <g fill="none" fill-rule="evenodd">
    <g transform="translate(.5)" stroke-width="3.357">
      <circle stroke="#EFEFF2" cx="80" cy="80" r="78.322"/>
      <circle stroke="#EFEFF2" cx="80" cy="80" r="59.86"/>
      <circle stroke="#FFF" fill="#E2A5AC" cx="10.35" cy="114.965" r="8.671"/>
    </g>
    <path d="M70 115a3.5 3.5 0 01-3.5-3.5V101h-14a7 7 0 01-7-7V52c0-3.885 3.15-7 7-7h56a7 7 0 017 7v42a7 7 0 01-7 7H87.15L74.2 113.985c-.7.665-1.575 1.015-2.45 1.015H70zm14-42V59h-7v14h7zm0 14v-7h-7v7h7z" fill="#E2A5AC" fill-rule="nonzero"/>
  </g>
</svg>
