<?xml version="1.0" encoding="UTF-8"?>
<svg width="50px" height="58px" viewBox="0 0 50 58" version="1.1" xmlns="http://www.w3.org/2000/svg" xmlns:xlink="http://www.w3.org/1999/xlink">
    <!-- Generator: Sketch 55.2 (78181) - https://sketchapp.com -->
    <title>cube/cyan</title>
    <desc>Created with Sketch.</desc>
    <g id="cube/cyan" stroke="none" stroke-width="1" fill="none" fill-rule="evenodd" opacity="0.752222842">
        <path d="M24.8658537,28.8866209 L0.300017624,43.0701082 L24.8658537,57.2505834 L49.4316897,43.0701082 L24.8658537,28.8866209 Z" id="Path" stroke="#6CF3F4" stroke-width="0.3" fill="#13B7D5" fill-rule="nonzero"></path>
        <path d="M24.7158537,28.6268133 L24.7158537,0.259811241 L0.15,14.4433087 L0.15,42.8103107 L24.7158537,28.6268133 Z" id="Path" stroke="#6CF3F4" stroke-width="0.3" fill="#47F9F7" fill-rule="nonzero"></path>
        <path d="M25.0158537,28.6268133 L49.5817073,42.8103107 L49.5817073,14.4433087 L25.0158537,0.259811241 L25.0158537,28.6268133 Z" id="Path" stroke="#6CF3F4" stroke-width="0.3" fill="#1BC9E8" fill-rule="nonzero"></path>
        <path d="M49.5817073,42.9835114 L49.5817073,14.6165186 L25.0158537,28.800016 L25.0158537,57.1639968 L49.5817073,42.9835114 Z" id="Path" stroke="#6CF3F4" stroke-width="0.3" fill="#21D5F5" fill-rule="nonzero"></path>
        <path d="M0.15,42.9835114 L24.7158537,57.1639968 L24.7158537,28.800016 L0.15,14.6165186 L0.15,42.9835114 Z" id="Path" stroke="#6CF3F4" stroke-width="0.3" fill="#31E6F1" fill-rule="nonzero"></path>
        <path d="M24.8658537,0.173206287 L0.299993731,14.3567073 L24.8658537,28.5402083 L49.4317136,14.3567073 L24.8658537,0.173206287 Z" id="Path" stroke="#6CF3F4" stroke-width="0.3" fill="#2FFFF8" fill-rule="nonzero"></path>
    </g>
</svg>